<?xml version="1.0" standalone="no"?>
<!DOCTYPE svg PUBLIC "-//W3C//DTD SVG 1.1//EN" "http://www.w3.org/Graphics/SVG/1.1/DTD/svg11.dtd" >
<svg xmlns="http://www.w3.org/2000/svg">
<metadata></metadata>
<defs>
<font id="amatic_scbold" horiz-adv-x="1165" >
<font-face units-per-em="2048" ascent="1638" descent="-410" />
<missing-glyph horiz-adv-x="449" />
<glyph unicode="&#xd;" horiz-adv-x="1057" />
<glyph unicode=" "  horiz-adv-x="449" />
<glyph unicode="&#x09;" horiz-adv-x="449" />
<glyph unicode="&#xa0;" horiz-adv-x="449" />
<glyph unicode="!" horiz-adv-x="534" d="M315 442l-7 -176q0 -197 -49.5 -196.5t-49.5 277.5l-1 526l-27 1041q0 50 42 86.5t84 36.5t64.5 -22.5t22.5 -55.5q0 -254 -39.5 -759t-39.5 -758zM229 -459q-79 20 -121 110q0 54 39 98.5t96.5 44.5t92 -45t34.5 -109q0 -112 -141 -121v22z" />
<glyph unicode="&#x22;" horiz-adv-x="757" d="M223 2046q70 0 78 -104q0 -138 -36.5 -315.5t-80.5 -177.5q-8 0 -16 226.5t-8 277.5t20 72t43 21zM448 1973q0 31 30 52t66.5 21t50.5 -73q-5 -152 -31 -338t-60 -186q-14 0 -35 203t-21 321z" />
<glyph unicode="#" horiz-adv-x="1232" d="M479 663q12 -2 109 -1.5t179 -5.5q31 276 33 420q-53 12 -137.5 12t-133.5 -9q-41 -148 -50 -416zM721 -543q-64 0 -64 70q0 253 42.5 556t55.5 418q-70 6 -211 6h-77q-11 -65 -41 -338q-70 -640 -132 -693q-8 -6 -25.5 -6t-40.5 21.5t-23 46.5q0 257 49.5 558.5 t60.5 396.5q-70 -8 -93 -8q-132 0 -132 102q0 71 149 72l96 -3q29 169 48 413q-60 -5 -79 -4q-150 0 -151 91v67l145 -2q50 0 97 5q6 54 28 194q42 271 42 438l-2 58q0 51 16.5 82t66.5 31l55 -73q0 -124 -26 -362t-28 -354q26 -6 81 -6h60q98 0 147 3q31 184 57 422t36 320 q37 48 71.5 48t60 -18.5t25.5 -55t-14.5 -143.5t-31 -200.5t-40 -218.5t-27.5 -154h102l67 -56q-22 -95 -84 -95h-104q-37 -164 -39 -404l33 1q132 0 132 -96q0 -79 -120 -79h-9q-14 -158 -66.5 -476.5t-66.5 -491.5q-3 -36 -32.5 -59.5t-63.5 -23.5z" />
<glyph unicode="$" horiz-adv-x="840" d="M344 -23l68 7q-3 191 -34 693l-12 179q-28 60 -73 145t-73.5 142t-58.5 131q-59 146 -59 287t42 251.5t133 140.5q-9 74 -9 102q0 88 48 89q48 -5 53 -38q5 -26 5 -81t10 -55q56 0 121 -42q6 -8 33.5 -32.5t44.5 -41.5q48 -48 48 -86q0 -42 -18 -57t-44.5 -15t-58 23 t-66.5 58.5t-63 52.5l5 -226q0 -133 16 -275q14 -141 16 -163q16 3 98 -190t129 -319q115 -302 115 -384t-16.5 -139t-42 -96.5t-58.5 -71.5q-57 -59 -122 -87q9 -169 9 -180q0 -124 -59 -124t-59 95v183q-138 0 -213 38t-75 145q0 26 19.5 46t45 20t41.5 -17.5t32 -50.5 q17 -32 28 -46zM508 17q99 84 99.5 176t-24.5 199q-33 146 -70 239.5t-42 107.5q3 -96 18.5 -342.5t18.5 -379.5zM291 1798q-65 -62 -65 -204t103 -314q-22 158 -38 518z" />
<glyph unicode="%" horiz-adv-x="1746" d="M535.5 706.5q-53.5 -21.5 -114.5 -21.5t-106 21t-75.5 62t-53.5 86t-36.5 111t-22 115.5t-11.5 120.5q-5 107 -4.5 187.5t12.5 171.5t38.5 197t82.5 178t129 72q354 0 354 -629q0 -26 2 -93t2.5 -111t-4 -112.5t-14.5 -115t-33.5 -99.5t-57.5 -86t-87.5 -54.5z M1473.5 -340.5q-70.5 -56.5 -149 -56.5t-124 45t-73 111t-45.5 148q-29 138 -31.5 232.5t-2.5 160.5t4.5 152.5t24 162t48.5 141.5q67 143 208 143q290 0 305 -513q2 -51 2 -121v-79q0 -205 -48 -337.5t-118.5 -189zM565 -350q-27 34 -27 72t21 160.5t65 306t83 341.5 t104 396t96 354t91.5 330t61 239.5t24 78.5t61.5 53t62 -21t24 -80.5t-52 -286t-127.5 -510t-90.5 -348.5q-108 -470 -298 -1079q-12 -40 -41.5 -40t-56.5 34zM384 1846q-39 0 -79 -181.5t-40 -237t1.5 -98.5t6 -112.5t15 -131.5t25.5 -119q31 -126 96 -126q174 0 174 453 q-1 553 -199 553zM1324 736q-43 0 -73.5 -75t-38.5 -173q-23 -260 -8 -321q0 -68 35 -227.5t71 -159.5q175 0 175 418v75q0 463 -161 463z" />
<glyph unicode="&#x26;" horiz-adv-x="1452" d="M429 1102q-163 -266 -162 -618q0 -242 128 -372q73 -73 180 -73q48 0 120 26t103 59q-11 16 -66.5 74.5t-111.5 167t-93 254.5q-52 195 -98 482zM775 2080l-9 -161q0 -33 7 -68q-26 -59 -71.5 -202t-67.5 -184.5t-43 -74.5q-50 -74 -50 -107q0 -152 117 -544.5 t202 -490.5q96 228 96 561v14q-54 0 -79 54v81q79 0 206.5 11.5t179.5 28.5q90 -19 90 -84q0 -87 -175 -86h-79q0 -95 -8 -214q33 3 -30 -200t-92 -264q95 -98 201 -97l129 9l59 -48q0 -64 -44.5 -85t-116.5 -21q-147 0 -306 120q-170 -121 -315 -121t-246 81.5t-155 200.5 t-54 244.5t15.5 234t57.5 223.5q59 161 204 453l-21 435v264q0 124 41.5 179.5t111.5 55.5t157.5 -55.5t87.5 -142.5zM516 1880l3 -287v-35q42 90 81 215.5t39 199.5q0 149 -75 153q-22 -19 -48 -77v-169z" />
<glyph unicode="'" horiz-adv-x="492" d="M333 1964l-6 -22q0 -138 -36.5 -315.5t-79.5 -177.5q-14 0 -35 203t-21 321q0 31 30 52t65 21q57 0 83 -73v-9z" />
<glyph unicode="(" horiz-adv-x="723" d="M657 -893q-26 -67 -90 -67q-84 0 -159.5 174t-125.5 424t-87 529q-71 535 -71 708t23 357.5t64.5 397.5t110.5 371t145 158h69q0 -102 -86 -299q-167 -386 -168 -853q0 -1190 285 -1698q68 -121 90 -202z" />
<glyph unicode=")" horiz-adv-x="747" d="M629 866v-3q0 -212 -69.5 -590.5t-125.5 -605.5t-132 -382t-150 -155q-33 0 -58.5 21t-25.5 50.5t25.5 84t63.5 119.5q146 257 230 705.5t84 720.5q0 710 -186 1055q-70 130 -70 210v17h58q90 0 162.5 -161.5t111.5 -386.5q79 -456 82 -699z" />
<glyph unicode="*" horiz-adv-x="1384" d="M914 1443l210 15q161 0 161 -96q0 -81 -110 -80q-70 0 -206.5 7t-201.5 7q9 -26 119.5 -248t110.5 -268.5t-37.5 -77.5t-71.5 -31l-217 496q-14 -37 -43.5 -119t-47.5 -134q-51 -136 -109 -234h-76l-68 61v9q2 60 112 282t125 267h-284.5t-118.5 1.5t-31 7.5 q-33 14 -32.5 59t21.5 67.5t50 22.5h373l-48 96q-160 319 -159 363q0 82 87 82q67 0 173 -307q45 -126 53 -141q102 360 167 440q31 39 62 39t58.5 -25.5t27.5 -47.5t-2.5 -32t-5.5 -17.5t-8.5 -18t-9.5 -16.5t-11.5 -17t-30 -45.5t-63 -179t-54.5 -179.5q58 -8 136 -8z" />
<glyph unicode="+" horiz-adv-x="1147" d="M462 693l-19 232q0 175 103 175q37 0 65 -27t28 -64v-39q0 -9 -1 -47t0 -74.5t2 -75.5q3 -87 28 -86l184 12q164 0 165 -96q0 -37 -26.5 -62t-63.5 -25l-188 17q-101 0 -100 -76l29 -254q0 -39 -32 -63t-70.5 -24t-71 22.5t-32.5 58.5l9 308v23l-206 -14q-135 0 -135 101 q0 33 20 57q20 25 52 25l187 -10q40 0 73 6z" />
<glyph unicode="," horiz-adv-x="658" d="M515 -259l-5 -22q0 -73 -40.5 -173.5t-110 -179.5t-137.5 -79h-95v111q12 12 62 53q104 84 115 143q-91 67 -91.5 140.5t48.5 112t107 38.5t90.5 -35t56.5 -98v-11z" />
<glyph unicode="-" horiz-adv-x="1005" d="M846 745q0 -37 -184 -45q-277 -14 -358 -13q-143 0 -143 91q0 36 185 45q277 14 356 14q144 -1 144 -92z" />
<glyph unicode="." horiz-adv-x="550" d="M194.5 -415q-31.5 35 -31.5 81t35.5 83t82 37t80.5 -37t34 -86t-35.5 -81t-84.5 -32t-80.5 35z" />
<glyph unicode="/" horiz-adv-x="878" d="M99 -354q0 211 101.5 631t235.5 898.5t153.5 579t24 124.5t7 35t9.5 32t15 32q23 29 55 29t57.5 -21.5t25.5 -62t-10 -88.5q-10 -47 -29 -111q-76 -245 -384 -1671q-3 -11 -16.5 -85t-26.5 -133.5t-35 -129.5q-46 -153 -112 -153q-72 43 -71 94z" />
<glyph unicode="0" horiz-adv-x="998" d="M152 1511q0 268 40 361q43 102 118 134q43 17 96 17t110.5 -32.5t84.5 -55t48 -51.5t37 -50.5t28.5 -59t19.5 -57.5t15.5 -65.5t10.5 -62.5q16 -105 20 -143.5t21 -163t25 -181t20.5 -166t18.5 -182.5q16 -183 15 -345q0 -797 -348 -797q-84 0 -150 73t-105.5 196 t-66.5 256q-28 132 -40 286q-19 254 -18 424v665zM302 1134l34 -310q0 -251 27 -523q53 -546 200 -546q50 0 86 94.5t52 229.5q33 264 32 401q0 329 -115 1064q-25 158 -83.5 237t-116.5 79t-95.5 -52t-37.5 -134z" />
<glyph unicode="1" horiz-adv-x="933" d="M603 -251q74 9 116 9v2q133 0 133 -79q0 -93 -361 -93l-94 -2q-59 0 -94 17t-35 70v68q101 -8 112 -8q70 0 70 53q0 480 -55 1246q-5 67 -17 188q-25 267 -25 407l5 117q0 149 -110 148l-73 -3q-90 0 -90 69q0 84 256 83q111 0 139 -52q-6 -11 -0.5 -67t5.5 -110t24 -248 t24 -367.5t35 -675t35 -752.5v-20z" />
<glyph unicode="2" horiz-adv-x="895" d="M687 -394l-484 -29q-45 0 -80.5 26t-35.5 70v12q67 79 111.5 208.5t63.5 169.5q181 401 269.5 736t88.5 724.5t-152 401.5q-51 -28 -71 -152q-17 -116 -94 -116q-77 -1 -77 97q0 153 90 252q48 53 115 52v2q166 0 239 -102q56 -76 69.5 -136.5t19 -96.5t8.5 -91 q5 -84 5 -172q0 -274 -69 -621t-176 -587q-19 -43 -112 -228.5t-128 -292.5q192 33 359 33l96 -81z" />
<glyph unicode="3" horiz-adv-x="930" d="M363 941v37q0 48 65 124q121 144 121 280q0 122 -22 253q-42 254 -144 254q-39 0 -64.5 -28.5t-36.5 -62t-38 -62t-66.5 -28.5t-64.5 25.5t-31 61.5q43 107 121.5 175t177.5 68t172 -79q68 -2 111 -242t43 -330.5t-15 -135.5t-29.5 -69t-50 -75.5t-48.5 -69.5 q195 -116 253 -659q12 -118 12 -203t-3 -140t-13 -129.5t-32.5 -129t-58.5 -105.5q-71 -102 -221 -102q-119 0 -176.5 49t-57.5 100v20h52q17 -3 44.5 -5.5t41.5 -3.5q33 -3 71 -30q194 8 194 357q0 465 -84 672q-42 102 -110 188q-6 -2 -30 -1.5t-83 26.5z" />
<glyph unicode="4" horiz-adv-x="858" d="M326 1666l-30 -1102q0 -37 5 -71q65 2 142 17l-26 888q0 33 25 52t51 19l65 -55v-200q0 -440 40 -690l92 8q95 0 94 -69q0 -46 -27 -61.5t-89 -15.5t-62 -28q0 -107 8.5 -294.5t24.5 -223.5q-6 -37 -6.5 -67t15.5 -55v-58q0 -119 -76 -119q-48 0 -71.5 49t-23.5 101v11 q11 37 11 115l-23 308l3 138q0 54 -6 98l-198 -17v-2q-60 0 -126 52q0 71 14 122q-14 74 -14 180.5t24 325t24 320.5v588q0 62 60 62q36 0 64.5 -22t28.5 -57z" />
<glyph unicode="5" horiz-adv-x="895" d="M380 1006l-104 -25q-76 1 -98 61q-19 51 -18 120l17 162q0 198 -78 663l54 53h259q96 0 114 -25.5t18 -52.5v-17l-59 -48h-68v-8h-146q6 -174 62 -736q8 -2 61.5 -6.5t75.5 -8.5q79 -14 121 -42q73 -50 120 -223q78 -281 78 -600q0 -271 -15.5 -333.5t-35 -119.5 t-47.5 -99q-65 -95 -170 -177l-54 -1q-174 0 -174 90q0 36 30 53.5t72 17.5t78 -26q76 26 120 173t44 257q0 186 -28 428q-56 480 -167 481h-62v-11z" />
<glyph unicode="6" horiz-adv-x="823" d="M541 409q-54 533 -178 558q-42 -31 -54.5 -71t-12.5 -102q0 -299 76 -873q2 -11 5 -44.5t5 -49t10 -41.5t19 -39q29 -34 79 -34q79 0 79 212.5t-28 483.5zM581 -398.5q-48 -23.5 -117 -23.5t-118.5 34t-75 83t-42.5 123.5t-21 134t-8.5 138.5t-9.5 115q-48 392 -48 758 q0 1094 333 1094q23 0 47.5 -19t24.5 -52.5t-36 -62t-81 -38.5q-54 -56 -88 -331.5t-43 -483.5q25 5 72.5 5t107.5 -50t98 -126t66 -185t42 -206.5t23 -215.5q11 -161 11 -278t-3.5 -163.5t-18 -102.5t-41 -90t-74.5 -57.5z" />
<glyph unicode="7" horiz-adv-x="720" d="M177 1908q-74 36 -75 93q0 51 292 51h59q85 0 117.5 -25.5t43.5 -65.5q-9 -42 -37 -377t-108.5 -931t-175.5 -869q2 -8 1.5 -49.5t-28 -96.5t-80.5 -55l-76 54q0 65 25.5 143.5t59.5 207t73 387.5t75.5 611.5t48.5 448.5t26 186q31 184 35 295q-50 6 -88 6t-188 -14z" />
<glyph unicode="8" horiz-adv-x="815" d="M339 1948q-76 -85 -75.5 -179t40.5 -314.5t80 -352.5q64 282 64 532q0 68 -21 193.5t-55 125.5zM428 -391q149 0 149 218.5t-45 452t-129 534.5q-76 -310 -76 -920v-3q0 -64 32 -173t69 -109zM713 -288v-19q-98 -220 -288 -220q-70 0 -121 45t-78 116q-48 133 -48 273 q0 530 103 869q43 147 46 162q-85 217 -152 473.5t-67 382.5t55.5 211.5t165.5 85.5h63q155 -99 177 -230q14 -82 14 -264.5t-98 -615.5q-6 -29 -9 -45q105 -254 175.5 -573.5t70.5 -578.5q0 -38 -9 -72z" />
<glyph unicode="9" horiz-adv-x="823" d="M260 1641.5q-7 -63.5 -7 -135.5t24 -105q12 -101 43.5 -131t51.5 -41t62 -29.5t71 -35.5q14 242 14 648q0 73 -22.5 114t-78 41t-88 -53.5t-48 -131t-22.5 -141zM508 663l-6 380q-177 40 -290.5 172.5t-113.5 311.5q0 406 173 533q57 42 134 42q155 0 210.5 -71.5 t55.5 -229.5q0 -305 -19.5 -916.5t-19.5 -917.5l-20 -227l2 -64q0 -129 -89 -129l-66 59q49 149 49 1057z" />
<glyph unicode=":" horiz-adv-x="548" d="M209 1109q-31 35 -31 80t36 83t81.5 38t79.5 -37.5t34 -86t-35.5 -80.5t-84.5 -32t-80 35zM177.5 -91q-31.5 35 -31.5 81t35.5 83t82 37t80 -37t33.5 -86t-36 -81t-84 -32t-79.5 35z" />
<glyph unicode=";" horiz-adv-x="635" d="M194 -417q-19 0 -42 20t-23 39v37q8 8 57 48q99 79 110 138q-91 67 -91 140.5t48.5 112t108.5 38.5t100 -47t40 -113.5t-42.5 -163.5t-117 -173t-148.5 -76zM291 1110.5q-31 34.5 -31 79.5t36 83t81.5 38t79.5 -37t34 -86t-35.5 -80.5t-84.5 -31.5t-80 34.5z" />
<glyph unicode="&#x3c;" horiz-adv-x="857" d="M601 1843l11 -2l70 -54q-26 -208 -217 -580q-183 -360 -183 -519q0 -23 213 -452.5t269 -528.5q-2 -14 0 -32.5t0 -36.5q0 -19 -4 -35q-6 -37 -39 -37l-68 6q-166 253 -336 633.5t-216 476.5q3 87 164 437t173 391t22.5 87t21.5 80q12 33 30 77q36 88 89 89z" />
<glyph unicode="=" horiz-adv-x="1213" d="M967 497l-669 16q-128 0 -128 70q0 33 19.5 52t52.5 19h476q324 0 324 -84q0 -33 -21 -53t-54 -20zM482 794l-121 -5q-191 0 -191 91q0 33 19.5 52.5t52.5 19.5h569q246 0 246 -84t-335 -84q-143 0 -226 10h-14z" />
<glyph unicode="&#x3e;" horiz-adv-x="895" d="M240 -429l-65 -7q-39 0 -60.5 35t-23.5 77q108 200 314 595t206 417q0 158 -140 434q-174 338 -215.5 457.5t-43.5 207.5l70 54v-3q68 -33 93 -85.5t31 -69.5q16 -37 39 -126t184 -436.5t165 -438.5z" />
<glyph unicode="?" horiz-adv-x="719" d="M107 1786q0 71 18.5 134.5t71.5 114t133 50.5q158 0 206 -92q36 -73 54 -176t18 -194q0 -108 -14 -219t-29 -177t-44 -187q-29 -118 -45 -188.5t-36 -197t-28 -254.5q-12 -195 -4 -423l-38 -41q-23 -9 -40 -9q-26 0 -47 19.5t-27 51.5v5q0 479 60 873q16 82 52.5 234 t57 275t20.5 235q0 88 -22.5 202.5t-51.5 114.5h-36q-42 0 -57 -41t-15 -117q0 -17 6.5 -70.5t16.5 -121.5q-3 -16 -9.5 -26t-15.5 -14.5t-16 -5t-14 -0.5h-7q-82 -17 -95 40q-11 59 -17 110.5t-6 94.5zM222 -336q0 48 35.5 86t85.5 38q48 0 81 -39t33 -82q0 -57 -37 -87.5 t-90 -30.5q-46 0 -77 36t-31 79z" />
<glyph unicode="@" horiz-adv-x="1670" d="M803 1531q-150 0 -150 -505v-101q0 -319 17 -414.5t34 -154.5q37 -120 116 -120q65 0 133 114.5t68 187.5v238q0 184 -32 380q-60 375 -186 375zM310 1229.5q-3 -87.5 -1.5 -155t1.5 -121.5q-2 -1401 408 -1401q277 0 373 88q37 34 111 102.5t157 119.5v15l76 -60 q-25 -91 -107 -171t-187 -130q-221 -102 -413 -102q-588 0 -588 1668q0 465 52 666q68 256 186 366q158 150 405 150q393 0 565 -390q87 -195 146 -583.5t59 -472t-0.5 -121t-6 -101t-15.5 -108.5t-29.5 -97.5t-47.5 -83.5q-67 -78 -153 -78t-159 67q-56 -98 -149.5 -160 t-172 -62t-122.5 20.5t-76.5 51.5t-58 82.5t-42 100t-28 118t-17 121.5t-8.5 126q-5 113 -5 211.5t1 153.5t8 145t19.5 150t38 129.5t59.5 111.5q84 99 218.5 99t238.5 -104q50 -50 84 -294.5t48 -370.5q29 -243 48 -449v-14l70 -72q32 19 52 111q26 129 27 302 q0 538 -169 973q-71 175 -166.5 249t-270.5 74q-237 0 -351 -214q-53 -101 -76.5 -246t-26 -233.5t-5.5 -176z" />
<glyph unicode="A" horiz-adv-x="1098" d="M747 293q-5 57 -31 342q-70 728 -70 814.5t2 94.5q-19 -22 -89.5 -450t-79.5 -465t-29 -102q-42 -135 -45 -208q132 -36 218.5 -35.5t123.5 9.5zM760 1970q62 -445 130 -1158q68 -714 68 -1104q0 -107 -104 -106.5t-104 82.5v414q-45 31 -160.5 52.5t-205.5 27.5 q-39 -65 -59.5 -265.5t-67.5 -276.5q-153 0 -169 63q71 104 290 1324q84 482 102 559q85 409 185 410q59 0 95 -28v6z" />
<glyph unicode="B" horiz-adv-x="968" d="M161 1775q0 208 120 207q146 0 252 -69q217 -138 217 -451q0 -242 -194 -515q135 -191 164 -225t50.5 -70.5t24.5 -45t11 -48.5t9 -70q2 -76 15 -180t18 -116t-11.5 -79.5t-22.5 -90t-17 -62t-19 -59t-22 -51t-27.5 -48t-34 -42t-43.5 -42t-53 -37.5 q-98 -68 -174.5 -87.5t-85.5 -19.5h-16q-87 0 -110 12q-45 25 -45 67l16 781l-22 1290v51zM453 817v1h-109q14 -394 14 -1078q153 25 241.5 146.5t88.5 285.5q1 537 -235 645zM377 1803q-43 0 -43.5 -114t6 -358.5t6.5 -354.5q113 26 193 279q43 135 56 163v113 q0 93 -65.5 182.5t-152.5 89.5z" />
<glyph unicode="C" horiz-adv-x="1061" d="M319 1148l-28 -221q0 -161 43 -590.5t83 -488.5q71 -104 218.5 -104t224.5 92q54 0 101 15v-42q0 -96 -56 -156q-91 -104 -291 -104q-107 0 -211 72t-158 186.5t-85 590.5t-31 733.5t21 368.5q-9 52 -9 100q0 195 145.5 310.5t359.5 115.5q76 0 149 -43t73 -112 q0 -34 -26.5 -53t-73.5 -19q-46 0 -70 39v-6h-50v12q-245 0 -307 -207q-31 -102 -31 -270z" />
<glyph unicode="D" horiz-adv-x="1071" d="M160 1122l9 347q0 147 -14 211.5t-35 122.5t-21 88.5t12.5 50.5t37.5 31.5t48 18.5q23 6 59 10q59 3 85 4h31q130 0 277 -140q178 -169 217 -356q23 -110 31 -245t11 -180q9 -102 25 -140v-147q-17 -29 -17 -96q0 -240 -110 -525.5t-273 -433.5q-121 -110 -163.5 -130.5 t-83.5 -20.5t-89 27t-48 82q70 73 70 373q0 177 -29.5 525.5t-29.5 522.5zM370 80v-303q246 174 346 646q50 242 50 501q0 891 -440 891v-3q0 -294 21 -872t23 -860z" />
<glyph unicode="E" horiz-adv-x="782" d="M488 762l-79 4q-37 0 -56 -24v-979q163 9 168 9q177 0 177 -84v-10q-22 -43 -74 -66.5t-91 -27t-102 -3.5h-99q-121 0 -149 47q-13 22 -13 57v2291l275 28q48 0 97 -28.5t49 -75.5q0 -95 -145 -94l-91 3q-23 0 -34 -2l25 -524q0 -64 -8 -185.5t-8 -176.5q17 3 47 10 q65 17 101.5 17t65 -26t28.5 -63.5t-23.5 -67t-60.5 -29.5z" />
<glyph unicode="F" horiz-adv-x="700" d="M606 883q0 -104 -263 -103q0 -172 30 -516.5t30 -517.5l-6 -20q5 -14 4.5 -47t-29.5 -57q-30 -25 -78 -25q-91 0 -91 203q0 302 -31.5 1142t-64.5 890q0 164 225 175q33 2 91.5 2t92 -22t33.5 -88.5t-89 -66.5l-77 3q-89 0 -89 -36q0 -147 23.5 -431.5t25.5 -420.5 q136 34 174 34t63.5 -30.5t25.5 -67.5z" />
<glyph unicode="G" horiz-adv-x="1195" d="M837 175l-119 -12q-105 0 -106 90q0 78 197 100q39 5 86 5t81.5 -49.5t34.5 -132.5t31.5 -270.5t31.5 -252.5q0 -116 -79 -116.5t-105 66.5v3q-19 -9 -67 -37q-95 -53 -168.5 -53t-145.5 29.5t-124 75.5t-93 118.5t-68 144t-46.5 167.5t-28.5 172t-16 177q-8 124 -7 302 l-2 234q0 746 211 987q122 143 318 143q127 0 127 -90q0 -34 -24 -54t-57 -20l-87 15q-115 0 -181 -144q-68 -149 -88.5 -294t-29.5 -231.5t-12 -193.5q-7 -150 -7 -301l-1 -197q0 -312 26.5 -436.5t53.5 -200.5t64 -127q87 -113 222.5 -113t225.5 133q-5 285 -48 363z" />
<glyph unicode="H" horiz-adv-x="967" d="M608 877l-28 1042q-2 23 24.5 51t60 28t59.5 -56t26 -183q0 -349 29.5 -1047t29.5 -1045q0 -42 -26.5 -78.5t-66.5 -36.5q-80 0 -80 105q0 592 -27 1119q-85 16 -157 16q-70 0 -126 -25q2 -174 27 -532.5t25 -543.5q0 -31 -18.5 -57t-49.5 -26q-51 0 -76.5 42.5 t-32.5 224.5t-8.5 399t-4.5 259q-57 825 -58 1407v24q5 50 54 49q98 0 112 -66q-11 -113 -11 -239l22 -653l-3 -119q0 -45 6 -82z" />
<glyph unicode="I" horiz-adv-x="757" d="M471 -222l65 2q129 0 129 -53q12 -53 -12 -75.5t-67 -22.5h-398q-91 0 -91.5 73t95.5 73l98 -1q16 0 15.5 158t-30 647t-29.5 734l7 324q0 102 -8 176q-43 -14 -75 -14q-74 0 -74 76q0 39 48 68t120 41q133 23 197 23t92 -25.5t28 -60.5t-21 -60.5t-53 -25.5l-56 2 q-31 0 -45.5 -13.5t-14.5 -51.5q0 -310 40 -928.5t40 -928.5v-137z" />
<glyph unicode="J" horiz-adv-x="736" d="M494 1815l-6 -491q0 -206 29 -618t29 -666t-68.5 -436t-240.5 -305q-50 0 -82.5 25t-32.5 68.5t40 79t84 54.5q127 160 128 448q0 158 -16.5 452.5t-19 397.5t-4 263.5t-2.5 260.5q-5 268 -41 492q-11 -2 -41 -10q-62 -16 -95.5 -15.5t-57.5 24.5t-24 57q0 112 380 111 q183 0 183 -86.5t-142 -82.5v-23z" />
<glyph unicode="K" horiz-adv-x="1071" d="M186 623l5 603q0 346 -10.5 429.5t-23.5 143t-13 94.5t25.5 65.5t64.5 30.5q118 0 118 -258q0 -2 -14 -652q11 28 59 155t99 258q50 132 108 269q133 313 191 313q36 0 63 -24t27 -57.5t-173.5 -396t-193.5 -460.5v-56q46 -122 253 -772.5t207 -690t-31 -65.5t-70 -26 l-74 12q-78 454 -158.5 788t-213.5 638q-88 -169 -95 -205q-10 -81 -10 -151l20 -590q0 -429 -109 -429q-93 0 -93 160.5t21 445.5t21 428z" />
<glyph unicode="L" horiz-adv-x="751" d="M310 1944l33 -1143q0 -57 -7 -101v-13q5 -91 14 -261q23 -377 24 -567v-101h226q53 -31 60.5 -45t7.5 -39.5t-23 -52.5t-48 -27t-58 11q-26 -6 -60 -7l-102 5q-33 -39 -82 -39t-82 30.5t-33 70.5l20 140q0 361 -32 1082.5t-32 1082.5q0 29 23.5 47t58.5 18t63.5 -26 t28.5 -65z" />
<glyph unicode="M" horiz-adv-x="1323" d="M656 257q214 1217 263 1694v19q8 42 41.5 66t66.5 24t50 -13q37 -26 37 -68q0 -377 20.5 -1128.5t20.5 -1128.5q0 -95 -64 -148q-34 -23 -42 -10q-64 -17 -71 27q-3 19 -3 46l1 51q-6 242 -6 378.5t2.5 376.5t-0.5 912q-17 -99 -72 -374.5t-75.5 -400t-32.5 -208.5 t-24 -150t-29 -134q-36 -144 -102 -144q-99 0 -99 296q-19 152 -102 608q-84 458 -112 628q-3 -294 -3 -442l26 -1321q0 -68 -48 -119q-79 0 -107 52.5t-28 142.5l11 530l-11 1229q0 206 5 411l88 50q88 -9 197 -558q87 -434 142 -800t60 -394z" />
<glyph unicode="N" horiz-adv-x="1184" d="M1003 1838l-13 -1173v-970q0 -77 -62 -111q-33 -17 -67.5 -17t-52.5 11t-27 26.5t-16 39t-10 43.5q-17 113 -118 474q-195 694 -249 1046q-3 11 -4 29.5t-3 31.5q-2 34 -17 56q2 65 -27 166.5t-32 121.5v-2009h-111v59q6 23 -2 97.5t-8 177t-20 471t-20 451.5v404l22 583 q0 118 17 132q40 31 83.5 31t66.5 -13q54 -29 54.5 -82t12.5 -104.5t35.5 -116t32.5 -98.5t16 -79t10 -81q11 -119 27.5 -206t63 -258t88.5 -303q105 -338 119 -606q25 -46 31 -113l9 1106v940q19 79 105 79t86 -124v-19q-20 -42 -20 -93z" />
<glyph unicode="O" horiz-adv-x="1075" d="M572.5 1845q-45.5 44 -88 44t-69 -21.5t-45 -65t-34 -92t-25.5 -119.5t-18 -128t-12.5 -136t-7.5 -129t-4 -119.5t-1 -92.5v-65q0 -256 48 -586q96 -649 271 -650q62 0 105.5 118.5t60.5 297.5q31 302 31 437.5t-0.5 194.5t-4.5 171.5t-13.5 211t-23.5 217.5t-38 212 t-55 174.5t-76.5 125.5zM928 558l-27 -402v-14q-20 -88 -20.5 -190t-35 -197.5t-107 -169t-157.5 -73.5t-155.5 58.5t-116 151t-81.5 220.5t-54.5 249.5t-30.5 256.5q-17 206 -17 338.5t4 217.5q6 157 14 278.5t9.5 186.5t3 110t9.5 111t18.5 112.5t33 97.5t53.5 84 q71 73 159.5 73t141.5 -17t89.5 -44.5t66.5 -71.5t49.5 -86t34.5 -101q20 -74 40 -212q76 -542 76 -967z" />
<glyph unicode="P" horiz-adv-x="854" d="M318 857q240 228 240 538v1q0 229 -84 317q-53 54 -184 148q2 -167 15 -502t13 -502zM169 -310l15 1133q0 753 -80 1133q50 71 121 71q118 0 214.5 -52.5t157.5 -139.5q126 -183 125.5 -414.5t-100.5 -421.5t-296 -295l24 -989q0 -132 -105 -132q-39 0 -57.5 33.5 t-18.5 73.5z" />
<glyph unicode="Q" horiz-adv-x="1116" d="M910 -662q118 0 118 -77q0 -98 -141 -98q-54 0 -132 45v1q-84 40 -115 141q-26 85 -37 169t-17 112h-126q-294 198 -327 660q-6 87 -6 199l16 517l-3 224q0 812 342 812q126 0 234.5 -91t137.5 -218q54 -240 69.5 -499.5t15.5 -450.5v-237q0 -397 -31 -494 q-62 -203 -162 -345q3 -12 10.5 -62.5t17.5 -97.5t24 -97q31 -113 81 -113h31zM637 -234q129 122 129 341v722q0 144 -22.5 345t-26.5 244.5t-7 82t-4.5 62t-6.5 60.5t-10 59.5t-15.5 53.5t-22.5 49.5t-31 39.5t-42 32q-54 28 -122 28q-56 0 -94 -163.5t-52 -410.5 q-26 -431 -26 -607.5t3 -262t20 -221t44 -235.5t83 -177.5t130 -83.5v3q23 40 73 40v-1z" />
<glyph unicode="R" horiz-adv-x="931" d="M343 1868l-17 -648q0 -98 3 -146q53 50 102 122l46 275q0 164 -43 276t-91 121zM829 -329q0 -104 -76 -104q-59 0 -114 86v11q-8 127 -78.5 348.5t-87.5 299t-55 292t-66 327.5v-1250q0 -101 -104 -101q-37 0 -63.5 25.5t-26.5 62.5v25l22 1862v390q0 37 15.5 52.5 t90 15.5t152 -48.5t123.5 -126.5q96 -160 96 -352q0 -155 -77 -355q-9 -22 -37 -91.5t-33 -81.5q2 -124 41.5 -309.5t73.5 -299t113.5 -355.5t90.5 -276v-47z" />
<glyph unicode="S" horiz-adv-x="900" d="M99 -363q-1 85 71 85q36 0 94 -24t101 -24t93 54q49 56 77 136q57 163 57 296t-46.5 285t-114 285t-133.5 267q-160 319 -160 579q0 248 156 389q84 74 197 75q57 0 111.5 -32t76.5 -83v-68q-133 0 -178 31q-59 -6 -103 -56q-79 -93 -79 -214.5t36 -251t85.5 -243.5 t100 -211.5t86 -159.5t35.5 -65v-25q11 -40 37 -127t42 -138q39 -140 39 -253t-27.5 -215.5t-77.5 -193t-136 -148t-160.5 -57.5t-125.5 8t-102.5 34t-51.5 65z" />
<glyph unicode="T" horiz-adv-x="841" d="M538 1443l-6 -409q0 -290 49 -487v-1q-22 -101 -21 -242l26 -571q0 -155 -92 -155q-53 0 -77.5 50t-24.5 110l25 507q0 164 -21.5 494t-21.5 495l4 277q0 228 -29 296l-172 -17q-40 0 -72 24t-32 62t76 65t186 40q191 21 321 21q39 0 70.5 -25.5t31.5 -64t-28 -61 t-68 -22.5l-113 6q-22 0 -33 -1q22 -183 22 -391z" />
<glyph unicode="U" d="M1000 508l9 -195v-48l-8 -34l2 -185q0 -279 -79 -395q-74 -108 -231 -108q-191 0 -290 138q-87 118 -127 316q-51 239 -82 338q-3 8 -35 710t-32 779q-23 26 -23 65t27 68.5t64 29.5q115 0 115 -226l29 -1104q19 -42 32 -169t13 -197.5t22.5 -173.5t61.5 -208.5t105 -180 t140 -74.5q121 0 127 219q2 28 2 66v1425q0 90 -34.5 272t-34.5 246.5t32 88.5t72 24l96 -75v-52l-27 -194q0 -184 23 -540t25 -528v-5z" />
<glyph unicode="V" horiz-adv-x="1029" d="M859 2032h66q-22 -206 -113 -900.5t-109 -908.5t-18.5 -291.5t-4 -135.5t-12.5 -118q-20 -130 -94 -131q-45 0 -75 34q-73 302 -217 1210t-203 1170q19 62 93 62q36 0 49 -16.5t19 -25.5t11 -27t7 -28t4.5 -30.5t18 -114t69.5 -457.5q115 -790 199 -1199q20 180 77 572 q116 814 116 1271q50 64 117 64z" />
<glyph unicode="W" horiz-adv-x="1472" d="M473 380q116 930 116 1213v61q0 34 25.5 65.5t58.5 31.5q129 0 128 -93v-48q0 -308 126 -889q57 -260 81 -406q18 175 62 506q98 722 97 1113q0 70 23.5 102t76 32t83 -25t30.5 -64t-33 -71q-48 -260 -84.5 -776.5t-70.5 -722t-45 -282.5q-40 -264 -40 -460 q0 -48 -24 -79t-67 -31t-70.5 51t-43 135.5t-24 161t-14 159.5t-17.5 173.5t-74 394t-71 352.5q-116 -891 -116 -1341q0 -34 -28.5 -61t-63.5 -27q-116 0 -116 242q0 149 -131 1087.5t-166 1026.5q40 76 110 76q91 0 131 -239q19 -112 23.5 -279t10 -229t20.5 -187.5 t29 -215.5q31 -204 68 -457z" />
<glyph unicode="X" horiz-adv-x="895" d="M671 -363q-93 0 -93 73t-7 145t-22.5 154t-27 135t-35 151.5t-32.5 138.5q-118 -502 -141 -631.5t-31 -153.5t-32.5 -46.5t-61 -22.5t-63.5 20t-27 53.5t11.5 75t32.5 95t52.5 157.5t100.5 427.5t69 450.5t-32.5 270t-71.5 257q-102 304 -102 497v8q29 65 90 65 q60 0 73.5 -28.5t17.5 -42.5t7 -47.5t10.5 -88.5t53.5 -235.5t57 -228.5q5 16 38 220q85 497 182 497q36 0 65 -18.5t29 -45.5t-7 -48.5t-19.5 -49.5t-31.5 -80t-99 -446.5t-80 -448t36.5 -237t83 -407.5t47.5 -237v-18q3 -39 25 -118t22 -118.5t-25.5 -66t-61.5 -26.5z" />
<glyph unicode="Y" horiz-adv-x="809" d="M547 -116l-1 -158v-72q0 -42 -28 -67.5t-63 -25.5t-59 22.5t-24 55.5l16 614q0 93 -30.5 275t-30.5 292.5t-38 269.5t-84 286q-122 332 -123 569q0 51 101 51q23 0 48 -18.5t26 -41.5q31 -366 158 -777q6 28 15 132.5t20.5 215t29.5 223.5q42 256 126.5 255.5t84.5 -34.5 q0 -178 -76 -531.5t-76 -536.5l10 -110v-48q0 1 -2 -841z" />
<glyph unicode="Z" horiz-adv-x="765" d="M476 1849q-108 -16 -182 -15q-172 0 -172 100v67l45 1q42 -11 89 -10l299 32q37 0 62 -27t25 -87q0 -71 -62 -413q-19 -137 -61 -487q-82 -693 -161 -1086q-8 -36 -34 -98.5t-34 -93.5l167 12q167 0 168 -98v-13l-50 -50l-392 -12q-60 0 -90 77q73 116 163.5 603.5 t149 941.5t70.5 656z" />
<glyph unicode="[" horiz-adv-x="810" d="M643 1871l-178 20q-59 0 -59 -31q0 -442 -38.5 -1028.5t-42.5 -648t-23.5 -237.5t-19.5 -272v-65h14q301 2 301 -114q0 -68 -103 -69q-383 0 -382 120q0 130 33 391t33 457t41 717t41 783q0 101 61 149h121q288 0 288 -101q0 -33 -27 -52t-60 -19z" />
<glyph unicode="\" horiz-adv-x="869" d="M718 -446v-2q-50 0 -89 85q-70 155 -113 417q-62 287 -185 820t-152 662.5t-46 190.5q-40 133 -40 186.5t25.5 75t52.5 21.5t42 -10.5t24 -32.5t14 -37.5t9.5 -44t23 -108.5t112.5 -423.5t173 -634.5q208 -763 208 -1071q0 -57 -59 -94z" />
<glyph unicode="]" horiz-adv-x="784" d="M188 -505q0 115 280 114h33v65q-6 313 -49.5 1050.5t-43.5 1135.5v28l-210 -17q-115 0 -114 71q0 104 299 104h111q51 -22 56 -46t5.5 -30t0 -35t-0.5 -160.5t28 -632t28 -697.5t31.5 -477.5t31.5 -421.5q0 -119 -384 -120q-102 1 -102 69z" />
<glyph unicode="^" horiz-adv-x="742" d="M612 1725l28 -39q0 -36 -31.5 -56.5t-69.5 -20.5h-68q-26 265 -62 412q-12 -37 -34 -107.5t-34 -109.5q-37 -105 -107 -194l-104 75q6 59 56 198.5t123.5 267t126.5 127.5q81 0 80 -103q0 -70 48 -192.5t48 -176.5v-81z" />
<glyph unicode="_" horiz-adv-x="1522" d="M1070 -578l-851 -34q-33 0 -56 24t-23 56q0 96 337 96l275 5l510 31q39 0 71.5 -26.5t32.5 -77.5t-41.5 -63.5t-136.5 -11.5t-118 1z" />
<glyph unicode="`" horiz-adv-x="903" d="M333 2077q-34 -3 -54 -3q-138 0 -138 96q0 79 43 105q107 0 135 -14t38 -20t72 -26t101.5 -35.5t92.5 -40.5q110 -51 110 -113q0 -26 -23 -44t-44 -18t-53 9t-74.5 24.5t-77.5 29t-77 30.5t-51 20z" />
<glyph unicode="a" horiz-adv-x="1044" d="M887 113l-17 -63q0 -39 27.5 -189.5t27.5 -196.5v-4q0 -71 -48 -89q-67 0 -104 21.5t-37 109t-46 360.5l-98 9h-105q-36 16 -126 16q0 -3 -4 -41t-6 -61.5t-7.5 -69t-11.5 -77.5t-15.5 -74.5t-21 -71t-25.5 -55.5q-28 -54 -68.5 -54t-72 24t-31.5 61q84 321 143.5 673 t71 417.5t54 254t51 252t16.5 164.5q14 220 57 284h107q108 0 109 -65q0 -612 119 -1217q6 -36 23 -99q38 -138 38 -219zM670 181q-9 46 -9.5 150t-13.5 252.5t-38 343.5t-34 282q-19 -90 -73 -301q-110 -439 -113 -676q55 -35 281 -51z" />
<glyph unicode="b" horiz-adv-x="840" d="M172 412l14 1006q0 110 -3 164v30q0 132 90 132q71 0 192 -40.5t121 -94.5q0 -71 47 -208.5t47 -207.5q0 -215 -31 -310.5t-97 -189.5q91 -88 119 -222.5t28 -270t-15.5 -219t-51 -159.5t-86.5 -132q-113 -121 -306 -121q-68 0 -85 59q-14 43 -14 108zM341 -22 q-20 -34 -20 -105v-143q102 25 155 126.5t53 188.5t-2.5 139t-13.5 126t-29 130q-45 135 -140 157q-12 -183 -12 -381.5t9 -237.5zM341 1596v-813q160 5 160 386q0 101 -24 209q-46 209 -136 218z" />
<glyph unicode="c" horiz-adv-x="880" d="M677 -250q96 0 96 -69q0 -126 -176 -126q-73 0 -150 21t-115 46q-211 136 -211 745l-2 186q0 913 224 1077q115 84 319 84q34 0 62.5 -24.5t28.5 -57.5v-12q-29 -73 -153 -73l-58 3q-53 0 -93.5 -57.5t-62.5 -138t-36 -179.5q-22 -157 -21 -293v-16l-21 -612 q0 -194 21 -268t43.5 -120t53.5 -75q71 -68 183 -69q37 0 68 28z" />
<glyph unicode="d" horiz-adv-x="999" d="M335 1220l35 -1401v-76h58q166 203 214 369q45 157 45 437q0 958 -329 1001q-23 -125 -23 -330zM854 852l-6 -159v-174q0 -315 -28 -425t-56.5 -181t-69.5 -127q-93 -126 -235 -205h-217q-81 0 -81 416l9 1000q0 277 -10 520q-26 31 -26.5 74t35.5 74.5t86 31.5t86 -56 q23 -9 69 -16.5t67 -18.5q177 -82 277 -291t100 -463z" />
<glyph unicode="e" horiz-adv-x="801" d="M450 -281l125 8q121 0 121 -77q0 -48 -42 -70t-94 -22h-300q-40 0 -68.5 28t-31 71.5t6 108.5t8.5 104l-15 406l21 927l-17 268q0 225 134 225q37 0 69 -24q12 -2 59.5 -5.5t83.5 -9.5t77 -17q90 -25 90 -85q0 -65 -93 -100q-146 50 -240 61q5 -68 5 -137l-14 -455 q0 -3 9 -50l113 5q153 0 154 -87q0 -46 -27.5 -82t-77 -36t-86.5 28h-81q9 -121 10 -229l-14 -575q0 -179 115 -179z" />
<glyph unicode="f" horiz-adv-x="838" d="M350 852l30 637v38q140 0 203 -31q161 0 161 90q0 102 -313 125q-56 3 -103 3t-85 -24.5t-38 -69.5q0 -140 -16.5 -425t-25 -793t-33.5 -782l89 -66q107 0 107 158v899q59 -19 113.5 -19t89 25.5t34.5 67.5q0 84 -154 84l-59 -2v85z" />
<glyph unicode="g" horiz-adv-x="1013" d="M629 404l-55 -1q-45 0 -71.5 14.5t-26.5 59t28.5 67.5t70.5 23v-1q310 0 310 -98l-34 -231l15 -336q0 -91 -14 -157q-184 -169 -327 -169q-76 0 -139.5 41t-123.5 140.5t-105 377.5t-45 386.5t4.5 180t14 162t11 117.5t5 77.5t7.5 96.5t17 128.5t28.5 131t45 109.5 t68.5 95q95 81 219.5 81t124.5 -81q0 -37 -27 -61t-63 -24l-57 8q-93 0 -141 -217q-46 -211 -54 -380q-14 -259 -14 -345t0.5 -133.5t3 -118t8 -124.5t14.5 -120t22.5 -115t32.5 -97.5t44 -79.5q56 -70 134 -70q138 0 134 535v116q-20 12 -65 12z" />
<glyph unicode="h" horiz-adv-x="971" d="M339 1511l-12 -792q56 -16 167 -15h121v66q0 146 -21.5 438t-21.5 438q0 36 27 60t48 24t36.5 2t25.5 1.5t23 -6.5q23 -11 23 -72q0 -333 29.5 -998t29.5 -998q0 -28 -24 -43.5t-61.5 -15.5t-70 19.5t-33.5 51.5q-17 316 -17 778v13l-2 91l-2 30v3q-25 -6 -71 -6l-197 29 l-9 -350v-14l26 -523q0 -46 -22.5 -80t-65.5 -34q-64 0 -88 115.5t-24 315.5l10 483l1 182l6 186l-21 716q0 37 26.5 65.5t63.5 28.5q100 0 100 -189z" />
<glyph unicode="i" horiz-adv-x="854" d="M553 -364l-119 -2l-138 -6q-88 0 -118 57q0 46 12 72t49 26h90l6 42l-22 674l17 707q0 178 -15 338h-123.5t-83 17.5t-26.5 67.5q0 74 172 73h11q408 0 408 -109q0 -17 -19 -59h-163q12 -116 13 -272l-17 -606l23 -675v-94q0 -27 -11 -85h135q130 0 130 -80 q0 -36 -22.5 -60.5t-50.5 -24.5z" />
<glyph unicode="j" horiz-adv-x="881" d="M574 50l4 -273q0 -302 -110 -425q-101 -113 -308 -146l-95 95q205 129 272.5 245t67.5 344l-28 1621v14q-34 0 -94.5 11t-79.5 18.5t-39 18.5q-39 20 -38.5 56t36 56.5t84 20.5t172.5 -15.5t250.5 -56.5t126.5 -92q0 -34 -25.5 -54t-59.5 -20t-93 14.5t-70 16.5v-27 l31 -1280z" />
<glyph unicode="k" horiz-adv-x="1078" d="M388 1596l-27 -578v-166q9 18 116 252q268 580 335 579q46 0 84.5 -21.5t38.5 -63.5q0 -3 -161.5 -269t-179.5 -305l-7 -189q0 -136 109.5 -509.5t182.5 -494.5q9 -14 41 -57.5t46.5 -76t14.5 -68t-27 -59.5t-63 -24q-74 0 -154.5 157t-144.5 385q-107 389 -156 678 q-53 -54 -81.5 -145t-28.5 -125v-870q0 -74 -70 -74q-48 0 -77 27t-29 74v964q0 172 30.5 513.5t30.5 512.5q28 60 80 60q97 0 97 -107z" />
<glyph unicode="l" horiz-adv-x="809" d="M339 1379l10 -762q-19 -45 -19 -172l-12 -506q0 -219 107 -218l131 5q170 0 171 -93q0 -34 -29.5 -56.5t-66.5 -27.5q-116 37 -284 37q-51 -29 -98 -29t-73.5 32.5t-26.5 70.5l31 1419v23q-10 99 -10 298q0 301 111 300q33 0 56.5 -23t23.5 -56z" />
<glyph unicode="m" horiz-adv-x="1360" d="M321 -262l5 -95q0 -51 -21 -78t-67.5 -27t-76 22.5t-28 65t36.5 795t35 1134.5q5 81 25 107.5t57 30t49.5 -3t22.5 -21t17 -27t13 -38t9 -39t8 -42t9.5 -55.5t46.5 -220t92 -497.5t117 -772.5q98 522 169 990t75 497.5t6.5 43.5t8.5 42t11.5 43.5t16.5 36.5q11 22 23 32 q29 28 69.5 27.5t78 -23.5t37.5 -63q0 -728 13 -1009t13 -338l-3 -512q14 -34 14 -72t-25 -81.5t-65 -43.5q-99 0 -99 199l4 293q0 308 -6 551q5 144 5 754q-48 -298 -133.5 -798.5t-91 -531t-8.5 -58t-6 -48t-11.5 -46.5t-19.5 -43q-26 -42 -74 -42q-93 0 -112 136 q-25 194 -101.5 681.5t-113.5 656.5q-25 -1087 -25 -1513z" />
<glyph unicode="n" horiz-adv-x="1191" d="M327 852l19 -821v-360q0 -42 -22 -70.5t-60 -28.5q-104 0 -104 194l-7 1119l19 592q0 214 116 214q70 0 101 -107q43 -205 151 -588.5t148 -583.5q29 -98 76 -289t73 -287q12 688 12 1667l-4 86q0 43 16 68.5t55 25.5t64 -18q50 -37 49 -106q0 -436 -24.5 -1119 t-74.5 -854q-6 -2 -26 -8.5t-30 -8.5q-88 -20 -111.5 8t-33.5 74.5t-23 90.5t-98 422q-228 1000 -281 1163v-475z" />
<glyph unicode="o" horiz-adv-x="1036" d="M294 1201l5 -186l-1 -304q0 -39 1.5 -91.5t3.5 -138.5t9 -170.5t16.5 -178t25.5 -173.5t34 -145q42 -141 110 -141q91 0 139 172q71 256 71 629l5 327q0 344 -30 463.5t-57 179.5q-53 122 -159 123h-7q-166 0 -166 -366zM884 454q0 -913 -374 -913q-344 0 -386 865 q-3 82 -3 164l-2 194v62q0 671 197 829q48 39 107 42q45 -16 110 -29t96 -27q57 -26 124 -137t99 -296t32 -371v-383z" />
<glyph unicode="p" horiz-adv-x="837" d="M350 1328l-17 -618v-5q192 26 192 536q0 186 -82 239q-37 23 -93 23v-175zM172 972l5 302q0 188 -27 294q8 40 30.5 76t56.5 36h140q183 0 257 -152q65 -135 65 -310q0 -222 -11 -272t-23 -95t-30 -73t-46 -61.5t-64 -56.5q-79 -51 -190 -87v-339l25 -601 q0 -40 -28 -66.5t-68 -26.5h-78q-19 87 -19 258l-7 813z" />
<glyph unicode="q" horiz-adv-x="1013" d="M439 1596q-46 0 -82 -120t-53 -289q-29 -316 -29.5 -437t0.5 -162.5t2.5 -141t7 -178.5t14 -183t24 -181.5t33.5 -148.5q40 -146 115 -146q42 19 89 19q31 0 68 161q88 386 88 936q0 617 -146 800q-55 71 -131 71zM781 -1073v3q-172 0 -234 73q0 144 -22 261 q-37 202 -45 240q-182 43 -248 164q-112 208 -111 1101q0 744 208 911q53 42 117 42q23 -11 74.5 -22.5t92.5 -31t87.5 -72t75 -124.5t46.5 -144t27 -162q12 -141 13 -307q0 -1211 -233 -1335q0 -118 32.5 -266t36.5 -163q161 0 161 -90q0 -33 -22.5 -55.5t-55.5 -22.5z" />
<glyph unicode="r" horiz-adv-x="863" d="M311.5 539.5q-21.5 -88.5 -21.5 -163.5t19.5 -321t19.5 -317t-26 -108.5t-58 -37.5q-46 0 -59 64q3 118 3 289t-27 752.5t-27 867.5q0 150 105 151q166 0 279 -87t113 -248q0 -217 -34 -338t-128 -302q17 -76 60 -304q91 -493 206 -711q33 -62 33 -97t-19.5 -59 t-51.5 -24q-104 0 -191 345q-37 150 -67 304q-84 420 -107 473q0 -40 -21.5 -128.5zM307 1598l-11 -45q0 -130 6 -376t6 -357q74 39 120 202.5t46 250t-4 127.5t-20 91q-30 104 -143 107z" />
<glyph unicode="s" horiz-adv-x="775" d="M116 -267l168 -23q60 0 105 52t67 132q42 152 42 269t-39 232t-95 213.5t-113 200.5q-133 240 -133 474q0 143 48 253q90 205 239 205q56 0 106 -36t50 -78q0 -73 -77 -72q-34 0 -67 18q-101 -5 -136 -225q-8 -48 -8 -112t28 -158.5t70.5 -168.5t91.5 -163t92 -173 q98 -194 98 -443q1 -198 -79 -367q-42 -87 -119 -142t-178 -57v-7q-59 8 -107 39.5t-54 82.5v54z" />
<glyph unicode="t" horiz-adv-x="855" d="M432 -106l7 109q-12 40 -51 716.5t-42 825.5q-183 5 -226.5 33.5t-43.5 59.5t34 50.5t67 19.5l431 -29l51 1q99 0 99 -76q0 -39 -32.5 -63t-72.5 -24l-146 22l-6 -33q0 -301 52.5 -900.5t52.5 -901.5q0 -39 -28.5 -67t-67.5 -28h-71z" />
<glyph unicode="u" horiz-adv-x="1081" d="M901 1015l3 -54q-23 -112 -30.5 -384t-27.5 -438.5t-54 -293t-109 -210t-167.5 -83.5t-151.5 33.5t-96 96t-62 134.5t-37 167q-22 166 -22 350l17 837q0 274 -38 454v76q76 0 120 -59t44 -131v-1536q0 -122 61 -224t181 -102q135 0 179 784v14l2 20q40 716 40 1160l-1 53 q0 37 17 55.5t65 18.5t71 -26.5t27 -53.5t4 -73l-22 -320z" />
<glyph unicode="v" horiz-adv-x="1134" d="M941 1736q73 0 73 -42q0 -178 -76 -448.5t-92.5 -370.5t-35 -294t-30 -269t-42 -187.5t-37.5 -152t-10.5 -99t-10 -106t-20.5 -96.5q-33 -108 -130 -108l-71 48q0 386 -73.5 787.5t-144.5 674t-95 345.5q-56 172 -56 214t24 63.5t56 21.5t58 -26t41.5 -74.5t25 -89.5 t18 -94.5t11.5 -67.5q161 -735 254 -1382q25 126 58.5 412.5t124 760t109.5 580.5h71z" />
<glyph unicode="w" horiz-adv-x="1303" d="M1166 1660q0 74 -89.5 74t-89.5 -77q0 -26 11 -54q0 -81 -24 -239t-24 -239q0 -606 -53 -1049q-19 144 -40 411q-48 584 -127 885v26q0 37 -25 57.5t-60 20.5h-85q-3 -59 -22 -253t-19 -280t-4.5 -166.5t-9 -140.5t-17 -157.5t-19 -140t-23.5 -155.5t-21 -144 q-8 217 -74.5 689t-66.5 702t-103 230q-65 0 -91 -56q59 -132 67.5 -269t13 -251.5t10 -188.5t32.5 -249.5t32.5 -219t9.5 -157.5t12.5 -228.5t23.5 -235.5q36 -271 131 -272q68 1 99 145q29 129 36 224.5t13 143.5q6 47 34 233q60 384 60.5 530t9.5 251 q23 -167 46.5 -483.5t34.5 -414t26 -192.5q39 -220 39 -292.5t6 -102.5q17 -82 75 -82q116 0 116 322q0 64 15 137q82 388 82 1037v232q3 74 26.5 228t25.5 211z" />
<glyph unicode="x" horiz-adv-x="823" d="M245 1075q-81 362 -118 414v35q-26 26 -26 68q0 76 94 76q37 0 59.5 -25.5t28 -54.5t10.5 -75.5t13.5 -88.5t45.5 -198.5t54 -239.5q6 37 31 164q46 250 47 341q0 195 96 186q43 -3 46 -47q3 -29 0 -85t-3 -82v-144q-40 -108 -91.5 -360t-51.5 -361.5t57 -299.5 t113.5 -364t56.5 -229t-25.5 -77.5t-60.5 -22.5t-72 21q-22 98 -73 314t-75 331q-8 -43 -28 -235.5t-49 -291.5q2 -11 2 -37q0 -118 -83 -118q-36 0 -66 19.5t-30 53.5q0 203 89.5 480.5t89.5 424t-81 508.5z" />
<glyph unicode="y" horiz-adv-x="899" d="M587 -231q0 -155 -41 -194q-22 -19 -68 -18.5t-77 69.5q36 70 36 538q0 88 -12.5 248.5t-13.5 216.5q-62 107 -191.5 492t-129.5 475v17l71 53q98 -3 233 -491q59 -214 59 -216q12 33 49 237q95 515 199 515q29 0 53 -18.5t24 -48.5q0 -195 -95.5 -456t-95.5 -463v-956z " />
<glyph unicode="z" horiz-adv-x="852" d="M335 -234l133 6v2q129 0 129 -78q0 -39 -34 -58t-76 -19l-188 9q-20 0 -55.5 -17t-63.5 -17t-53.5 23t-25.5 63.5t17.5 117t53.5 193.5t50 166t48.5 215t58 255t86.5 275q146 418 155 645l-258 -19q-34 0 -58.5 27t-24.5 62q0 90 323 89h11q124 0 148 -28.5t24 -59.5 q0 -112 -69 -303t-89.5 -315t-94.5 -361.5t-134 -459t-67 -413.5h54z" />
<glyph unicode="{" horiz-adv-x="930" d="M595 -340l188 36q12 0 19 -27t7 -54t-37 -52q-59 -37 -154 -37q-180 0 -246.5 96.5t-66.5 284.5v656q0 118 -57 139q-45 17 -86 18.5t-57.5 17t-16.5 53.5t22.5 55t53.5 18.5t62 9.5q78 16 78 146l-16 332q0 115 20 148q-8 46 -7 84q0 146 82 239.5t235 93.5 q101 0 161.5 -30t60.5 -63.5t-27 -52t-61 -18.5l-157 29q-152 0 -152 -389l13 -325q0 -205 -56 -278q57 -71 57 -226v-666q-1 -133 23 -171q40 -67 115 -67z" />
<glyph unicode="|" horiz-adv-x="528" d="M346 1976l10 -1789v-632q0 -33 -26 -56t-59 -23q-79 0 -79 301l-22 2163q0 115 111 115q28 0 46.5 -25t18.5 -54z" />
<glyph unicode="}" horiz-adv-x="922" d="M338 1782l-188 -35q-12 0 -19 27t-7 54q0 26 37 50q59 39 154 39q177 0 245 -97.5t68 -283.5v-578q0 -133 71 -149q29 -8 59 -9q71 -3 71 -67q1 -74 -69 -77q-29 -2 -59 -8q-71 -16 -72 -147l13 -389q0 -141 -17 -169q6 -39 6 -86q0 -146 -81.5 -238.5t-234.5 -92.5 q-101 0 -161.5 30t-60.5 63.5t27 52t61 18.5l157 -30q152 0 152 388l-16 380q0 228 59 302q-57 73 -57 226l15 391q0 435 -153 435z" />
<glyph unicode="&#xa1;" horiz-adv-x="536" d="M203 683l-12 526q0 170 15 285q14 44 44 44q42 0 64 -95t22 -276t32 -737t32 -833q0 -33 -22.5 -55.5t-64.5 -22.5t-83.5 36.5t-41.5 86.5zM342 1807q-35 -45 -91 -45t-96 41t-40 93v9q6 132 121 132q62 0 101.5 -30.5t39.5 -92.5t-35 -107z" />
<glyph unicode="&#xa2;" horiz-adv-x="1032" d="M388 1544l-19 176q0 136 84 137q39 -25 45.5 -46t6.5 -83.5t16 -183.5q14 -5 52 -15t61 -17t58 -21.5t57 -30.5q51 -37 57 -93v-8q0 -26 -21 -52.5t-51 -26.5t-59 25.5t-43 61.5h-90q62 -823 75.5 -966.5t11 -157.5t-2.5 -19.5t3 -17.5q85 3 129 50q54 57 107 136 q91 0 91 -93q0 -82 -116 -153.5t-212 -78.5v-123l21 -301q0 -31 -22.5 -52.5t-51.5 -21.5q-50 50 -50 132l-12 212q0 39 -11 172q-143 51 -197 107t-82 91.5t-45 88.5t-27 92.5t-15 105.5q-6 88 -6 211t2.5 187t16.5 162t40 166q63 164 199 248zM406 1382 q-65 -85 -93.5 -247.5t-28.5 -310.5q0 -561 223 -595q-17 342 -101 1153z" />
<glyph unicode="&#xa3;" horiz-adv-x="1184" d="M939 -358l-155 11h-102q-152 57 -199 57t-143.5 -38.5t-150.5 -68.5v6q-34 3 -62 22t-28 59t33.5 68t89 49t77.5 38q48 37 72 147t24 214t-24 222.5t-75 287.5t-67 228q-29 5 -48.5 27t-19.5 61.5t42 64.5q-2 65 -20.5 206t-18.5 206.5t4 129t18 155.5t36.5 162.5t66 122 t100.5 51.5h101q57 0 120 -66t101 -150t38 -139v-14l-50 -55q-65 0 -81 22q-15 22 -18 26q-4 8 -26 50v57q-19 37 -28 78q-36 39 -92 46v-31q-33 -39 -84.5 -184.5t-51.5 -201.5q0 -316 29 -455q50 2 155.5 21t150.5 19t69 -22.5t24 -55.5t-29.5 -55.5t-77.5 -31t-94.5 -12 t-97 -4t-67.5 -3.5q17 -93 62 -247q104 -352 104 -536q0 -99 -34.5 -203t-38.5 -121q60 -5 197.5 -36.5t217 -31.5t140.5 29l76 -54q-1 -127 -165 -127z" />
<glyph unicode="&#xa4;" horiz-adv-x="1393" d="M508 1231q0 -67 -54 -67q-28 0 -59 -189t-31 -296l8 -42l-8 -130q0 -181 87 -254q0 -180 242 -180q87 0 155 56.5t107 138.5t63 188q40 174 40.5 307.5t-29 292t-68.5 204.5q-34 6 -57.5 33t-26.5 62q-71 76 -198 76q-28 0 -87 -46.5t-85 -79.5v-22zM1060 -11v65 q-76 -65 -194.5 -100.5t-252 -35.5t-270.5 132q-40 -87 -69 -112.5t-71 -25.5t-67.5 33t-25.5 71t25.5 71.5t61 68.5t46.5 52q-50 93 -49 271q0 626 111 792q-9 19 -79.5 89.5t-70.5 106.5t22.5 57t44 21t36.5 -3.5t25.5 -7.5t24 -15t20.5 -16.5t20 -21t18 -19.5 q26 -33 32 -45q3 3 39.5 44t58.5 63q65 68 112 68q186 0 358 -107q12 16 48.5 79t71.5 96.5t83 33.5l82 -73q-5 -65 -112 -195q-36 -43 -35 -57q0 -93 69.5 -281.5t69.5 -289.5t-52 -292t-52 -292q0 -46 60 -114.5t60 -109t-22.5 -64.5t-61.5 -24t-74.5 22.5t-40.5 64.5z " />
<glyph unicode="&#xa5;" horiz-adv-x="1453" d="M394 1238l153 -7q81 0 152 10v19q-50 78 -166 284q-296 518 -451 699q-14 28 -14 49q0 57 96 58q121 0 459 -611q141 -253 152 -268q14 36 63.5 210t97 332t112.5 292.5t116 134.5q36 0 63 -24t27 -60v-16q-25 -68 -90 -241q-129 -341 -160.5 -466t-67 -229t-48.5 -163 l276 11q197 0 197 -94q0 -74 -175 -75h-307v-108l304 3q170 0 170 -107q0 -26 -27 -44t-60 -18q-163 0 -395 -6q0 -161 -24 -488t-24 -495l2 -74q0 -71 -22 -114.5t-71 -43.5q-112 0 -112 74v8q26 68 45.5 496t19.5 632h-366q-43 2 -69.5 33t-26.5 72t37 53q210 0 438 13 q3 37 3 116h-230q-203 1 -203 81q0 72 126 72z" />
<glyph unicode="&#xa6;" horiz-adv-x="513" d="M246 677q95 0 95 -114v-988q0 -99 -76 -99q-33 0 -57 23t-24 56v1043q0 31 17 55t45 24zM177 1181l-13 759q0 115 110 115q67 0 67 -296v-800q0 -33 -26.5 -56t-58.5 -23q-79 0 -79 301z" />
<glyph unicode="&#xa7;" horiz-adv-x="782" d="M259 1178q-90 186 -90 398q0 260 253 261q45 0 99 -20.5t54 -57.5t-28.5 -50t-69.5 -14t-83 -4t-71 -30t-29 -103t38 -171.5t93 -177.5t111 -171q130 -208 130 -455q0 -174 -137 -262q115 -180 114 -340q0 -202 -127 -319q-67 -60 -137.5 -60t-120 36t-49.5 77 q0 73 78 73q31 0 63 -19q64 2 101 79.5t37 149.5t-27 143t-69 127.5t-89 125.5t-89 133q-96 149 -96 347.5t141 303.5zM487.5 754.5q-24.5 57.5 -32 75.5t-28.5 54.5t-28 48.5t-31.5 52.5t-29.5 48.5q-65 -84 -65 -177t28 -166q37 -98 138 -240q73 65 73 155.5t-24.5 148z " />
<glyph unicode="&#xa8;" horiz-adv-x="1168" d="M830.5 1111.5q-29.5 32.5 -29.5 76t34.5 79t77.5 35.5t75 -35t32 -80.5t-35.5 -76.5t-80 -31t-74 32.5zM329.5 1111.5q-39.5 -32.5 -85.5 -32.5t-70 29.5t-24 76t31 79.5t77 33t78.5 -31t32.5 -76.5t-39.5 -78z" />
<glyph unicode="&#xa9;" horiz-adv-x="1911" d="M816.5 177q63.5 -62 133.5 -62t117 26t74 57q71 84 125.5 84t78.5 -32t24 -84.5t-72 -106.5q-141 -110 -314 -110q-524 0 -524 911v19q0 487 80 714q59 160 121 219q121 112 259 111.5t277.5 -114t139.5 -233.5q0 -33 -24 -56.5t-66 -23.5t-77.5 26t-58 63.5t-44.5 74.5 q-53 90 -133.5 90t-149.5 -132q-141 -268 -141 -755q0 -304 74 -517q37 -107 100.5 -169zM321 1231q-5 -89 -5 -172t5 -169t13.5 -202t18.5 -288t44 -301q98 -374 473 -373q313 0 489.5 154t252.5 439v667q0 84 -29.5 200t-47.5 202t-50.5 190t-84.5 217q-105 228 -327 375 q-126 85 -215 85t-173 -49.5t-139.5 -128t-99 -187.5t-67.5 -217.5t-38.5 -230.5t-19.5 -211zM305 -154q-105 172 -137.5 552t-32.5 561.5t5.5 289t24 248.5t48.5 263t83.5 244t125.5 209q158 195 407 196q454 0 709 -475q194 -361 238 -899q12 -136 13 -262 q0 -1204 -876 -1204q-441 0 -608 277z" />
<glyph unicode="&#xaa;" horiz-adv-x="1072" d="M566 866l-84 -3q-22 9 -99 19l-81 -271q-56 -208 -71.5 -223t-42.5 6t-27 41q64 104 287 1042q23 212 39 240l43 -3q39 0 57 19q20 0 39 -13.5t19 -34.5l207 -1053q26 -140 26.5 -196t-24.5 -70q-65 0 -79.5 18.5t-14.5 59.5t-5.5 100.5t-11 95.5t-19 112.5t-16.5 98.5 q-60 15 -142 15zM408 983l114 -25q132 -12 154 -22h32l-152 651q-86 -387 -148 -604zM865 209q0 -11 -206 -19.5t-285.5 -8.5t-101.5 15q-21 16 -21 40q0 11 207.5 19t335.5 8q25 0 48 -16t23 -38z" />
<glyph unicode="&#xab;" horiz-adv-x="1128" d="M601 1902l30 6q37 0 67 -20t32 -56q-73 -167 -216.5 -565.5t-239.5 -601.5q31 -155 296 -592q257 -425 258 -493q0 -34 -32 -52.5t-66 -18.5t-189 262.5t-297 552.5t-142 341t86 268t194 475t125 302q5 42 34 99t60 90v3zM873 1843l11 -2l69 -54q-26 -208 -215 -580 q-184 -360 -185 -519q0 -23 213.5 -452.5t268.5 -528.5q-2 -14 0 -32.5t0.5 -37t-4.5 -34.5q-6 -37 -44 -37t-57 6q-50 16 -558 1110q3 87 164.5 437t173 391t22 87t21.5 80q11 33 28 77q39 88 92 89z" />
<glyph unicode="&#xac;" horiz-adv-x="1539" d="M1079 736l-847 -34q-33 0 -56 24t-23 57q0 112 338 111l275 -11l500 31q39 0 71.5 -26t32.5 -73.5t-29 -98.5q0 -167 37 -284q-5 -37 -27.5 -66.5t-56.5 -29.5q-98 0 -97 182l3 103q0 64 -8 106z" />
<glyph unicode="&#xad;" horiz-adv-x="1004" d="M813.5 811.5q32.5 -25.5 32.5 -65t-75 -68.5q-75 -30 -185 -40q-198 -22 -321 -21q-40 0 -72 26.5t-32 65t75.5 66.5t185.5 40q191 22 319 22q40 0 72.5 -25.5z" />
<glyph unicode="&#xae;" horiz-adv-x="1799" d="M1042 1612q0 352 -162 352q-95 0 -128.5 -47.5t-33.5 -135.5l12 -223q0 -268 36 -408q276 118 276 422v40zM831 -74q0 -104 -85 -104q-43 0 -78.5 28.5t-35.5 83.5t-26 190.5t-26 203.5v1526q0 170 71 226q67 54 220 54q352 0 352 -566q0 -262 -129 -385 q-28 -28 -52 -47.5t-28 -33.5q5 -118 271 -1015q0 -34 27 -91t27 -86t-29.5 -58.5t-55.5 -29.5q-99 0 -200 370q-59 214 -121.5 497t-80.5 328h-82q-8 -124 -7.5 -229.5t34.5 -407.5t34 -454zM970 2440q-640 0 -640 -1361q0 -1200 208 -1437q31 -36 100.5 -81.5t88.5 -59.5 h91v-31q366 5 527 335q150 308 150.5 911t-46.5 938q-109 784 -479 786zM1219 -632q-117 -62 -271 -62t-280.5 51.5t-209.5 130.5t-143.5 207t-92 246t-48.5 282q-26 237 -27 415v253q-5 81 -1.5 179.5t4 207t13 223t28 227.5t48 222.5t73 207t102.5 179t136 140.5 q158 127 397 127q132 0 253.5 -80.5t208.5 -203.5q143 -85 225 -879q39 -364 38.5 -556t-2 -287.5t-15.5 -277.5t-39.5 -300.5t-78 -266.5t-127 -235.5t-191.5 -149.5z" />
<glyph unicode="&#xaf;" horiz-adv-x="1010" d="M304 840l223 6q322 0 322 -85q0 -70 -102 -70l-229 -6q-353 0 -354 87q0 68 140 68z" />
<glyph unicode="&#xb0;" horiz-adv-x="1091" d="M517.5 997q-91.5 0 -148.5 -59q-96 -99 -96 -307q0 -74 75 -153.5t161 -79.5t146 25.5t94 63.5t55 86q36 79 36 139t-14.5 102t-48 85t-101 70.5t-159 27.5zM251 998.5q98 105.5 253 105.5q279 0 387 -180q54 -90 54.5 -161.5t-10 -124t-40.5 -118.5t-77 -117 q-110 -124 -313 -124q-102 0 -175 45t-110 118q-67 135 -67 293t98 263.5z" />
<glyph unicode="&#xb1;" horiz-adv-x="1154" d="M470 693l-19 232q0 175 102 175q37 0 65 -27t28 -64v-39q0 -9 -0.5 -47t0 -74.5t2.5 -75.5q3 -87 28 -86l184 12q164 0 165 -96q0 -37 -26.5 -62t-63.5 -25l-188 17q-101 0 -101 -76l30 -254q0 -39 -32 -63t-70.5 -24t-71 22.5t-32.5 58.5l9 308v23l-206 -14 q-135 0 -135 101q0 33 19.5 57.5t51.5 24.5l188 -10q40 0 73 6zM935 -175l-670 -16q-127 0 -127 101q0 33 19.5 52t51.5 19h662q115 0 134.5 -27t19.5 -56q0 -73 -90 -73z" />
<glyph unicode="&#xb2;" horiz-adv-x="895" d="M687 -394l-484 -29q-45 0 -80.5 26t-35.5 70v12q67 79 111.5 208.5t63.5 169.5q181 401 269.5 736t88.5 724.5t-152 401.5q-51 -28 -71 -152q-17 -116 -94 -116q-77 -1 -77 97q0 153 90 252q48 53 115 52v2q166 0 239 -102q56 -76 69.5 -136.5t19 -96.5t8.5 -91 q5 -84 5 -172q0 -274 -69 -621t-176 -587q-19 -43 -112 -228.5t-128 -292.5q192 33 359 33q78 -19 78 -71q0 -38 -37 -89z" />
<glyph unicode="&#xb3;" horiz-adv-x="930" d="M363 941v37q0 48 65 124q121 144 121 280q0 122 -22 253q-42 254 -144 254q-39 0 -64.5 -28.5t-36.5 -62t-38 -62t-66.5 -28.5t-64.5 25.5t-31 61.5q43 107 121.5 175t177.5 68t172 -79q68 -2 111 -242t43 -330.5t-15 -135.5t-29.5 -69t-50 -75.5t-48.5 -69.5 q195 -116 253 -659q12 -118 12 -203t-3 -140t-13 -129.5t-32.5 -129t-58.5 -105.5q-71 -102 -221 -102q-119 0 -176.5 49t-57.5 100v20h52q17 -3 44.5 -5.5t41.5 -3.5q33 -3 71 -30q194 8 194 357q0 465 -84 672q-42 102 -110 188q-6 -2 -30 -1.5t-83 26.5z" />
<glyph unicode="&#xb4;" horiz-adv-x="821" d="M246 1592q-106 0 -106 83v4q3 62 282 258q110 79 133 101q121 0 121 -87q0 -2 -14 -76q-102 -42 -221 -123t-195 -160z" />
<glyph unicode="&#xb5;" horiz-adv-x="1063" d="M826 1015l3 -54q-25 -119 -30 -386.5t-24.5 -434t-53 -293t-107 -210t-176.5 -84.5t-173 64q5 -138 5 -269.5t-98 -131.5q-33 0 -52 19t-19 52v466l-11 583v14l17 820q0 274 -39 454v76q76 0 120 -59t44 -131v-1536q0 -174 98 -272q54 -54 133 -54q60 0 104 188 q71 308 71.5 565.5t20.5 644t20 580.5l-2 53q0 37 17 55.5t65.5 18.5t71.5 -26.5t27 -53.5t4 -73l-22 -320z" />
<glyph unicode="&#xb6;" horiz-adv-x="1449" d="M865 2474q34 34 72 34t143 -27v-1h84v-6q67 -3 136 -27q69 -25 69 -73q0 -85 -124 -79l21 -925l-18 -1359l18 -355q0 -37 -26 -62t-64 -25q-115 0 -114 191l28 1664l-22 692l5 102q0 124 -93 124q-12 0 -12.5 -154t19 -520t19.5 -576t-28 -683t-28 -710 q0 -56 -19.5 -83.5t-66.5 -27.5t-74 28.5t-27 70.5q0 236 33 704t33 703l-6 208q-333 0 -504 87q-68 36 -124 102q-65 76 -83 200q-6 36 -14 54q0 284 85 428q91 153 257 215.5t425 85.5zM826 1460l-31 770v67q-42 12 -124 12q-164 0 -280.5 -143t-117.5 -311 q0 -321 260 -376q113 -25 270 -25z" />
<glyph unicode="&#xb7;" horiz-adv-x="559" d="M196 616q-32 35 -32 80.5t36 83t82.5 37.5t80.5 -37.5t34 -86t-35.5 -80.5t-84.5 -32t-81 35z" />
<glyph unicode="&#xb8;" horiz-adv-x="714" d="M174 -643q29 59 29 173v73h174q-17 -88 -21 -144q121 -23 176 -121t55 -216.5t-86.5 -210.5t-171 -92t-139 31.5t-54.5 75t22 63.5t64.5 20t87.5 -31q23 2 47 35.5t24 58t-5.5 50t-16 58t-13.5 48.5l54 -54v14q0 56 -26 80q-51 -8 -82.5 -7.5t-56 20t-61.5 76.5z" />
<glyph unicode="&#xb9;" horiz-adv-x="933" d="M603 -251q74 9 116 9v2q133 0 133 -79q0 -93 -361 -93l-94 -2q-59 0 -94 17t-35 70v68q101 -8 112 -8q70 0 70 53q0 480 -55 1246q-5 67 -17 188q-25 267 -25 407l5 117q0 149 -110 148l-73 -3q-90 0 -90 69q0 84 256 83q111 0 139 -52q-6 -11 -0.5 -67t5.5 -110t24 -248 t24 -367.5t35 -675t35 -752.5v-20z" />
<glyph unicode="&#xba;" horiz-adv-x="1129" d="M941 880q0 -251 -230 -407q-56 -39 -125 -39q-375 0 -375 541q0 48 4 117.5t61 398.5q17 95 102 146q48 29 128.5 29t178.5 -17q64 -11 123 -122q125 -202 133 -647zM313 1079q6 -552 259 -552q271 0 271 378q0 471 -99 571q-129 130 -209 130q-194 0 -222 -527zM856 296 q0 -11 -205.5 -19.5t-284.5 -8.5t-101 15t-22 39q0 11 208 19.5t335 8.5q23 0 46.5 -16t23.5 -38z" />
<glyph unicode="&#xbb;" horiz-adv-x="1170" d="M539 1910l24 -7v-1q34 -34 65 -90t37 -99q16 -40 124 -301q279 -670 279 -731t-142 -351.5t-296 -553.5t-189 -263t-66.5 18.5t-31.5 56t79.5 183t177.5 306.5q267 442 297 591q-93 195 -172 457q-141 479 -286 696q3 39 31.5 64t68.5 25zM240 -429l-65 -7 q-39 0 -60.5 35t-23.5 77q108 200 314 595t206 417q0 158 -140 434q-174 338 -215.5 457.5t-43.5 207.5l70 54v-3q68 -33 93 -85.5t31 -69.5q16 -37 39 -126t184 -436.5t165 -438.5z" />
<glyph unicode="&#xbc;" horiz-adv-x="2419" d="M603 -251q74 9 112 9v2q129 0 128 -79q0 -93 -352 -93l-94 -2q-59 0 -94 17t-35 70v68q101 -8 112 -8q70 0 70 53q0 480 -55 1246q-5 67 -17 188q-25 267 -25 407l5 117q0 149 -110 148l-73 -3q-90 0 -90 69q0 84 256 83q111 0 139 -52q-6 -11 -0.5 -67t5.5 -110t24 -248 t24 -367.5t35 -675t35 -752.5v-20zM944 -354q0 211 97.5 631t226.5 898.5t148 578.5q18 100 22 124l7 35q12 62 35.5 78t47.5 16t48 -21.5t24 -61t-10.5 -89t-27.5 -111.5q-67 -231 -218.5 -955t-164.5 -801t-25.5 -134t-34.5 -129q-43 -153 -107 -153q-68 44 -68 94z M2023 361l-169 -17v-2q-60 0 -126 52q0 71 14 122q-14 74 -14 180.5t24 325t24 320.5v588q0 62 61 62q36 0 64.5 -22t28.5 -57l-14 -247q0 -65 12 -115v-10q2 -14 2 -159t-22 -414t-22 -355t5 -120q51 2 113 17q-3 538 -25.5 690t-22.5 191.5t31 58.5t67 19l65 -55v-200 q0 -440 40 -690l92 8q95 0 94 -69q0 -46 -27 -61.5t-89 -15.5t-62 -28q0 -463 23 -518q-6 -37 -6 -67t15 -55v-58q1 -119 -75 -119q-48 0 -71.5 49t-23.5 101v11q11 37 11 115l-23 308q0 76 12 138q0 55 -6 98z" />
<glyph unicode="&#xbd;" horiz-adv-x="2495" d="M603 -251q74 9 112 9v2q129 0 128 -79q0 -93 -352 -93l-94 -2q-59 0 -94 17t-35 70v68q101 -8 112 -8q70 0 70 53q0 480 -55 1246q-5 67 -17 188q-25 267 -25 407l5 117q0 149 -110 148l-73 -3q-90 0 -90 69q0 84 256 83q111 0 139 -52q-6 -11 -0.5 -67t5.5 -110t24 -248 t24 -367.5t35 -675t35 -752.5v-20zM944 -354q0 211 97.5 631t226.5 898.5t148 578.5q18 100 22 124l7 35q12 62 35.5 78t47.5 16t48 -21.5t24 -61t-10.5 -89t-27.5 -111.5q-67 -231 -218.5 -955t-164.5 -801t-25.5 -134t-34.5 -129q-43 -153 -107 -153q-68 44 -68 94z M2286 -394l-476 -29q-43 0 -77 26t-34 70v12q60 76 104.5 206.5t62.5 171.5q178 405 266 738t88 722.5t-152 401.5q-51 -28 -72 -152q-17 -116 -90 -116q-74 -1 -74 97q0 153 87 252q47 53 111 52v2q166 0 239 -102q56 -76 70 -136.5t19.5 -96.5t8.5 -91q5 -84 5 -172 q0 -274 -69 -621t-176 -587q-12 -28 -107 -220t-129 -301q186 33 355 33l96 -81z" />
<glyph unicode="&#xbe;" horiz-adv-x="2411" d="M363 941v37q0 48 65 124q121 144 121 280q0 122 -22 253q-42 254 -144 254q-39 0 -64.5 -28.5t-36.5 -62t-38 -62t-66.5 -28.5t-64.5 25.5t-31 61.5q43 107 121.5 175t177.5 68t172 -79q68 -2 111 -242t43 -330.5t-15 -135.5t-29.5 -69t-50 -75.5t-48.5 -69.5 q195 -116 253 -659q12 -118 12 -203t-3 -140t-13 -129.5t-32.5 -129t-58.5 -105.5q-71 -102 -221 -102q-119 0 -176.5 49t-57.5 100v20h52q17 -3 44.5 -5.5t41.5 -3.5q33 -3 71 -30q194 8 194 357q0 465 -84 672q-42 102 -110 188q-6 -2 -30 -1.5t-83 26.5zM936 -354 q0 211 98 631t226.5 898.5t147.5 578.5q18 100 23 124l7 35q11 62 34.5 78t47.5 16t48.5 -21.5t24.5 -61t-10 -89t-28 -111.5q-60 -197 -215.5 -938t-168.5 -818t-25.5 -134t-32.5 -129q-45 -153 -109 -153q-68 44 -68 94zM2015 361l-169 -17v-2q-60 0 -126 52q0 71 14 122 q-14 74 -14 180.5t24.5 325t24.5 320.5v588q0 62 60 62q36 0 64.5 -22t28.5 -57l-14 -247q0 -65 12 -115v-10q2 -14 2 -159t-21.5 -414t-21.5 -355t4 -120q51 2 113 17q-3 538 -25.5 690t-22.5 191.5t31 58.5t67 19l65 -55v-200q0 -440 40 -690l92 8q95 0 94 -69 q0 -46 -27 -61.5t-89 -15.5t-62 -28q0 -463 23 -518q-6 -37 -6 -67t16 -55v-58q0 -119 -76 -119q-48 0 -71.5 49t-23.5 101v11q11 37 11 115l-22 308q0 84 11 138q0 55 -6 98z" />
<glyph unicode="&#xbf;" horiz-adv-x="719" d="M608 648q0 -71 -18.5 -134.5t-71.5 -114t-133 -50.5q-158 0 -206 92q-36 73 -54 176t-18 194q0 108 14 219t29 177t44 187q29 118 45 188.5t36 197t28 254.5q12 195 4 423l38 41q23 9 40 9q26 0 47 -19.5t27 -51.5v-5q0 -479 -60 -873q-16 -82 -52.5 -234t-57 -275 t-20.5 -235q0 -88 22.5 -202.5t51.5 -114.5h36q42 0 57 41t15 117q0 17 -6.5 70.5t-16.5 121.5q3 16 9.5 26t15.5 14.5t16 5t14 0.5h7q82 17 95 -40q11 -59 17 -110.5t6 -94.5zM493 2770q0 -48 -35.5 -86t-85.5 -38q-48 0 -81 39t-33 82q0 57 37 87.5t90 30.5q46 0 77 -36 t31 -79z" />
<glyph unicode="&#xc0;" horiz-adv-x="1098" d="M333 2328q-34 -3 -54 -3q-138 0 -138 96q0 79 43 105q107 0 135 -14t38 -20t72 -26t101.5 -35.5t92.5 -40.5q110 -51 110 -113q0 -26 -23 -44t-44 -18t-53 9t-74.5 24.5t-77.5 29t-77 30.5t-51 20zM747 293q-5 57 -31 342q-70 728 -70 814.5t2 94.5q-19 -22 -89.5 -450 t-79.5 -465t-29 -102q-42 -135 -45 -208q132 -36 218.5 -35.5t123.5 9.5zM760 1970q62 -445 130 -1158q68 -714 68 -1104q0 -107 -104 -106.5t-104 82.5v414q-45 31 -160.5 52.5t-205.5 27.5q-39 -65 -59.5 -265.5t-67.5 -276.5q-153 0 -169 63q71 104 290 1324 q84 482 102 559q85 409 185 410q59 0 95 -28v6z" />
<glyph unicode="&#xc1;" horiz-adv-x="1098" d="M658 2215q-106 0 -106 83v4q3 62 282 258q110 79 133 101q121 0 121 -87q0 -2 -14 -76q-102 -42 -221 -123t-195 -160zM747 293q-5 57 -31 342q-70 728 -70 814.5t2 94.5q-19 -22 -89.5 -450t-79.5 -465t-29 -102q-42 -135 -45 -208q132 -36 218.5 -35.5t123.5 9.5z M760 1970q62 -445 130 -1158q68 -714 68 -1104q0 -107 -104 -106.5t-104 82.5v414q-45 31 -160.5 52.5t-205.5 27.5q-39 -65 -59.5 -265.5t-67.5 -276.5q-153 0 -169 63q71 104 290 1324q84 482 102 559q85 409 185 410q59 0 95 -28v6z" />
<glyph unicode="&#xc2;" horiz-adv-x="1098" d="M882 2331l28 -39q0 -36 -31.5 -56.5t-69.5 -20.5h-68q-26 265 -62 412q-12 -37 -34 -107.5t-34 -109.5q-37 -105 -107 -194l-104 75q6 59 56 198.5t123.5 267t126.5 127.5q81 0 80 -103q0 -70 48 -192.5t48 -176.5v-81zM747 293q-5 57 -31 342q-70 728 -70 814.5t2 94.5 q-19 -22 -89.5 -450t-79.5 -465t-29 -102q-42 -135 -45 -208q132 -36 218.5 -35.5t123.5 9.5zM760 1970q62 -445 130 -1158q68 -714 68 -1104q0 -107 -104 -106.5t-104 82.5v414q-45 31 -160.5 52.5t-205.5 27.5q-39 -65 -59.5 -265.5t-67.5 -276.5q-153 0 -169 63 q71 104 290 1324q84 482 102 559q85 409 185 410q59 0 95 -28v6z" />
<glyph unicode="&#xc3;" horiz-adv-x="1098" d="M865 2447l-20 70q25 50 74.5 50t77.5 -45t28 -114t-61.5 -130.5t-133.5 -61.5t-132.5 33.5t-96 68.5t-86.5 94v3l-82 -48v-152q-53 0 -103.5 24t-50.5 67q0 108 63 185t168 77l158 -80q14 -37 47.5 -74.5t67.5 -37.5v2q9 9 31 20q51 21 51 49zM747 293q-5 57 -31 342 q-70 728 -70 814.5t2 94.5q-19 -22 -89.5 -450t-79.5 -465t-29 -102q-42 -135 -45 -208q132 -36 218.5 -35.5t123.5 9.5zM760 1970q62 -445 130 -1158q68 -714 68 -1104q0 -107 -104 -106.5t-104 82.5v414q-45 31 -160.5 52.5t-205.5 27.5q-39 -65 -59.5 -265.5 t-67.5 -276.5q-153 0 -169 63q71 104 290 1324q84 482 102 559q85 409 185 410q59 0 95 -28v6z" />
<glyph unicode="&#xc4;" horiz-adv-x="1098" d="M898.5 2247.5q-29.5 32.5 -29.5 76t34.5 79t77.5 35.5t75 -35t32 -80.5t-35.5 -76.5t-80 -31t-74 32.5zM397.5 2247.5q-39.5 -32.5 -85.5 -32.5t-70 29.5t-24 76t31 79.5t77 33t78.5 -31t32.5 -76.5t-39.5 -78zM747 293q-5 57 -31 342q-70 728 -70 814.5t2 94.5 q-19 -22 -89.5 -450t-79.5 -465t-29 -102q-42 -135 -45 -208q132 -36 218.5 -35.5t123.5 9.5zM760 1970q62 -445 130 -1158q68 -714 68 -1104q0 -107 -104 -106.5t-104 82.5v414q-45 31 -160.5 52.5t-205.5 27.5q-39 -65 -59.5 -265.5t-67.5 -276.5q-153 0 -169 63 q71 104 290 1324q84 482 102 559q85 409 185 410q59 0 95 -28v6z" />
<glyph unicode="&#xc5;" horiz-adv-x="1098" d="M530.5 2095q-46.5 51 -46.5 119.5t54 126.5t123 58t120 -56t51 -129.5t-55 -121.5t-127.5 -48t-119 51zM660 2224l-37 -47h59q0 67 -22 89v-42zM747 293q-5 57 -31 342q-70 728 -70 814.5t2 94.5q-19 -22 -89.5 -450t-79.5 -465t-29 -102q-42 -135 -45 -208 q132 -36 218.5 -35.5t123.5 9.5zM760 1970q62 -445 130 -1158q68 -714 68 -1104q0 -107 -104 -106.5t-104 82.5v414q-45 31 -160.5 52.5t-205.5 27.5q-39 -65 -59.5 -265.5t-67.5 -276.5q-153 0 -169 63q71 104 290 1324q84 482 102 559q85 409 185 410q59 0 95 -28v6z" />
<glyph unicode="&#xc6;" horiz-adv-x="1424" d="M885 -273l349 33q39 0 72 -21t33 -57q0 -101 -378 -101h-47q-25 0 -65 -22.5t-60 -25.5l-68 70v2q28 290 28 387l-16 589q-22 -2 -65 -4t-70 -4q-78 -8 -128 -26l-157 -597q-3 -14 -16 -83.5t-25.5 -120.5t-41 -97.5t-59 -46.5t-49 23t-18.5 89t40 266t115.5 469.5 t135 473.5t146.5 483.5t95.5 308.5t17 60t11.5 42.5t13 40t18 42.5t22 35t28 30q37 28 72 28l242 16q135 0 135 -87v-74q-192 0 -330 -16l22 -425q0 -116 -5 -348.5t-5 -348.5q28 3 105.5 16t121.5 13l80 -74q0 -102 -189 -102h-119zM728 694q11 401 11 614.5t-3 280.5 q-164 -567 -235 -923q143 9 227 28z" />
<glyph unicode="&#xc7;" horiz-adv-x="1060" d="M318 1147l-28 -222q0 -166 42.5 -591.5t82.5 -487.5q68 -104 217 -103.5t227 91.5q54 0 100 16v-42q0 -214 -237 -251q-14 -84 -15 -148q121 -23 176 -120.5t55 -216t-87 -211t-171.5 -92.5t-138.5 32t-54 75.5t21.5 63.5t64 20t87.5 -31q23 3 47.5 35.5t24.5 56.5 t-5.5 50.5t-16.5 59t-14 47.5l54 -54v16q0 53 -26 79q-51 -8 -83 -8t-56 19.5t-61 76.5q29 60 29 175v72q-93 20 -178 85.5t-135.5 176.5t-81.5 580.5t-31 730t22 372.5q-9 51 -9 99q0 195 145.5 310.5t359.5 115.5q76 0 148.5 -42.5t72.5 -112.5q0 -34 -26 -52.5t-75 -18.5 t-69 39v-7h-50v13q-245 0 -307 -206q-31 -104 -31 -272z" />
<glyph unicode="&#xc8;" horiz-adv-x="1041" d="M747 761l-79 3q-36 0 -56 -23v-980q163 9 168 9q177 0 176 -83v-11q-22 -43 -73.5 -66.5t-90.5 -26.5t-102 -3h-99q-121 0 -148 45q-14 23 -14 59v2291l275 27q48 0 96.5 -28.5t48.5 -74.5q0 -95 -144 -95l-91 3q-23 0 -34 -1l24 -524q0 -64 -7.5 -185.5t-7.5 -177.5 q17 3 47 11q65 17 101 17t65 -26.5t29 -63.5t-23.5 -66.5t-60.5 -29.5zM260 2333q-31 -3 -54 -3q-138 0 -138 96q0 79 44 105q107 0 134.5 -14t37.5 -20t72 -26.5t102 -36t94 -39.5q108 -51 108 -113q0 -26 -23 -44t-44 -18t-53 9t-74.5 24.5t-77.5 28.5t-77 30.5t-51 20.5z " />
<glyph unicode="&#xc9;" horiz-adv-x="818" d="M327 2220q-107 0 -107 83v3q3 62 282 261q110 78 134 99q121 0 120 -87q0 -2 -14 -76q-102 -42 -220.5 -123t-194.5 -160zM488 766l-79 3q-37 0 -56 -24v-979q163 9 168 9q177 0 177 -84v-10q-22 -43 -74 -66.5t-91 -27t-102 -3.5h-99q-121 0 -149 47q-13 22 -13 57v2291 l275 28q48 0 97 -28.5t49 -75.5q0 -95 -145 -94l-91 3q-23 0 -34 -2l25 -524q0 -64 -8 -185t-8 -177q17 3 47 11q65 17 101.5 17t65 -26.5t28.5 -64t-23.5 -66.5t-60.5 -29z" />
<glyph unicode="&#xca;" horiz-adv-x="790" d="M496 762l-79 4q-37 0 -56 -24v-979q163 9 168 9q177 0 176 -84v-10q-22 -43 -73.5 -66.5t-90.5 -27t-102 -3.5h-100q-121 0 -147 47q-14 22 -14 57v2291l275 28q48 0 96.5 -28.5t48.5 -75.5q0 -95 -144 -94l-91 3q-23 0 -34 -2l24 -524q0 -64 -7.5 -185.5t-7.5 -176.5 q17 3 46 10q65 17 101.5 17t65.5 -26t29 -63.5t-23.5 -67t-60.5 -29.5zM560 2337l27 -38q0 -36 -31.5 -57t-68.5 -21h-69q-26 265 -62 412q-12 -37 -33.5 -107.5t-34.5 -109.5q-37 -105 -107 -193l-103 74q6 59 55.5 198.5t123 267.5t126.5 128q81 0 80 -104 q0 -70 48.5 -192.5t48.5 -176.5v-81z" />
<glyph unicode="&#xcb;" horiz-adv-x="1004" d="M668 761l-79 3q-37 0 -56 -23v-980q163 9 168 9q177 0 176 -83v-11q-22 -43 -73.5 -66.5t-90.5 -26.5t-102 -3h-99q-121 0 -149 45q-12 23 -13 59v2291l275 27q48 0 96.5 -28.5t48.5 -74.5q0 -95 -144 -95l-91 3q-23 0 -34 -1l24 -524q0 -64 -7.5 -185.5t-7.5 -177.5 q17 3 46 11q65 17 101.5 17t65.5 -26.5t29 -63.5t-23.5 -66.5t-60.5 -29.5zM747.5 2252.5q-29.5 32.5 -29.5 75.5t34 79t77.5 36t75 -35t31.5 -80.5t-35.5 -76.5t-79.5 -31t-73.5 32.5zM245.5 2252.5q-39.5 -32.5 -84.5 -32.5t-69.5 30t-24.5 75.5t31 79t76.5 33.5t78 -31 t32.5 -76.5t-39.5 -78z" />
<glyph unicode="&#xcc;" horiz-adv-x="1055" d="M887 -389l-115 15v2h-57q-16 0 -42 -9q-46 -16 -76 -2q-200 0 -200 78.5t96 78.5l67 -5q46 0 46 74q0 245 -29.5 734t-29.5 734l6 324q0 102 -7 177q-42 -14 -75 -14q-74 0 -74 76q0 39 48 67.5t119 40.5q133 23 197.5 23.5t92.5 -25.5t28 -60.5t-21 -60t-53 -25.5l-56 1 q-31 0 -46 -13t-15 -52q0 -310 40.5 -928.5t40.5 -928.5v-122q33 5 62 4q132 0 132 -111v-19zM262 2333q-31 -3 -54 -3q-138 0 -138 96q0 79 43 105q107 0 135 -14t38 -20t72 -26.5t101.5 -36t92.5 -39.5q110 -51 110 -113q0 -26 -23.5 -44t-44 -18t-52.5 9t-74.5 24.5 t-77.5 28.5t-77 30.5t-51 20.5z" />
<glyph unicode="&#xcd;" horiz-adv-x="778" d="M287 2220q-107 0 -107 83v3q3 62 282 261q110 78 133 99q121 0 121 -87q0 -2 -14 -76q-102 -42 -220.5 -123t-194.5 -160zM584 -384l-114 15v2h-58q-16 0 -40 -8q-48 -17 -78 -3q-200 0 -199.5 78t96.5 78l66 -4q46 0 47 74q0 245 -29.5 734t-29.5 734l6 324 q0 102 -8 176q-42 -14 -74 -13q-74 -1 -74 75q0 39 48 68t119 41q133 23 197.5 23t92.5 -25.5t28 -60.5t-21 -60.5t-54 -25.5l-55 2q-31 0 -46 -13.5t-15 -51.5q0 -310 40.5 -928.5t40.5 -928.5v-123q33 5 62 5q132 0 131 -112v-18z" />
<glyph unicode="&#xce;" horiz-adv-x="793" d="M625 -388l-115 16v1h-57q-16 0 -41 -7q-48 -17 -77 -3q-200 0 -200 78t96 78l67 -5q46 0 46 75q0 245 -29.5 734t-29.5 734l6 324q0 102 -7 176q-42 -14 -75 -14q-74 0 -74 76q0 39 48 68t119 41q133 23 197.5 23t92.5 -25.5t28 -60.5t-21 -60.5t-53 -25.5l-56 2 q-31 0 -46 -13.5t-15 -51.5q0 -310 40.5 -928.5t40.5 -928.5v-123q33 5 62 5q132 0 132 -112v-18zM549 2339l28 -39q0 -36 -32 -56.5t-69 -20.5h-68q-26 265 -62 412q-12 -37 -34 -107.5t-36 -109.5q-36 -105 -106 -194l-103 75q6 59 55.5 198t123 267t126.5 128 q81 0 81 -104q0 -70 48 -192t48 -177v-80z" />
<glyph unicode="&#xcf;" horiz-adv-x="1007" d="M809 -389l-115 15v2h-57q-16 0 -42 -9q-46 -16 -76 -2q-200 0 -200 78.5t96 78.5l67 -5q46 0 47 74q0 245 -29.5 734t-29.5 734l6 324q0 102 -8 177q-42 -14 -74 -14q-74 0 -75 76q0 39 48 67.5t120 40.5q133 23 197.5 23.5t92 -25.5t27.5 -60.5t-20.5 -60t-53.5 -25.5 l-56 1q-31 0 -45.5 -13t-14.5 -52q0 -310 40 -928.5t40 -928.5v-122q33 5 62 4q132 0 132 -111v-19zM750.5 2252.5q-29.5 32.5 -29.5 75.5t34 79t77.5 36t75 -35t31.5 -80.5t-35.5 -76.5t-79.5 -31t-73.5 32.5zM248.5 2252.5q-39.5 -32.5 -84.5 -32.5t-69.5 30t-24.5 75.5 t31 79t76.5 33.5t78 -31t32.5 -76.5t-39.5 -78z" />
<glyph unicode="&#xd0;" horiz-adv-x="1345" d="M496 1369v-2q6 -231 43.5 -714.5t41.5 -736.5q391 341 433 930q8 121 7.5 254.5t-1 212.5t-6.5 209t-17 229.5t-32 229.5t-50.5 229t-75 207.5t-101.5 186.5q-129 177 -309 246v-415q0 -572 65 -894q51 3 173 18.5t178 15.5t83.5 -39t30.5 -85l-52 -64q-262 1 -411 -18z M73 1435q0 93 194 93h48q-2 229 -35.5 699t-33.5 712q0 34 26.5 68t60.5 34q101 0 267 -106t293.5 -252t127.5 -245q0 -316 91 -792t91 -814.5t-183 -670.5t-493 -491v3q-93 28 -127 93q0 1062 -81 1596q-130 -19 -166.5 -18.5t-58 27.5t-21.5 64z" />
<glyph unicode="&#xd1;" horiz-adv-x="1229" d="M1048 1838l-13 -1173v-970q0 -54 -35.5 -91t-88 -37t-76.5 24.5t-31 50.5t-14 72t-29 125t-113 381q-188 608 -254 987q-2 11 -3 38q-3 56 -22 79q2 65 -28.5 166.5t-35.5 121.5v-2009h-111v59q6 23 -2 97.5t-8 177t-20 471t-20 451.5v404l22 583q0 118 17 132 q40 31 91.5 31t85.5 -28t34 -74t14 -97.5t39.5 -116t38.5 -110t25.5 -158t32 -211t92 -327t129.5 -437t69 -388.5q28 -46 32 -113l11 1106v940q19 79 105 79t86 -124v-19q-20 -42 -20 -93zM770 2461l-20 70q25 50 73 50t76 -45t28 -114t-60.5 -130.5t-131 -61.5t-129.5 33.5 t-94.5 68.5t-85.5 94v3l-80 -48v-152q-53 0 -102.5 24t-49.5 67q0 107 62 184.5t166 77.5l155 -80q14 -37 47 -74.5t66 -37.5v2q9 9 32 20q48 21 48 49z" />
<glyph unicode="&#xd2;" horiz-adv-x="1075" d="M192 2328q-34 -3 -54 -3q-138 0 -138 96q0 79 43 105q107 0 135 -14t38 -20t72 -26t101.5 -35.5t92.5 -40.5q110 -51 110 -113q0 -26 -23 -44t-44 -18t-53 9t-74.5 24.5t-77.5 29t-77 30.5t-51 20zM572.5 1845q-45.5 44 -88 44t-69 -21.5t-45 -65t-34 -92t-25.5 -119.5 t-18 -128t-12.5 -136t-7.5 -129t-4 -119.5t-1 -92.5v-65q0 -256 48 -586q96 -649 271 -650q62 0 105.5 118.5t60.5 297.5q31 302 31 437.5t-0.5 194.5t-4.5 171.5t-13.5 211t-23.5 217.5t-38 212t-55 174.5t-76.5 125.5zM928 558l-27 -402v-14q-20 -88 -20.5 -190 t-35 -197.5t-107 -169t-157.5 -73.5t-155.5 58.5t-116 151t-81.5 220.5t-54.5 249.5t-30.5 256.5q-17 206 -17 338.5t4 217.5q6 157 14 278.5t9.5 186.5t3 110t9.5 111t18.5 112.5t33 97.5t53.5 84q71 73 159.5 73t141.5 -17t89.5 -44.5t66.5 -71.5t49.5 -86t34.5 -101 q20 -74 40 -212q76 -542 76 -967z" />
<glyph unicode="&#xd3;" horiz-adv-x="1075" d="M522 2215q-106 0 -106 83v4q3 62 282 258q110 79 133 101q121 0 121 -87q0 -2 -14 -76q-102 -42 -221 -123t-195 -160zM572.5 1845q-45.5 44 -88 44t-69 -21.5t-45 -65t-34 -92t-25.5 -119.5t-18 -128t-12.5 -136t-7.5 -129t-4 -119.5t-1 -92.5v-65q0 -256 48 -586 q96 -649 271 -650q62 0 105.5 118.5t60.5 297.5q31 302 31 437.5t-0.5 194.5t-4.5 171.5t-13.5 211t-23.5 217.5t-38 212t-55 174.5t-76.5 125.5zM928 558l-27 -402v-14q-20 -88 -20.5 -190t-35 -197.5t-107 -169t-157.5 -73.5t-155.5 58.5t-116 151t-81.5 220.5 t-54.5 249.5t-30.5 256.5q-17 206 -17 338.5t4 217.5q6 157 14 278.5t9.5 186.5t3 110t9.5 111t18.5 112.5t33 97.5t53.5 84q71 73 159.5 73t141.5 -17t89.5 -44.5t66.5 -71.5t49.5 -86t34.5 -101q20 -74 40 -212q76 -542 76 -967z" />
<glyph unicode="&#xd4;" horiz-adv-x="1075" d="M693 2337l28 -38q0 -36 -32 -57t-67 -21h-67q-28 276 -61 412q-12 -36 -33 -107t-33 -108q-37 -107 -106 -195l-102 74q11 108 118 351t184.5 243t77.5 -104q0 -70 46.5 -192.5t46.5 -176.5v-81zM415.5 1867.5q26.5 21.5 69 21.5t88 -44t76.5 -125.5t55 -174.5t38 -212 t23.5 -217.5t12.5 -210.5q6 -158 6 -269.5t-6 -234t-24 -301t-61.5 -297t-105.5 -118.5q-87 0 -154 160t-101 384q-64 436 -64 692v65q0 138 4 200t8.5 141t12.5 136t18 128t25.5 119.5t34 92t45 65zM908 156l20 402q0 527 -93 1076q-45 265 -175 362q-82 60 -172.5 60.5 t-138 -20.5t-78.5 -53t-53.5 -83t-33 -97.5t-18.5 -112.5t-9.5 -111t-3 -110t-3.5 -103t-10 -157q-14 -250 -14 -349t3 -188t14.5 -224t30 -256.5t54.5 -249.5t81.5 -220.5t116 -151t155.5 -58.5t157.5 73.5t108 169t35.5 183.5t26 204v14z" />
<glyph unicode="&#xd5;" horiz-adv-x="1081" d="M682 2452l-20 70q25 50 73 49.5t76 -45.5t28 -113.5t-60.5 -130t-131 -61.5t-129.5 33.5t-94.5 68t-85.5 93.5v3l-81 -48v-151q-53 0 -103 24t-50 67q0 108 62 185t167 77l155 -81q14 -37 47.5 -74t65.5 -37v1q9 9 31 20q50 22 50 50zM421.5 1867.5q26.5 21.5 69 21.5 t88.5 -44t77 -125.5t55 -174.5t38 -212t23 -217.5t12 -210.5q6 -158 6 -269.5t-6 -234t-24 -301t-61 -297t-105 -118.5q-87 0 -154.5 160t-101.5 384q-64 436 -64 692v65q0 138 4 200t8.5 141t12.5 136t18 128t25.5 119.5t34 92t45 65zM914 156l21 402q0 527 -93 1076 q-46 265 -176 362q-82 60 -172.5 60.5t-138 -20.5t-78.5 -53t-53 -83t-33 -97.5t-19 -112.5t-9.5 -111t-3 -110t-4 -103t-9.5 -157q-14 -250 -14 -349t3 -188t14.5 -224t30 -256.5t54.5 -249.5t81.5 -220.5t116 -151t156 -58.5t157.5 73.5t107.5 169t35.5 183.5t26 204v14z " />
<glyph unicode="&#xd6;" horiz-adv-x="1114" d="M946 155l20 401q0 524 -93 1074q-45 267 -175 363q-82 62 -173 62t-138.5 -21t-78.5 -52.5t-53.5 -82.5t-33 -98t-18.5 -112.5t-9.5 -110.5t-3 -110t-4 -103t-9.5 -156q-14 -251 -14 -350.5t3 -188.5t14.5 -224t30 -256.5t54.5 -249.5t81.5 -220t116 -151t156 -59 t157.5 73.5t107.5 169t35.5 183.5q1 89 27 205v14zM452.5 1866q26.5 22 69 22t88.5 -44.5t77 -125.5t55 -174t38 -212.5t23 -218t12 -211.5q6 -157 6.5 -268.5t-6 -234t-24.5 -300.5t-61 -296.5t-105 -118.5q-87 0 -154.5 159.5t-101.5 385.5q-64 434 -64 690v65 q0 138 4 200t8.5 141t12.5 136.5t18 128t25.5 119.5t34 92t45 65zM745.5 2252.5q-27.5 32.5 -27.5 75.5t33 79t76 36t74.5 -35t31.5 -80.5t-35.5 -76.5t-80 -31t-72 32.5zM253.5 2252.5q-39.5 -32.5 -85.5 -32.5t-70 29t-24 75.5t31 80t77 33.5t78.5 -31t32.5 -76.5 t-39.5 -78z" />
<glyph unicode="&#xd7;" horiz-adv-x="1001" d="M707 218q-14 12 -67 76q-144 172 -160 177q-16 -2 -52 -53q-113 -152 -183 -152q-36 0 -66 29.5t-30 60t41.5 74t95.5 90.5t70 69q-8 8 -89 73q-166 132 -166 214q0 36 28.5 62t55.5 26t86 -49.5t132 -118.5t84 -78q43 22 96 93q98 132 172 131q33 0 58.5 -26t25.5 -59.5 t-33.5 -69t-73.5 -62.5q-107 -67 -107 -128q0 -54 123 -128t123 -127.5t-35 -88.5t-78 -35h-51z" />
<glyph unicode="&#xd8;" horiz-adv-x="959" d="M493 2006l81 382h119q-3 -81 -36.5 -248t-33.5 -257q0 -33 54 -82v-84q2 -37 38.5 -110t36.5 -111v-25q3 -91 24.5 -281t23 -270t3.5 -201q6 -282 6 -382t-0.5 -145.5t-7.5 -131.5t-19 -143t-38 -127q-25 -70 -60 -112q-85 -102 -217 -103q-71 0 -128 31 q-11 -71 -40 -228l-42 -212l-108 87q0 93 45.5 273.5t45.5 273.5q-102 341 -99 958l5 559v75q0 316 77 496q64 146 186 146q43 0 84 -35v7zM491 -288q164 0 165 607v267q0 620 -67 1024q-23 -188 -70.5 -761t-87 -781.5t-39.5 -258t18.5 -73.5t80.5 -24zM417 1913v-2h-53 v-17q-78 -166 -77 -976q0 -127 19.5 -305.5t23.5 -232.5q26 245 59.5 608.5t43.5 457t18 148.5t12 92q12 96 13 146q0 76 -59 81z" />
<glyph unicode="&#xd9;" d="M262 2328q-34 -3 -54 -3q-138 0 -138 96q0 79 43 105q107 0 135 -14t38 -20t72 -26t101.5 -35.5t92.5 -40.5q110 -51 110 -113q0 -26 -23 -44t-44 -18t-53 9t-74.5 24.5t-77.5 29t-77 30.5t-51 20zM1000 508l9 -195v-48l-8 -34l2 -185q0 -279 -79 -395 q-74 -108 -231 -108q-191 0 -290 138q-87 118 -127 316q-51 239 -82 338q-3 8 -35 710t-32 779q-23 26 -23 65t27 68.5t64 29.5q115 0 115 -226l29 -1104q19 -42 32 -169t13 -197.5t22.5 -173.5t61.5 -208.5t105 -180t140 -74.5q121 0 127 219q2 28 2 66v1425 q0 90 -34.5 272t-34.5 246.5t32 88.5t72 24l96 -75v-52l-27 -194q0 -184 23 -540t25 -528v-5z" />
<glyph unicode="&#xda;" d="M592 2215q-106 0 -106 83v4q3 62 282 258q110 79 133 101q121 0 121 -87q0 -2 -14 -76q-102 -42 -221 -123t-195 -160zM1000 508l9 -195v-48l-8 -34l2 -185q0 -279 -79 -395q-74 -108 -231 -108q-191 0 -290 138q-87 118 -127 316q-51 239 -82 338q-3 8 -35 710t-32 779 q-23 26 -23 65t27 68.5t64 29.5q115 0 115 -226l29 -1104q19 -42 32 -169t13 -197.5t22.5 -173.5t61.5 -208.5t105 -180t140 -74.5q121 0 127 219q2 28 2 66v1425q0 90 -34.5 272t-34.5 246.5t32 88.5t72 24l96 -75v-52l-27 -194q0 -184 23 -540t25 -528v-5z" />
<glyph unicode="&#xdb;" d="M806 2331l28 -39q0 -36 -31.5 -56.5t-69.5 -20.5h-68q-26 265 -62 412q-12 -37 -34 -107.5t-34 -109.5q-37 -105 -107 -194l-104 75q6 59 56 198.5t123.5 267t126.5 127.5q81 0 80 -103q0 -70 48 -192.5t48 -176.5v-81zM1000 508l9 -195v-48l-8 -34l2 -185 q0 -279 -79 -395q-74 -108 -231 -108q-191 0 -290 138q-87 118 -127 316q-51 239 -82 338q-3 8 -35 710t-32 779q-23 26 -23 65t27 68.5t64 29.5q115 0 115 -226l29 -1104q19 -42 32 -169t13 -197.5t22.5 -173.5t61.5 -208.5t105 -180t140 -74.5q121 0 127 219q2 28 2 66 v1425q0 90 -34.5 272t-34.5 246.5t32 88.5t72 24l96 -75v-52l-27 -194q0 -184 23 -540t25 -528v-5z" />
<glyph unicode="&#xdc;" d="M819.5 2247.5q-29.5 32.5 -29.5 76t34.5 79t77.5 35.5t75 -35t32 -80.5t-35.5 -76.5t-80 -31t-74 32.5zM318.5 2247.5q-39.5 -32.5 -85.5 -32.5t-70 29.5t-24 76t31 79.5t77 33t78.5 -31t32.5 -76.5t-39.5 -78zM1000 508l9 -195v-48l-8 -34l2 -185q0 -279 -79 -395 q-74 -108 -231 -108q-191 0 -290 138q-87 118 -127 316q-51 239 -82 338q-3 8 -35 710t-32 779q-23 26 -23 65t27 68.5t64 29.5q115 0 115 -226l29 -1104q19 -42 32 -169t13 -197.5t22.5 -173.5t61.5 -208.5t105 -180t140 -74.5q121 0 127 219q2 28 2 66v1425 q0 90 -34.5 272t-34.5 246.5t32 88.5t72 24l96 -75v-52l-27 -194q0 -184 23 -540t25 -528v-5z" />
<glyph unicode="&#xdd;" horiz-adv-x="809" d="M440 2215q-106 0 -106 83v4q3 62 282 258q110 79 133 101q121 0 121 -87q0 -2 -14 -76q-102 -42 -221 -123t-195 -160zM547 -116l-1 -158v-72q0 -42 -28 -67.5t-63 -25.5t-59 22.5t-24 55.5l16 614q0 93 -30.5 275t-30.5 292.5t-38 269.5t-84 286q-122 332 -123 569 q0 51 101 51q23 0 48 -18.5t26 -41.5q31 -366 158 -777q6 28 15 132.5t20.5 215t29.5 223.5q42 256 126.5 255.5t84.5 -34.5q0 -178 -76 -531.5t-76 -536.5l10 -110v-48q0 1 -2 -841z" />
<glyph unicode="&#xde;" horiz-adv-x="857" d="M186 -310l-34 1920v295q0 95 76 94q108 0 108 -192l-3 -110q129 -19 222 -118q175 -188 175 -483q0 -231 -99 -421.5t-288 -296.5l23 -663q0 -132 -104 -132q-39 0 -57.5 33.5t-18.5 73.5zM335 532q231 228 231 537q0 232 -81 329q-42 51 -147 138q0 -167 -1.5 -502 t-1.5 -502z" />
<glyph unicode="&#xdf;" horiz-adv-x="961" d="M180 434l-23 1102q0 370 173 485q56 36 125.5 36t122.5 -37.5t83 -93t49 -128.5q34 -126 34 -262q0 -281 -189 -605q167 -129 223.5 -269t56.5 -346q0 -417 -275 -640l-24 -6q-25 0 -49 15.5t-24 40t34.5 77.5t75.5 108.5t75 144t34 215.5t-27 247t-66.5 180t-78.5 98.5 t-66 67.5t-27 56t45 137q132 330 132 518q0 76 -22 155q-42 153 -113 153q-108 0 -140 -197q-8 -43 -7.5 -223t24.5 -824t24 -968q0 -67 -21 -105.5t-82 -38.5q-93 0 -93 79z" />
<glyph unicode="&#xe0;" horiz-adv-x="1044" d="M327 2007q-34 -3 -54 -3q-138 0 -138 96q0 79 43 105q107 0 135 -14t38 -20t72 -26t101.5 -35.5t92.5 -40.5q110 -51 110 -113q0 -26 -23 -44t-44 -18t-53 9t-74.5 24.5t-77.5 29t-77 30.5t-51 20zM887 113l-17 -63q0 -39 27.5 -189.5t27.5 -196.5v-4q0 -71 -48 -89 q-67 0 -104 21.5t-37 109t-46 360.5l-98 9h-105q-36 16 -126 16q0 -3 -4 -41t-6 -61.5t-7.5 -69t-11.5 -77.5t-15.5 -74.5t-21 -71t-25.5 -55.5q-28 -54 -68.5 -54t-72 24t-31.5 61q84 321 143.5 673t71 417.5t54 254t51 252t16.5 164.5q14 220 57 284h107q108 0 109 -65 q0 -612 119 -1217q6 -36 23 -99q38 -138 38 -219zM670 181q-9 46 -9.5 150t-13.5 252.5t-38 343.5t-34 282q-19 -90 -73 -301q-110 -439 -113 -676q55 -35 281 -51z" />
<glyph unicode="&#xe1;" horiz-adv-x="1044" d="M657 1894q-106 0 -106 83v4q3 62 282 258q110 79 133 101q121 0 121 -87q0 -2 -14 -76q-102 -42 -221 -123t-195 -160zM887 113l-17 -63q0 -39 27.5 -189.5t27.5 -196.5v-4q0 -71 -48 -89q-67 0 -104 21.5t-37 109t-46 360.5l-98 9h-105q-36 16 -126 16q0 -3 -4 -41 t-6 -61.5t-7.5 -69t-11.5 -77.5t-15.5 -74.5t-21 -71t-25.5 -55.5q-28 -54 -68.5 -54t-72 24t-31.5 61q84 321 143.5 673t71 417.5t54 254t51 252t16.5 164.5q14 220 57 284h107q108 0 109 -65q0 -612 119 -1217q6 -36 23 -99q38 -138 38 -219zM670 181q-9 46 -9.5 150 t-13.5 252.5t-38 343.5t-34 282q-19 -90 -73 -301q-110 -439 -113 -676q55 -35 281 -51z" />
<glyph unicode="&#xe2;" horiz-adv-x="1044" d="M871 2010l28 -39q0 -36 -31.5 -56.5t-69.5 -20.5h-68q-26 265 -62 412q-12 -37 -34 -107.5t-34 -109.5q-37 -105 -107 -194l-104 75q6 59 56 198.5t123.5 267t126.5 127.5q81 0 80 -103q0 -70 48 -192.5t48 -176.5v-81zM887 113l-17 -63q0 -39 27.5 -189.5t27.5 -196.5 v-4q0 -71 -48 -89q-67 0 -104 21.5t-37 109t-46 360.5l-98 9h-105q-36 16 -126 16q0 -3 -4 -41t-6 -61.5t-7.5 -69t-11.5 -77.5t-15.5 -74.5t-21 -71t-25.5 -55.5q-28 -54 -68.5 -54t-72 24t-31.5 61q84 321 143.5 673t71 417.5t54 254t51 252t16.5 164.5q14 220 57 284h107 q108 0 109 -65q0 -612 119 -1217q6 -36 23 -99q38 -138 38 -219zM670 181q-9 46 -9.5 150t-13.5 252.5t-38 343.5t-34 282q-19 -90 -73 -301q-110 -439 -113 -676q55 -35 281 -51z" />
<glyph unicode="&#xe3;" horiz-adv-x="1044" d="M852 2126l-20 70q25 50 74.5 50t77.5 -45t28 -114t-61.5 -130.5t-133.5 -61.5t-132.5 33.5t-96 68.5t-86.5 94v3l-82 -48v-152q-53 0 -103.5 24t-50.5 67q0 108 63 185t168 77l158 -80q14 -37 47.5 -74.5t67.5 -37.5v2q9 9 31 20q51 21 51 49zM887 113l-17 -63 q0 -39 27.5 -189.5t27.5 -196.5v-4q0 -71 -48 -89q-67 0 -104 21.5t-37 109t-46 360.5l-98 9h-105q-36 16 -126 16q0 -3 -4 -41t-6 -61.5t-7.5 -69t-11.5 -77.5t-15.5 -74.5t-21 -71t-25.5 -55.5q-28 -54 -68.5 -54t-72 24t-31.5 61q84 321 143.5 673t71 417.5t54 254 t51 252t16.5 164.5q14 220 57 284h107q108 0 109 -65q0 -612 119 -1217q6 -36 23 -99q38 -138 38 -219zM670 181q-9 46 -9.5 150t-13.5 252.5t-38 343.5t-34 282q-19 -90 -73 -301q-110 -439 -113 -676q55 -35 281 -51z" />
<glyph unicode="&#xe4;" horiz-adv-x="1044" d="M884.5 1926.5q-29.5 32.5 -29.5 76t34.5 79t77.5 35.5t75 -35t32 -80.5t-35.5 -76.5t-80 -31t-74 32.5zM383.5 1926.5q-39.5 -32.5 -85.5 -32.5t-70 29.5t-24 76t31 79.5t77 33t78.5 -31t32.5 -76.5t-39.5 -78zM887 113l-17 -63q0 -39 27.5 -189.5t27.5 -196.5v-4 q0 -71 -48 -89q-67 0 -104 21.5t-37 109t-46 360.5l-98 9h-105q-36 16 -126 16q0 -3 -4 -41t-6 -61.5t-7.5 -69t-11.5 -77.5t-15.5 -74.5t-21 -71t-25.5 -55.5q-28 -54 -68.5 -54t-72 24t-31.5 61q84 321 143.5 673t71 417.5t54 254t51 252t16.5 164.5q14 220 57 284h107 q108 0 109 -65q0 -612 119 -1217q6 -36 23 -99q38 -138 38 -219zM670 181q-9 46 -9.5 150t-13.5 252.5t-38 343.5t-34 282q-19 -90 -73 -301q-110 -439 -113 -676q55 -35 281 -51z" />
<glyph unicode="&#xe5;" horiz-adv-x="1044" d="M516.5 1945q-46.5 51 -46.5 119.5t54 126.5t123 58t120 -56t51 -129.5t-55 -121.5t-127.5 -48t-119 51zM646 2074l-37 -47h59q0 67 -22 89v-42zM887 113l-17 -63q0 -39 27.5 -189.5t27.5 -196.5v-4q0 -71 -48 -89q-67 0 -104 21.5t-37 109t-46 360.5l-98 9h-105 q-36 16 -126 16q0 -3 -4 -41t-6 -61.5t-7.5 -69t-11.5 -77.5t-15.5 -74.5t-21 -71t-25.5 -55.5q-28 -54 -68.5 -54t-72 24t-31.5 61q84 321 143.5 673t71 417.5t54 254t51 252t16.5 164.5q14 220 57 284h107q108 0 109 -65q0 -612 119 -1217q6 -36 23 -99q38 -138 38 -219z M670 181q-9 46 -9.5 150t-13.5 252.5t-38 343.5t-34 282q-19 -90 -73 -301q-110 -439 -113 -676q55 -35 281 -51z" />
<glyph unicode="&#xe6;" horiz-adv-x="1427" d="M728 632q11 260 11 420t-3 227q-183 -467 -235 -675q128 5 227 28zM913 -422l-124 2q-22 0 -43 14t-21 35l24 363l-16 527q-22 -2 -65 -4t-70 -4q-78 -8 -128 -26l-262 -896q-28 0 -66 31t-38 54q0 242 364 1262q175 493 190.5 547.5t24 76.5t27.5 53q34 60 130 73 t225.5 13t129.5 -87v-74q-99 -16 -330 -16l22 -425l-10 -449l242 14l65 -59q0 -79 -178 -78h-130l9 -798l349 33q39 0 72 -21t33 -57q0 -104 -426 -104z" />
<glyph unicode="&#xe7;" horiz-adv-x="880" d="M540 -696q29 59 29 173v73h174q-17 -88 -21 -144q121 -23 176 -121t55 -216.5t-86.5 -210.5t-171 -92t-139 31.5t-54.5 75t22 63.5t64.5 20t87.5 -31q23 2 47 35.5t24 58t-5.5 50t-16 58t-13.5 48.5l54 -54v14q0 56 -26 80q-51 -8 -82.5 -7.5t-56 20t-61.5 76.5z M677 -250q96 0 96 -69q0 -126 -176 -126q-73 0 -150 21t-115 46q-211 136 -211 745l-2 186q0 913 224 1077q115 84 319 84q34 0 62.5 -24.5t28.5 -57.5v-12q-29 -73 -153 -73l-58 3q-53 0 -93.5 -57.5t-62.5 -138t-36 -179.5q-22 -157 -21 -293v-16l-21 -612q0 -194 21 -268 t43.5 -120t53.5 -75q71 -68 183 -69q37 0 68 28z" />
<glyph unicode="&#xe8;" horiz-adv-x="801" d="M93 2007q-34 -3 -54 -3q-138 0 -138 96q0 79 43 105q107 0 135 -14t38 -20t72 -26t101.5 -35.5t92.5 -40.5q110 -51 110 -113q0 -26 -23 -44t-44 -18t-53 9t-74.5 24.5t-77.5 29t-77 30.5t-51 20zM450 -281l125 8q121 0 121 -77q0 -48 -42 -70t-94 -22h-300 q-40 0 -68.5 28t-31 71.5t6 108.5t8.5 104l-15 406l21 927l-17 268q0 225 134 225q37 0 69 -24q12 -2 59.5 -5.5t83.5 -9.5t77 -17q90 -25 90 -85q0 -65 -93 -100q-146 50 -240 61q5 -68 5 -137l-14 -455q0 -3 9 -50l113 5q153 0 154 -87q0 -46 -27.5 -82t-77 -36t-86.5 28 h-81q9 -121 10 -229l-14 -575q0 -179 115 -179z" />
<glyph unicode="&#xe9;" horiz-adv-x="801" d="M358 1894q-106 0 -106 83v4q3 62 282 258q110 79 133 101q121 0 121 -87q0 -2 -14 -76q-102 -42 -221 -123t-195 -160zM450 -281l125 8q121 0 121 -77q0 -48 -42 -70t-94 -22h-300q-40 0 -68.5 28t-31 71.5t6 108.5t8.5 104l-15 406l21 927l-17 268q0 225 134 225 q37 0 69 -24q12 -2 59.5 -5.5t83.5 -9.5t77 -17q90 -25 90 -85q0 -65 -93 -100q-146 50 -240 61q5 -68 5 -137l-14 -455q0 -3 9 -50l113 5q153 0 154 -87q0 -46 -27.5 -82t-77 -36t-86.5 28h-81q9 -121 10 -229l-14 -575q0 -179 115 -179z" />
<glyph unicode="&#xea;" horiz-adv-x="801" d="M637 2010l28 -39q0 -36 -31.5 -56.5t-69.5 -20.5h-68q-26 265 -62 412q-12 -37 -34 -107.5t-34 -109.5q-37 -105 -107 -194l-104 75q6 59 56 198.5t123.5 267t126.5 127.5q81 0 80 -103q0 -70 48 -192.5t48 -176.5v-81zM450 -281l125 8q121 0 121 -77q0 -48 -42 -70 t-94 -22h-300q-40 0 -68.5 28t-31 71.5t6 108.5t8.5 104l-15 406l21 927l-17 268q0 225 134 225q37 0 69 -24q12 -2 59.5 -5.5t83.5 -9.5t77 -17q90 -25 90 -85q0 -65 -93 -100q-146 50 -240 61q5 -68 5 -137l-14 -455q0 -3 9 -50l113 5q153 0 154 -87q0 -46 -27.5 -82 t-77 -36t-86.5 28h-81q9 -121 10 -229l-14 -575q0 -179 115 -179z" />
<glyph unicode="&#xeb;" horiz-adv-x="801" d="M650.5 1926.5q-29.5 32.5 -29.5 76t34.5 79t77.5 35.5t75 -35t32 -80.5t-35.5 -76.5t-80 -31t-74 32.5zM149.5 1926.5q-39.5 -32.5 -85.5 -32.5t-70 29.5t-24 76t31 79.5t77 33t78.5 -31t32.5 -76.5t-39.5 -78zM450 -281l125 8q121 0 121 -77q0 -48 -42 -70t-94 -22h-300 q-40 0 -68.5 28t-31 71.5t6 108.5t8.5 104l-15 406l21 927l-17 268q0 225 134 225q37 0 69 -24q12 -2 59.5 -5.5t83.5 -9.5t77 -17q90 -25 90 -85q0 -65 -93 -100q-146 50 -240 61q5 -68 5 -137l-14 -455q0 -3 9 -50l113 5q153 0 154 -87q0 -46 -27.5 -82t-77 -36t-86.5 28 h-81q9 -121 10 -229l-14 -575q0 -179 115 -179z" />
<glyph unicode="&#xec;" horiz-adv-x="855" d="M147 2007q-34 -3 -54 -3q-138 0 -138 96q0 79 43 105q107 0 135 -14t38 -20t72 -26t101.5 -35.5t92.5 -40.5q110 -51 110 -113q0 -26 -23 -44t-44 -18t-53 9t-74.5 24.5t-77.5 29t-77 30.5t-51 20zM487 656l23 -675v-94q0 -19 -2 -36q-3 -29 10 -48v-5l116 4 q130 0 130 -80q0 -40 -31.5 -68.5t-73.5 -28.5l-106 11q-8 0 -48 -18t-89 -18t-81 31q-25 -3 -39 -3q-88 0 -118 57q0 61 50 85v13h101l6 42l-22 674l17 707q0 178 -15 338h-123.5t-83 17.5t-26.5 67.5q0 74 172 73h11q408 0 408 -129q0 -17 -19 -59h-163q12 -116 13 -252z " />
<glyph unicode="&#xed;" horiz-adv-x="855" d="M477 1894q-106 0 -106 83v4q3 62 282 258q110 79 133 101q121 0 121 -87q0 -2 -14 -76q-102 -42 -221 -123t-195 -160zM487 656l23 -675v-94q0 -19 -2 -36q-3 -29 10 -48v-5l116 4q130 0 130 -80q0 -40 -31.5 -68.5t-73.5 -28.5l-106 11q-8 0 -48 -18t-89 -18t-81 31 q-25 -3 -39 -3q-88 0 -118 57q0 61 50 85v13h101l6 42l-22 674l17 707q0 178 -15 338h-123.5t-83 17.5t-26.5 67.5q0 74 172 73h11q408 0 408 -129q0 -17 -19 -59h-163q12 -116 13 -252z" />
<glyph unicode="&#xee;" horiz-adv-x="855" d="M691 2010l28 -39q0 -36 -31.5 -56.5t-69.5 -20.5h-68q-26 265 -62 412q-12 -37 -34 -107.5t-34 -109.5q-37 -105 -107 -194l-104 75q6 59 56 198.5t123.5 267t126.5 127.5q81 0 80 -103q0 -70 48 -192.5t48 -176.5v-81zM487 656l23 -675v-94q0 -19 -2 -36q-3 -29 10 -48 v-5l116 4q130 0 130 -80q0 -40 -31.5 -68.5t-73.5 -28.5l-106 11q-8 0 -48 -18t-89 -18t-81 31q-25 -3 -39 -3q-88 0 -118 57q0 61 50 85v13h101l6 42l-22 674l17 707q0 178 -15 338h-123.5t-83 17.5t-26.5 67.5q0 74 172 73h11q408 0 408 -129q0 -17 -19 -59h-163 q12 -116 13 -252z" />
<glyph unicode="&#xef;" horiz-adv-x="855" d="M704.5 1926.5q-29.5 32.5 -29.5 76t34.5 79t77.5 35.5t75 -35t32 -80.5t-35.5 -76.5t-80 -31t-74 32.5zM203.5 1926.5q-39.5 -32.5 -85.5 -32.5t-70 29.5t-24 76t31 79.5t77 33t78.5 -31t32.5 -76.5t-39.5 -78zM487 656l23 -675v-94q0 -19 -2 -36q-3 -29 10 -48v-5l116 4 q130 0 130 -80q0 -40 -31.5 -68.5t-73.5 -28.5l-106 11q-8 0 -48 -18t-89 -18t-81 31q-25 -3 -39 -3q-88 0 -118 57q0 61 50 85v13h101l6 42l-22 674l17 707q0 178 -15 338h-123.5t-83 17.5t-26.5 67.5q0 74 172 73h11q408 0 408 -129q0 -17 -19 -59h-163q12 -116 13 -252z " />
<glyph unicode="&#xf0;" horiz-adv-x="866" d="M730 1700q26 0 26 -45q0 -60 -162 -91q81 -375 80 -970l-14 -555q0 -180 -17.5 -239.5t-37 -100t-47.5 -65.5q-65 -57 -164 -57q-226 0 -258 308q-8 85 -8.5 142.5t-1 80t-1.5 91.5t0.5 135.5t10 158t21.5 169t39 157.5t60 136q78 127 200 127q12 0 40 -3 q-39 293 -74 460q-130 -14 -262 -14q-26 0 -27 47q0 73 258 105q-46 172 -87 206q-67 11 -97 42t-30 59.5t26 48t56 19.5q197 0 301 -358q114 6 170 6zM282 204l-1 -58v-42q0 -392 105 -392q91 0 102 124q2 17 3.5 48.5t18.5 252.5t17 500t-91 335q-74 -20 -117 -225 q-37 -174 -37 -474v-69z" />
<glyph unicode="&#xf1;" horiz-adv-x="1191" d="M902 2126l-20 70q25 50 74.5 50t77.5 -45t28 -114t-61.5 -130.5t-133.5 -61.5t-132.5 33.5t-96 68.5t-86.5 94v3l-82 -48v-152q-53 0 -103.5 24t-50.5 67q0 108 63 185t168 77l158 -80q14 -37 47.5 -74.5t67.5 -37.5v2q9 9 31 20q51 21 51 49zM327 852l19 -821v-360 q0 -42 -22 -70.5t-60 -28.5q-104 0 -104 194l-7 1119l19 592q0 214 116 214q70 0 101 -107q43 -205 151 -588.5t148 -583.5q29 -98 76 -289t73 -287q12 688 12 1667l-4 86q0 43 16 68.5t55 25.5t64 -18q50 -37 49 -106q0 -436 -24.5 -1119t-74.5 -854q-6 -2 -26 -8.5 t-30 -8.5q-88 -20 -111.5 8t-33.5 74.5t-23 90.5t-98 422q-228 1000 -281 1163v-475z" />
<glyph unicode="&#xf2;" horiz-adv-x="1036" d="M197 2007q-34 -3 -54 -3q-138 0 -138 96q0 79 43 105q107 0 135 -14t38 -20t72 -26t101.5 -35.5t92.5 -40.5q110 -51 110 -113q0 -26 -23 -44t-44 -18t-53 9t-74.5 24.5t-77.5 29t-77 30.5t-51 20zM294 1201l5 -186l-1 -304q0 -39 1.5 -91.5t3.5 -138.5t9 -170.5 t16.5 -178t25.5 -173.5t34 -145q42 -141 110 -141q91 0 139 172q71 256 71 629l5 327q0 344 -30 463.5t-57 179.5q-53 122 -159 123h-7q-166 0 -166 -366zM884 454q0 -913 -374 -913q-344 0 -386 865q-3 82 -3 164l-2 194v62q0 671 197 829q48 39 107 42q45 -16 110 -29 t96 -27q57 -26 124 -137t99 -296t32 -371v-383z" />
<glyph unicode="&#xf3;" horiz-adv-x="1036" d="M398 1894q-106 0 -106 83v4q3 62 282 258q110 79 133 101q121 0 121 -87q0 -2 -14 -76q-102 -42 -221 -123t-195 -160zM294 1201l5 -186l-1 -304q0 -39 1.5 -91.5t3.5 -138.5t9 -170.5t16.5 -178t25.5 -173.5t34 -145q42 -141 110 -141q91 0 139 172q71 256 71 629l5 327 q0 344 -30 463.5t-57 179.5q-53 122 -159 123h-7q-166 0 -166 -366zM884 454q0 -913 -374 -913q-344 0 -386 865q-3 82 -3 164l-2 194v62q0 671 197 829q48 39 107 42q45 -16 110 -29t96 -27q57 -26 124 -137t99 -296t32 -371v-383z" />
<glyph unicode="&#xf4;" horiz-adv-x="1036" d="M741 2010l28 -39q0 -36 -31.5 -56.5t-69.5 -20.5h-68q-26 265 -62 412q-12 -37 -34 -107.5t-34 -109.5q-37 -105 -107 -194l-104 75q6 59 56 198.5t123.5 267t126.5 127.5q81 0 80 -103q0 -70 48 -192.5t48 -176.5v-81zM294 1201l5 -186l-1 -304q0 -39 1.5 -91.5 t3.5 -138.5t9 -170.5t16.5 -178t25.5 -173.5t34 -145q42 -141 110 -141q91 0 139 172q71 256 71 629l5 327q0 344 -30 463.5t-57 179.5q-53 122 -159 123h-7q-166 0 -166 -366zM884 454q0 -913 -374 -913q-344 0 -386 865q-3 82 -3 164l-2 194v62q0 671 197 829 q48 39 107 42q45 -16 110 -29t96 -27q57 -26 124 -137t99 -296t32 -371v-383z" />
<glyph unicode="&#xf5;" horiz-adv-x="1036" d="M722 2126l-20 70q25 50 74.5 50t77.5 -45t28 -114t-61.5 -130.5t-133.5 -61.5t-132.5 33.5t-96 68.5t-86.5 94v3l-82 -48v-152q-53 0 -103.5 24t-50.5 67q0 108 63 185t168 77l158 -80q14 -37 47.5 -74.5t67.5 -37.5v2q9 9 31 20q51 21 51 49zM294 1201l5 -186l-1 -304 q0 -39 1.5 -91.5t3.5 -138.5t9 -170.5t16.5 -178t25.5 -173.5t34 -145q42 -141 110 -141q91 0 139 172q71 256 71 629l5 327q0 344 -30 463.5t-57 179.5q-53 122 -159 123h-7q-166 0 -166 -366zM884 454q0 -913 -374 -913q-344 0 -386 865q-3 82 -3 164l-2 194v62 q0 671 197 829q48 39 107 42q45 -16 110 -29t96 -27q57 -26 124 -137t99 -296t32 -371v-383z" />
<glyph unicode="&#xf6;" horiz-adv-x="1036" d="M754.5 1926.5q-29.5 32.5 -29.5 76t34.5 79t77.5 35.5t75 -35t32 -80.5t-35.5 -76.5t-80 -31t-74 32.5zM253.5 1926.5q-39.5 -32.5 -85.5 -32.5t-70 29.5t-24 76t31 79.5t77 33t78.5 -31t32.5 -76.5t-39.5 -78zM294 1201l5 -186l-1 -304q0 -39 1.5 -91.5t3.5 -138.5 t9 -170.5t16.5 -178t25.5 -173.5t34 -145q42 -141 110 -141q91 0 139 172q71 256 71 629l5 327q0 344 -30 463.5t-57 179.5q-53 122 -159 123h-7q-166 0 -166 -366zM884 454q0 -913 -374 -913q-344 0 -386 865q-3 82 -3 164l-2 194v62q0 671 197 829q48 39 107 42 q45 -16 110 -29t96 -27q57 -26 124 -137t99 -296t32 -371v-383z" />
<glyph unicode="&#xf7;" horiz-adv-x="1106" d="M891 530l-669 -16q-127 0 -127 101q0 33 19 52.5t52 19.5h662q115 0 134 -27.5t19 -56.5q0 -73 -90 -73zM610.5 852.5q-32.5 -29.5 -76 -29.5t-79 34t-35.5 77.5t35 75.5t80.5 32t76.5 -36t31 -80t-32.5 -73.5zM610.5 350.5q32.5 -39.5 32.5 -85t-29.5 -69.5t-76 -24 t-79.5 31t-33 76.5t31 78t76.5 32.5t78 -39.5z" />
<glyph unicode="&#xf8;" horiz-adv-x="895" d="M718 1009.5q20 -143.5 24.5 -359t4.5 -331t-0.5 -148.5t-4 -92t-9 -101t-16 -97t-27 -94.5t-40.5 -80.5t-55 -66q-70 -59 -148 -59t-131 25q0 -167 -52 -322q-23 -65 -57.5 -65t-51.5 24.5t-17 55.5v3q6 65 42.5 230.5t36.5 216.5t-2.5 64t-5.5 22.5t-7 23.5t-11 42.5 t-16 77.5t-15.5 108t-11.5 96t-7.5 109t-5 98.5t-3 111t-0.5 96.5v605q0 90 5.5 134t10.5 91.5t14.5 80.5t22.5 72.5t32 66.5t40 51q46 46 99 46t103 -28v7q34 197 71 345h115q0 -82 -30.5 -234.5t-33.5 -224.5v-93q115 -175 115 -268v-25q2 -71 22 -214.5zM453 -287 q144 0 144 543q0 744 -58 1088q-23 -174 -43 -447q-46 -657 -113 -956q-22 -87 -22 -137.5t19 -70.5t73 -20zM332 1612q-68 -147 -68 -803q0 -121 16 -279t18 -167q16 133 52 382q82 552 82 839h-52l-48 43v-15z" />
<glyph unicode="&#xf9;" horiz-adv-x="1081" d="M575 2024q-34 -3 -54 -3q-138 0 -138 96q0 79 43 105q107 0 135 -14t38 -20t72 -26t101.5 -35.5t92.5 -40.5q110 -51 110 -113q0 -26 -23 -44t-44 -18t-53 9t-74.5 24.5t-77.5 29t-77 30.5t-51 20zM901 1015l3 -54q-23 -112 -30.5 -384t-27.5 -438.5t-54 -293t-109 -210 t-167.5 -83.5t-151.5 33.5t-96 96t-62 134.5t-37 167q-22 166 -22 350l17 837q0 274 -38 454v76q76 0 120 -59t44 -131v-1536q0 -122 61 -224t181 -102q135 0 179 784v14l2 20q40 716 40 1160l-1 53q0 37 17 55.5t65 18.5t71 -26.5t27 -53.5t4 -73l-22 -320z" />
<glyph unicode="&#xfa;" horiz-adv-x="1081" d="M565 1911q-106 0 -106 83v4q3 62 282 258q110 79 133 101q121 0 121 -87q0 -2 -14 -76q-102 -42 -221 -123t-195 -160zM901 1015l3 -54q-23 -112 -30.5 -384t-27.5 -438.5t-54 -293t-109 -210t-167.5 -83.5t-151.5 33.5t-96 96t-62 134.5t-37 167q-22 166 -22 350l17 837 q0 274 -38 454v76q76 0 120 -59t44 -131v-1536q0 -122 61 -224t181 -102q135 0 179 784v14l2 20q40 716 40 1160l-1 53q0 37 17 55.5t65 18.5t71 -26.5t27 -53.5t4 -73l-22 -320z" />
<glyph unicode="&#xfb;" horiz-adv-x="1081" d="M779 2027l28 -39q0 -36 -31.5 -56.5t-69.5 -20.5h-68q-26 265 -62 412q-12 -37 -34 -107.5t-34 -109.5q-37 -105 -107 -194l-104 75q6 59 56 198.5t123.5 267t126.5 127.5q81 0 80 -103q0 -70 48 -192.5t48 -176.5v-81zM901 1015l3 -54q-23 -112 -30.5 -384t-27.5 -438.5 t-54 -293t-109 -210t-167.5 -83.5t-151.5 33.5t-96 96t-62 134.5t-37 167q-22 166 -22 350l17 837q0 274 -38 454v76q76 0 120 -59t44 -131v-1536q0 -122 61 -224t181 -102q135 0 179 784v14l2 20q40 716 40 1160l-1 53q0 37 17 55.5t65 18.5t71 -26.5t27 -53.5t4 -73 l-22 -320z" />
<glyph unicode="&#xfc;" horiz-adv-x="1081" d="M793.5 1943.5q-29.5 32.5 -29.5 76t34.5 79t77.5 35.5t75 -35t32 -80.5t-35.5 -76.5t-80 -31t-74 32.5zM292.5 1943.5q-39.5 -32.5 -85.5 -32.5t-70 29.5t-24 76t31 79.5t77 33t78.5 -31t32.5 -76.5t-39.5 -78zM901 1015l3 -54q-23 -112 -30.5 -384t-27.5 -438.5 t-54 -293t-109 -210t-167.5 -83.5t-151.5 33.5t-96 96t-62 134.5t-37 167q-22 166 -22 350l17 837q0 274 -38 454v76q76 0 120 -59t44 -131v-1536q0 -122 61 -224t181 -102q135 0 179 784v14l2 20q40 716 40 1160l-1 53q0 37 17 55.5t65 18.5t71 -26.5t27 -53.5t4 -73 l-22 -320z" />
<glyph unicode="&#xfd;" horiz-adv-x="899" d="M488 1894q-106 0 -106 83v4q3 62 282 258q110 79 133 101q121 0 121 -87q0 -2 -14 -76q-102 -42 -221 -123t-195 -160zM587 -231q0 -155 -41 -194q-22 -19 -68 -18.5t-77 69.5q36 70 36 538q0 88 -12.5 248.5t-13.5 216.5q-62 107 -191.5 492t-129.5 475v17l71 53 q98 -3 233 -491q59 -214 59 -216q12 33 49 237q95 515 199 515q29 0 53 -18.5t24 -48.5q0 -195 -95.5 -456t-95.5 -463v-956z" />
<glyph unicode="&#xfe;" horiz-adv-x="857" d="M188 -310l-35 1736v479q0 95 76 94q116 0 117 -260l-11 -228q129 -19 221 -118q175 -188 176 -483q0 -198 -103.5 -348t-284.5 -230l23 -617q1 -132 -103 -132q-39 0 -57.5 32.5t-18.5 74.5zM336 485q231 164 231 384q0 116 -7 175.5t-36.5 112.5t-66.5 89.5t-118 103.5 q0 -144 -1.5 -432.5t-1.5 -432.5z" />
<glyph unicode="&#xff;" horiz-adv-x="899" d="M715.5 1926.5q-29.5 32.5 -29.5 76t34.5 79t77.5 35.5t75 -35t32 -80.5t-35.5 -76.5t-80 -31t-74 32.5zM214.5 1926.5q-39.5 -32.5 -85.5 -32.5t-70 29.5t-24 76t31 79.5t77 33t78.5 -31t32.5 -76.5t-39.5 -78zM587 -231q0 -155 -41 -194q-22 -19 -68 -18.5t-77 69.5 q36 70 36 538q0 88 -12.5 248.5t-13.5 216.5q-62 107 -191.5 492t-129.5 475v17l71 53q98 -3 233 -491q59 -214 59 -216q12 33 49 237q95 515 199 515q29 0 53 -18.5t24 -48.5q0 -195 -95.5 -456t-95.5 -463v-956z" />
<glyph unicode="&#x100;" horiz-adv-x="1098" d="M502 2370l223 6q322 0 322 -85q0 -70 -102 -70l-229 -6q-353 0 -354 87q0 68 140 68zM747 293q-5 57 -31 342q-70 728 -70 814.5t2 94.5q-19 -22 -89.5 -450t-79.5 -465t-29 -102q-42 -135 -45 -208q132 -36 218.5 -35.5t123.5 9.5zM760 1970q62 -445 130 -1158 q68 -714 68 -1104q0 -107 -104 -106.5t-104 82.5v414q-45 31 -160.5 52.5t-205.5 27.5q-39 -65 -59.5 -265.5t-67.5 -276.5q-153 0 -169 63q71 104 290 1324q84 482 102 559q85 409 185 410q59 0 95 -28v6z" />
<glyph unicode="&#x101;" horiz-adv-x="1044" d="M440 2049l223 6q322 0 322 -85q0 -70 -102 -70l-229 -6q-353 0 -354 87q0 68 140 68zM887 113l-17 -63q0 -39 27.5 -189.5t27.5 -196.5v-4q0 -71 -48 -89q-67 0 -104 21.5t-37 109t-46 360.5l-98 9h-105q-36 16 -126 16q0 -3 -4 -41t-6 -61.5t-7.5 -69t-11.5 -77.5 t-15.5 -74.5t-21 -71t-25.5 -55.5q-28 -54 -68.5 -54t-72 24t-31.5 61q84 321 143.5 673t71 417.5t54 254t51 252t16.5 164.5q14 220 57 284h107q108 0 109 -65q0 -612 119 -1217q6 -36 23 -99q38 -138 38 -219zM670 181q-9 46 -9.5 150t-13.5 252.5t-38 343.5t-34 282 q-19 -90 -73 -301q-110 -439 -113 -676q55 -35 281 -51z" />
<glyph unicode="&#x102;" horiz-adv-x="1098" d="M944 2495v-26q-14 -42 -45.5 -105.5t-41.5 -73t-29.5 -29.5t-39.5 -26q-62 -20 -118 -20t-109.5 32.5t-82.5 86.5q-60 105 -61 242v15l59 50q68 0 93 -116q26 -127 76 -163h67q22 0 47.5 50.5t25.5 80.5t1.5 47t9 41t27 35t52 11t58 -24t25.5 -41t-14 -67zM747 293 q-5 57 -31 342q-70 728 -70 814.5t2 94.5q-19 -22 -89.5 -450t-79.5 -465t-29 -102q-42 -135 -45 -208q132 -36 218.5 -35.5t123.5 9.5zM760 1970q62 -445 130 -1158q68 -714 68 -1104q0 -107 -104 -106.5t-104 82.5v414q-45 31 -160.5 52.5t-205.5 27.5 q-39 -65 -59.5 -265.5t-67.5 -276.5q-153 0 -169 63q71 104 290 1324q84 482 102 559q85 409 185 410q59 0 95 -28v6z" />
<glyph unicode="&#x103;" horiz-adv-x="1044" d="M880 2174v-26q-14 -42 -45.5 -105.5t-41.5 -73t-29.5 -29.5t-39.5 -26q-62 -20 -118 -20t-109.5 32.5t-82.5 86.5q-60 105 -61 242v15l59 50q68 0 93 -116q26 -127 76 -163h67q22 0 47.5 50.5t25.5 80.5t1.5 47t9 41t27 35t52 11t58 -24t25.5 -41t-14 -67zM887 113 l-17 -63q0 -39 27.5 -189.5t27.5 -196.5v-4q0 -71 -48 -89q-67 0 -104 21.5t-37 109t-46 360.5l-98 9h-105q-36 16 -126 16q0 -3 -4 -41t-6 -61.5t-7.5 -69t-11.5 -77.5t-15.5 -74.5t-21 -71t-25.5 -55.5q-28 -54 -68.5 -54t-72 24t-31.5 61q84 321 143.5 673t71 417.5 t54 254t51 252t16.5 164.5q14 220 57 284h107q108 0 109 -65q0 -612 119 -1217q6 -36 23 -99q38 -138 38 -219zM670 181q-9 46 -9.5 150t-13.5 252.5t-38 343.5t-34 282q-19 -90 -73 -301q-110 -439 -113 -676q55 -35 281 -51z" />
<glyph unicode="&#x104;" horiz-adv-x="1109" d="M1015 -378q-274 -229 -274 -419q0 -39 13 -59t29 -20q62 0 133 52v-53q0 -42 -48.5 -70.5t-103.5 -28.5t-93 49.5t-38 116.5q0 127 86.5 241.5t210.5 190.5h85zM745 293q-5 57 -31 342q-70 728 -70 814.5t2 94.5q-19 -22 -89.5 -450t-79.5 -465t-29 -102 q-42 -135 -45 -208q132 -36 218.5 -35.5t123.5 9.5zM758 1970q62 -445 130 -1158q68 -714 68 -1104q0 -107 -104 -106.5t-104 82.5v414q-45 31 -160.5 52.5t-205.5 27.5q-39 -65 -59.5 -265.5t-67.5 -276.5q-153 0 -169 63q71 104 290 1324q84 482 102 559q85 409 185 410 q59 0 95 -28v6z" />
<glyph unicode="&#x105;" horiz-adv-x="1102" d="M1038 -409q-274 -229 -274 -419q0 -39 13 -59t29 -20q62 0 133 52v-53q0 -42 -48.5 -70.5t-103.5 -28.5t-93 49.5t-38 116.5q0 127 86.5 241.5t210.5 190.5h85zM887 113l-17 -63q0 -39 27.5 -189.5t27.5 -196.5v-4q0 -71 -48 -89q-67 0 -104 21.5t-37 109t-46 360.5 l-98 9h-105q-36 16 -126 16q0 -3 -4 -41t-6 -61.5t-7.5 -69t-11.5 -77.5t-15.5 -74.5t-21 -71t-25.5 -55.5q-28 -54 -68.5 -54t-72 24t-31.5 61q84 321 143.5 673t71 417.5t54 254t51 252t16.5 164.5q14 220 57 284h107q108 0 109 -65q0 -612 119 -1217q6 -36 23 -99 q38 -138 38 -219zM670 181q-9 46 -9.5 150t-13.5 252.5t-38 343.5t-34 282q-19 -90 -73 -301q-110 -439 -113 -676q55 -35 281 -51z" />
<glyph unicode="&#x106;" horiz-adv-x="1061" d="M553 2215q-106 0 -106 83v4q3 62 282 258q110 79 133 101q121 0 121 -87q0 -2 -14 -76q-102 -42 -221 -123t-195 -160zM319 1148l-28 -221q0 -161 43 -590.5t83 -488.5q71 -104 218.5 -104t224.5 92q54 0 101 15v-42q0 -96 -56 -156q-91 -104 -291 -104q-107 0 -211 72 t-158 186.5t-85 590.5t-31 733.5t21 368.5q-9 52 -9 100q0 195 145.5 310.5t359.5 115.5q76 0 149 -43t73 -112q0 -34 -26.5 -53t-73.5 -19q-46 0 -70 39v-6h-50v12q-245 0 -307 -207q-31 -102 -31 -270z" />
<glyph unicode="&#x107;" horiz-adv-x="880" d="M461 1894q-106 0 -106 83v4q3 62 282 258q110 79 133 101q121 0 121 -87q0 -2 -14 -76q-102 -42 -221 -123t-195 -160zM677 -250q96 0 96 -69q0 -126 -176 -126q-73 0 -150 21t-115 46q-211 136 -211 745l-2 186q0 913 224 1077q115 84 319 84q34 0 62.5 -24.5 t28.5 -57.5v-12q-29 -73 -153 -73l-58 3q-53 0 -93.5 -57.5t-62.5 -138t-36 -179.5q-22 -157 -21 -293v-16l-21 -612q0 -194 21 -268t43.5 -120t53.5 -75q71 -68 183 -69q37 0 68 28z" />
<glyph unicode="&#x108;" horiz-adv-x="1061" d="M767 2331l28 -39q0 -36 -31.5 -56.5t-69.5 -20.5h-68q-26 265 -62 412q-12 -37 -34 -107.5t-34 -109.5q-37 -105 -107 -194l-104 75q6 59 56 198.5t123.5 267t126.5 127.5q81 0 80 -103q0 -70 48 -192.5t48 -176.5v-81zM319 1148l-28 -221q0 -161 43 -590.5t83 -488.5 q71 -104 218.5 -104t224.5 92q54 0 101 15v-42q0 -96 -56 -156q-91 -104 -291 -104q-107 0 -211 72t-158 186.5t-85 590.5t-31 733.5t21 368.5q-9 52 -9 100q0 195 145.5 310.5t359.5 115.5q76 0 149 -43t73 -112q0 -34 -26.5 -53t-73.5 -19q-46 0 -70 39v-6h-50v12 q-245 0 -307 -207q-31 -102 -31 -270z" />
<glyph unicode="&#x109;" horiz-adv-x="880" d="M676 2010l28 -39q0 -36 -31.5 -56.5t-69.5 -20.5h-68q-26 265 -62 412q-12 -37 -34 -107.5t-34 -109.5q-37 -105 -107 -194l-104 75q6 59 56 198.5t123.5 267t126.5 127.5q81 0 80 -103q0 -70 48 -192.5t48 -176.5v-81zM677 -250q96 0 96 -69q0 -126 -176 -126 q-73 0 -150 21t-115 46q-211 136 -211 745l-2 186q0 913 224 1077q115 84 319 84q34 0 62.5 -24.5t28.5 -57.5v-12q-29 -73 -153 -73l-58 3q-53 0 -93.5 -57.5t-62.5 -138t-36 -179.5q-22 -157 -21 -293v-16l-21 -612q0 -194 21 -268t43.5 -120t53.5 -75q71 -68 183 -69 q37 0 68 28z" />
<glyph unicode="&#x10a;" horiz-adv-x="1061" d="M601 2249q-32 35 -32 81t35.5 83t82 37t81 -37t34.5 -86t-36 -81t-84.5 -32t-80.5 35zM319 1148l-28 -221q0 -161 43 -590.5t83 -488.5q71 -104 218.5 -104t224.5 92q54 0 101 15v-42q0 -96 -56 -156q-91 -104 -291 -104q-107 0 -211 72t-158 186.5t-85 590.5t-31 733.5 t21 368.5q-9 52 -9 100q0 195 145.5 310.5t359.5 115.5q76 0 149 -43t73 -112q0 -34 -26.5 -53t-73.5 -19q-46 0 -70 39v-6h-50v12q-245 0 -307 -207q-31 -102 -31 -270z" />
<glyph unicode="&#x10b;" horiz-adv-x="880" d="M545 1929q-32 35 -32 81t35.5 83t82 37t81 -37t34.5 -86t-36 -81t-84.5 -32t-80.5 35zM677 -250q96 0 96 -69q0 -126 -176 -126q-73 0 -150 21t-115 46q-211 136 -211 745l-2 186q0 913 224 1077q115 84 319 84q34 0 62.5 -24.5t28.5 -57.5v-12q-29 -73 -153 -73l-58 3 q-53 0 -93.5 -57.5t-62.5 -138t-36 -179.5q-22 -157 -21 -293v-16l-21 -612q0 -194 21 -268t43.5 -120t53.5 -75q71 -68 183 -69q37 0 68 28z" />
<glyph unicode="&#x10c;" horiz-adv-x="1061" d="M927 2806q0 -16 -11 -48v-57q-20 -3 -20 -5q0 -16 -47 -174.5t-47 -204.5q0 -102 -78.5 -102.5t-187 241.5t-119.5 349l102 73l83 -110q2 -59 91 -301q46 183 65 374h68l55 1q46 0 46 -36zM319 1148l-28 -221q0 -161 43 -590.5t83 -488.5q71 -104 218.5 -104t224.5 92 q54 0 101 15v-42q0 -96 -56 -156q-91 -104 -291 -104q-107 0 -211 72t-158 186.5t-85 590.5t-31 733.5t21 368.5q-9 52 -9 100q0 195 145.5 310.5t359.5 115.5q76 0 149 -43t73 -112q0 -34 -26.5 -53t-73.5 -19q-46 0 -70 39v-6h-50v12q-245 0 -307 -207q-31 -102 -31 -270z " />
<glyph unicode="&#x10d;" horiz-adv-x="880" d="M869 2486q0 -16 -11 -48v-57q-20 -3 -20 -5q0 -16 -47 -174.5t-47 -204.5q0 -102 -78.5 -102.5t-187 241.5t-119.5 349l102 73l83 -110q2 -59 91 -301q46 183 65 374h68l55 1q46 0 46 -36zM677 -250q96 0 96 -69q0 -126 -176 -126q-73 0 -150 21t-115 46 q-211 136 -211 745l-2 186q0 913 224 1077q115 84 319 84q34 0 62.5 -24.5t28.5 -57.5v-12q-29 -73 -153 -73l-58 3q-53 0 -93.5 -57.5t-62.5 -138t-36 -179.5q-22 -157 -21 -293v-16l-21 -612q0 -194 21 -268t43.5 -120t53.5 -75q71 -68 183 -69q37 0 68 28z" />
<glyph unicode="&#x10e;" horiz-adv-x="1071" d="M747 2806q0 -16 -11 -48v-57q-20 -3 -20 -5q0 -16 -47 -174.5t-47 -204.5q0 -102 -78.5 -102.5t-187 241.5t-119.5 349l102 73l83 -110q2 -59 91 -301q46 183 65 374h68l55 1q46 0 46 -36zM160 1122l9 347q0 147 -14 211.5t-35 122.5t-21 88.5t12.5 50.5t37.5 31.5 t48 18.5q23 6 59 10q59 3 85 4h31q130 0 277 -140q178 -169 217 -356q23 -110 31 -245t11 -180q9 -102 25 -140v-147q-17 -29 -17 -96q0 -240 -110 -525.5t-273 -433.5q-121 -110 -163.5 -130.5t-83.5 -20.5t-89 27t-48 82q70 73 70 373q0 177 -29.5 525.5t-29.5 522.5z M370 80v-303q246 174 346 646q50 242 50 501q0 891 -440 891v-3q0 -294 21 -872t23 -860z" />
<glyph unicode="&#x10f;" horiz-adv-x="1666" d="M1544 1592l-5 -22q0 -73 -40.5 -173.5t-110 -179.5t-137.5 -79h-95v111q12 12 62 53q104 84 115 143q-91 67 -91.5 140.5t48.5 112t107 38.5t90.5 -35t56.5 -98v-11zM333 1220l35 -1401v-76h58q166 203 214 369q45 157 45 437q0 958 -329 1001q-23 -125 -23 -330z M852 852l-6 -159v-174q0 -315 -28 -425t-56.5 -181t-69.5 -127q-93 -126 -235 -205h-217q-81 0 -81 416l9 1000q0 277 -10 520q-26 31 -26.5 74t35.5 74.5t86 31.5t86 -56q23 -9 69 -16.5t67 -18.5q177 -82 277 -291t100 -463z" />
<glyph unicode="&#x110;" horiz-adv-x="1345" d="M496 1369v-2q6 -231 43.5 -714.5t41.5 -736.5q391 341 433 930q8 121 7.5 254.5t-1 212.5t-6.5 209t-17 229.5t-32 229.5t-50.5 229t-75 207.5t-101.5 186.5q-129 177 -309 246v-415q0 -572 65 -894q51 3 173 18.5t178 15.5t83.5 -39t30.5 -85l-52 -64q-262 1 -411 -18z M73 1435q0 93 194 93h48q-2 229 -35.5 699t-33.5 712q0 34 26.5 68t60.5 34q101 0 267 -106t293.5 -252t127.5 -245q0 -316 91 -792t91 -814.5t-183 -670.5t-493 -491v3q-93 28 -127 93q0 1062 -81 1596q-130 -19 -166.5 -18.5t-58 27.5t-21.5 64z" />
<glyph unicode="&#x111;" horiz-adv-x="1043" d="M335 1220l35 -1401v-76h66q184 198 237.5 357t53.5 449q0 958 -369 1001q-23 -125 -23 -330zM894 852l-6 -159q0 -82 20 -129q-28 -153 -42.5 -309t-38.5 -249.5t-61 -160.5q-88 -157 -295 -264h-229q-81 0 -81 416l9 1000q0 277 -10 520q-26 31 -26.5 74t35.5 74.5 t86 31.5t86 -56q25 -9 76 -17.5t92 -25.5t128 -97.5t118 -100.5v-21q90 -163 114.5 -254.5t24.5 -272.5z" />
<glyph unicode="&#x112;" horiz-adv-x="782" d="M292 2370l223 6q322 0 322 -85q0 -70 -102 -70l-229 -6q-353 0 -354 87q0 68 140 68zM488 762l-79 4q-37 0 -56 -24v-979q163 9 168 9q177 0 177 -84v-10q-22 -43 -74 -66.5t-91 -27t-102 -3.5h-99q-121 0 -149 47q-13 22 -13 57v2291l275 28q48 0 97 -28.5t49 -75.5 q0 -95 -145 -94l-91 3q-23 0 -34 -2l25 -524q0 -64 -8 -185.5t-8 -176.5q17 3 47 10q65 17 101.5 17t65 -26t28.5 -63.5t-23.5 -67t-60.5 -29.5z" />
<glyph unicode="&#x113;" horiz-adv-x="801" d="M206 2049l223 6q322 0 322 -85q0 -70 -102 -70l-229 -6q-353 0 -354 87q0 68 140 68zM450 -281l125 8q121 0 121 -77q0 -48 -42 -70t-94 -22h-300q-40 0 -68.5 28t-31 71.5t6 108.5t8.5 104l-15 406l21 927l-17 268q0 225 134 225q37 0 69 -24q12 -2 59.5 -5.5t83.5 -9.5 t77 -17q90 -25 90 -85q0 -65 -93 -100q-146 50 -240 61q5 -68 5 -137l-14 -455q0 -3 9 -50l113 5q153 0 154 -87q0 -46 -27.5 -82t-77 -36t-86.5 28h-81q9 -121 10 -229l-14 -575q0 -179 115 -179z" />
<glyph unicode="&#x114;" horiz-adv-x="782" d="M596 2495v-26q-14 -42 -45.5 -105.5t-41.5 -73t-29.5 -29.5t-39.5 -26q-62 -20 -118 -20t-109.5 32.5t-82.5 86.5q-60 105 -61 242v15l59 50q68 0 93 -116q26 -127 76 -163h67q22 0 47.5 50.5t25.5 80.5t1.5 47t9 41t27 35t52 11t58 -24t25.5 -41t-14 -67zM488 762l-79 4 q-37 0 -56 -24v-979q163 9 168 9q177 0 177 -84v-10q-22 -43 -74 -66.5t-91 -27t-102 -3.5h-99q-121 0 -149 47q-13 22 -13 57v2291l275 28q48 0 97 -28.5t49 -75.5q0 -95 -145 -94l-91 3q-23 0 -34 -2l25 -524q0 -64 -8 -185.5t-8 -176.5q17 3 47 10q65 17 101.5 17t65 -26 t28.5 -63.5t-23.5 -67t-60.5 -29.5z" />
<glyph unicode="&#x115;" horiz-adv-x="801" d="M648 2174v-26q-14 -42 -45.5 -105.5t-41.5 -73t-29.5 -29.5t-39.5 -26q-62 -20 -118 -20t-109.5 32.5t-82.5 86.5q-60 105 -61 242v15l59 50q68 0 93 -116q26 -127 76 -163h67q22 0 47.5 50.5t25.5 80.5t1.5 47t9 41t27 35t52 11t58 -24t25.5 -41t-14 -67zM450 -281 l125 8q121 0 121 -77q0 -48 -42 -70t-94 -22h-300q-40 0 -68.5 28t-31 71.5t6 108.5t8.5 104l-15 406l21 927l-17 268q0 225 134 225q37 0 69 -24q12 -2 59.5 -5.5t83.5 -9.5t77 -17q90 -25 90 -85q0 -65 -93 -100q-146 50 -240 61q5 -68 5 -137l-14 -455q0 -3 9 -50l113 5 q153 0 154 -87q0 -46 -27.5 -82t-77 -36t-86.5 28h-81q9 -121 10 -229l-14 -575q0 -179 115 -179z" />
<glyph unicode="&#x116;" horiz-adv-x="782" d="M402 2249q-32 35 -32 81t35.5 83t82 37t81 -37t34.5 -86t-36 -81t-84.5 -32t-80.5 35zM488 762l-79 4q-37 0 -56 -24v-979q163 9 168 9q177 0 177 -84v-10q-22 -43 -74 -66.5t-91 -27t-102 -3.5h-99q-121 0 -149 47q-13 22 -13 57v2291l275 28q48 0 97 -28.5t49 -75.5 q0 -95 -145 -94l-91 3q-23 0 -34 -2l25 -524q0 -64 -8 -185.5t-8 -176.5q17 3 47 10q65 17 101.5 17t65 -26t28.5 -63.5t-23.5 -67t-60.5 -29.5z" />
<glyph unicode="&#x117;" horiz-adv-x="801" d="M252 1929q-32 35 -32 81t35.5 83t82 37t81 -37t34.5 -86t-36 -81t-84.5 -32t-80.5 35zM450 -281l125 8q121 0 121 -77q0 -48 -42 -70t-94 -22h-300q-40 0 -68.5 28t-31 71.5t6 108.5t8.5 104l-15 406l21 927l-17 268q0 225 134 225q37 0 69 -24q12 -2 59.5 -5.5 t83.5 -9.5t77 -17q90 -25 90 -85q0 -65 -93 -100q-146 50 -240 61q5 -68 5 -137l-14 -455q0 -3 9 -50l113 5q153 0 154 -87q0 -46 -27.5 -82t-77 -36t-86.5 28h-81q9 -121 10 -229l-14 -575q0 -179 115 -179z" />
<glyph unicode="&#x118;" horiz-adv-x="781" d="M609 -398q-274 -229 -274 -419q0 -39 13 -59t29 -20q62 0 133 52v-53q0 -42 -48.5 -70.5t-103.5 -28.5t-93 49.5t-38 116.5q0 127 86.5 241.5t210.5 190.5h85zM486 762l-79 4q-37 0 -56 -24v-979q163 9 168 9q177 0 177 -84v-10q-22 -43 -74 -66.5t-91 -27t-102 -3.5h-99 q-121 0 -149 47q-13 22 -13 57v2291l275 28q48 0 97 -28.5t49 -75.5q0 -95 -145 -94l-91 3q-23 0 -34 -2l25 -524q0 -64 -8 -185.5t-8 -176.5q17 3 47 10q65 17 101.5 17t65 -26t28.5 -63.5t-23.5 -67t-60.5 -29.5z" />
<glyph unicode="&#x119;" horiz-adv-x="801" d="M649 -422q-274 -229 -274 -419q0 -39 13 -59t29 -20q62 0 133 52v-53q0 -42 -48.5 -70.5t-103.5 -28.5t-93 49.5t-38 116.5q0 127 86.5 241.5t210.5 190.5h85zM450 -281l125 8q121 0 121 -77q0 -48 -42 -70t-94 -22h-300q-40 0 -68.5 28t-31 71.5t6 108.5t8.5 104 l-15 406l21 927l-17 268q0 225 134 225q37 0 69 -24q12 -2 59.5 -5.5t83.5 -9.5t77 -17q90 -25 90 -85q0 -65 -93 -100q-146 50 -240 61q5 -68 5 -137l-14 -455q0 -3 9 -50l113 5q153 0 154 -87q0 -46 -27.5 -82t-77 -36t-86.5 28h-81q9 -121 10 -229l-14 -575 q0 -179 115 -179z" />
<glyph unicode="&#x11a;" horiz-adv-x="782" d="M594 2806q0 -16 -11 -48v-57q-20 -3 -20 -5q0 -16 -47 -174.5t-47 -204.5q0 -102 -78.5 -102.5t-187 241.5t-119.5 349l102 73l83 -110q2 -59 91 -301q46 183 65 374h68l55 1q46 0 46 -36zM488 762l-79 4q-37 0 -56 -24v-979q163 9 168 9q177 0 177 -84v-10 q-22 -43 -74 -66.5t-91 -27t-102 -3.5h-99q-121 0 -149 47q-13 22 -13 57v2291l275 28q48 0 97 -28.5t49 -75.5q0 -95 -145 -94l-91 3q-23 0 -34 -2l25 -524q0 -64 -8 -185.5t-8 -176.5q17 3 47 10q65 17 101.5 17t65 -26t28.5 -63.5t-23.5 -67t-60.5 -29.5z" />
<glyph unicode="&#x11b;" horiz-adv-x="801" d="M643 2486q0 -16 -11 -48v-57q-20 -3 -20 -5q0 -16 -47 -174.5t-47 -204.5q0 -102 -78.5 -102.5t-187 241.5t-119.5 349l102 73l83 -110q2 -59 91 -301q46 183 65 374h68l55 1q46 0 46 -36zM450 -281l125 8q121 0 121 -77q0 -48 -42 -70t-94 -22h-300q-40 0 -68.5 28 t-31 71.5t6 108.5t8.5 104l-15 406l21 927l-17 268q0 225 134 225q37 0 69 -24q12 -2 59.5 -5.5t83.5 -9.5t77 -17q90 -25 90 -85q0 -65 -93 -100q-146 50 -240 61q5 -68 5 -137l-14 -455q0 -3 9 -50l113 5q153 0 154 -87q0 -46 -27.5 -82t-77 -36t-86.5 28h-81 q9 -121 10 -229l-14 -575q0 -179 115 -179z" />
<glyph unicode="&#x11c;" horiz-adv-x="1195" d="M781 2340l28 -39q0 -36 -31.5 -56.5t-69.5 -20.5h-68q-26 265 -62 412q-12 -37 -34 -107.5t-34 -109.5q-37 -105 -107 -194l-104 75q6 59 56 198.5t123.5 267t126.5 127.5q81 0 80 -103q0 -70 48 -192.5t48 -176.5v-81zM837 175l-119 -12q-105 0 -106 90q0 78 197 100 q39 5 86 5t81.5 -49.5t34.5 -132.5t31.5 -270.5t31.5 -252.5q0 -116 -79 -116.5t-105 66.5v3q-19 -9 -67 -37q-95 -53 -168.5 -53t-145.5 29.5t-124 75.5t-93 118.5t-68 144t-46.5 167.5t-28.5 172t-16 177q-8 124 -7 302l-2 234q0 746 211 987q122 143 318 143 q127 0 127 -90q0 -34 -24 -54t-57 -20l-87 15q-115 0 -181 -144q-68 -149 -88.5 -294t-29.5 -231.5t-12 -193.5q-7 -150 -7 -301l-1 -197q0 -312 26.5 -436.5t53.5 -200.5t64 -127q87 -113 222.5 -113t225.5 133q-5 285 -48 363z" />
<glyph unicode="&#x11d;" horiz-adv-x="1013" d="M717 2010l28 -39q0 -36 -31.5 -56.5t-69.5 -20.5h-68q-26 265 -62 412q-12 -37 -34 -107.5t-34 -109.5q-37 -105 -107 -194l-104 75q6 59 56 198.5t123.5 267t126.5 127.5q81 0 80 -103q0 -70 48 -192.5t48 -176.5v-81zM629 404l-55 -1q-45 0 -71.5 14.5t-26.5 59 t28.5 67.5t70.5 23v-1q310 0 310 -98l-34 -231l15 -336q0 -91 -14 -157q-184 -169 -327 -169q-76 0 -139.5 41t-123.5 140.5t-105 377.5t-45 386.5t4.5 180t14 162t11 117.5t5 77.5t7.5 96.5t17 128.5t28.5 131t45 109.5t68.5 95q95 81 219.5 81t124.5 -81q0 -37 -27 -61 t-63 -24l-57 8q-93 0 -141 -217q-46 -211 -54 -380q-14 -259 -14 -345t0.5 -133.5t3 -118t8 -124.5t14.5 -120t22.5 -115t32.5 -97.5t44 -79.5q56 -70 134 -70q138 0 134 535v116q-20 12 -65 12z" />
<glyph unicode="&#x11e;" horiz-adv-x="1195" d="M792 2504v-26q-14 -42 -45.5 -105.5t-41.5 -73t-29.5 -29.5t-39.5 -26q-62 -20 -118 -20t-109.5 32.5t-82.5 86.5q-60 105 -61 242v15l59 50q68 0 93 -116q26 -127 76 -163h67q22 0 47.5 50.5t25.5 80.5t1.5 47t9 41t27 35t52 11t58 -24t25.5 -41t-14 -67zM837 175 l-119 -12q-105 0 -106 90q0 78 197 100q39 5 86 5t81.5 -49.5t34.5 -132.5t31.5 -270.5t31.5 -252.5q0 -116 -79 -116.5t-105 66.5v3q-19 -9 -67 -37q-95 -53 -168.5 -53t-145.5 29.5t-124 75.5t-93 118.5t-68 144t-46.5 167.5t-28.5 172t-16 177q-8 124 -7 302l-2 234 q0 746 211 987q122 143 318 143q127 0 127 -90q0 -34 -24 -54t-57 -20l-87 15q-115 0 -181 -144q-68 -149 -88.5 -294t-29.5 -231.5t-12 -193.5q-7 -150 -7 -301l-1 -197q0 -312 26.5 -436.5t53.5 -200.5t64 -127q87 -113 222.5 -113t225.5 133q-5 285 -48 363z" />
<glyph unicode="&#x11f;" horiz-adv-x="1013" d="M727 2174v-26q-14 -42 -45.5 -105.5t-41.5 -73t-29.5 -29.5t-39.5 -26q-62 -20 -118 -20t-109.5 32.5t-82.5 86.5q-60 105 -61 242v15l59 50q68 0 93 -116q26 -127 76 -163h67q22 0 47.5 50.5t25.5 80.5t1.5 47t9 41t27 35t52 11t58 -24t25.5 -41t-14 -67zM629 404 l-55 -1q-45 0 -71.5 14.5t-26.5 59t28.5 67.5t70.5 23v-1q310 0 310 -98l-34 -231l15 -336q0 -91 -14 -157q-184 -169 -327 -169q-76 0 -139.5 41t-123.5 140.5t-105 377.5t-45 386.5t4.5 180t14 162t11 117.5t5 77.5t7.5 96.5t17 128.5t28.5 131t45 109.5t68.5 95 q95 81 219.5 81t124.5 -81q0 -37 -27 -61t-63 -24l-57 8q-93 0 -141 -217q-46 -211 -54 -380q-14 -259 -14 -345t0.5 -133.5t3 -118t8 -124.5t14.5 -120t22.5 -115t32.5 -97.5t44 -79.5q56 -70 134 -70q138 0 134 535v116q-20 12 -65 12z" />
<glyph unicode="&#x120;" horiz-adv-x="1195" d="M463 2259q-32 35 -32 81t35.5 83t82 37t81 -37t34.5 -86t-36 -81t-84.5 -32t-80.5 35zM837 175l-119 -12q-105 0 -106 90q0 78 197 100q39 5 86 5t81.5 -49.5t34.5 -132.5t31.5 -270.5t31.5 -252.5q0 -116 -79 -116.5t-105 66.5v3q-19 -9 -67 -37q-95 -53 -168.5 -53 t-145.5 29.5t-124 75.5t-93 118.5t-68 144t-46.5 167.5t-28.5 172t-16 177q-8 124 -7 302l-2 234q0 746 211 987q122 143 318 143q127 0 127 -90q0 -34 -24 -54t-57 -20l-87 15q-115 0 -181 -144q-68 -149 -88.5 -294t-29.5 -231.5t-12 -193.5q-7 -150 -7 -301l-1 -197 q0 -312 26.5 -436.5t53.5 -200.5t64 -127q87 -113 222.5 -113t225.5 133q-5 285 -48 363z" />
<glyph unicode="&#x121;" horiz-adv-x="1013" d="M398 1929q-32 35 -32 81t35.5 83t82 37t81 -37t34.5 -86t-36 -81t-84.5 -32t-80.5 35zM629 404l-55 -1q-45 0 -71.5 14.5t-26.5 59t28.5 67.5t70.5 23v-1q310 0 310 -98l-34 -231l15 -336q0 -91 -14 -157q-184 -169 -327 -169q-76 0 -139.5 41t-123.5 140.5t-105 377.5 t-45 386.5t4.5 180t14 162t11 117.5t5 77.5t7.5 96.5t17 128.5t28.5 131t45 109.5t68.5 95q95 81 219.5 81t124.5 -81q0 -37 -27 -61t-63 -24l-57 8q-93 0 -141 -217q-46 -211 -54 -380q-14 -259 -14 -345t0.5 -133.5t3 -118t8 -124.5t14.5 -120t22.5 -115t32.5 -97.5 t44 -79.5q56 -70 134 -70q138 0 134 535v116q-20 12 -65 12z" />
<glyph unicode="&#x122;" horiz-adv-x="1195" d="M973 -786l-5 -22q0 -73 -40 -173.5t-110 -179.5t-138 -79h-94v112q12 12 62 52q104 84 114 143q-91 67 -91 140.5t49 112t107 38.5t90.5 -34.5t55.5 -98.5v-11zM837 175l-119 -12q-105 0 -106 90q0 78 197 100q39 5 86 5t81.5 -49.5t34.5 -132.5t31.5 -270.5t31.5 -252.5 q0 -116 -79 -116.5t-105 66.5v3q-19 -9 -67 -37q-95 -53 -168.5 -53t-145.5 29.5t-124 75.5t-93 118.5t-68 144t-46.5 167.5t-28.5 172t-16 177q-8 124 -7 302l-2 234q0 746 211 987q122 143 318 143q127 0 127 -90q0 -34 -24 -54t-57 -20l-87 15q-115 0 -181 -144 q-68 -149 -88.5 -294t-29.5 -231.5t-12 -193.5q-7 -150 -7 -301l-1 -197q0 -312 26.5 -436.5t53.5 -200.5t64 -127q87 -113 222.5 -113t225.5 133q-5 285 -48 363z" />
<glyph unicode="&#x123;" horiz-adv-x="1058" d="M668 404l-59 -1q-105 0 -105 73q0 45 31 68t76 23v-1q319 0 319 -98l-34 -231l15 -336q0 -91 -14 -157q-186 -169 -342 -169q-214 0 -302 109q-70 84 -105 377.5t-35 430.5t4.5 208.5t14 162t21 250t45.5 277.5q84 294 344 309h28q129 0 129 -81q0 -37 -29.5 -61 t-66.5 -24l-64 8q-108 0 -161 -217t-62 -383q-14 -245 -14 -369t10 -208q43 -81 47.5 -232.5t18.5 -226.5q33 -164 214 -164q150 0 147 536v115q-21 12 -71 12z" />
<glyph unicode="&#x124;" horiz-adv-x="967" d="M699 2331l28 -39q0 -36 -31.5 -56.5t-69.5 -20.5h-68q-26 265 -62 412q-12 -37 -34 -107.5t-34 -109.5q-37 -105 -107 -194l-104 75q6 59 56 198.5t123.5 267t126.5 127.5q81 0 80 -103q0 -70 48 -192.5t48 -176.5v-81zM608 877l-28 1042q-2 23 24.5 51t60 28t59.5 -56 t26 -183q0 -349 29.5 -1047t29.5 -1045q0 -42 -26.5 -78.5t-66.5 -36.5q-80 0 -80 105q0 592 -27 1119q-85 16 -157 16q-70 0 -126 -25q2 -174 27 -532.5t25 -543.5q0 -31 -18.5 -57t-49.5 -26q-51 0 -76.5 42.5t-32.5 224.5t-8.5 399t-4.5 259q-57 825 -58 1407v24 q5 50 54 49q98 0 112 -66q-11 -113 -11 -239l22 -653l-3 -119q0 -45 6 -82z" />
<glyph unicode="&#x125;" horiz-adv-x="971" d="M688 2010l28 -39q0 -36 -31.5 -56.5t-69.5 -20.5h-68q-26 265 -62 412q-12 -37 -34 -107.5t-34 -109.5q-37 -105 -107 -194l-104 75q6 59 56 198.5t123.5 267t126.5 127.5q81 0 80 -103q0 -70 48 -192.5t48 -176.5v-81zM339 1511l-12 -792q56 -16 167 -15h121v66 q0 146 -21.5 438t-21.5 438q0 36 27 60t48 24t36.5 2t25.5 1.5t23 -6.5q23 -11 23 -72q0 -333 29.5 -998t29.5 -998q0 -28 -24 -43.5t-61.5 -15.5t-70 19.5t-33.5 51.5q-17 316 -17 778v13l-2 91l-2 30v3q-25 -6 -71 -6l-197 29l-9 -350v-14l26 -523q0 -46 -22.5 -80 t-65.5 -34q-64 0 -88 115.5t-24 315.5l10 483l1 182l6 186l-21 716q0 37 26.5 65.5t63.5 28.5q100 0 100 -189z" />
<glyph unicode="&#x126;" horiz-adv-x="971" d="M609 877l-28 1042v83q143 0 166 -154q5 -37 5 -237.5t29.5 -898.5t29.5 -1045q0 -42 -26.5 -78.5t-66.5 -36.5q-81 0 -81 105q0 592 -26 1119q-85 16 -156.5 16t-127.5 -25q2 -174 27.5 -532.5t25.5 -543.5q0 -31 -18.5 -57t-49.5 -26q-51 0 -77 42.5t-33 224.5t-8.5 399 t-4.5 259q-57 825 -57 1407v24h166q-11 -113 -11 -256l21 -653l-3 -119q0 -45 7 -82zM279 1141l215 6q319 0 320 -85q0 -70 -103 -70l-226 -6q-345 0 -345 86q0 68 139 69z" />
<glyph unicode="&#x127;" horiz-adv-x="996" d="M339 1511l-12 -792q56 -16 167 -15h121v66q0 146 -21.5 438t-21.5 438q0 36 27 60t48 24t36.5 2t25.5 1.5t23 -6.5q23 -11 23 -72q0 -333 29.5 -998t29.5 -998q0 -28 -24 -43.5t-61.5 -15.5t-70 19.5t-33.5 51.5q-17 316 -17 778v13l-2 91l-2 30v3q-25 -6 -71 -6l-197 29 l-9 -350v-14l26 -523q0 -46 -22.5 -80t-65.5 -34q-64 0 -88 115.5t-24 315.5l10 483l1 182l6 186l-21 716q0 37 26.5 65.5t63.5 28.5q100 0 100 -189zM338 840l223 6q322 0 322 -85q0 -70 -102 -70l-229 -6q-353 0 -354 87q0 68 140 68z" />
<glyph unicode="&#x128;" horiz-adv-x="757" d="M533 2447l-20 70q25 50 74.5 50t77.5 -45t28 -114t-61.5 -130.5t-133.5 -61.5t-132.5 33.5t-96 68.5t-86.5 94v3l-82 -48v-152q-53 0 -103.5 24t-50.5 67q0 108 63 185t168 77l158 -80q14 -37 47.5 -74.5t67.5 -37.5v2q9 9 31 20q51 21 51 49zM471 -222l65 2 q129 0 129 -53q12 -53 -12 -75.5t-67 -22.5h-398q-91 0 -91.5 73t95.5 73l98 -1q16 0 15.5 158t-30 647t-29.5 734l7 324q0 102 -8 176q-43 -14 -75 -14q-74 0 -74 76q0 39 48 68t120 41q133 23 197 23t92 -25.5t28 -60.5t-21 -60.5t-53 -25.5l-56 2q-31 0 -45.5 -13.5 t-14.5 -51.5q0 -310 40 -928.5t40 -928.5v-137z" />
<glyph unicode="&#x129;" horiz-adv-x="855" d="M625 2126l-20 70q25 50 74.5 50t77.5 -45t28 -114t-61.5 -130.5t-133.5 -61.5t-132.5 33.5t-96 68.5t-86.5 94v3l-82 -48v-152q-53 0 -103.5 24t-50.5 67q0 108 63 185t168 77l158 -80q14 -37 47.5 -74.5t67.5 -37.5v2q9 9 31 20q51 21 51 49zM487 656l23 -675v-94 q0 -19 -2 -36q-3 -29 10 -48v-5l116 4q130 0 130 -80q0 -40 -31.5 -68.5t-73.5 -28.5l-106 11q-8 0 -48 -18t-89 -18t-81 31q-25 -3 -39 -3q-88 0 -118 57q0 61 50 85v13h101l6 42l-22 674l17 707q0 178 -15 338h-123.5t-83 17.5t-26.5 67.5q0 74 172 73h11q408 0 408 -129 q0 -17 -19 -59h-163q12 -116 13 -252z" />
<glyph unicode="&#x12a;" horiz-adv-x="757" d="M123 2370l223 6q322 0 322 -85q0 -70 -102 -70l-229 -6q-353 0 -354 87q0 68 140 68zM471 -222l65 2q129 0 129 -53q12 -53 -12 -75.5t-67 -22.5h-398q-91 0 -91.5 73t95.5 73l98 -1q16 0 15.5 158t-30 647t-29.5 734l7 324q0 102 -8 176q-43 -14 -75 -14q-74 0 -74 76 q0 39 48 68t120 41q133 23 197 23t92 -25.5t28 -60.5t-21 -60.5t-53 -25.5l-56 2q-31 0 -45.5 -13.5t-14.5 -51.5q0 -310 40 -928.5t40 -928.5v-137z" />
<glyph unicode="&#x12b;" horiz-adv-x="855" d="M214 2049l223 6q322 0 322 -85q0 -70 -102 -70l-229 -6q-353 0 -354 87q0 68 140 68zM487 656l23 -675v-94q0 -19 -2 -36q-3 -29 10 -48v-5l116 4q130 0 130 -80q0 -40 -31.5 -68.5t-73.5 -28.5l-106 11q-8 0 -48 -18t-89 -18t-81 31q-25 -3 -39 -3q-88 0 -118 57 q0 61 50 85v13h101l6 42l-22 674l17 707q0 178 -15 338h-123.5t-83 17.5t-26.5 67.5q0 74 172 73h11q408 0 408 -129q0 -17 -19 -59h-163q12 -116 13 -252z" />
<glyph unicode="&#x12c;" horiz-adv-x="757" d="M562 2495v-26q-14 -42 -45.5 -105.5t-41.5 -73t-29.5 -29.5t-39.5 -26q-62 -20 -118 -20t-109.5 32.5t-82.5 86.5q-60 105 -61 242v15l59 50q68 0 93 -116q26 -127 76 -163h67q22 0 47.5 50.5t25.5 80.5t1.5 47t9 41t27 35t52 11t58 -24t25.5 -41t-14 -67zM471 -222l65 2 q129 0 129 -53q12 -53 -12 -75.5t-67 -22.5h-398q-91 0 -91.5 73t95.5 73l98 -1q16 0 15.5 158t-30 647t-29.5 734l7 324q0 102 -8 176q-43 -14 -75 -14q-74 0 -74 76q0 39 48 68t120 41q133 23 197 23t92 -25.5t28 -60.5t-21 -60.5t-53 -25.5l-56 2q-31 0 -45.5 -13.5 t-14.5 -51.5q0 -310 40 -928.5t40 -928.5v-137z" />
<glyph unicode="&#x12d;" horiz-adv-x="855" d="M654 2174v-26q-14 -42 -45.5 -105.5t-41.5 -73t-29.5 -29.5t-39.5 -26q-62 -20 -118 -20t-109.5 32.5t-82.5 86.5q-60 105 -61 242v15l59 50q68 0 93 -116q26 -127 76 -163h67q22 0 47.5 50.5t25.5 80.5t1.5 47t9 41t27 35t52 11t58 -24t25.5 -41t-14 -67zM487 656 l23 -675v-94q0 -19 -2 -36q-3 -29 10 -48v-5l116 4q130 0 130 -80q0 -40 -31.5 -68.5t-73.5 -28.5l-106 11q-8 0 -48 -18t-89 -18t-81 31q-25 -3 -39 -3q-88 0 -118 57q0 61 50 85v13h101l6 42l-22 674l17 707q0 178 -15 338h-123.5t-83 17.5t-26.5 67.5q0 74 172 73h11 q408 0 408 -129q0 -17 -19 -59h-163q12 -116 13 -252z" />
<glyph unicode="&#x12e;" horiz-adv-x="757" d="M578 -386q-274 -229 -274 -419q0 -39 13 -59t29 -20q62 0 133 52v-53q0 -42 -48.5 -70.5t-103.5 -28.5t-93 49.5t-38 116.5q0 127 86.5 241.5t210.5 190.5h85zM471 -222l65 2q129 0 129 -53q12 -53 -12 -75.5t-67 -22.5h-398q-91 0 -91.5 73t95.5 73l98 -1q16 0 15.5 158 t-30 647t-29.5 734l7 324q0 102 -8 176q-43 -14 -75 -14q-74 0 -74 76q0 39 48 68t120 41q133 23 197 23t92 -25.5t28 -60.5t-21 -60.5t-53 -25.5l-56 2q-31 0 -45.5 -13.5t-14.5 -51.5q0 -310 40 -928.5t40 -928.5v-137z" />
<glyph unicode="&#x12f;" horiz-adv-x="854" d="M654 -380q-274 -229 -274 -419q0 -39 13 -59t29 -20q62 0 133 52v-53q0 -42 -48.5 -70.5t-103.5 -28.5t-93 49.5t-38 116.5q0 127 86.5 241.5t210.5 190.5h85zM553 -364l-119 -2l-138 -6q-88 0 -118 57q0 46 12 72t49 26h90l6 42l-22 674l17 707q0 178 -15 338h-123.5 t-83 17.5t-26.5 67.5q0 74 172 73h11q408 0 408 -109q0 -17 -19 -59h-163q12 -116 13 -272l-17 -606l23 -675v-94q0 -27 -11 -85h135q130 0 130 -80q0 -36 -22.5 -60.5t-50.5 -24.5z" />
<glyph unicode="&#x130;" horiz-adv-x="757" d="M232 2249q-32 35 -32 81t35.5 83t82 37t81 -37t34.5 -86t-36 -81t-84.5 -32t-80.5 35zM471 -222l65 2q129 0 129 -53q12 -53 -12 -75.5t-67 -22.5h-398q-91 0 -91.5 73t95.5 73l98 -1q16 0 15.5 158t-30 647t-29.5 734l7 324q0 102 -8 176q-43 -14 -75 -14q-74 0 -74 76 q0 39 48 68t120 41q133 23 197 23t92 -25.5t28 -60.5t-21 -60.5t-53 -25.5l-56 2q-31 0 -45.5 -13.5t-14.5 -51.5q0 -310 40 -928.5t40 -928.5v-137z" />
<glyph unicode="&#x131;" horiz-adv-x="855" d="M487 656l23 -675v-94q0 -19 -2 -36q-3 -29 10 -48v-5l116 4q130 0 130 -80q0 -40 -31.5 -68.5t-73.5 -28.5l-106 11q-8 0 -48 -18t-89 -18t-81 31q-25 -3 -39 -3q-88 0 -118 57q0 61 50 85v13h101l6 42l-22 674l17 707q0 178 -15 338h-123.5t-83 17.5t-26.5 67.5 q0 74 172 73h11q408 0 408 -129q0 -17 -19 -59h-163q12 -116 13 -252z" />
<glyph unicode="&#x132;" horiz-adv-x="1405" d="M1164 1815l-6 -491q0 -206 29 -618t29 -666t-68.5 -436t-240.5 -305q-50 0 -82.5 25t-32.5 68.5t40 79t84 54.5q127 160 128 448q0 158 -16.5 452.5t-19 397.5t-4 263.5t-2.5 260.5q-5 268 -41 492q-11 -2 -41 -10q-62 -16 -95.5 -15.5t-57.5 24.5t-24 57q0 112 380 111 q183 0 183 -86.5t-142 -82.5v-23zM471 -222l65 2q129 0 129 -53q12 -53 -12 -75.5t-67 -22.5h-398q-91 0 -91.5 73t95.5 73l98 -1q16 0 15.5 158t-30 647t-29.5 734l7 324q0 102 -8 176q-43 -14 -75 -14q-74 0 -74 76q0 39 48 68t120 41q133 23 197 23t92 -25.5t28 -60.5 t-21 -60.5t-53 -25.5l-56 2q-31 0 -45.5 -13.5t-14.5 -51.5q0 -310 40 -928.5t40 -928.5v-137z" />
<glyph unicode="&#x133;" horiz-adv-x="1653" d="M1346 50l4 -273q0 -302 -110 -425q-101 -113 -308 -146l-95 95q205 129 272.5 245t67.5 344l-28 1621v14q-34 0 -94.5 11t-79.5 18.5t-39 18.5q-39 20 -38.5 56t36 56.5t84 20.5t172.5 -15.5t250.5 -56.5t126.5 -92q0 -34 -25.5 -54t-59.5 -20t-93 14.5t-70 16.5v-27 l31 -1280zM551 -364l-119 -2l-138 -6q-88 0 -118 57q0 46 12 72t49 26h90l6 42l-22 674l17 707q0 178 -15 338h-123.5t-83 17.5t-26.5 67.5q0 74 172 73h11q408 0 408 -109q0 -17 -19 -59h-163q12 -116 13 -272l-17 -606l23 -675v-94q0 -27 -11 -85h135q130 0 130 -80 q0 -36 -22.5 -60.5t-50.5 -24.5z" />
<glyph unicode="&#x134;" horiz-adv-x="736" d="M583 2331l28 -39q0 -36 -31.5 -56.5t-69.5 -20.5h-68q-26 265 -62 412q-12 -37 -34 -107.5t-34 -109.5q-37 -105 -107 -194l-104 75q6 59 56 198.5t123.5 267t126.5 127.5q81 0 80 -103q0 -70 48 -192.5t48 -176.5v-81zM494 1815l-6 -491q0 -206 29 -618t29 -666 t-68.5 -436t-240.5 -305q-50 0 -82.5 25t-32.5 68.5t40 79t84 54.5q127 160 128 448q0 158 -16.5 452.5t-19 397.5t-4 263.5t-2.5 260.5q-5 268 -41 492q-11 -2 -41 -10q-62 -16 -95.5 -15.5t-57.5 24.5t-24 57q0 112 380 111q183 0 183 -86.5t-142 -82.5v-23z" />
<glyph unicode="&#x135;" horiz-adv-x="895" d="M649 2010l28 -39q0 -36 -31.5 -56.5t-69.5 -20.5h-68q-26 265 -62 412q-12 -37 -34 -107.5t-34 -109.5q-37 -105 -107 -194l-104 75q6 59 56 198.5t123.5 267t126.5 127.5q81 0 80 -103q0 -70 48 -192.5t48 -176.5v-81zM561 1472l31 -1280v-347q-39 -65 -60.5 -228 t-47.5 -240q-56 -170 -273 -171l-146 104q0 42 96 112.5t166 106.5q91 108 91 361l-27 1621v14q-34 0 -94.5 11t-79.5 18.5t-39 18.5q-39 20 -38.5 56t36 56.5t84 20.5t172.5 -15.5t250.5 -56.5t126.5 -92q0 -34 -25.5 -54t-59.5 -20t-93 14.5t-70 16.5v-27z" />
<glyph unicode="&#x136;" horiz-adv-x="1071" d="M924 -777l-5 -22q0 -73 -40 -173.5t-110 -179.5t-138 -79h-94v112q12 12 62 52q104 84 114 143q-91 67 -91 140.5t49 112t107 38.5t90.5 -34.5t55.5 -98.5v-11zM186 623l5 603q0 346 -10.5 429.5t-23.5 143t-13 94.5t25.5 65.5t64.5 30.5q118 0 118 -258q0 -2 -14 -652 q11 28 59 155t99 258q50 132 108 269q133 313 191 313q36 0 63 -24t27 -57.5t-173.5 -396t-193.5 -460.5v-56q46 -122 253 -772.5t207 -690t-31 -65.5t-70 -26l-74 12q-78 454 -158.5 788t-213.5 638q-88 -169 -95 -205q-10 -81 -10 -151l20 -590q0 -429 -109 -429 q-93 0 -93 160.5t21 445.5t21 428z" />
<glyph unicode="&#x137;" horiz-adv-x="1078" d="M941 -757l-5 -22q0 -73 -40 -173.5t-110 -179.5t-138 -79h-94v112q12 12 62 52q104 84 114 143q-91 67 -91 140.5t49 112t107 38.5t90.5 -34.5t55.5 -98.5v-11zM388 1596l-27 -578v-166q9 18 116 252q268 580 335 579q46 0 84.5 -21.5t38.5 -63.5q0 -3 -161.5 -269 t-179.5 -305l-7 -189q0 -136 109.5 -509.5t182.5 -494.5q9 -14 41 -57.5t46.5 -76t14.5 -68t-27 -59.5t-63 -24q-74 0 -154.5 157t-144.5 385q-107 389 -156 678q-53 -54 -81.5 -145t-28.5 -125v-870q0 -74 -70 -74q-48 0 -77 27t-29 74v964q0 172 30.5 513.5t30.5 512.5 q28 60 80 60q97 0 97 -107z" />
<glyph unicode="&#x138;" horiz-adv-x="1078" d="M594 1024l-7 -189q0 -136 109.5 -509.5t182.5 -494.5q9 -14 41 -57.5t46.5 -76t14.5 -68t-27 -59.5t-63 -24q-74 0 -154.5 157t-144.5 385q-107 389 -156 678q-115 -228 -115 -552v-588q0 -74 -65 -74q-48 0 -77 27t-29 74v964q0 172 30.5 513.5t30.5 512.5 q28 60 80.5 60t82 -28.5t29.5 -68.5v-10q-42 -73 -42 -578v-113q5 8 116 233q271 546 335 545q46 0 84.5 -21.5t38.5 -63.5q0 -3 -161 -269t-180 -305z" />
<glyph unicode="&#x139;" horiz-adv-x="751" d="M370 2215q-106 0 -106 83v4q3 62 282 258q110 79 133 101q121 0 121 -87q0 -2 -14 -76q-102 -42 -221 -123t-195 -160zM310 1944l33 -1143q0 -57 -7 -101v-13q5 -91 14 -261q23 -377 24 -567v-101h226q53 -31 60.5 -45t7.5 -39.5t-23 -52.5t-48 -27t-58 11q-26 -6 -60 -7 l-102 5q-33 -39 -82 -39t-82 30.5t-33 70.5l20 140q0 361 -32 1082.5t-32 1082.5q0 29 23.5 47t58.5 18t63.5 -26t28.5 -65z" />
<glyph unicode="&#x13a;" horiz-adv-x="809" d="M342 1894q-106 0 -106 83v4q3 62 282 258q110 79 133 101q121 0 121 -87q0 -2 -14 -76q-102 -42 -221 -123t-195 -160zM339 1379l10 -762q-19 -45 -19 -172l-12 -506q0 -219 107 -218l131 5q170 0 171 -93q0 -34 -29.5 -56.5t-66.5 -27.5q-116 37 -284 37 q-51 -29 -98 -29t-73.5 32.5t-26.5 70.5l31 1419v23q-10 99 -10 298q0 301 111 300q33 0 56.5 -23t23.5 -56z" />
<glyph unicode="&#x13b;" horiz-adv-x="751" d="M631 -738l-5 -22q0 -73 -40 -173.5t-110 -179.5t-138 -79h-94v112q12 12 62 52q104 84 114 143q-91 67 -91 140.5t49 112t107 38.5t90.5 -34.5t55.5 -98.5v-11zM310 1944l33 -1143q0 -57 -7 -101v-13q5 -91 14 -261q23 -377 24 -567v-101h226q53 -31 60.5 -45t7.5 -39.5 t-23 -52.5t-48 -27t-58 11q-26 -6 -60 -7l-102 5q-33 -39 -82 -39t-82 30.5t-33 70.5l20 140q0 361 -32 1082.5t-32 1082.5q0 29 23.5 47t58.5 18t63.5 -26t28.5 -65z" />
<glyph unicode="&#x13c;" horiz-adv-x="809" d="M789 -754l-5 -22q0 -73 -40 -173.5t-110 -179.5t-138 -79h-94v112q12 12 62 52q104 84 114 143q-91 67 -91 140.5t49 112t107 38.5t90.5 -34.5t55.5 -98.5v-11zM339 1379l10 -762q-19 -45 -19 -172l-12 -506q0 -219 107 -218l131 5q170 0 171 -93q0 -34 -29.5 -56.5 t-66.5 -27.5q-116 37 -284 37q-51 -29 -98 -29t-73.5 32.5t-26.5 70.5l31 1419v23q-10 99 -10 298q0 301 111 300q33 0 56.5 -23t23.5 -56z" />
<glyph unicode="&#x13d;" horiz-adv-x="1345" d="M1247 1913l-5 -22q0 -73 -40.5 -173.5t-110 -179.5t-137.5 -79h-95v111q12 12 62 53q104 84 115 143q-91 67 -91.5 140.5t48.5 112t107 38.5t90.5 -35t56.5 -98v-11zM310 1944l33 -1143q0 -57 -7 -101v-13q5 -91 14 -261q23 -377 24 -567v-101h226q53 -31 60.5 -45 t7.5 -39.5t-23 -52.5t-48 -27t-58 11q-26 -6 -60 -7l-102 5q-33 -39 -82 -39t-82 30.5t-33 70.5l20 140q0 361 -32 1082.5t-32 1082.5q0 29 23.5 47t58.5 18t63.5 -26t28.5 -65z" />
<glyph unicode="&#x13e;" horiz-adv-x="1447" d="M1321 1592l-5 -22q0 -73 -40.5 -173.5t-110 -179.5t-137.5 -79h-95v111q12 12 62 53q104 84 115 143q-91 67 -91.5 140.5t48.5 112t107 38.5t90.5 -35t56.5 -98v-11zM339 1379l10 -762q-19 -45 -19 -172l-12 -506q0 -219 107 -218l131 5q170 0 171 -93q0 -34 -29.5 -56.5 t-66.5 -27.5q-116 37 -284 37q-51 -29 -98 -29t-73.5 32.5t-26.5 70.5l31 1419v23q-10 99 -10 298q0 301 111 300q33 0 56.5 -23t23.5 -56z" />
<glyph unicode="&#x13f;" horiz-adv-x="751" d="M345 728q-32 35 -32 80.5t36 83t82.5 37.5t80.5 -37.5t34 -86t-35.5 -80.5t-84.5 -32t-81 35zM310 1944l33 -1143q0 -57 -7 -101v-13q5 -91 14 -261q23 -377 24 -567v-101h226q53 -31 60.5 -45t7.5 -39.5t-23 -52.5t-48 -27t-58 11q-26 -6 -60 -7l-102 5q-33 -39 -82 -39 t-82 30.5t-33 70.5l20 140q0 361 -32 1082.5t-32 1082.5q0 29 23.5 47t58.5 18t63.5 -26t28.5 -65z" />
<glyph unicode="&#x140;" horiz-adv-x="1230" d="M920 616q-32 35 -32 80.5t36 83t82.5 37.5t80.5 -37.5t34 -86t-35.5 -80.5t-84.5 -32t-81 35zM339 1379l10 -762q-19 -45 -19 -172l-12 -506q0 -219 107 -218l131 5q170 0 171 -93q0 -34 -29.5 -56.5t-66.5 -27.5q-116 37 -284 37q-51 -29 -98 -29t-73.5 32.5t-26.5 70.5 l31 1419v23q-10 99 -10 298q0 301 111 300q33 0 56.5 -23t23.5 -56z" />
<glyph unicode="&#x141;" horiz-adv-x="864" d="M321 1944l33 -1143q0 -57 -7 -101v-13q5 -91 14 -261q23 -377 24 -567v-101h226q53 -31 60.5 -45t7.5 -39.5t-23 -52.5t-48 -27t-58 11q-26 -6 -60 -7l-102 5q-33 -39 -82 -39t-82 30.5t-33 70.5l20 140q0 361 -32 1082.5t-32 1082.5q0 29 23.5 47t58.5 18t63.5 -26 t28.5 -65zM782 745q0 -37 -184 -45q-277 -14 -358 -13q-143 0 -143 91q0 36 185 45q277 14 356 14q144 -1 144 -92z" />
<glyph unicode="&#x142;" horiz-adv-x="872" d="M361 1379l9 -762q-19 -45 -18 -172l-13 -506q0 -219 107 -218l132 5q170 0 171 -93q0 -34 -29.5 -56.5t-66.5 -27.5q-116 37 -284 37q-51 -29 -98.5 -29t-74 32.5t-26.5 70.5l32 1419v23q-9 99 -10 298q0 301 110 300q33 0 57 -23t24 -56zM740 812q32 -26 32 -65.5 t-75 -68.5q-75 -30 -185 -40q-198 -22 -321 -21q-40 0 -72 26.5t-32 65t75 66.5t185 40q191 22 319 22q40 0 74 -25z" />
<glyph unicode="&#x143;" horiz-adv-x="1184" d="M610 2232q-106 0 -106 83v4q3 62 282 258q110 79 133 101q121 0 121 -87q0 -2 -14 -76q-102 -42 -221 -123t-195 -160zM1003 1838l-13 -1173v-970q0 -77 -62 -111q-33 -17 -67.5 -17t-52.5 11t-27 26.5t-16 39t-10 43.5q-17 113 -118 474q-195 694 -249 1046 q-3 11 -4 29.5t-3 31.5q-2 34 -17 56q2 65 -27 166.5t-32 121.5v-2009h-111v59q6 23 -2 97.5t-8 177t-20 471t-20 451.5v404l22 583q0 118 17 132q40 31 83.5 31t66.5 -13q54 -29 54.5 -82t12.5 -104.5t35.5 -116t32.5 -98.5t16 -79t10 -81q11 -119 27.5 -206t63 -258 t88.5 -303q105 -338 119 -606q25 -46 31 -113l9 1106v940q19 79 105 79t86 -124v-19q-20 -42 -20 -93z" />
<glyph unicode="&#x144;" horiz-adv-x="1191" d="M706 1894q-106 0 -106 83v4q3 62 282 258q110 79 133 101q121 0 121 -87q0 -2 -14 -76q-102 -42 -221 -123t-195 -160zM327 852l19 -821v-360q0 -42 -22 -70.5t-60 -28.5q-104 0 -104 194l-7 1119l19 592q0 214 116 214q70 0 101 -107q43 -205 151 -588.5t148 -583.5 q29 -98 76 -289t73 -287q12 688 12 1667l-4 86q0 43 16 68.5t55 25.5t64 -18q50 -37 49 -106q0 -436 -24.5 -1119t-74.5 -854q-6 -2 -26 -8.5t-30 -8.5q-88 -20 -111.5 8t-33.5 74.5t-23 90.5t-98 422q-228 1000 -281 1163v-475z" />
<glyph unicode="&#x145;" horiz-adv-x="1184" d="M1014 -735l-5 -22q0 -73 -40 -173.5t-110 -179.5t-138 -79h-94v112q12 12 62 52q104 84 114 143q-91 67 -91 140.5t49 112t107 38.5t90.5 -34.5t55.5 -98.5v-11zM1003 1838l-13 -1173v-970q0 -77 -62 -111q-33 -17 -67.5 -17t-52.5 11t-27 26.5t-16 39t-10 43.5 q-17 113 -118 474q-195 694 -249 1046q-3 11 -4 29.5t-3 31.5q-2 34 -17 56q2 65 -27 166.5t-32 121.5v-2009h-111v59q6 23 -2 97.5t-8 177t-20 471t-20 451.5v404l22 583q0 118 17 132q40 31 83.5 31t66.5 -13q54 -29 54.5 -82t12.5 -104.5t35.5 -116t32.5 -98.5t16 -79 t10 -81q11 -119 27.5 -206t63 -258t88.5 -303q105 -338 119 -606q25 -46 31 -113l9 1106v940q19 79 105 79t86 -124v-19q-20 -42 -20 -93z" />
<glyph unicode="&#x146;" horiz-adv-x="1191" d="M1093 -712l-5 -22q0 -73 -40 -173.5t-110 -179.5t-138 -79h-94v112q12 12 62 52q104 84 114 143q-91 67 -91 140.5t49 112t107 38.5t90.5 -34.5t55.5 -98.5v-11zM327 852l19 -821v-360q0 -42 -22 -70.5t-60 -28.5q-104 0 -104 194l-7 1119l19 592q0 214 116 214 q70 0 101 -107q43 -205 151 -588.5t148 -583.5q29 -98 76 -289t73 -287q12 688 12 1667l-4 86q0 43 16 68.5t55 25.5t64 -18q50 -37 49 -106q0 -436 -24.5 -1119t-74.5 -854q-6 -2 -26 -8.5t-30 -8.5q-88 -20 -111.5 8t-33.5 74.5t-23 90.5t-98 422q-228 1000 -281 1163 v-475z" />
<glyph unicode="&#x147;" horiz-adv-x="1184" d="M831 2824q0 -16 -11 -48v-57q-20 -3 -20 -5q0 -16 -47 -174.5t-47 -204.5q0 -102 -78.5 -102.5t-187 241.5t-119.5 349l102 73l83 -110q2 -59 91 -301q46 183 65 374h68l55 1q46 0 46 -36zM1003 1838l-13 -1173v-970q0 -77 -62 -111q-33 -17 -67.5 -17t-52.5 11t-27 26.5 t-16 39t-10 43.5q-17 113 -118 474q-195 694 -249 1046q-3 11 -4 29.5t-3 31.5q-2 34 -17 56q2 65 -27 166.5t-32 121.5v-2009h-111v59q6 23 -2 97.5t-8 177t-20 471t-20 451.5v404l22 583q0 118 17 132q40 31 83.5 31t66.5 -13q54 -29 54.5 -82t12.5 -104.5t35.5 -116 t32.5 -98.5t16 -79t10 -81q11 -119 27.5 -206t63 -258t88.5 -303q105 -338 119 -606q25 -46 31 -113l9 1106v940q19 79 105 79t86 -124v-19q-20 -42 -20 -93z" />
<glyph unicode="&#x148;" horiz-adv-x="1191" d="M927 2486q0 -16 -11 -48v-57q-20 -3 -20 -5q0 -16 -47 -174.5t-47 -204.5q0 -102 -78.5 -102.5t-187 241.5t-119.5 349l102 73l83 -110q2 -59 91 -301q46 183 65 374h68l55 1q46 0 46 -36zM327 852l19 -821v-360q0 -42 -22 -70.5t-60 -28.5q-104 0 -104 194l-7 1119 l19 592q0 214 116 214q70 0 101 -107q43 -205 151 -588.5t148 -583.5q29 -98 76 -289t73 -287q12 688 12 1667l-4 86q0 43 16 68.5t55 25.5t64 -18q50 -37 49 -106q0 -436 -24.5 -1119t-74.5 -854q-6 -2 -26 -8.5t-30 -8.5q-88 -20 -111.5 8t-33.5 74.5t-23 90.5t-98 422 q-228 1000 -281 1163v-475z" />
<glyph unicode="&#x14a;" horiz-adv-x="1226" d="M1003 1838l-13 -1173v-970q0 -77 -62 -111q-33 -17 -67.5 -17t-52.5 11t-27 26.5t-16 39t-10 43.5q-17 113 -118 474q-195 694 -249 1046q-3 11 -4 29.5t-3 31.5q-2 34 -17 56q2 65 -27 166.5t-32 121.5v-2009h-111v59q6 23 -2 97.5t-8 177t-20 471t-20 451.5v404l22 583 q0 118 17 132q40 31 83.5 31t66.5 -13q54 -29 54.5 -82t12.5 -104.5t35.5 -116t32.5 -98.5t16 -79t10 -81q11 -119 27.5 -206t63 -258t88.5 -303q105 -338 119 -606q25 -46 31 -113l9 1106v940q19 79 105 79t86 -124v-19q-20 -42 -20 -93zM982 1815l-6 -491q0 -206 29 -618 t29 -666t-68.5 -436t-240.5 -305q-50 0 -82.5 25t-32.5 68.5t40 79t84 54.5q127 160 128 448q0 158 -16.5 452.5t-19 397.5t-4 263.5t-2.5 260.5q-5 268 -41 492q-11 -2 -41 -10q-62 -16 -95.5 -15.5t-57.5 24.5t-24 57q0 112 380 111q183 0 183 -86.5t-142 -82.5v-23z" />
<glyph unicode="&#x14b;" horiz-adv-x="1373" d="M865 -256l1 14q0 119 -222 754q-220 635 -318 863v-1673q0 -99 -64 -99q-104 0 -104 194l-6 1088l18 592q0 82 19.5 136.5t78.5 97.5v-20q12 8 42 8q48 0 82 -115q60 -222 220 -615.5t198.5 -515t80.5 -295.5t79 -265q64 665 64 1610l-5 86q0 95 79 94q46 0 76 -38 t30 -86v-240q-2 -327 -40 -974t-91 -728q-87 -26 -120 -26t-51 22.5t-28.5 68.5t-18.5 62z" />
<glyph unicode="&#x14c;" horiz-adv-x="1075" d="M306 2370l223 6q322 0 322 -85q0 -70 -102 -70l-229 -6q-353 0 -354 87q0 68 140 68zM572.5 1845q-45.5 44 -88 44t-69 -21.5t-45 -65t-34 -92t-25.5 -119.5t-18 -128t-12.5 -136t-7.5 -129t-4 -119.5t-1 -92.5v-65q0 -256 48 -586q96 -649 271 -650q62 0 105.5 118.5 t60.5 297.5q31 302 31 437.5t-0.5 194.5t-4.5 171.5t-13.5 211t-23.5 217.5t-38 212t-55 174.5t-76.5 125.5zM928 558l-27 -402v-14q-20 -88 -20.5 -190t-35 -197.5t-107 -169t-157.5 -73.5t-155.5 58.5t-116 151t-81.5 220.5t-54.5 249.5t-30.5 256.5q-17 206 -17 338.5 t4 217.5q6 157 14 278.5t9.5 186.5t3 110t9.5 111t18.5 112.5t33 97.5t53.5 84q71 73 159.5 73t141.5 -17t89.5 -44.5t66.5 -71.5t49.5 -86t34.5 -101q20 -74 40 -212q76 -542 76 -967z" />
<glyph unicode="&#x14d;" horiz-adv-x="1036" d="M312 2049l223 6q322 0 322 -85q0 -70 -102 -70l-229 -6q-353 0 -354 87q0 68 140 68zM294 1201l5 -186l-1 -304q0 -39 1.5 -91.5t3.5 -138.5t9 -170.5t16.5 -178t25.5 -173.5t34 -145q42 -141 110 -141q91 0 139 172q71 256 71 629l5 327q0 344 -30 463.5t-57 179.5 q-53 122 -159 123h-7q-166 0 -166 -366zM884 454q0 -913 -374 -913q-344 0 -386 865q-3 82 -3 164l-2 194v62q0 671 197 829q48 39 107 42q45 -16 110 -29t96 -27q57 -26 124 -137t99 -296t32 -371v-383z" />
<glyph unicode="&#x14e;" horiz-adv-x="1075" d="M741 2495v-26q-14 -42 -45.5 -105.5t-41.5 -73t-29.5 -29.5t-39.5 -26q-62 -20 -118 -20t-109.5 32.5t-82.5 86.5q-60 105 -61 242v15l59 50q68 0 93 -116q26 -127 76 -163h67q22 0 47.5 50.5t25.5 80.5t1.5 47t9 41t27 35t52 11t58 -24t25.5 -41t-14 -67zM572.5 1845 q-45.5 44 -88 44t-69 -21.5t-45 -65t-34 -92t-25.5 -119.5t-18 -128t-12.5 -136t-7.5 -129t-4 -119.5t-1 -92.5v-65q0 -256 48 -586q96 -649 271 -650q62 0 105.5 118.5t60.5 297.5q31 302 31 437.5t-0.5 194.5t-4.5 171.5t-13.5 211t-23.5 217.5t-38 212t-55 174.5 t-76.5 125.5zM928 558l-27 -402v-14q-20 -88 -20.5 -190t-35 -197.5t-107 -169t-157.5 -73.5t-155.5 58.5t-116 151t-81.5 220.5t-54.5 249.5t-30.5 256.5q-17 206 -17 338.5t4 217.5q6 157 14 278.5t9.5 186.5t3 110t9.5 111t18.5 112.5t33 97.5t53.5 84q71 73 159.5 73 t141.5 -17t89.5 -44.5t66.5 -71.5t49.5 -86t34.5 -101q20 -74 40 -212q76 -542 76 -967z" />
<glyph unicode="&#x14f;" horiz-adv-x="1036" d="M623 2174v-26q-14 -42 -45.5 -105.5t-41.5 -73t-29.5 -29.5t-39.5 -26q-62 -20 -118 -20t-109.5 32.5t-82.5 86.5q-60 105 -61 242v15l59 50q68 0 93 -116q26 -127 76 -163h67q22 0 47.5 50.5t25.5 80.5t1.5 47t9 41t27 35t52 11t58 -24t25.5 -41t-14 -67zM294 1201 l5 -186l-1 -304q0 -39 1.5 -91.5t3.5 -138.5t9 -170.5t16.5 -178t25.5 -173.5t34 -145q42 -141 110 -141q91 0 139 172q71 256 71 629l5 327q0 344 -30 463.5t-57 179.5q-53 122 -159 123h-7q-166 0 -166 -366zM884 454q0 -913 -374 -913q-344 0 -386 865q-3 82 -3 164 l-2 194v62q0 671 197 829q48 39 107 42q45 -16 110 -29t96 -27q57 -26 124 -137t99 -296t32 -371v-383z" />
<glyph unicode="&#x150;" horiz-adv-x="1075" d="M722 2226q-34 6 -36 57q14 33 180.5 161.5t342.5 244.5t211.5 116t67.5 -29.5t44 -67.5v-27q-293 -119 -739 -411q-48 -28 -71 -44zM906 2715q0 -62 -445 -353q-51 -8 -144 -71.5t-131 -75.5l-28 34q46 81 341 310q290 228 327 228t58.5 -21.5t21.5 -50.5zM572.5 1845 q-45.5 44 -88 44t-69 -21.5t-45 -65t-34 -92t-25.5 -119.5t-18 -128t-12.5 -136t-7.5 -129t-4 -119.5t-1 -92.5v-65q0 -256 48 -586q96 -649 271 -650q62 0 105.5 118.5t60.5 297.5q31 302 31 437.5t-0.5 194.5t-4.5 171.5t-13.5 211t-23.5 217.5t-38 212t-55 174.5 t-76.5 125.5zM928 558l-27 -402v-14q-20 -88 -20.5 -190t-35 -197.5t-107 -169t-157.5 -73.5t-155.5 58.5t-116 151t-81.5 220.5t-54.5 249.5t-30.5 256.5q-17 206 -17 338.5t4 217.5q6 157 14 278.5t9.5 186.5t3 110t9.5 111t18.5 112.5t33 97.5t53.5 84q71 73 159.5 73 t141.5 -17t89.5 -44.5t66.5 -71.5t49.5 -86t34.5 -101q20 -74 40 -212q76 -542 76 -967z" />
<glyph unicode="&#x151;" horiz-adv-x="1036" d="M716 1867q-34 6 -36 57q14 33 180.5 161.5t342.5 244.5t211.5 116t67.5 -29.5t44 -67.5v-27q-293 -119 -739 -411q-48 -28 -71 -44zM900 2356q0 -62 -445 -353q-51 -8 -144 -71.5t-131 -75.5l-28 34q46 81 341 310q290 228 327 228t58.5 -21.5t21.5 -50.5zM294 1201 l5 -186l-1 -304q0 -39 1.5 -91.5t3.5 -138.5t9 -170.5t16.5 -178t25.5 -173.5t34 -145q42 -141 110 -141q91 0 139 172q71 256 71 629l5 327q0 344 -30 463.5t-57 179.5q-53 122 -159 123h-7q-166 0 -166 -366zM884 454q0 -913 -374 -913q-344 0 -386 865q-3 82 -3 164 l-2 194v62q0 671 197 829q48 39 107 42q45 -16 110 -29t96 -27q57 -26 124 -137t99 -296t32 -371v-383z" />
<glyph unicode="&#x152;" horiz-adv-x="1777" d="M265 1083l2 -212q0 -71 -2 -107q22 -45 37 -308q31 -487 130 -496q153 -186 374 -186q112 0 189.5 27t77.5 59q0 336 -28 965t-33 900q-104 121 -361 121q-169 0 -254 -141q-85 -138 -104 -270q-28 -195 -28 -352zM1407 769l-155 6q-29 0 -43 -2q-2 -191 8.5 -545 t10.5 -504q160 11 206 11v-3h51q211 0 211 -93v-64l-538 -9q-37 0 -75 20t-38 54v11q-115 -37 -195.5 -37t-179 25t-171.5 65t-131 104.5t-97.5 132.5t-67.5 160.5t-44 175.5t-26 189q-14 160 -14 314.5t1 206t5.5 151t12.5 170t25 167.5t40 165t60.5 141.5t83.5 118.5 q110 104 256 104q281 0 412 -88v48h504q73 -40 73 -79q0 -74 -93 -75l-338 11q0 -107 21.5 -321t21.5 -322l-6 -163q0 -51 8 -88h96l14 -3l70 1q64 0 108 -57q0 -99 -87 -99z" />
<glyph unicode="&#x153;" horiz-adv-x="1779" d="M770 474l-34 740v55q-3 116 -76 207t-181 91h-112q-57 -243 -57 -563l-14 -293q0 -228 26 -500q53 -538 194 -538q67 0 116.5 69t75 162t39.5 217q23 187 23 353zM124 570l3 121q0 16 -5 16v57q0 499 58 710q50 180 93 221t90.5 41t78.5 -39q46 -14 109 -24.5t94 -18.5 q84 -20 156 -137q136 -215 137 -680v-383q0 -913 -409 -913q-102 0 -179 77t-118 187t-68 260q-40 229 -40 505zM1426 -281l126 8q121 0 120 -77q0 -48 -41.5 -70t-94.5 -22h-299q-40 0 -69 29t-29 69v84q14 34 14 130l-14 406l20 927l-15 268q0 225 130 225q36 0 70 -24 q11 -2 59 -5.5t83.5 -9.5t77.5 -17q90 -26 90 -85q0 -64 -93 -100q-147 50 -240 61q5 -67 4 -137l-14 -455q0 -3 10 -50l113 5q153 0 153 -87q0 -46 -28 -82t-76.5 -36t-85.5 28h-81q9 -121 9 -229l-14 -575q0 -179 115 -179z" />
<glyph unicode="&#x154;" horiz-adv-x="931" d="M319 2215q-106 0 -106 83v4q3 62 282 258q110 79 133 101q121 0 121 -87q0 -2 -14 -76q-102 -42 -221 -123t-195 -160zM343 1868l-17 -648q0 -98 3 -146q53 50 102 122l46 275q0 164 -43 276t-91 121zM829 -329q0 -104 -76 -104q-59 0 -114 86v11q-8 127 -78.5 348.5 t-87.5 299t-55 292t-66 327.5v-1250q0 -101 -104 -101q-37 0 -63.5 25.5t-26.5 62.5v25l22 1862v390q0 37 15.5 52.5t90 15.5t152 -48.5t123.5 -126.5q96 -160 96 -352q0 -155 -77 -355q-9 -22 -37 -91.5t-33 -81.5q2 -124 41.5 -309.5t73.5 -299t113.5 -355.5t90.5 -276 v-47z" />
<glyph unicode="&#x155;" horiz-adv-x="863" d="M437 1894q-106 0 -106 83v4q3 62 282 258q110 79 133 101q121 0 121 -87q0 -2 -14 -76q-102 -42 -221 -123t-195 -160zM311.5 539.5q-21.5 -88.5 -21.5 -163.5t19.5 -321t19.5 -317t-26 -108.5t-58 -37.5q-46 0 -59 64q3 118 3 289t-27 752.5t-27 867.5q0 150 105 151 q166 0 279 -87t113 -248q0 -217 -34 -338t-128 -302q17 -76 60 -304q91 -493 206 -711q33 -62 33 -97t-19.5 -59t-51.5 -24q-104 0 -191 345q-37 150 -67 304q-84 420 -107 473q0 -40 -21.5 -128.5zM307 1598l-11 -45q0 -130 6 -376t6 -357q74 39 120 202.5t46 250t-4 127.5 t-20 91q-30 104 -143 107z" />
<glyph unicode="&#x156;" horiz-adv-x="931" d="M846 -735l-5 -22q0 -73 -40 -173.5t-110 -179.5t-138 -79h-94v112q12 12 62 52q104 84 114 143q-91 67 -91 140.5t49 112t107 38.5t90.5 -34.5t55.5 -98.5v-11zM343 1868l-17 -648q0 -98 3 -146q53 50 102 122l46 275q0 164 -43 276t-91 121zM829 -329q0 -104 -76 -104 q-59 0 -114 86v11q-8 127 -78.5 348.5t-87.5 299t-55 292t-66 327.5v-1250q0 -101 -104 -101q-37 0 -63.5 25.5t-26.5 62.5v25l22 1862v390q0 37 15.5 52.5t90 15.5t152 -48.5t123.5 -126.5q96 -160 96 -352q0 -155 -77 -355q-9 -22 -37 -91.5t-33 -81.5q2 -124 41.5 -309.5 t73.5 -299t113.5 -355.5t90.5 -276v-47z" />
<glyph unicode="&#x157;" horiz-adv-x="863" d="M824 -757l-5 -22q0 -73 -40 -173.5t-110 -179.5t-138 -79h-94v112q12 12 62 52q104 84 114 143q-91 67 -91 140.5t49 112t107 38.5t90.5 -34.5t55.5 -98.5v-11zM311.5 539.5q-21.5 -88.5 -21.5 -163.5t19.5 -321t19.5 -317t-26 -108.5t-58 -37.5q-46 0 -59 64 q3 118 3 289t-27 752.5t-27 867.5q0 150 105 151q166 0 279 -87t113 -248q0 -217 -34 -338t-128 -302q17 -76 60 -304q91 -493 206 -711q33 -62 33 -97t-19.5 -59t-51.5 -24q-104 0 -191 345q-37 150 -67 304q-84 420 -107 473q0 -40 -21.5 -128.5zM307 1598l-11 -45 q0 -130 6 -376t6 -357q74 39 120 202.5t46 250t-4 127.5t-20 91q-30 104 -143 107z" />
<glyph unicode="&#x158;" horiz-adv-x="931" d="M663 2806q0 -16 -11 -48v-57q-20 -3 -20 -5q0 -16 -47 -174.5t-47 -204.5q0 -102 -78.5 -102.5t-187 241.5t-119.5 349l102 73l83 -110q2 -59 91 -301q46 183 65 374h68l55 1q46 0 46 -36zM343 1868l-17 -648q0 -98 3 -146q53 50 102 122l46 275q0 164 -43 276t-91 121z M829 -329q0 -104 -76 -104q-59 0 -114 86v11q-8 127 -78.5 348.5t-87.5 299t-55 292t-66 327.5v-1250q0 -101 -104 -101q-37 0 -63.5 25.5t-26.5 62.5v25l22 1862v390q0 37 15.5 52.5t90 15.5t152 -48.5t123.5 -126.5q96 -160 96 -352q0 -155 -77 -355q-9 -22 -37 -91.5 t-33 -81.5q2 -124 41.5 -309.5t73.5 -299t113.5 -355.5t90.5 -276v-47z" />
<glyph unicode="&#x159;" horiz-adv-x="863" d="M657 2486q0 -16 -11 -48v-57q-20 -3 -20 -5q0 -16 -47 -174.5t-47 -204.5q0 -102 -78.5 -102.5t-187 241.5t-119.5 349l102 73l83 -110q2 -59 91 -301q46 183 65 374h68l55 1q46 0 46 -36zM311.5 539.5q-21.5 -88.5 -21.5 -163.5t19.5 -321t19.5 -317t-26 -108.5 t-58 -37.5q-46 0 -59 64q3 118 3 289t-27 752.5t-27 867.5q0 150 105 151q166 0 279 -87t113 -248q0 -217 -34 -338t-128 -302q17 -76 60 -304q91 -493 206 -711q33 -62 33 -97t-19.5 -59t-51.5 -24q-104 0 -191 345q-37 150 -67 304q-84 420 -107 473q0 -40 -21.5 -128.5z M307 1598l-11 -45q0 -130 6 -376t6 -357q74 39 120 202.5t46 250t-4 127.5t-20 91q-30 104 -143 107z" />
<glyph unicode="&#x15a;" horiz-adv-x="900" d="M548 2215q-106 0 -106 83v4q3 62 282 258q110 79 133 101q121 0 121 -87q0 -2 -14 -76q-102 -42 -221 -123t-195 -160zM99 -363q-1 85 71 85q36 0 94 -24t101 -24t93 54q49 56 77 136q57 163 57 296t-46.5 285t-114 285t-133.5 267q-160 319 -160 579q0 248 156 389 q84 74 197 75q57 0 111.5 -32t76.5 -83v-68q-133 0 -178 31q-59 -6 -103 -56q-79 -93 -79 -214.5t36 -251t85.5 -243.5t100 -211.5t86 -159.5t35.5 -65v-25q11 -40 37 -127t42 -138q39 -140 39 -253t-27.5 -215.5t-77.5 -193t-136 -148t-160.5 -57.5t-125.5 8t-102.5 34 t-51.5 65z" />
<glyph unicode="&#x15b;" horiz-adv-x="775" d="M465 1899q-106 0 -106 83v4q3 62 282 258q110 79 133 101q121 0 121 -87q0 -2 -14 -76q-102 -42 -221 -123t-195 -160zM116 -267l168 -23q60 0 105 52t67 132q42 152 42 269t-39 232t-95 213.5t-113 200.5q-133 240 -133 474q0 143 48 253q90 205 239 205q56 0 106 -36 t50 -78q0 -73 -77 -72q-34 0 -67 18q-101 -5 -136 -225q-8 -48 -8 -112t28 -158.5t70.5 -168.5t91.5 -163t92 -173q98 -194 98 -443q1 -198 -79 -367q-42 -87 -119 -142t-178 -57v-7q-59 8 -107 39.5t-54 82.5v54z" />
<glyph unicode="&#x15c;" horiz-adv-x="900" d="M764 2331l28 -39q0 -36 -31.5 -56.5t-69.5 -20.5h-68q-26 265 -62 412q-12 -37 -34 -107.5t-34 -109.5q-37 -105 -107 -194l-104 75q6 59 56 198.5t123.5 267t126.5 127.5q81 0 80 -103q0 -70 48 -192.5t48 -176.5v-81zM99 -363q-1 85 71 85q36 0 94 -24t101 -24t93 54 q49 56 77 136q57 163 57 296t-46.5 285t-114 285t-133.5 267q-160 319 -160 579q0 248 156 389q84 74 197 75q57 0 111.5 -32t76.5 -83v-68q-133 0 -178 31q-59 -6 -103 -56q-79 -93 -79 -214.5t36 -251t85.5 -243.5t100 -211.5t86 -159.5t35.5 -65v-25q11 -40 37 -127 t42 -138q39 -140 39 -253t-27.5 -215.5t-77.5 -193t-136 -148t-160.5 -57.5t-125.5 8t-102.5 34t-51.5 65z" />
<glyph unicode="&#x15d;" horiz-adv-x="775" d="M679 2015l28 -39q0 -36 -31.5 -56.5t-69.5 -20.5h-68q-26 265 -62 412q-12 -37 -34 -107.5t-34 -109.5q-37 -105 -107 -194l-104 75q6 59 56 198.5t123.5 267t126.5 127.5q81 0 80 -103q0 -70 48 -192.5t48 -176.5v-81zM116 -267l168 -23q60 0 105 52t67 132 q42 152 42 269t-39 232t-95 213.5t-113 200.5q-133 240 -133 474q0 143 48 253q90 205 239 205q56 0 106 -36t50 -78q0 -73 -77 -72q-34 0 -67 18q-101 -5 -136 -225q-8 -48 -8 -112t28 -158.5t70.5 -168.5t91.5 -163t92 -173q98 -194 98 -443q1 -198 -79 -367 q-42 -87 -119 -142t-178 -57v-7q-59 8 -107 39.5t-54 82.5v54z" />
<glyph unicode="&#x15e;" horiz-adv-x="900" d="M321 -714q29 59 29 173v73h174q-17 -88 -21 -144q121 -23 176 -121t55 -216.5t-86.5 -210.5t-171 -92t-139 31.5t-54.5 75t22 63.5t64.5 20t87.5 -31q23 2 47 35.5t24 58t-5.5 50t-16 58t-13.5 48.5l54 -54v14q0 56 -26 80q-51 -8 -82.5 -7.5t-56 20t-61.5 76.5zM99 -363 q-1 85 71 85q36 0 94 -24t101 -24t93 54q49 56 77 136q57 163 57 296t-46.5 285t-114 285t-133.5 267q-160 319 -160 579q0 248 156 389q84 74 197 75q57 0 111.5 -32t76.5 -83v-68q-133 0 -178 31q-59 -6 -103 -56q-79 -93 -79 -214.5t36 -251t85.5 -243.5t100 -211.5 t86 -159.5t35.5 -65v-25q11 -40 37 -127t42 -138q39 -140 39 -253t-27.5 -215.5t-77.5 -193t-136 -148t-160.5 -57.5t-125.5 8t-102.5 34t-51.5 65z" />
<glyph unicode="&#x15f;" horiz-adv-x="775" d="M236 -688q29 59 29 173v73h174q-17 -88 -21 -144q121 -23 176 -121t55 -216.5t-86.5 -210.5t-171 -92t-139 31.5t-54.5 75t22 63.5t64.5 20t87.5 -31q23 2 47 35.5t24 58t-5.5 50t-16 58t-13.5 48.5l54 -54v14q0 56 -26 80q-51 -8 -82.5 -7.5t-56 20t-61.5 76.5z M116 -267l168 -23q60 0 105 52t67 132q42 152 42 269t-39 232t-95 213.5t-113 200.5q-133 240 -133 474q0 143 48 253q90 205 239 205q56 0 106 -36t50 -78q0 -73 -77 -72q-34 0 -67 18q-101 -5 -136 -225q-8 -48 -8 -112t28 -158.5t70.5 -168.5t91.5 -163t92 -173 q98 -194 98 -443q1 -198 -79 -367q-42 -87 -119 -142t-178 -57v-7q-59 8 -107 39.5t-54 82.5v54z" />
<glyph unicode="&#x160;" horiz-adv-x="900" d="M612 2806q0 -16 -11 -48v-57q-20 -3 -20 -5q0 -16 -47 -174.5t-47 -204.5q0 -102 -78.5 -102.5t-187 241.5t-119.5 349l102 73l83 -110q2 -59 91 -301q46 183 65 374h68l55 1q46 0 46 -36zM99 -363q-1 85 71 85q36 0 94 -24t101 -24t93 54q49 56 77 136q57 163 57 296 t-46.5 285t-114 285t-133.5 267q-160 319 -160 579q0 248 156 389q84 74 197 75q57 0 111.5 -32t76.5 -83v-68q-133 0 -178 31q-59 -6 -103 -56q-79 -93 -79 -214.5t36 -251t85.5 -243.5t100 -211.5t86 -159.5t35.5 -65v-25q11 -40 37 -127t42 -138q39 -140 39 -253 t-27.5 -215.5t-77.5 -193t-136 -148t-160.5 -57.5t-125.5 8t-102.5 34t-51.5 65z" />
<glyph unicode="&#x161;" horiz-adv-x="775" d="M575 2490q0 -16 -11 -48v-57q-20 -3 -20 -5q0 -16 -47 -174.5t-47 -204.5q0 -102 -78.5 -102.5t-187 241.5t-119.5 349l102 73l83 -110q2 -59 91 -301q46 183 65 374h68l55 1q46 0 46 -36zM116 -267l168 -23q60 0 105 52t67 132q42 152 42 269t-39 232t-95 213.5 t-113 200.5q-133 240 -133 474q0 143 48 253q90 205 239 205q56 0 106 -36t50 -78q0 -73 -77 -72q-34 0 -67 18q-101 -5 -136 -225q-8 -48 -8 -112t28 -158.5t70.5 -168.5t91.5 -163t92 -173q98 -194 98 -443q1 -198 -79 -367q-42 -87 -119 -142t-178 -57v-7 q-59 8 -107 39.5t-54 82.5v54z" />
<glyph unicode="&#x162;" horiz-adv-x="841" d="M503 -666q29 59 29 173v73h174q-17 -88 -21 -144q121 -23 176 -121t55 -216.5t-86.5 -210.5t-171 -92t-139 31.5t-54.5 75t22 63.5t64.5 20t87.5 -31q23 2 47 35.5t24 58t-5.5 50t-16 58t-13.5 48.5l54 -54v14q0 56 -26 80q-51 -8 -82.5 -7.5t-56 20t-61.5 76.5z M538 1443l-6 -409q0 -290 49 -487v-1q-22 -101 -21 -242l26 -571q0 -155 -92 -155q-53 0 -77.5 50t-24.5 110l25 507q0 164 -21.5 494t-21.5 495l4 277q0 228 -29 296l-172 -17q-40 0 -72 24t-32 62t76 65t186 40q191 21 321 21q39 0 70.5 -25.5t31.5 -64t-28 -61t-68 -22.5 l-113 6q-22 0 -33 -1q22 -183 22 -391z" />
<glyph unicode="&#x163;" horiz-adv-x="855" d="M489 -635q29 59 29 173v73h174q-17 -88 -21 -144q121 -23 176 -121t55 -216.5t-86.5 -210.5t-171 -92t-139 31.5t-54.5 75t22 63.5t64.5 20t87.5 -31q23 2 47 35.5t24 58t-5.5 50t-16 58t-13.5 48.5l54 -54v14q0 56 -26 80q-51 -8 -82.5 -7.5t-56 20t-61.5 76.5z M432 -106l7 109q-12 40 -51 716.5t-42 825.5q-183 5 -226.5 33.5t-43.5 59.5t34 50.5t67 19.5l431 -29l51 1q99 0 99 -76q0 -39 -32.5 -63t-72.5 -24l-146 22l-6 -33q0 -301 52.5 -900.5t52.5 -901.5q0 -39 -28.5 -67t-67.5 -28h-71z" />
<glyph unicode="&#x164;" horiz-adv-x="841" d="M687 2806q0 -16 -11 -48v-57q-20 -3 -20 -5q0 -16 -47 -174.5t-47 -204.5q0 -102 -78.5 -102.5t-187 241.5t-119.5 349l102 73l83 -110q2 -59 91 -301q46 183 65 374h68l55 1q46 0 46 -36zM538 1443l-6 -409q0 -290 49 -487v-1q-22 -101 -21 -242l26 -571 q0 -155 -92 -155q-53 0 -77.5 50t-24.5 110l25 507q0 164 -21.5 494t-21.5 495l4 277q0 228 -29 296l-172 -17q-40 0 -72 24t-32 62t76 65t186 40q191 21 321 21q39 0 70.5 -25.5t31.5 -64t-28 -61t-68 -22.5l-113 6q-22 0 -33 -1q22 -183 22 -391z" />
<glyph unicode="&#x165;" horiz-adv-x="1543" d="M1419 1592l-5 -22q0 -73 -40.5 -173.5t-110 -179.5t-137.5 -79h-95v111q12 12 62 53q104 84 115 143q-91 67 -91.5 140.5t48.5 112t107 38.5t90.5 -35t56.5 -98v-11zM435 -106l7 109q-12 40 -51 716.5t-42 825.5q-183 5 -226.5 33.5t-43.5 59.5t34 50.5t67 19.5l431 -29 l51 1q99 0 99 -76q0 -39 -32.5 -63t-72.5 -24l-146 22l-6 -33q0 -301 52.5 -900.5t52.5 -901.5q0 -39 -28.5 -67t-67.5 -28h-71z" />
<glyph unicode="&#x166;" horiz-adv-x="877" d="M540 1443l-6 -409q0 -290 49 -487v-1q-22 -101 -21 -242l26 -571q0 -155 -92 -155q-53 0 -77.5 50t-24.5 110l25 507q0 164 -21.5 494t-21.5 495l4 277q0 228 -29 296l-172 -17q-40 0 -72 24t-32 62t76 65t186 40q191 21 321 21q39 0 70.5 -25.5t31.5 -64t-28 -61 t-68 -22.5l-113 6q-22 0 -33 -1q22 -183 22 -391zM237 1141l223 6q322 0 322 -85q0 -70 -102 -70l-229 -6q-353 0 -354 87q0 68 140 68z" />
<glyph unicode="&#x167;" horiz-adv-x="895" d="M448 -106l6 109q-12 40 -51 716.5t-42 825.5q-183 5 -226.5 33.5t-43.5 59.5t34.5 50.5t66.5 19.5l431 -29l51 1q99 0 99 -76q0 -39 -32.5 -63t-72.5 -24l-146 22l-6 -33q0 -301 53 -900.5t53 -901.5q0 -39 -29 -67t-68 -28h-71zM236 840l223 6q322 0 322 -85 q0 -70 -102 -70l-229 -6q-353 0 -354 87q0 68 140 68z" />
<glyph unicode="&#x168;" d="M787 2447l-20 70q25 50 74.5 50t77.5 -45t28 -114t-61.5 -130.5t-133.5 -61.5t-132.5 33.5t-96 68.5t-86.5 94v3l-82 -48v-152q-53 0 -103.5 24t-50.5 67q0 108 63 185t168 77l158 -80q14 -37 47.5 -74.5t67.5 -37.5v2q9 9 31 20q51 21 51 49zM1000 508l9 -195v-48 l-8 -34l2 -185q0 -279 -79 -395q-74 -108 -231 -108q-191 0 -290 138q-87 118 -127 316q-51 239 -82 338q-3 8 -35 710t-32 779q-23 26 -23 65t27 68.5t64 29.5q115 0 115 -226l29 -1104q19 -42 32 -169t13 -197.5t22.5 -173.5t61.5 -208.5t105 -180t140 -74.5 q121 0 127 219q2 28 2 66v1425q0 90 -34.5 272t-34.5 246.5t32 88.5t72 24l96 -75v-52l-27 -194q0 -184 23 -540t25 -528v-5z" />
<glyph unicode="&#x169;" horiz-adv-x="1081" d="M761 2143l-20 70q25 50 74.5 50t77.5 -45t28 -114t-61.5 -130.5t-133.5 -61.5t-132.5 33.5t-96 68.5t-86.5 94v3l-82 -48v-152q-53 0 -103.5 24t-50.5 67q0 108 63 185t168 77l158 -80q14 -37 47.5 -74.5t67.5 -37.5v2q9 9 31 20q51 21 51 49zM901 1015l3 -54 q-23 -112 -30.5 -384t-27.5 -438.5t-54 -293t-109 -210t-167.5 -83.5t-151.5 33.5t-96 96t-62 134.5t-37 167q-22 166 -22 350l17 837q0 274 -38 454v76q76 0 120 -59t44 -131v-1536q0 -122 61 -224t181 -102q135 0 179 784v14l2 20q40 716 40 1160l-1 53q0 37 17 55.5 t65 18.5t71 -26.5t27 -53.5t4 -73l-22 -320z" />
<glyph unicode="&#x16a;" d="M375 2370l223 6q322 0 322 -85q0 -70 -102 -70l-229 -6q-353 0 -354 87q0 68 140 68zM1000 508l9 -195v-48l-8 -34l2 -185q0 -279 -79 -395q-74 -108 -231 -108q-191 0 -290 138q-87 118 -127 316q-51 239 -82 338q-3 8 -35 710t-32 779q-23 26 -23 65t27 68.5t64 29.5 q115 0 115 -226l29 -1104q19 -42 32 -169t13 -197.5t22.5 -173.5t61.5 -208.5t105 -180t140 -74.5q121 0 127 219q2 28 2 66v1425q0 90 -34.5 272t-34.5 246.5t32 88.5t72 24l96 -75v-52l-27 -194q0 -184 23 -540t25 -528v-5z" />
<glyph unicode="&#x16b;" horiz-adv-x="1081" d="M349 2066l223 6q322 0 322 -85q0 -70 -102 -70l-229 -6q-353 0 -354 87q0 68 140 68zM901 1015l3 -54q-23 -112 -30.5 -384t-27.5 -438.5t-54 -293t-109 -210t-167.5 -83.5t-151.5 33.5t-96 96t-62 134.5t-37 167q-22 166 -22 350l17 837q0 274 -38 454v76q76 0 120 -59 t44 -131v-1536q0 -122 61 -224t181 -102q135 0 179 784v14l2 20q40 716 40 1160l-1 53q0 37 17 55.5t65 18.5t71 -26.5t27 -53.5t4 -73l-22 -320z" />
<glyph unicode="&#x16c;" d="M815 2495v-26q-14 -42 -45.5 -105.5t-41.5 -73t-29.5 -29.5t-39.5 -26q-62 -20 -118 -20t-109.5 32.5t-82.5 86.5q-60 105 -61 242v15l59 50q68 0 93 -116q26 -127 76 -163h67q22 0 47.5 50.5t25.5 80.5t1.5 47t9 41t27 35t52 11t58 -24t25.5 -41t-14 -67zM1000 508 l9 -195v-48l-8 -34l2 -185q0 -279 -79 -395q-74 -108 -231 -108q-191 0 -290 138q-87 118 -127 316q-51 239 -82 338q-3 8 -35 710t-32 779q-23 26 -23 65t27 68.5t64 29.5q115 0 115 -226l29 -1104q19 -42 32 -169t13 -197.5t22.5 -173.5t61.5 -208.5t105 -180t140 -74.5 q121 0 127 219q2 28 2 66v1425q0 90 -34.5 272t-34.5 246.5t32 88.5t72 24l96 -75v-52l-27 -194q0 -184 23 -540t25 -528v-5z" />
<glyph unicode="&#x16d;" horiz-adv-x="1081" d="M789 2191v-26q-14 -42 -45.5 -105.5t-41.5 -73t-29.5 -29.5t-39.5 -26q-62 -20 -118 -20t-109.5 32.5t-82.5 86.5q-60 105 -61 242v15l59 50q68 0 93 -116q26 -127 76 -163h67q22 0 47.5 50.5t25.5 80.5t1.5 47t9 41t27 35t52 11t58 -24t25.5 -41t-14 -67zM901 1015 l3 -54q-23 -112 -30.5 -384t-27.5 -438.5t-54 -293t-109 -210t-167.5 -83.5t-151.5 33.5t-96 96t-62 134.5t-37 167q-22 166 -22 350l17 837q0 274 -38 454v76q76 0 120 -59t44 -131v-1536q0 -122 61 -224t181 -102q135 0 179 784v14l2 20q40 716 40 1160l-1 53 q0 37 17 55.5t65 18.5t71 -26.5t27 -53.5t4 -73l-22 -320z" />
<glyph unicode="&#x16e;" d="M451.5 2266q-46.5 51 -46.5 119.5t54 126.5t123 58t120 -56t51 -129.5t-55 -121.5t-127.5 -48t-119 51zM581 2395l-37 -47h59q0 67 -22 89v-42zM1000 508l9 -195v-48l-8 -34l2 -185q0 -279 -79 -395q-74 -108 -231 -108q-191 0 -290 138q-87 118 -127 316 q-51 239 -82 338q-3 8 -35 710t-32 779q-23 26 -23 65t27 68.5t64 29.5q115 0 115 -226l29 -1104q19 -42 32 -169t13 -197.5t22.5 -173.5t61.5 -208.5t105 -180t140 -74.5q121 0 127 219q2 28 2 66v1425q0 90 -34.5 272t-34.5 246.5t32 88.5t72 24l96 -75v-52l-27 -194 q0 -184 23 -540t25 -528v-5z" />
<glyph unicode="&#x16f;" horiz-adv-x="1081" d="M425.5 1962q-46.5 51 -46.5 119.5t54 126.5t123 58t120 -56t51 -129.5t-55 -121.5t-127.5 -48t-119 51zM555 2091l-37 -47h59q0 67 -22 89v-42zM901 1015l3 -54q-23 -112 -30.5 -384t-27.5 -438.5t-54 -293t-109 -210t-167.5 -83.5t-151.5 33.5t-96 96t-62 134.5t-37 167 q-22 166 -22 350l17 837q0 274 -38 454v76q76 0 120 -59t44 -131v-1536q0 -122 61 -224t181 -102q135 0 179 784v14l2 20q40 716 40 1160l-1 53q0 37 17 55.5t65 18.5t71 -26.5t27 -53.5t4 -73l-22 -320z" />
<glyph unicode="&#x170;" d="M794 2226q-34 6 -36 57q14 33 180.5 161.5t342.5 244.5t211.5 116t67.5 -29.5t44 -67.5v-27q-293 -119 -739 -411q-48 -28 -71 -44zM978 2715q0 -62 -445 -353q-51 -8 -144 -71.5t-131 -75.5l-28 34q46 81 341 310q290 228 327 228t58.5 -21.5t21.5 -50.5zM1000 508 l9 -195v-48l-8 -34l2 -185q0 -279 -79 -395q-74 -108 -231 -108q-191 0 -290 138q-87 118 -127 316q-51 239 -82 338q-3 8 -35 710t-32 779q-23 26 -23 65t27 68.5t64 29.5q115 0 115 -226l29 -1104q19 -42 32 -169t13 -197.5t22.5 -173.5t61.5 -208.5t105 -180t140 -74.5 q121 0 127 219q2 28 2 66v1425q0 90 -34.5 272t-34.5 246.5t32 88.5t72 24l96 -75v-52l-27 -194q0 -184 23 -540t25 -528v-5z" />
<glyph unicode="&#x171;" horiz-adv-x="1081" d="M764 1922q-34 6 -36 57q14 33 180.5 161.5t342.5 244.5t211.5 116t67.5 -29.5t44 -67.5v-27q-293 -119 -739 -411q-48 -28 -71 -44zM948 2411q0 -62 -445 -353q-51 -8 -144 -71.5t-131 -75.5l-28 34q46 81 341 310q290 228 327 228t58.5 -21.5t21.5 -50.5zM901 1015 l3 -54q-23 -112 -30.5 -384t-27.5 -438.5t-54 -293t-109 -210t-167.5 -83.5t-151.5 33.5t-96 96t-62 134.5t-37 167q-22 166 -22 350l17 837q0 274 -38 454v76q76 0 120 -59t44 -131v-1536q0 -122 61 -224t181 -102q135 0 179 784v14l2 20q40 716 40 1160l-1 53 q0 37 17 55.5t65 18.5t71 -26.5t27 -53.5t4 -73l-22 -320z" />
<glyph unicode="&#x172;" d="M834 -437q-274 -229 -274 -419q0 -39 13 -59t29 -20q62 0 133 52v-53q0 -42 -48.5 -70.5t-103.5 -28.5t-93 49.5t-38 116.5q0 127 86.5 241.5t210.5 190.5h85zM1000 508l9 -195v-48l-8 -34l2 -185q0 -279 -79 -395q-74 -108 -231 -108q-191 0 -290 138q-87 118 -127 316 q-51 239 -82 338q-3 8 -35 710t-32 779q-23 26 -23 65t27 68.5t64 29.5q115 0 115 -226l29 -1104q19 -42 32 -169t13 -197.5t22.5 -173.5t61.5 -208.5t105 -180t140 -74.5q121 0 127 219q2 28 2 66v1425q0 90 -34.5 272t-34.5 246.5t32 88.5t72 24l96 -75v-52l-27 -194 q0 -184 23 -540t25 -528v-5z" />
<glyph unicode="&#x173;" horiz-adv-x="1106" d="M1029 -428q-274 -229 -274 -419q0 -39 13 -59t29 -20q62 0 133 52v-53q0 -42 -48.5 -70.5t-103.5 -28.5t-93 49.5t-38 116.5q0 127 86.5 241.5t210.5 190.5h85zM901 1015l3 -54q-23 -112 -30.5 -384t-27.5 -438.5t-54 -293t-109 -210t-167.5 -83.5t-151.5 33.5t-96 96 t-62 134.5t-37 167q-22 166 -22 350l17 837q0 274 -38 454v76q76 0 120 -59t44 -131v-1536q0 -122 61 -224t181 -102q135 0 179 784v14l2 20q40 716 40 1160l-1 53q0 37 17 55.5t65 18.5t71 -26.5t27 -53.5t4 -73l-22 -320z" />
<glyph unicode="&#x176;" horiz-adv-x="809" d="M654 2331l28 -39q0 -36 -31.5 -56.5t-69.5 -20.5h-68q-26 265 -62 412q-12 -37 -34 -107.5t-34 -109.5q-37 -105 -107 -194l-104 75q6 59 56 198.5t123.5 267t126.5 127.5q81 0 80 -103q0 -70 48 -192.5t48 -176.5v-81zM547 -116l-1 -158v-72q0 -42 -28 -67.5t-63 -25.5 t-59 22.5t-24 55.5l16 614q0 93 -30.5 275t-30.5 292.5t-38 269.5t-84 286q-122 332 -123 569q0 51 101 51q23 0 48 -18.5t26 -41.5q31 -366 158 -777q6 28 15 132.5t20.5 215t29.5 223.5q42 256 126.5 255.5t84.5 -34.5q0 -178 -76 -531.5t-76 -536.5l10 -110v-48 q0 1 -2 -841z" />
<glyph unicode="&#x177;" horiz-adv-x="899" d="M702 2010l28 -39q0 -36 -31.5 -56.5t-69.5 -20.5h-68q-26 265 -62 412q-12 -37 -34 -107.5t-34 -109.5q-37 -105 -107 -194l-104 75q6 59 56 198.5t123.5 267t126.5 127.5q81 0 80 -103q0 -70 48 -192.5t48 -176.5v-81zM587 -231q0 -155 -41 -194q-22 -19 -68 -18.5 t-77 69.5q36 70 36 538q0 88 -12.5 248.5t-13.5 216.5q-62 107 -191.5 492t-129.5 475v17l71 53q98 -3 233 -491q59 -214 59 -216q12 33 49 237q95 515 199 515q29 0 53 -18.5t24 -48.5q0 -195 -95.5 -456t-95.5 -463v-956z" />
<glyph unicode="&#x178;" horiz-adv-x="809" d="M667.5 2247.5q-29.5 32.5 -29.5 76t34.5 79t77.5 35.5t75 -35t32 -80.5t-35.5 -76.5t-80 -31t-74 32.5zM166.5 2247.5q-39.5 -32.5 -85.5 -32.5t-70 29.5t-24 76t31 79.5t77 33t78.5 -31t32.5 -76.5t-39.5 -78zM547 -116l-1 -158v-72q0 -42 -28 -67.5t-63 -25.5t-59 22.5 t-24 55.5l16 614q0 93 -30.5 275t-30.5 292.5t-38 269.5t-84 286q-122 332 -123 569q0 51 101 51q23 0 48 -18.5t26 -41.5q31 -366 158 -777q6 28 15 132.5t20.5 215t29.5 223.5q42 256 126.5 255.5t84.5 -34.5q0 -178 -76 -531.5t-76 -536.5l10 -110v-48q0 1 -2 -841z" />
<glyph unicode="&#x179;" horiz-adv-x="765" d="M365 2215q-106 0 -106 83v4q3 62 282 258q110 79 133 101q121 0 121 -87q0 -2 -14 -76q-102 -42 -221 -123t-195 -160zM476 1849q-108 -16 -182 -15q-172 0 -172 100v67l45 1q42 -11 89 -10l299 32q37 0 62 -27t25 -87q0 -71 -62 -413q-19 -137 -61 -487 q-82 -693 -161 -1086q-8 -36 -34 -98.5t-34 -93.5l167 12q167 0 168 -98v-13l-50 -50l-392 -12q-60 0 -90 77q73 116 163.5 603.5t149 941.5t70.5 656z" />
<glyph unicode="&#x17a;" horiz-adv-x="852" d="M424 1894q-106 0 -106 83v4q3 62 282 258q110 79 133 101q121 0 121 -87q0 -2 -14 -76q-102 -42 -221 -123t-195 -160zM335 -234l133 6v2q129 0 129 -78q0 -39 -34 -58t-76 -19l-188 9q-20 0 -55.5 -17t-63.5 -17t-53.5 23t-25.5 63.5t17.5 117t53.5 193.5t50 166 t48.5 215t58 255t86.5 275q146 418 155 645l-258 -19q-34 0 -58.5 27t-24.5 62q0 90 323 89h11q124 0 148 -28.5t24 -59.5q0 -112 -69 -303t-89.5 -315t-94.5 -361.5t-134 -459t-67 -413.5h54z" />
<glyph unicode="&#x17b;" horiz-adv-x="765" d="M506 2249q-32 35 -32 81t35.5 83t82 37t81 -37t34.5 -86t-36 -81t-84.5 -32t-80.5 35zM476 1849q-108 -16 -182 -15q-172 0 -172 100v67l45 1q42 -11 89 -10l299 32q37 0 62 -27t25 -87q0 -71 -62 -413q-19 -137 -61 -487q-82 -693 -161 -1086q-8 -36 -34 -98.5 t-34 -93.5l167 12q167 0 168 -98v-13l-50 -50l-392 -12q-60 0 -90 77q73 116 163.5 603.5t149 941.5t70.5 656z" />
<glyph unicode="&#x17c;" horiz-adv-x="852" d="M517 1929q-32 35 -32 81t35.5 83t82 37t81 -37t34.5 -86t-36 -81t-84.5 -32t-80.5 35zM335 -234l133 6v2q129 0 129 -78q0 -39 -34 -58t-76 -19l-188 9q-20 0 -55.5 -17t-63.5 -17t-53.5 23t-25.5 63.5t17.5 117t53.5 193.5t50 166t48.5 215t58 255t86.5 275 q146 418 155 645l-258 -19q-34 0 -58.5 27t-24.5 62q0 90 323 89h11q124 0 148 -28.5t24 -59.5q0 -112 -69 -303t-89.5 -315t-94.5 -361.5t-134 -459t-67 -413.5h54z" />
<glyph unicode="&#x17d;" horiz-adv-x="765" d="M832 2806q0 -16 -11 -48v-57q-20 -3 -20 -5q0 -16 -47 -174.5t-47 -204.5q0 -102 -78.5 -102.5t-187 241.5t-119.5 349l102 73l83 -110q2 -59 91 -301q46 183 65 374h68l55 1q46 0 46 -36zM476 1849q-108 -16 -182 -15q-172 0 -172 100v67l45 1q42 -11 89 -10l299 32 q37 0 62 -27t25 -87q0 -71 -62 -413q-19 -137 -61 -487q-82 -693 -161 -1086q-8 -36 -34 -98.5t-34 -93.5l167 12q167 0 168 -98v-13l-50 -50l-392 -12q-60 0 -90 77q73 116 163.5 603.5t149 941.5t70.5 656z" />
<glyph unicode="&#x17e;" horiz-adv-x="852" d="M842 2486q0 -16 -11 -48v-57q-20 -3 -20 -5q0 -16 -47 -174.5t-47 -204.5q0 -102 -78.5 -102.5t-187 241.5t-119.5 349l102 73l83 -110q2 -59 91 -301q46 183 65 374h68l55 1q46 0 46 -36zM335 -234l133 6v2q129 0 129 -78q0 -39 -34 -58t-76 -19l-188 9q-20 0 -55.5 -17 t-63.5 -17t-53.5 23t-25.5 63.5t17.5 117t53.5 193.5t50 166t48.5 215t58 255t86.5 275q146 418 155 645l-258 -19q-34 0 -58.5 27t-24.5 62q0 90 323 89h11q124 0 148 -28.5t24 -59.5q0 -112 -69 -303t-89.5 -315t-94.5 -361.5t-134 -459t-67 -413.5h54z" />
<glyph unicode="&#x1c4;" horiz-adv-x="1904" d="M1843 2806q0 -16 -11 -48v-57q-20 -3 -20 -5q0 -16 -47 -174.5t-47 -204.5q0 -102 -78.5 -102.5t-187 241.5t-119.5 349l102 73l83 -110q2 -59 91 -301q46 183 65 374h68l55 1q46 0 46 -36zM1487 1849q-108 -16 -182 -15q-172 0 -172 100v67l45 1q42 -11 89 -10l299 32 q37 0 62 -27t25 -87q0 -71 -62 -413q-19 -137 -61 -487q-82 -693 -161 -1086q-8 -36 -34 -98.5t-34 -93.5l167 12q167 0 168 -98v-13l-50 -50l-392 -12q-60 0 -90 77q73 116 163.5 603.5t149 941.5t70.5 656zM158 1122l9 347q0 147 -14 211.5t-35 122.5t-21 88.5t12.5 50.5 t37.5 31.5t48 18.5q23 6 59 10q59 3 85 4h31q130 0 277 -140q178 -169 217 -356q23 -110 31 -245t11 -180q9 -102 25 -140v-147q-17 -29 -17 -96q0 -240 -110 -525.5t-273 -433.5q-121 -110 -163.5 -130.5t-83.5 -20.5t-89 27t-48 82q70 73 70 373q0 177 -29.5 525.5 t-29.5 522.5zM368 80v-303q246 174 346 646q50 242 50 501q0 891 -440 891v-3q0 -294 21 -872t23 -860z" />
<glyph unicode="&#x1c5;" horiz-adv-x="1918" d="M1853 2486q0 -16 -11 -48v-57q-20 -3 -20 -5q0 -16 -47 -174.5t-47 -204.5q0 -102 -78.5 -102.5t-187 241.5t-119.5 349l102 73l83 -110q2 -59 91 -301q46 183 65 374h68l55 1q46 0 46 -36zM1346 -234l133 6v2q129 0 129 -78q0 -39 -34 -58t-76 -19l-188 9 q-20 0 -55.5 -17t-63.5 -17t-53.5 23t-25.5 63.5t17.5 117t53.5 193.5t50 166t48.5 215t58 255t86.5 275q146 418 155 645l-258 -19q-34 0 -58.5 27t-24.5 62q0 90 323 89h11q124 0 148 -28.5t24 -59.5q0 -112 -69 -303t-89.5 -315t-94.5 -361.5t-134 -459t-67 -413.5h54z M158 1122l9 347q0 147 -14 211.5t-35 122.5t-21 88.5t12.5 50.5t37.5 31.5t48 18.5q23 6 59 10q59 3 85 4h31q130 0 277 -140q178 -169 217 -356q23 -110 31 -245t11 -180q9 -102 25 -140v-147q-17 -29 -17 -96q0 -240 -110 -525.5t-273 -433.5q-121 -110 -163.5 -130.5 t-83.5 -20.5t-89 27t-48 82q70 73 70 373q0 177 -29.5 525.5t-29.5 522.5zM368 80v-303q246 174 346 646q50 242 50 501q0 891 -440 891v-3q0 -294 21 -872t23 -860z" />
<glyph unicode="&#x1c6;" horiz-adv-x="1853" d="M1786 2486q0 -16 -11 -48v-57q-20 -3 -20 -5q0 -16 -47 -174.5t-47 -204.5q0 -102 -78.5 -102.5t-187 241.5t-119.5 349l102 73l83 -110q2 -59 91 -301q46 183 65 374h68l55 1q46 0 46 -36zM1279 -234l133 6v2q129 0 129 -78q0 -39 -34 -58t-76 -19l-188 9 q-20 0 -55.5 -17t-63.5 -17t-53.5 23t-25.5 63.5t17.5 117t53.5 193.5t50 166t48.5 215t58 255t86.5 275q146 418 155 645l-258 -19q-34 0 -58.5 27t-24.5 62q0 90 323 89h11q124 0 148 -28.5t24 -59.5q0 -112 -69 -303t-89.5 -315t-94.5 -361.5t-134 -459t-67 -413.5h54z M333 1220l35 -1401v-76h58q166 203 214 369q45 157 45 437q0 958 -329 1001q-23 -125 -23 -330zM852 852l-6 -159v-174q0 -315 -28 -425t-56.5 -181t-69.5 -127q-93 -126 -235 -205h-217q-81 0 -81 416l9 1000q0 277 -10 520q-26 31 -26.5 74t35.5 74.5t86 31.5t86 -56 q23 -9 69 -16.5t67 -18.5q177 -82 277 -291t100 -463z" />
<glyph unicode="&#x1c7;" horiz-adv-x="1402" d="M1160 1815l-6 -491q0 -206 29 -618t29 -666t-68.5 -436t-240.5 -305q-50 0 -82.5 25t-32.5 68.5t40 79t84 54.5q127 160 128 448q0 158 -16.5 452.5t-19 397.5t-4 263.5t-2.5 260.5q-5 268 -41 492q-11 -2 -41 -10q-62 -16 -95.5 -15.5t-57.5 24.5t-24 57q0 112 380 111 q183 0 183 -86.5t-142 -82.5v-23zM310 1944l33 -1143q0 -57 -7 -101v-13q5 -91 14 -261q23 -377 24 -567v-101h226q53 -31 60.5 -45t7.5 -39.5t-23 -52.5t-48 -27t-58 11q-26 -6 -60 -7l-102 5q-33 -39 -82 -39t-82 30.5t-33 70.5l20 140q0 361 -32 1082.5t-32 1082.5 q0 29 23.5 47t58.5 18t63.5 -26t28.5 -65z" />
<glyph unicode="&#x1c8;" horiz-adv-x="1546" d="M1240 50l4 -273q0 -302 -110 -425q-101 -113 -308 -146l-95 95q205 129 272.5 245t67.5 344l-28 1621v14q-34 0 -94.5 11t-79.5 18.5t-39 18.5q-39 20 -38.5 56t36 56.5t84 20.5t172.5 -15.5t250.5 -56.5t126.5 -92q0 -34 -25.5 -54t-59.5 -20t-93 14.5t-70 16.5v-27 l31 -1280zM310 1944l33 -1143q0 -57 -7 -101v-13q5 -91 14 -261q23 -377 24 -567v-101h226q53 -31 60.5 -45t7.5 -39.5t-23 -52.5t-48 -27t-58 11q-26 -6 -60 -7l-102 5q-33 -39 -82 -39t-82 30.5t-33 70.5l20 140q0 361 -32 1082.5t-32 1082.5q0 29 23.5 47t58.5 18 t63.5 -26t28.5 -65z" />
<glyph unicode="&#x1c9;" horiz-adv-x="1605" d="M1298 50l4 -273q0 -302 -110 -425q-101 -113 -308 -146l-95 95q205 129 272.5 245t67.5 344l-28 1621v14q-34 0 -94.5 11t-79.5 18.5t-39 18.5q-39 20 -38.5 56t36 56.5t84 20.5t172.5 -15.5t250.5 -56.5t126.5 -92q0 -34 -25.5 -54t-59.5 -20t-93 14.5t-70 16.5v-27 l31 -1280zM339 1379l10 -762q-19 -45 -19 -172l-12 -506q0 -219 107 -218l131 5q170 0 171 -93q0 -34 -29.5 -56.5t-66.5 -27.5q-116 37 -284 37q-51 -29 -98 -29t-73.5 32.5t-26.5 70.5l31 1419v23q-10 99 -10 298q0 301 111 300q33 0 56.5 -23t23.5 -56z" />
<glyph unicode="&#x1ca;" horiz-adv-x="1878" d="M1636 1815l-6 -491q0 -206 29 -618t29 -666t-68.5 -436t-240.5 -305q-50 0 -82.5 25t-32.5 68.5t40 79t84 54.5q127 160 128 448q0 158 -16.5 452.5t-19 397.5t-4 263.5t-2.5 260.5q-5 268 -41 492q-11 -2 -41 -10q-62 -16 -95.5 -15.5t-57.5 24.5t-24 57q0 112 380 111 q183 0 183 -86.5t-142 -82.5v-23zM1003 1838l-13 -1173v-970q0 -77 -62 -111q-33 -17 -67.5 -17t-52.5 11t-27 26.5t-16 39t-10 43.5q-17 113 -118 474q-195 694 -249 1046q-3 11 -4 29.5t-3 31.5q-2 34 -17 56q2 65 -27 166.5t-32 121.5v-2009h-111v59q6 23 -2 97.5t-8 177 t-20 471t-20 451.5v404l22 583q0 118 17 132q40 31 83.5 31t66.5 -13q54 -29 54.5 -82t12.5 -104.5t35.5 -116t32.5 -98.5t16 -79t10 -81q11 -119 27.5 -206t63 -258t88.5 -303q105 -338 119 -606q25 -46 31 -113l9 1106v940q19 79 105 79t86 -124v-19q-20 -42 -20 -93z" />
<glyph unicode="&#x1cb;" horiz-adv-x="2022" d="M1716 50l4 -273q0 -302 -110 -425q-101 -113 -308 -146l-95 95q205 129 272.5 245t67.5 344l-28 1621v14q-34 0 -94.5 11t-79.5 18.5t-39 18.5q-39 20 -38.5 56t36 56.5t84 20.5t172.5 -15.5t250.5 -56.5t126.5 -92q0 -34 -25.5 -54t-59.5 -20t-93 14.5t-70 16.5v-27 l31 -1280zM1003 1838l-13 -1173v-970q0 -77 -62 -111q-33 -17 -67.5 -17t-52.5 11t-27 26.5t-16 39t-10 43.5q-17 113 -118 474q-195 694 -249 1046q-3 11 -4 29.5t-3 31.5q-2 34 -17 56q2 65 -27 166.5t-32 121.5v-2009h-111v59q6 23 -2 97.5t-8 177t-20 471t-20 451.5v404 l22 583q0 118 17 132q40 31 83.5 31t66.5 -13q54 -29 54.5 -82t12.5 -104.5t35.5 -116t32.5 -98.5t16 -79t10 -81q11 -119 27.5 -206t63 -258t88.5 -303q105 -338 119 -606q25 -46 31 -113l9 1106v940q19 79 105 79t86 -124v-19q-20 -42 -20 -93z" />
<glyph unicode="&#x1cc;" horiz-adv-x="2163" d="M1856 50l4 -273q0 -302 -110 -425q-101 -113 -308 -146l-95 95q205 129 272.5 245t67.5 344l-28 1621v14q-34 0 -94.5 11t-79.5 18.5t-39 18.5q-39 20 -38.5 56t36 56.5t84 20.5t172.5 -15.5t250.5 -56.5t126.5 -92q0 -34 -25.5 -54t-59.5 -20t-93 14.5t-70 16.5v-27 l31 -1280zM327 852l19 -821v-360q0 -42 -22 -70.5t-60 -28.5q-104 0 -104 194l-7 1119l19 592q0 214 116 214q70 0 101 -107q43 -205 151 -588.5t148 -583.5q29 -98 76 -289t73 -287q12 688 12 1667l-4 86q0 43 16 68.5t55 25.5t64 -18q50 -37 49 -106q0 -436 -24.5 -1119 t-74.5 -854q-6 -2 -26 -8.5t-30 -8.5q-88 -20 -111.5 8t-33.5 74.5t-23 90.5t-98 422q-228 1000 -281 1163v-475z" />
<glyph unicode="&#x1f1;" horiz-adv-x="1777" d="M1488 1849q-108 -16 -182 -15q-172 0 -172 100v67l45 1q42 -11 89 -10l299 32q37 0 62 -27t25 -87q0 -71 -62 -413q-19 -137 -61 -487q-82 -693 -161 -1086q-8 -36 -34 -98.5t-34 -93.5l167 12q167 0 168 -98v-13l-50 -50l-392 -12q-60 0 -90 77q73 116 163.5 603.5 t149 941.5t70.5 656zM160 1122l9 347q0 147 -14 211.5t-35 122.5t-21 88.5t12.5 50.5t37.5 31.5t48 18.5q23 6 59 10q59 3 85 4h31q130 0 277 -140q178 -169 217 -356q23 -110 31 -245t11 -180q9 -102 25 -140v-147q-17 -29 -17 -96q0 -240 -110 -525.5t-273 -433.5 q-121 -110 -163.5 -130.5t-83.5 -20.5t-89 27t-48 82q70 73 70 373q0 177 -29.5 525.5t-29.5 522.5zM370 80v-303q246 174 346 646q50 242 50 501q0 891 -440 891v-3q0 -294 21 -872t23 -860z" />
<glyph unicode="&#x1f2;" horiz-adv-x="1863" d="M1347 -234l133 6v2q129 0 129 -78q0 -39 -34 -58t-76 -19l-188 9q-20 0 -55.5 -17t-63.5 -17t-53.5 23t-25.5 63.5t17.5 117t53.5 193.5t50 166t48.5 215t58 255t86.5 275q146 418 155 645l-258 -19q-34 0 -58.5 27t-24.5 62q0 90 323 89h11q124 0 148 -28.5t24 -59.5 q0 -112 -69 -303t-89.5 -315t-94.5 -361.5t-134 -459t-67 -413.5h54zM160 1122l9 347q0 147 -14 211.5t-35 122.5t-21 88.5t12.5 50.5t37.5 31.5t48 18.5q23 6 59 10q59 3 85 4h31q130 0 277 -140q178 -169 217 -356q23 -110 31 -245t11 -180q9 -102 25 -140v-147 q-17 -29 -17 -96q0 -240 -110 -525.5t-273 -433.5q-121 -110 -163.5 -130.5t-83.5 -20.5t-89 27t-48 82q70 73 70 373q0 177 -29.5 525.5t-29.5 522.5zM370 80v-303q246 174 346 646q50 242 50 501q0 891 -440 891v-3q0 -294 21 -872t23 -860z" />
<glyph unicode="&#x1f3;" horiz-adv-x="1798" d="M1281 -234l133 6v2q129 0 129 -78q0 -39 -34 -58t-76 -19l-188 9q-20 0 -55.5 -17t-63.5 -17t-53.5 23t-25.5 63.5t17.5 117t53.5 193.5t50 166t48.5 215t58 255t86.5 275q146 418 155 645l-258 -19q-34 0 -58.5 27t-24.5 62q0 90 323 89h11q124 0 148 -28.5t24 -59.5 q0 -112 -69 -303t-89.5 -315t-94.5 -361.5t-134 -459t-67 -413.5h54zM335 1220l35 -1401v-76h58q166 203 214 369q45 157 45 437q0 958 -329 1001q-23 -125 -23 -330zM854 852l-6 -159v-174q0 -315 -28 -425t-56.5 -181t-69.5 -127q-93 -126 -235 -205h-217q-81 0 -81 416 l9 1000q0 277 -10 520q-26 31 -26.5 74t35.5 74.5t86 31.5t86 -56q23 -9 69 -16.5t67 -18.5q177 -82 277 -291t100 -463z" />
<glyph unicode="&#x200;" horiz-adv-x="1098" d="M-76 2748q0 25 21.5 46t48 21t130.5 -73t221 -168q302 -240 355 -325l-28 -34q-42 12 -134 75.5t-141 71.5q-473 315 -473 386zM-616 2689q26 98 83 98q36 0 204.5 -112.5t327.5 -236.5t173 -155q-2 -51 -36 -57q-505 336 -752 437v26zM747 293q-5 57 -31 342 q-70 728 -70 814.5t2 94.5q-19 -22 -89.5 -450t-79.5 -465t-29 -102q-42 -135 -45 -208q132 -36 218.5 -35.5t123.5 9.5zM760 1970q62 -445 130 -1158q68 -714 68 -1104q0 -107 -104 -106.5t-104 82.5v414q-45 31 -160.5 52.5t-205.5 27.5q-39 -65 -59.5 -265.5 t-67.5 -276.5q-153 0 -169 63q71 104 290 1324q84 482 102 559q85 409 185 410q59 0 95 -28v6z" />
<glyph unicode="&#x201;" horiz-adv-x="1044" d="M-76 2404q0 25 21.5 46t48 21t130.5 -73t221 -168q302 -240 355 -325l-28 -34q-42 12 -134 75.5t-141 71.5q-473 315 -473 386zM-616 2345q26 98 83 98q36 0 204.5 -112.5t327.5 -236.5t173 -155q-2 -51 -36 -57q-505 336 -752 437v26zM887 113l-17 -63 q0 -39 27.5 -189.5t27.5 -196.5v-4q0 -71 -48 -89q-67 0 -104 21.5t-37 109t-46 360.5l-98 9h-105q-36 16 -126 16q0 -3 -4 -41t-6 -61.5t-7.5 -69t-11.5 -77.5t-15.5 -74.5t-21 -71t-25.5 -55.5q-28 -54 -68.5 -54t-72 24t-31.5 61q84 321 143.5 673t71 417.5t54 254 t51 252t16.5 164.5q14 220 57 284h107q108 0 109 -65q0 -612 119 -1217q6 -36 23 -99q38 -138 38 -219zM670 181q-9 46 -9.5 150t-13.5 252.5t-38 343.5t-34 282q-19 -90 -73 -301q-110 -439 -113 -676q55 -35 281 -51z" />
<glyph unicode="&#x202;" horiz-adv-x="1098" d="M964 2387l-8 -26q14 -48 14 -66t-25.5 -42t-68.5 -24q-79 0 -79 119q0 34 -22.5 90t-50.5 56h-67q-50 -36 -76 -163q-25 -116 -93 -116l-59 49q0 144 42 227q79 150 226 150q116 0 171 -71q50 -68 96 -183zM747 293q-5 57 -31 342q-70 728 -70 814.5t2 94.5 q-19 -22 -89.5 -450t-79.5 -465t-29 -102q-42 -135 -45 -208q132 -36 218.5 -35.5t123.5 9.5zM760 1970q62 -445 130 -1158q68 -714 68 -1104q0 -107 -104 -106.5t-104 82.5v414q-45 31 -160.5 52.5t-205.5 27.5q-39 -65 -59.5 -265.5t-67.5 -276.5q-153 0 -169 63 q71 104 290 1324q84 482 102 559q85 409 185 410q59 0 95 -28v6z" />
<glyph unicode="&#x203;" horiz-adv-x="1044" d="M902 2066l-8 -26q14 -48 14 -66t-25.5 -42t-68.5 -24q-79 0 -79 119q0 34 -22.5 90t-50.5 56h-67q-50 -36 -76 -163q-25 -116 -93 -116l-59 49q0 144 42 227q79 150 226 150q116 0 171 -71q50 -68 96 -183zM887 113l-17 -63q0 -39 27.5 -189.5t27.5 -196.5v-4 q0 -71 -48 -89q-67 0 -104 21.5t-37 109t-46 360.5l-98 9h-105q-36 16 -126 16q0 -3 -4 -41t-6 -61.5t-7.5 -69t-11.5 -77.5t-15.5 -74.5t-21 -71t-25.5 -55.5q-28 -54 -68.5 -54t-72 24t-31.5 61q84 321 143.5 673t71 417.5t54 254t51 252t16.5 164.5q14 220 57 284h107 q108 0 109 -65q0 -612 119 -1217q6 -36 23 -99q38 -138 38 -219zM670 181q-9 46 -9.5 150t-13.5 252.5t-38 343.5t-34 282q-19 -90 -73 -301q-110 -439 -113 -676q55 -35 281 -51z" />
<glyph unicode="&#x204;" horiz-adv-x="782" d="M-167 2748q0 25 21.5 46t48 21t130.5 -73t221 -168q302 -240 355 -325l-28 -34q-42 12 -134 75.5t-141 71.5q-473 315 -473 386zM-707 2689q26 98 83 98q36 0 204.5 -112.5t327.5 -236.5t173 -155q-2 -51 -36 -57q-505 336 -752 437v26zM488 762l-79 4q-37 0 -56 -24 v-979q163 9 168 9q177 0 177 -84v-10q-22 -43 -74 -66.5t-91 -27t-102 -3.5h-99q-121 0 -149 47q-13 22 -13 57v2291l275 28q48 0 97 -28.5t49 -75.5q0 -95 -145 -94l-91 3q-23 0 -34 -2l25 -524q0 -64 -8 -185.5t-8 -176.5q17 3 47 10q65 17 101.5 17t65 -26t28.5 -63.5 t-23.5 -67t-60.5 -29.5z" />
<glyph unicode="&#x205;" horiz-adv-x="801" d="M-124 2389q0 25 21.5 46t48 21t130.5 -73t221 -168q302 -240 355 -325l-28 -34q-42 12 -134 75.5t-141 71.5q-473 315 -473 386zM-664 2330q26 98 83 98q36 0 204.5 -112.5t327.5 -236.5t173 -155q-2 -51 -36 -57q-505 336 -752 437v26zM450 -281l125 8q121 0 121 -77 q0 -48 -42 -70t-94 -22h-300q-40 0 -68.5 28t-31 71.5t6 108.5t8.5 104l-15 406l21 927l-17 268q0 225 134 225q37 0 69 -24q12 -2 59.5 -5.5t83.5 -9.5t77 -17q90 -25 90 -85q0 -65 -93 -100q-146 50 -240 61q5 -68 5 -137l-14 -455q0 -3 9 -50l113 5q153 0 154 -87 q0 -46 -27.5 -82t-77 -36t-86.5 28h-81q9 -121 10 -229l-14 -575q0 -179 115 -179z" />
<glyph unicode="&#x206;" horiz-adv-x="782" d="M753 2387l-8 -26q14 -48 14 -66t-25.5 -42t-68.5 -24q-79 0 -79 119q0 34 -22.5 90t-50.5 56h-67q-50 -36 -76 -163q-25 -116 -93 -116l-59 49q0 144 42 227q79 150 226 150q116 0 171 -71q50 -68 96 -183zM488 762l-79 4q-37 0 -56 -24v-979q163 9 168 9q177 0 177 -84 v-10q-22 -43 -74 -66.5t-91 -27t-102 -3.5h-99q-121 0 -149 47q-13 22 -13 57v2291l275 28q48 0 97 -28.5t49 -75.5q0 -95 -145 -94l-91 3q-23 0 -34 -2l25 -524q0 -64 -8 -185.5t-8 -176.5q17 3 47 10q65 17 101.5 17t65 -26t28.5 -63.5t-23.5 -67t-60.5 -29.5z" />
<glyph unicode="&#x207;" horiz-adv-x="801" d="M668 2066l-8 -26q14 -48 14 -66t-25.5 -42t-68.5 -24q-79 0 -79 119q0 34 -22.5 90t-50.5 56h-67q-50 -36 -76 -163q-25 -116 -93 -116l-59 49q0 144 42 227q79 150 226 150q116 0 171 -71q50 -68 96 -183zM450 -281l125 8q121 0 121 -77q0 -48 -42 -70t-94 -22h-300 q-40 0 -68.5 28t-31 71.5t6 108.5t8.5 104l-15 406l21 927l-17 268q0 225 134 225q37 0 69 -24q12 -2 59.5 -5.5t83.5 -9.5t77 -17q90 -25 90 -85q0 -65 -93 -100q-146 50 -240 61q5 -68 5 -137l-14 -455q0 -3 9 -50l113 5q153 0 154 -87q0 -46 -27.5 -82t-77 -36t-86.5 28 h-81q9 -121 10 -229l-14 -575q0 -179 115 -179z" />
<glyph unicode="&#x208;" horiz-adv-x="757" d="M-209 2748q0 25 21.5 46t48 21t130.5 -73t221 -168q302 -240 355 -325l-28 -34q-42 12 -134 75.5t-141 71.5q-473 315 -473 386zM-749 2689q26 98 83 98q36 0 204.5 -112.5t327.5 -236.5t173 -155q-2 -51 -36 -57q-505 336 -752 437v26zM471 -222l65 2q129 0 129 -53 q12 -53 -12 -75.5t-67 -22.5h-398q-91 0 -91.5 73t95.5 73l98 -1q16 0 15.5 158t-30 647t-29.5 734l7 324q0 102 -8 176q-43 -14 -75 -14q-74 0 -74 76q0 39 48 68t120 41q133 23 197 23t92 -25.5t28 -60.5t-21 -60.5t-53 -25.5l-56 2q-31 0 -45.5 -13.5t-14.5 -51.5 q0 -310 40 -928.5t40 -928.5v-137z" />
<glyph unicode="&#x209;" horiz-adv-x="855" d="M-114 2393q0 25 21.5 46t48 21t130.5 -73t221 -168q302 -240 355 -325l-28 -34q-42 12 -134 75.5t-141 71.5q-473 315 -473 386zM-654 2334q26 98 83 98q36 0 204.5 -112.5t327.5 -236.5t173 -155q-2 -51 -36 -57q-505 336 -752 437v26zM487 656l23 -675v-94 q0 -19 -2 -36q-3 -29 10 -48v-5l116 4q130 0 130 -80q0 -40 -31.5 -68.5t-73.5 -28.5l-106 11q-8 0 -48 -18t-89 -18t-81 31q-25 -3 -39 -3q-88 0 -118 57q0 61 50 85v13h101l6 42l-22 674l17 707q0 178 -15 338h-123.5t-83 17.5t-26.5 67.5q0 74 172 73h11q408 0 408 -129 q0 -17 -19 -59h-163q12 -116 13 -252z" />
<glyph unicode="&#x20a;" horiz-adv-x="757" d="M583 2387l-8 -26q14 -48 14 -66t-25.5 -42t-68.5 -24q-79 0 -79 119q0 34 -22.5 90t-50.5 56h-67q-50 -36 -76 -163q-25 -116 -93 -116l-59 49q0 144 42 227q79 150 226 150q116 0 171 -71q50 -68 96 -183zM471 -222l65 2q129 0 129 -53q12 -53 -12 -75.5t-67 -22.5h-398 q-91 0 -91.5 73t95.5 73l98 -1q16 0 15.5 158t-30 647t-29.5 734l7 324q0 102 -8 176q-43 -14 -75 -14q-74 0 -74 76q0 39 48 68t120 41q133 23 197 23t92 -25.5t28 -60.5t-21 -60.5t-53 -25.5l-56 2q-31 0 -45.5 -13.5t-14.5 -51.5q0 -310 40 -928.5t40 -928.5v-137z" />
<glyph unicode="&#x20b;" horiz-adv-x="855" d="M674 2066l-8 -26q14 -48 14 -66t-25.5 -42t-68.5 -24q-79 0 -79 119q0 34 -22.5 90t-50.5 56h-67q-50 -36 -76 -163q-25 -116 -93 -116l-59 49q0 144 42 227q79 150 226 150q116 0 171 -71q50 -68 96 -183zM487 656l23 -675v-94q0 -19 -2 -36q-3 -29 10 -48v-5l116 4 q130 0 130 -80q0 -40 -31.5 -68.5t-73.5 -28.5l-106 11q-8 0 -48 -18t-89 -18t-81 31q-25 -3 -39 -3q-88 0 -118 57q0 61 50 85v13h101l6 42l-22 674l17 707q0 178 -15 338h-123.5t-83 17.5t-26.5 67.5q0 74 172 73h11q408 0 408 -129q0 -17 -19 -59h-163q12 -116 13 -252z " />
<glyph unicode="&#x20c;" horiz-adv-x="1075" d="M-26 2748q0 25 21.5 46t48 21t130.5 -73t221 -168q302 -240 355 -325l-28 -34q-42 12 -134 75.5t-141 71.5q-473 315 -473 386zM-566 2689q26 98 83 98q36 0 204.5 -112.5t327.5 -236.5t173 -155q-2 -51 -36 -57q-505 336 -752 437v26zM572.5 1845q-45.5 44 -88 44 t-69 -21.5t-45 -65t-34 -92t-25.5 -119.5t-18 -128t-12.5 -136t-7.5 -129t-4 -119.5t-1 -92.5v-65q0 -256 48 -586q96 -649 271 -650q62 0 105.5 118.5t60.5 297.5q31 302 31 437.5t-0.5 194.5t-4.5 171.5t-13.5 211t-23.5 217.5t-38 212t-55 174.5t-76.5 125.5zM928 558 l-27 -402v-14q-20 -88 -20.5 -190t-35 -197.5t-107 -169t-157.5 -73.5t-155.5 58.5t-116 151t-81.5 220.5t-54.5 249.5t-30.5 256.5q-17 206 -17 338.5t4 217.5q6 157 14 278.5t9.5 186.5t3 110t9.5 111t18.5 112.5t33 97.5t53.5 84q71 73 159.5 73t141.5 -17t89.5 -44.5 t66.5 -71.5t49.5 -86t34.5 -101q20 -74 40 -212q76 -542 76 -967z" />
<glyph unicode="&#x20d;" horiz-adv-x="1036" d="M-34 2389q0 25 21.5 46t48 21t130.5 -73t221 -168q302 -240 355 -325l-28 -34q-42 12 -134 75.5t-141 71.5q-473 315 -473 386zM-574 2330q26 98 83 98q36 0 204.5 -112.5t327.5 -236.5t173 -155q-2 -51 -36 -57q-505 336 -752 437v26zM294 1201l5 -186l-1 -304 q0 -39 1.5 -91.5t3.5 -138.5t9 -170.5t16.5 -178t25.5 -173.5t34 -145q42 -141 110 -141q91 0 139 172q71 256 71 629l5 327q0 344 -30 463.5t-57 179.5q-53 122 -159 123h-7q-166 0 -166 -366zM884 454q0 -913 -374 -913q-344 0 -386 865q-3 82 -3 164l-2 194v62 q0 671 197 829q48 39 107 42q45 -16 110 -29t96 -27q57 -26 124 -137t99 -296t32 -371v-383z" />
<glyph unicode="&#x20e;" horiz-adv-x="1075" d="M767 2387l-8 -26q14 -48 14 -66t-25.5 -42t-68.5 -24q-79 0 -79 119q0 34 -22.5 90t-50.5 56h-67q-50 -36 -76 -163q-25 -116 -93 -116l-59 49q0 144 42 227q79 150 226 150q116 0 171 -71q50 -68 96 -183zM572.5 1845q-45.5 44 -88 44t-69 -21.5t-45 -65t-34 -92 t-25.5 -119.5t-18 -128t-12.5 -136t-7.5 -129t-4 -119.5t-1 -92.5v-65q0 -256 48 -586q96 -649 271 -650q62 0 105.5 118.5t60.5 297.5q31 302 31 437.5t-0.5 194.5t-4.5 171.5t-13.5 211t-23.5 217.5t-38 212t-55 174.5t-76.5 125.5zM928 558l-27 -402v-14 q-20 -88 -20.5 -190t-35 -197.5t-107 -169t-157.5 -73.5t-155.5 58.5t-116 151t-81.5 220.5t-54.5 249.5t-30.5 256.5q-17 206 -17 338.5t4 217.5q6 157 14 278.5t9.5 186.5t3 110t9.5 111t18.5 112.5t33 97.5t53.5 84q71 73 159.5 73t141.5 -17t89.5 -44.5t66.5 -71.5 t49.5 -86t34.5 -101q20 -74 40 -212q76 -542 76 -967z" />
<glyph unicode="&#x20f;" horiz-adv-x="1036" d="M772 2066l-8 -26q14 -48 14 -66t-25.5 -42t-68.5 -24q-79 0 -79 119q0 34 -22.5 90t-50.5 56h-67q-50 -36 -76 -163q-25 -116 -93 -116l-59 49q0 144 42 227q79 150 226 150q116 0 171 -71q50 -68 96 -183zM294 1201l5 -186l-1 -304q0 -39 1.5 -91.5t3.5 -138.5t9 -170.5 t16.5 -178t25.5 -173.5t34 -145q42 -141 110 -141q91 0 139 172q71 256 71 629l5 327q0 344 -30 463.5t-57 179.5q-53 122 -159 123h-7q-166 0 -166 -366zM884 454q0 -913 -374 -913q-344 0 -386 865q-3 82 -3 164l-2 194v62q0 671 197 829q48 39 107 42q45 -16 110 -29 t96 -27q57 -26 124 -137t99 -296t32 -371v-383z" />
<glyph unicode="&#x210;" horiz-adv-x="931" d="M-107 2748q0 25 21.5 46t48 21t130.5 -73t221 -168q302 -240 355 -325l-28 -34q-42 12 -134 75.5t-141 71.5q-473 315 -473 386zM-647 2689q26 98 83 98q36 0 204.5 -112.5t327.5 -236.5t173 -155q-2 -51 -36 -57q-505 336 -752 437v26zM343 1868l-17 -648q0 -98 3 -146 q53 50 102 122l46 275q0 164 -43 276t-91 121zM829 -329q0 -104 -76 -104q-59 0 -114 86v11q-8 127 -78.5 348.5t-87.5 299t-55 292t-66 327.5v-1250q0 -101 -104 -101q-37 0 -63.5 25.5t-26.5 62.5v25l22 1862v390q0 37 15.5 52.5t90 15.5t152 -48.5t123.5 -126.5 q96 -160 96 -352q0 -155 -77 -355q-9 -22 -37 -91.5t-33 -81.5q2 -124 41.5 -309.5t73.5 -299t113.5 -355.5t90.5 -276v-47z" />
<glyph unicode="&#x211;" horiz-adv-x="863" d="M-110 2407q0 25 21.5 46t48 21t130.5 -73t221 -168q302 -240 355 -325l-28 -34q-42 12 -134 75.5t-141 71.5q-473 315 -473 386zM-650 2348q26 98 83 98q36 0 204.5 -112.5t327.5 -236.5t173 -155q-2 -51 -36 -57q-505 336 -752 437v26zM311.5 539.5 q-21.5 -88.5 -21.5 -163.5t19.5 -321t19.5 -317t-26 -108.5t-58 -37.5q-46 0 -59 64q3 118 3 289t-27 752.5t-27 867.5q0 150 105 151q166 0 279 -87t113 -248q0 -217 -34 -338t-128 -302q17 -76 60 -304q91 -493 206 -711q33 -62 33 -97t-19.5 -59t-51.5 -24 q-104 0 -191 345q-37 150 -67 304q-84 420 -107 473q0 -40 -21.5 -128.5zM307 1598l-11 -45q0 -130 6 -376t6 -357q74 39 120 202.5t46 250t-4 127.5t-20 91q-30 104 -143 107z" />
<glyph unicode="&#x212;" horiz-adv-x="931" d="M690 2387l-8 -26q14 -48 14 -66t-25.5 -42t-68.5 -24q-79 0 -79 119q0 34 -22.5 90t-50.5 56h-67q-50 -36 -76 -163q-25 -116 -93 -116l-59 49q0 144 42 227q79 150 226 150q116 0 171 -71q50 -68 96 -183zM343 1868l-17 -648q0 -98 3 -146q53 50 102 122l46 275 q0 164 -43 276t-91 121zM829 -329q0 -104 -76 -104q-59 0 -114 86v11q-8 127 -78.5 348.5t-87.5 299t-55 292t-66 327.5v-1250q0 -101 -104 -101q-37 0 -63.5 25.5t-26.5 62.5v25l22 1862v390q0 37 15.5 52.5t90 15.5t152 -48.5t123.5 -126.5q96 -160 96 -352 q0 -155 -77 -355q-9 -22 -37 -91.5t-33 -81.5q2 -124 41.5 -309.5t73.5 -299t113.5 -355.5t90.5 -276v-47z" />
<glyph unicode="&#x213;" horiz-adv-x="863" d="M682 2066l-8 -26q14 -48 14 -66t-25.5 -42t-68.5 -24q-79 0 -79 119q0 34 -22.5 90t-50.5 56h-67q-50 -36 -76 -163q-25 -116 -93 -116l-59 49q0 144 42 227q79 150 226 150q116 0 171 -71q50 -68 96 -183zM311.5 539.5q-21.5 -88.5 -21.5 -163.5t19.5 -321t19.5 -317 t-26 -108.5t-58 -37.5q-46 0 -59 64q3 118 3 289t-27 752.5t-27 867.5q0 150 105 151q166 0 279 -87t113 -248q0 -217 -34 -338t-128 -302q17 -76 60 -304q91 -493 206 -711q33 -62 33 -97t-19.5 -59t-51.5 -24q-104 0 -191 345q-37 150 -67 304q-84 420 -107 473 q0 -40 -21.5 -128.5zM307 1598l-11 -45q0 -130 6 -376t6 -357q74 39 120 202.5t46 250t-4 127.5t-20 91q-30 104 -143 107z" />
<glyph unicode="&#x214;" d="M45 2748q0 25 21.5 46t48 21t130.5 -73t221 -168q302 -240 355 -325l-28 -34q-42 12 -134 75.5t-141 71.5q-473 315 -473 386zM-495 2689q26 98 83 98q36 0 204.5 -112.5t327.5 -236.5t173 -155q-2 -51 -36 -57q-505 336 -752 437v26zM1000 508l9 -195v-48l-8 -34l2 -185 q0 -279 -79 -395q-74 -108 -231 -108q-191 0 -290 138q-87 118 -127 316q-51 239 -82 338q-3 8 -35 710t-32 779q-23 26 -23 65t27 68.5t64 29.5q115 0 115 -226l29 -1104q19 -42 32 -169t13 -197.5t22.5 -173.5t61.5 -208.5t105 -180t140 -74.5q121 0 127 219q2 28 2 66 v1425q0 90 -34.5 272t-34.5 246.5t32 88.5t72 24l96 -75v-52l-27 -194q0 -184 23 -540t25 -528v-5z" />
<glyph unicode="&#x215;" horiz-adv-x="1081" d="M16 2444q0 25 21.5 46t48 21t130.5 -73t221 -168q302 -240 355 -325l-28 -34q-42 12 -134 75.5t-141 71.5q-473 315 -473 386zM-524 2385q26 98 83 98q36 0 204.5 -112.5t327.5 -236.5t173 -155q-2 -51 -36 -57q-505 336 -752 437v26zM901 1015l3 -54 q-23 -112 -30.5 -384t-27.5 -438.5t-54 -293t-109 -210t-167.5 -83.5t-151.5 33.5t-96 96t-62 134.5t-37 167q-22 166 -22 350l17 837q0 274 -38 454v76q76 0 120 -59t44 -131v-1536q0 -122 61 -224t181 -102q135 0 179 784v14l2 20q40 716 40 1160l-1 53q0 37 17 55.5 t65 18.5t71 -26.5t27 -53.5t4 -73l-22 -320z" />
<glyph unicode="&#x216;" d="M837 2387l-8 -26q14 -48 14 -66t-25.5 -42t-68.5 -24q-79 0 -79 119q0 34 -22.5 90t-50.5 56h-67q-50 -36 -76 -163q-25 -116 -93 -116l-59 49q0 144 42 227q79 150 226 150q116 0 171 -71q50 -68 96 -183zM1000 508l9 -195v-48l-8 -34l2 -185q0 -279 -79 -395 q-74 -108 -231 -108q-191 0 -290 138q-87 118 -127 316q-51 239 -82 338q-3 8 -35 710t-32 779q-23 26 -23 65t27 68.5t64 29.5q115 0 115 -226l29 -1104q19 -42 32 -169t13 -197.5t22.5 -173.5t61.5 -208.5t105 -180t140 -74.5q121 0 127 219q2 28 2 66v1425 q0 90 -34.5 272t-34.5 246.5t32 88.5t72 24l96 -75v-52l-27 -194q0 -184 23 -540t25 -528v-5z" />
<glyph unicode="&#x217;" horiz-adv-x="1081" d="M811 2083l-8 -26q14 -48 14 -66t-25.5 -42t-68.5 -24q-79 0 -79 119q0 34 -22.5 90t-50.5 56h-67q-50 -36 -76 -163q-25 -116 -93 -116l-59 49q0 144 42 227q79 150 226 150q116 0 171 -71q50 -68 96 -183zM901 1015l3 -54q-23 -112 -30.5 -384t-27.5 -438.5t-54 -293 t-109 -210t-167.5 -83.5t-151.5 33.5t-96 96t-62 134.5t-37 167q-22 166 -22 350l17 837q0 274 -38 454v76q76 0 120 -59t44 -131v-1536q0 -122 61 -224t181 -102q135 0 179 784v14l2 20q40 716 40 1160l-1 53q0 37 17 55.5t65 18.5t71 -26.5t27 -53.5t4 -73l-22 -320z" />
<glyph unicode="&#x218;" horiz-adv-x="900" d="M798 -772l-5 -22q0 -73 -40 -173.5t-110 -179.5t-138 -79h-94v112q12 12 62 52q104 84 114 143q-91 67 -91 140.5t49 112t107 38.5t90.5 -34.5t55.5 -98.5v-11zM99 -363q-1 85 71 85q36 0 94 -24t101 -24t93 54q49 56 77 136q57 163 57 296t-46.5 285t-114 285 t-133.5 267q-160 319 -160 579q0 248 156 389q84 74 197 75q57 0 111.5 -32t76.5 -83v-68q-133 0 -178 31q-59 -6 -103 -56q-79 -93 -79 -214.5t36 -251t85.5 -243.5t100 -211.5t86 -159.5t35.5 -65v-25q11 -40 37 -127t42 -138q39 -140 39 -253t-27.5 -215.5t-77.5 -193 t-136 -148t-160.5 -57.5t-125.5 8t-102.5 34t-51.5 65z" />
<glyph unicode="&#x219;" horiz-adv-x="775" d="M744 -746l-5 -22q0 -73 -40 -173.5t-110 -179.5t-138 -79h-94v112q12 12 62 52q104 84 114 143q-91 67 -91 140.5t49 112t107 38.5t90.5 -34.5t55.5 -98.5v-11zM116 -267l168 -23q60 0 105 52t67 132q42 152 42 269t-39 232t-95 213.5t-113 200.5q-133 240 -133 474 q0 143 48 253q90 205 239 205q56 0 106 -36t50 -78q0 -73 -77 -72q-34 0 -67 18q-101 -5 -136 -225q-8 -48 -8 -112t28 -158.5t70.5 -168.5t91.5 -163t92 -173q98 -194 98 -443q1 -198 -79 -367q-42 -87 -119 -142t-178 -57v-7q-59 8 -107 39.5t-54 82.5v54z" />
<glyph unicode="&#x21a;" horiz-adv-x="841" d="M868 -724l-5 -22q0 -73 -40 -173.5t-110 -179.5t-138 -79h-94v112q12 12 62 52q104 84 114 143q-91 67 -91 140.5t49 112t107 38.5t90.5 -34.5t55.5 -98.5v-11zM538 1443l-6 -409q0 -290 49 -487v-1q-22 -101 -21 -242l26 -571q0 -155 -92 -155q-53 0 -77.5 50t-24.5 110 l25 507q0 164 -21.5 494t-21.5 495l4 277q0 228 -29 296l-172 -17q-40 0 -72 24t-32 62t76 65t186 40q191 21 321 21q39 0 70.5 -25.5t31.5 -64t-28 -61t-68 -22.5l-113 6q-22 0 -33 -1q22 -183 22 -391z" />
<glyph unicode="&#x21b;" horiz-adv-x="855" d="M854 -693l-5 -22q0 -73 -40 -173.5t-110 -179.5t-138 -79h-94v112q12 12 62 52q104 84 114 143q-91 67 -91 140.5t49 112t107 38.5t90.5 -34.5t55.5 -98.5v-11zM432 -106l7 109q-12 40 -51 716.5t-42 825.5q-183 5 -226.5 33.5t-43.5 59.5t34 50.5t67 19.5l431 -29l51 1 q99 0 99 -76q0 -39 -32.5 -63t-72.5 -24l-146 22l-6 -33q0 -301 52.5 -900.5t52.5 -901.5q0 -39 -28.5 -67t-67.5 -28h-71z" />
<glyph unicode="&#x237;" horiz-adv-x="895" d="M561 1472l31 -1280v-347q-39 -65 -60.5 -228t-47.5 -240q-56 -170 -273 -171l-146 104q0 42 96 112.5t166 106.5q91 108 91 361l-27 1621v14q-34 0 -94.5 11t-79.5 18.5t-39 18.5q-39 20 -38.5 56t36 56.5t84 20.5t172.5 -15.5t250.5 -56.5t126.5 -92q0 -34 -25.5 -54 t-59.5 -20t-93 14.5t-70 16.5v-27z" />
<glyph unicode="&#x2c6;" horiz-adv-x="776" d="M612 1153l28 -39q0 -36 -31.5 -56.5t-69.5 -20.5h-68q-26 265 -62 412q-12 -37 -34 -107.5t-34 -109.5q-37 -105 -107 -194l-104 75q6 59 56 198.5t123.5 267t126.5 127.5q81 0 80 -103q0 -70 48 -192.5t48 -176.5v-81z" />
<glyph unicode="&#x2c7;" horiz-adv-x="775" d="M637 1630q0 -16 -11 -48v-57q-20 -3 -20 -5q0 -16 -47 -174.5t-47 -204.5q0 -102 -78.5 -102.5t-187 241.5t-119.5 349l102 73l83 -110q2 -59 91 -301q46 183 65 374h68l55 1q46 0 46 -36z" />
<glyph unicode="&#x2d8;" horiz-adv-x="832" d="M674 1224v-26q-14 -42 -45.5 -105.5t-41.5 -73t-29.5 -29.5t-39.5 -26q-62 -20 -118 -20t-109.5 32.5t-82.5 86.5q-60 105 -61 242v15l59 50q68 0 93 -116q26 -127 76 -163h67q22 0 47.5 50.5t25.5 80.5t1.5 47t9 41t27 35t52 11t58 -24t25.5 -41t-14 -67z" />
<glyph unicode="&#x2d9;" horiz-adv-x="554" d="M190 1789q-32 35 -32 81t35.5 83t82 37t81 -37t34.5 -86t-36 -81t-84.5 -32t-80.5 35z" />
<glyph unicode="&#x2da;" horiz-adv-x="643" d="M189.5 1297q-46.5 51 -46.5 119.5t54 126.5t123 58t120 -56t51 -129.5t-55 -121.5t-127.5 -48t-119 51zM319 1426l-37 -47h59q0 67 -22 89v-42z" />
<glyph unicode="&#x2db;" horiz-adv-x="654" d="M508 -369q-274 -229 -274 -419q0 -39 13 -59t29 -20q62 0 133 52v-53q0 -42 -48.5 -70.5t-103.5 -28.5t-93 49.5t-38 116.5q0 127 86.5 241.5t210.5 190.5h85z" />
<glyph unicode="&#x2dc;" horiz-adv-x="1038" d="M730 1376l-20 70q25 50 74.5 50t77.5 -45t28 -114t-61.5 -130.5t-133.5 -61.5t-132.5 33.5t-96 68.5t-86.5 94v3l-82 -48v-152q-53 0 -103.5 24t-50.5 67q0 108 63 185t168 77l158 -80q14 -37 47.5 -74.5t67.5 -37.5v2q9 9 31 20q51 21 51 49z" />
<glyph unicode="&#x2dd;" horiz-adv-x="1892" d="M738 -398q-34 6 -36 57q14 33 180.5 161.5t342.5 244.5t211.5 116t67.5 -29.5t44 -67.5v-27q-293 -119 -739 -411q-48 -28 -71 -44zM922 91q0 -62 -445 -353q-51 -8 -144 -71.5t-131 -75.5l-28 34q46 81 341 310q290 228 327 228t58.5 -21.5t21.5 -50.5z" />
<glyph unicode="&#x307;" horiz-adv-x="554" d="M190 1789q-32 35 -32 81t35.5 83t82 37t81 -37t34.5 -86t-36 -81t-84.5 -32t-80.5 35z" />
<glyph unicode="&#x30f;" horiz-adv-x="1869" d="M924 124q0 25 21.5 46t48 21t130.5 -73t221 -168q302 -240 355 -325l-28 -34q-42 12 -134 75.5t-141 71.5q-473 315 -473 386zM384 65q26 98 83 98q36 0 204.5 -112.5t327.5 -236.5t173 -155q-2 -51 -36 -57q-505 336 -752 437v26z" />
<glyph unicode="&#x311;" horiz-adv-x="833" d="M682 1116l-8 -26q14 -48 14 -66t-25.5 -42t-68.5 -24q-79 0 -79 119q0 34 -22.5 90t-50.5 56h-67q-50 -36 -76 -163q-25 -116 -93 -116l-59 49q0 144 42 227q79 150 226 150q116 0 171 -71q50 -68 96 -183z" />
<glyph unicode="&#x326;" horiz-adv-x="804" d="M592 -814l-5 -22q0 -73 -40 -173.5t-110 -179.5t-138 -79h-94v112q12 12 62 52q104 84 114 143q-91 67 -91 140.5t49 112t107 38.5t90.5 -34.5t55.5 -98.5v-11z" />
<glyph unicode="&#x2013;" horiz-adv-x="1387" d="M1153 586l-860 15q-127 0 -127 70q0 33 19.5 52t51.5 19h265l292 7q434 0 434 -90q0 -33 -21 -53t-54 -20z" />
<glyph unicode="&#x2014;" horiz-adv-x="1720" d="M1187 807q370 0 371 -83q0 -43 -70 -56.5t-197 -13.5h-933q-144 0 -175 37q-16 17 -16 47.5t19.5 49.5t52.5 19h948z" />
<glyph unicode="&#x2018;" horiz-adv-x="671" d="M141 1592l6 20q0 74 40.5 175t110 179t138.5 78h93v-110q-23 -12 -74.5 -59.5t-62.5 -61.5q-31 -42 -39 -72q90 -67 90 -141.5t-48.5 -113t-107 -38.5t-90 35.5t-56.5 98.5v10z" />
<glyph unicode="&#x2019;" horiz-adv-x="678" d="M527 1902l-6 -22q0 -73 -39.5 -173.5t-109.5 -179t-138 -78.5h-94v110q12 12 62 53q104 82 114 141q-91 67 -91 141t48.5 113t107 39t91 -35.5t55.5 -99.5v-9z" />
<glyph unicode="&#x201a;" horiz-adv-x="658" d="M515 -259l-5 -22q0 -73 -40.5 -173.5t-110 -179.5t-137.5 -79h-95v111q12 12 62 53q104 84 115 143q-91 67 -91.5 140.5t48.5 112t107 38.5t90.5 -35t56.5 -98v-11z" />
<glyph unicode="&#x201c;" horiz-adv-x="1001" d="M471 1593l6 20q0 74 40.5 175t110.5 179.5t138 78.5h93v-110q-14 -14 -47 -42l-56 -46q-60 -50 -72 -106q90 -68 89 -158q0 -88 -100 -124q-28 -11 -72 -11q-78 0 -130 135v9zM141 1592l6 20q0 74 40.5 175t110 179t138.5 78h93v-110q-23 -12 -74.5 -59.5t-62.5 -61.5 q-31 -42 -39 -72q90 -67 90 -141.5t-48.5 -113t-107 -38.5t-90 35.5t-56.5 98.5v10z" />
<glyph unicode="&#x201d;" horiz-adv-x="1061" d="M907 1914v-29q0 -73 -41 -174.5t-111.5 -180.5t-140.5 -79h-93v111q23 12 74 59.5t62 61.5q34 46 39 73q-90 67 -90 141.5t49 113t108 38.5q102 0 144 -135zM527 1906l-6 -21q0 -73 -39.5 -174t-109.5 -179t-138 -78h-94v110q12 12 62 51q104 84 114 143q-91 67 -91 141 t48.5 113t107 39t91 -36t55.5 -99v-10z" />
<glyph unicode="&#x201e;" horiz-adv-x="1005" d="M479 -712v110l36 28q36 29 46 41l37 37q46 46 56 90q-90 62 -90 156q0 57 49 96t108.5 39t100 -47t40.5 -114t-38 -168.5t-108.5 -184.5t-143.5 -83h-93zM122 -654q17 36 98 125.5t87 122.5q-91 67 -91.5 141t48.5 112t109.5 38t101 -47t40.5 -117t-40.5 -170 t-115.5 -178t-154 -78z" />
<glyph unicode="&#x2022;" horiz-adv-x="976" d="M160 631l-2 96q0 62 22 127q25 76 85 172q22 33 93 87t104 54q104 0 180.5 -36.5t113.5 -95.5q71 -110 72 -228q0 -195 -101 -333q-88 -122 -231.5 -122t-239.5 94.5t-96 184.5z" />
<glyph unicode="&#x2026;" horiz-adv-x="1447" d="M194.5 -415q-31.5 35 -31.5 81t35.5 83t82 37t80.5 -37t34 -86t-35.5 -81t-84.5 -32t-80.5 35zM642.5 -415q-31.5 35 -31.5 81t35.5 83t82 37t80.5 -37t34 -86t-35.5 -81t-84.5 -32t-80.5 35zM1092 -415q-32 35 -32 81t36 83t82 37t80.5 -37t34.5 -86t-36 -81t-84.5 -32 t-80.5 35z" />
<glyph unicode="&#x2039;" horiz-adv-x="857" d="M601 1843l11 -2l70 -54q-26 -208 -217 -580q-183 -360 -183 -519q0 -23 213 -452.5t269 -528.5q-2 -14 0 -32.5t0 -36.5q0 -19 -4 -35q-6 -37 -39 -37l-68 6q-166 253 -336 633.5t-216 476.5q3 87 164 437t173 391t22.5 87t21.5 80q12 33 30 77q36 88 89 89z" />
<glyph unicode="&#x203a;" horiz-adv-x="895" d="M240 -429l-65 -7q-39 0 -60.5 35t-23.5 77q108 200 314 595t206 417q0 158 -140 434q-174 338 -215.5 457.5t-43.5 207.5l70 54v-3q68 -33 93 -85.5t31 -69.5q16 -37 39 -126t184 -436.5t165 -438.5z" />
<glyph unicode="&#x2044;" horiz-adv-x="878" d="M99 -354q0 211 101.5 631t235.5 898.5t153.5 579t24 124.5t7 35t9.5 32t15 32q23 29 55 29t57.5 -21.5t25.5 -62t-10 -88.5q-10 -47 -29 -111q-76 -245 -384 -1671q-3 -11 -16.5 -85t-26.5 -133.5t-35 -129.5q-46 -153 -112 -153q-72 43 -71 94z" />
<glyph unicode="&#x2074;" horiz-adv-x="829" d="M432 361l-168 -17v-2q-60 0 -126 52q0 71 14 122q-14 74 -14 180.5t24 325t24 320.5v588q0 62 60 62q36 0 64.5 -22t28.5 -57l-13 -247q0 -65 12 -115v-10q2 -14 1.5 -159t-22 -414t-21.5 -355t5 -120q51 2 113 17q-3 538 -25.5 690t-22.5 191.5t31 58.5t66 19l66 -55 v-200q0 -440 40 -690l91 8q95 0 95 -69q0 -46 -27 -61.5t-89 -15.5t-62 -28q0 -107 8.5 -294.5t23.5 -223.5q-6 -37 -6 -67t15 -55v-58q0 -119 -76 -119q-48 0 -71 49t-23 101v11q11 37 11 115l-23 308l3 138q-1 55 -7 98z" />
<glyph unicode="&#x20ac;" horiz-adv-x="1145" d="M394 962l100 2q212 0 213 -43q0 -29 -22 -48q-78 -9 -291 -16v-133q231 3 302 9q22 -19 22 -48q0 -74 -245 -74l-62 1q56 -690 107 -764q71 -104 218.5 -104t224.5 92q54 0 101 15v-42q0 -96 -54 -156q-93 -104 -293 -104q-395 0 -450 696q-6 81 -8 136q-8 164 -11 233 h-122q-20 17 -20 51q0 57 101 57h35v130h-118q-29 11 -29 50.5t16.5 48t53.5 8.5h69l-3 250q0 169 22 291q-9 51 -9 98q0 195 145.5 311.5t359.5 116.5q76 0 149 -43t73 -112q0 -34 -26.5 -53t-60 -19t-87 22.5t-94.5 22.5t-90.5 -14.5t-82 -37t-55.5 -62t-35 -74.5t-18 -91 q-9 -85 -9 -265t-17 -338z" />
<glyph unicode="&#x2122;" horiz-adv-x="1674" d="M536 1722l20 -756q0 -147 -7 -252l12 -43q0 -68 -107 -96h-84q18 53 18 245l-16 637l9 313q0 73 -6 130q-126 -14 -146 -14q-127 0 -127 70v84q380 33 521 32l98 -6l59 -60v-8q3 31 44 69t78 38t87 -64q-6 -20 -6 -82.5t69.5 -305.5t77.5 -303q93 270 175 649 q16 79 27.5 93t23.5 27q22 22 60.5 21.5t65 -23.5t26.5 -57l-34 -673l22 -558v-35q0 -225 -118 -225q-36 0 -59 20t-23 54l17 364q0 68 -5.5 193t-7.5 165q-5 -17 -18 -49q-26 -62 -26 -110v-14q-16 -170 -81 -250q-26 -33 -59 -32q-102 0 -167 431q-29 189 -33 203 q-6 -133 -6 -400l18 -315q0 -267 -119 -266q-74 1 -74 107l20 340l-3 433q0 310 23 527q-19 -68 -144 -68h-87q-8 -76 -8 -180z" />
<glyph unicode="&#x2212;" horiz-adv-x="1210" d="M964 530l-670 -16q-127 0 -127 101q0 33 19.5 52.5t52.5 19.5h662q115 0 134 -27.5t19 -56.5q0 -73 -90 -73z" />
<glyph unicode="&#x25fc;" horiz-adv-x="1675" d="M0 1675h1675v-1675h-1675v1675z" />
<glyph horiz-adv-x="2021" d="M1545 905l295 9q84 0 84 -63q0 -14 -71 -58t-94 -66t-94 -95q-157 -166 -251 -214v-28q0 -95 43 -257q9 -2 44 -167.5t35 -201.5q0 -53 -50 -52q-39 0 -213 235q-65 87 -146.5 160.5t-142.5 73.5q-42 -37 -160.5 -126t-138.5 -105.5t-65 -61.5q-110 -110 -140 -110 q-54 0 -54 41q0 17 10 37.5t24 78t83 261.5t71 210v3q-60 87 -137 156.5t-127.5 113t-67.5 59t-68 43.5q-118 67 -118 121q0 46 61 46q5 0 63 -9q180 -25 279 -25h284l139 352q16 23 39 92t49.5 112.5t56 43.5t56 -26t26.5 -47q0 -101 79 -454v-73q129 -9 317 -9z" />
</font>
</defs>
</svg>
