<?xml version="1.0" standalone="no"?>
<!DOCTYPE svg PUBLIC "-//W3C//DTD SVG 1.1//EN" "http://www.w3.org/Graphics/SVG/1.1/DTD/svg11.dtd" >
<svg xmlns="http://www.w3.org/2000/svg">
<metadata></metadata>
<defs>
<font id="just_another_handregular" horiz-adv-x="1082" >
<font-face units-per-em="2048" ascent="1440" descent="-608" />
<missing-glyph horiz-adv-x="390" />
<glyph unicode="fi" horiz-adv-x="858" d="M811 -243q0 -30 -14 -42t-44 -12q-14 0 -33 3.5t-38 11t-34.5 18t-23.5 22.5q-5 8 -8.5 44.5t-6 92.5t-4 125t-2 139.5t-0.5 139.5v124v99q-32 -3 -68.5 -5t-73.5 -4t-72 -4.5t-64 -3.5l-82 -5q26 -224 45 -377.5t31.5 -254t19.5 -157.5t10 -84.5t4 -35.5t1 -13 q0 -27 -17 -38.5t-42 -11.5q-17 0 -37.5 3.5t-40 10t-35.5 18t-22 28.5q-9 100 -21.5 214.5t-25.5 231t-25.5 231t-19.5 214.5q-5 -1 -10.5 -0.5t-11.5 0.5q-20 0 -33.5 9.5t-13.5 35.5q0 30 14 55t44 32q-4 72 -9.5 159.5t-3.5 177.5t16 175t49 150.5t96 106t158 40.5 q18 0 54.5 -6.5t72 -20t63 -33t27.5 -44.5q0 -14 -12.5 -24t-29.5 -16t-33.5 -8.5t-26.5 -2.5q-30 0 -57 9t-54 12q-43 -12 -72.5 -47t-47 -85t-25.5 -110t-8 -119l17 -280q21 4 60 8.5t86.5 9t98 9t97 8t81.5 5.5t51 2q30 0 42 -17t12 -43q0 -174 11 -355q11 -182 26 -358 q1 -14 2.5 -27t3.5 -26q3 -26 6 -51.5t3 -52.5zM762 793q0 -22 -10 -31.5t-34 -9.5q-12 0 -37.5 3t-51 9.5t-43.5 18.5q-19 13 -19 29q0 5 4.5 29t9.5 51t10.5 49.5t7.5 24.5v-1q6 10 15 12.5t18 2.5q12 0 30.5 -3t37.5 -9t34.5 -15t19.5 -19t4.5 -28t-0.5 -32 q0 -5 -0.5 -12.5t-0.5 -11.5q0 -6 1 -12q0 -8 1 -14t2 -14t1 -17z" />
<glyph unicode="fl" horiz-adv-x="876" d="M905 -338q0 -18 -9 -29.5t-23 -19t-30 -10.5t-29 -3q-46 0 -79.5 26t-57.5 67t-40.5 93.5t-27 105t-15.5 101.5t-8 84q-12 121 -16 246t-4 247q0 162 5 319t15 318q-12 12 -30 25.5t-45 25t-63 20t-83 8.5q-43 -12 -72 -47t-46.5 -85t-25.5 -110t-8 -119l17 -280 q56 10 110 26q52 16 108 16q31 0 43.5 -17t12.5 -43t-6.5 -48t-26.5 -37q-13 -8 -42 -14t-62 -11.5t-65 -9.5t-52 -6h-7q26 -224 44.5 -378t30.5 -254.5t19 -157.5t10.5 -84.5t4 -35.5t0.5 -13q0 -27 -17 -38.5t-41 -11.5q-17 0 -38 3.5t-40.5 10t-34.5 18t-21 28.5 q-8 112 -22 232t-28.5 237t-26 225t-17.5 197q-5 -1 -9.5 -0.5t-10.5 0.5q-21 0 -35 9.5t-14 35.5q0 30 14.5 55t44.5 32q-3 72 -8 159t-3 177.5t15.5 175.5t48 150.5t95.5 106t157 40.5q74 0 131 -12.5t102 -35.5q4 43 8 76t10 47v-1q5 18 13.5 27t30.5 9q48 0 80 -31 t32 -78q0 -91 -4.5 -180.5t-9 -179.5t-9 -179.5t-4.5 -180.5q0 -48 1.5 -126t5 -169.5t11 -189t18.5 -186t27 -160t40 -110.5q10 -5 21 -16.5t19.5 -25t14.5 -28.5t6 -28z" />
<glyph unicode="&#xd;" horiz-adv-x="390" />
<glyph unicode=" "  horiz-adv-x="390" />
<glyph unicode="&#x09;" horiz-adv-x="390" />
<glyph unicode="&#xa0;" horiz-adv-x="390" />
<glyph unicode="!" horiz-adv-x="443" d="M359 54q0 -57 -52 -58q-16 0 -38.5 4t-46 12t-42.5 19t-27 25q-10 18 -10 38.5v42.5q-8 289 -20.5 574t-23.5 575q-3 61 -5.5 123t-2.5 124q0 30 6.5 45t40.5 15q17 0 36.5 -4.5t37 -13t31 -21t20.5 -29.5q4 -10 9.5 -68.5t12 -150.5t13 -207.5t13.5 -238.5t14 -244.5 t12.5 -225.5t10 -182t8.5 -113q0 -10 1.5 -20.5t1.5 -20.5zM156 -160q0 13 9 20.5t23 10.5t27.5 3h23.5q13 0 30.5 -0.5t33 -5t27 -14.5t11.5 -27q0 -6 -1 -27.5t-1.5 -46t-2.5 -45t-3 -21.5q-8 -14 -25 -16t-32 -2q-39 0 -58.5 4t-28 15.5t-12 32.5t-8.5 54q-3 16 -8 31.5 t-5 33.5z" />
<glyph unicode="&#x22;" horiz-adv-x="501" d="M212 1328q0 -90 -2.5 -180t-2.5 -179q0 -14 -1 -27.5t-4.5 -24.5t-13.5 -17q-10 -7 -26 -7q-43 0 -76.5 22.5t-39.5 68.5q-4 34 -5 65.5t-3 64.5q-6 62 -12 125t-6 125q0 26 11 40.5t38 14.5q22 0 47.5 -4t47 -14t35 -27t13.5 -46zM472 1328q0 -90 -2.5 -180t-2.5 -179 q0 -14 -1 -27.5t-4.5 -24.5t-13.5 -17q-10 -7 -26 -7q-43 0 -76.5 22.5t-39.5 68.5q-4 34 -5 65.5t-3 64.5q-6 62 -12 125t-6 125q0 26 11 40.5t38 14.5q22 0 47.5 -4t47 -14t35 -27t13.5 -46z" />
<glyph unicode="#" horiz-adv-x="747" d="M303 659l-16 -127q27 3 55 6q26 3 54 7l14 125q-26 -3 -53 -5.5t-54 -5.5zM334 945q0 -39 -6 -76.5t-10 -76.5l110 16l5 49l26 190q1 10 2 30.5t4.5 39.5t12 34t25.5 15q34 0 57.5 -27t23.5 -61q0 -62 -10 -130t-16 -130q22 3 42 4q22 1 44 1t39.5 -4.5t17.5 -31.5 q0 -10 -1.5 -18t-3.5 -16q-10 -34 -24 -49.5t-32.5 -21.5t-42.5 -4.5t-55 0.5l-10 -117q20 3 40.5 4t39.5 1q22 0 40 -6.5t18 -32.5q0 -12 -4 -27t-10.5 -30t-16 -27t-19.5 -18q-22 -10 -51 -8.5t-53 1.5q-1 -13 -4.5 -47.5t-7.5 -80t-9 -95t-10 -92.5t-9.5 -73t-8.5 -34 t-10 -7t-14 -3q-46 0 -75 29t-29 72t7.5 85.5t13.5 83.5l18 151q-27 -3 -53 -4.5t-53 -5.5q-6 -62 -13.5 -123.5t-15.5 -123.5q-4 -18 -11.5 -30t-27.5 -12q-17 0 -34.5 6.5t-32.5 17.5t-24.5 26t-9.5 33q0 47 10.5 95t17.5 95q-16 -3 -32.5 -4t-32.5 -1q-18 0 -28.5 7 t-10.5 27q0 30 10.5 48t27.5 28t39 14.5t46 8.5l18 132q-16 -3 -31.5 -4t-31.5 -1q-18 0 -28.5 7t-10.5 27q0 30 10.5 48t27.5 28.5t39 15.5q21 5 45 9l21 151q1 10 3 29.5t7 38.5t13 32.5t24 13.5q17 0 32 -8t24.5 -21t15.5 -29.5t6 -32.5z" />
<glyph unicode="$" horiz-adv-x="620" d="M389 -149q3 -74 1.5 -151t-9.5 -153q-3 -22 -13 -33.5t-34 -11.5q-18 0 -40 4t-42.5 13t-34 24t-13.5 37q0 16 1.5 29.5t3.5 28.5q8 55 14 110.5t12 110.5q-88 20 -133.5 84t-45.5 152q0 17 2 46.5t8.5 58t20 49t37.5 20.5q20 0 45 -12t40 -24q20 -12 28.5 -27t8.5 -38 q0 -26 -6.5 -50.5t-6.5 -50.5q0 -31 18 -54.5t52 -23.5q23 0 44.5 9.5t37 26.5t25.5 38.5t10 44.5q0 18 -4.5 35t-11.5 33q-58 138 -126 270q-70 132 -142 263q-27 53 -52.5 110t-25.5 119q0 42 14.5 78.5t39 67t58.5 52.5q32 23 70 36q-8 57 -15.5 115.5t-7.5 112.5 q0 34 13 44.5t44 10.5q12 0 31 -3.5t38.5 -9t34.5 -14.5q14 -9 18 -22q4 -8 5 -16t1 -16q0 -16 -2 -30t-4 -29v-138q30 -9 59 -25.5t50 -39t34 -52t13 -63.5q0 -42 -41 -41q-42 0 -64.5 16t-40 35.5t-35 36t-47.5 16.5q-23 0 -43 -10.5t-34 -28t-22 -39t-8 -42.5 q0 -49 24.5 -96t48.5 -88q49 -88 94 -176q44 -88 90 -178q17 -34 37.5 -70.5t38 -73.5t28.5 -75t11 -77q0 -46 -16.5 -85t-43.5 -70t-63.5 -53t-76.5 -34v-13z" />
<glyph unicode="%" horiz-adv-x="1254" d="M495 901q0 -38 -2.5 -86t-10.5 -98.5t-22.5 -99.5t-40 -88t-62.5 -62t-88 -23q-55 0 -92 24.5t-61 63.5t-38 86q-14 48 -20 93q-12 61 -17.5 124.5t-5.5 125.5t6 124t25 123q-4 6 -7 13.5t-3 15.5v7.5t2 10.5q13 31 32.5 61.5t45 54t57 38.5t68.5 15q53 0 91.5 -28 t64.5 -73.5t41.5 -103t23.5 -115t10.5 -111.5t2.5 -92zM350 857q0 26 -1.5 64.5t-5.5 81.5t-10.5 87.5t-15.5 86t-22.5 75.5t-30.5 55q-30 -44 -48 -82t-28 -76.5t-12.5 -80.5t-2.5 -94q0 -17 2 -54.5t6 -85t11 -98.5t17.5 -92.5t24.5 -68.5t32 -27q6 0 13 7.5t13 17.5 t11 20.5t8 16.5q22 58 30.5 121.5t8.5 125.5zM916 1205q0 -30 -12 -58.5t-24 -55.5q-104 -273 -201 -545.5t-189 -546.5q-4 -12 -11 -36.5t-15 -50.5t-16 -48q-6 -22 -12 -29q-8 -13 -26 -13q-13 0 -31 6t-33.5 15.5t-26.5 23.5t-11 28q0 12 15 58.5t40.5 118t58 160 t67.5 182t70 186t65 170.5t52 137t32 85l68 174q8 22 16 44.5t18 41.5q6 12 14 20.5t22 8.5q30 0 50 -24.5t20 -51.5zM1223 225q0 -38 -2.5 -86t-10.5 -98.5t-22.5 -99.5t-40 -88t-62 -62t-88.5 -23q-55 0 -92 24.5t-61 63.5t-38 86q-14 48 -20 93q-12 61 -17.5 124.5 t-5.5 125.5t6 124t25 123q-4 6 -7 13.5t-3 15.5v7.5t2 10.5q13 31 32.5 61.5t45 54t57 38.5t68.5 15q53 0 91.5 -28t64.5 -73.5t41.5 -103t23.5 -115t10.5 -111.5t2.5 -92zM1078 181q0 26 -1.5 64.5t-5.5 81.5t-10.5 87.5t-15.5 86t-22.5 75.5t-30.5 55q-30 -44 -48 -82 t-28 -76.5t-12.5 -80.5t-2.5 -94q0 -17 2 -54.5t6 -85t11 -98.5t17.5 -92.5t24.5 -68.5q12 -27 32 -27q6 0 13 7.5t13 17.5t11 20.5t8 16.5q22 58 30.5 121.5t8.5 125.5z" />
<glyph unicode="&#x26;" horiz-adv-x="761" d="M441 -43q-49 96 -93 194t-79 199q-23 -78 -42.5 -163t-19.5 -167q0 -18 2.5 -47.5t10.5 -57t23.5 -47.5t41.5 -20q21 0 43 12t42.5 28.5t39 35.5t31.5 33zM308 1003q10 32 21.5 67t20.5 72t14.5 74.5t5.5 72.5q0 10 -1.5 20.5t-8.5 20.5q-6 3 -10 3h-8h-8 q-10 -14 -15.5 -35t-8.5 -44.5t-3.5 -45.5t-0.5 -39v-49q0 -30 -0.5 -58.5t2.5 -58.5zM779 340q0 -49 -12.5 -104.5t-32.5 -110.5t-46 -105.5t-55 -90.5q5 -10 23.5 -40t37 -62.5t33.5 -60.5t15 -35q0 -12 -8.5 -19t-20 -11t-24.5 -5t-22 -1q-30 0 -51 8.5t-36.5 22.5 t-28.5 34.5t-27 43.5q-51 -46 -112 -75t-130 -29q-72 0 -120.5 26t-78.5 70t-43 101.5t-13 119.5q0 77 15 160t38.5 167t51.5 164t54 151q-23 124 -37.5 251.5t-14.5 253.5q0 55 6 110t27 99t62 72t110 28q44 0 82 -13t65.5 -37.5t43 -60.5t15.5 -81q0 -73 -19.5 -157 t-48.5 -170.5t-60.5 -169.5t-56.5 -153q30 -134 74 -260t103 -252q27 65 39.5 128.5t12.5 133.5q0 26 9.5 41.5t39.5 15.5q23 0 48 -5.5t46 -17.5t34 -30.5t13 -44.5z" />
<glyph unicode="'" horiz-adv-x="241" d="M212 1328q0 -90 -2.5 -180t-2.5 -179q0 -14 -1 -27.5t-4.5 -24.5t-13.5 -17q-10 -7 -26 -7q-43 0 -76.5 22.5t-39.5 68.5q-4 34 -5 65.5t-3 64.5q-6 62 -12 125t-6 125q0 26 11 40.5t38 14.5q22 0 47.5 -4t47 -14t35 -27t13.5 -46z" />
<glyph unicode="(" horiz-adv-x="495" d="M554 -399q0 -17 -17 -32.5t-40.5 -27t-47.5 -19t-38 -7.5q-26 0 -49.5 14t-43.5 34.5t-37.5 44t-30.5 43.5q-69 101 -112.5 212t-69 228t-35.5 237.5t-10 239.5q0 122 14 264t47 282.5t87.5 268.5t135.5 223q6 8 16 18t21 20t22.5 17t23.5 7q16 0 29 -9.5t22.5 -24.5 t15.5 -32t6 -30q0 -14 -13 -41.5t-30.5 -58t-34.5 -58.5t-26 -45q-39 -84 -66 -179t-43.5 -194.5t-24 -198.5t-7.5 -190q0 -104 8.5 -215t30 -221.5t59.5 -215t95 -193.5q22 -34 44.5 -61t56.5 -50q12 -10 27 -21t15 -29z" />
<glyph unicode=")" horiz-adv-x="494" d="M472 613q0 -121 -13.5 -262t-47 -281.5t-87.5 -268.5q-56 -128 -136 -223q-6 -8 -16 -19t-21.5 -21t-23 -16.5t-22.5 -6.5q-16 0 -29.5 10t-23 25t-15 31t-5.5 31q0 14 13 41t30 58t34 59t25 44q39 83 66.5 178t44 194.5t24.5 199t8 190.5q0 103 -8.5 214.5t-30 222.5 t-59 214t-95.5 192q-23 34 -45 62.5t-56 51.5q-12 10 -26.5 20t-14.5 29q0 17 16.5 32.5t39.5 27.5t46.5 19t37.5 7q26 0 50 -13.5t44 -34.5t37 -44.5t30 -42.5q68 -101 112.5 -213t70 -229t36 -237.5t10.5 -240.5z" />
<glyph unicode="*" horiz-adv-x="902" d="M452 805q-31 -32 -57.5 -57.5t-52 -49t-52 -47.5t-59.5 -54q-12 -12 -25.5 -19t-28.5 -7q-14 0 -36.5 8.5t-42.5 21.5t-34.5 29t-14.5 32q0 14 6 22.5t13 19.5q5 5 20 17.5t35.5 28.5t44.5 35t49 38q57 43 126 96q-66 23 -121 46q-23 9 -46 19t-42.5 18t-33.5 15.5 t-19 11.5q-20 14 -29.5 29t-9.5 38q0 13 5 34t15 41t23.5 35t28.5 15q17 0 57.5 -21.5t82.5 -47.5q49 -31 105 -69q-5 56 -9 108q-4 46 -6.5 93.5t-2.5 79.5q0 26 11 40.5t38 14.5q22 0 47.5 -4t47 -14.5t35 -28t13.5 -44.5q0 -30 -0.5 -73.5t-0.5 -85.5q-1 -48 -2 -99 q62 51 116 90q22 17 45 32.5t43 28t35 19.5t21 7q16 0 29 -15t23 -35t15.5 -41t5.5 -34q0 -44 -39 -67q-6 -4 -21 -12.5t-34.5 -19t-43 -22t-46.5 -23.5q-55 -27 -120 -59q70 -53 127 -96q25 -20 49 -38.5t44.5 -34.5t35 -28.5t20.5 -17.5q8 -10 14 -19t6 -23 q0 -16 -14.5 -32t-35 -29t-42.5 -21.5t-35 -8.5q-18 0 -32 7t-25 19q-32 30 -59 54t-52.5 47.5t-51.5 49t-56 57.5z" />
<glyph unicode="+" horiz-adv-x="690" d="M429 220q0 -26 -21 -32.5t-41 -6.5q-58 0 -93 20t-35 87v257q-42 -3 -84 -3h-85q-16 0 -31.5 7.5t-15.5 26.5q0 36 25 56t59.5 27.5t71.5 9t63 3.5q1 30 0.5 75.5t-0.5 92.5t2 90.5t8 69.5q4 18 13 26t29 8q46 0 68.5 -19.5t31 -49t8.5 -64.5t1 -67l3 -151q51 4 102.5 7 t102.5 3q22 0 39.5 -6.5t17.5 -32.5q0 -18 -9 -39.5t-19 -35.5q-18 -26 -47 -28.5t-55 -2.5l-130 -3q0 -74 1.5 -149.5t16.5 -149.5q0 -6 1.5 -12t1.5 -14z" />
<glyph unicode="," horiz-adv-x="304" d="M248 -175q0 -81 -26 -155.5t-72 -141.5q-6 -8 -13.5 -19t-17 -20.5t-19.5 -16t-21 -6.5q-14 0 -33 11t-35 26.5t-27 34t-11 32.5q0 10 7.5 24t17.5 27.5t20.5 26.5t16.5 23q17 30 26 56t13 51.5t6 52t7 59.5q3 23 15 29.5t34 6.5q53 0 82.5 -20t29.5 -81z" />
<glyph unicode="-" horiz-adv-x="566" d="M554 706q0 -18 -8 -34q-8 -22 -15 -36t-17.5 -22t-25.5 -11t-38 -3h-354q-9 0 -22.5 0.5t-27.5 3.5t-23.5 10.5t-9.5 21.5q0 31 22 55t53 31q26 4 52 4.5t52 3.5q74 4 148.5 8.5t150.5 4.5q9 0 20.5 -1t21 -4t15.5 -11t6 -21z" />
<glyph unicode="." horiz-adv-x="283" d="M46 -160q0 13 9 20.5t22.5 10.5t27 3h24.5q13 0 30.5 -0.5t33 -5t26.5 -14.5t11 -27q0 -6 -0.5 -27.5t-1 -46t-1.5 -45t-2 -21.5q-10 -14 -26.5 -16t-30.5 -2q-40 0 -60 4t-29 15.5t-11 32.5t-7 54q-4 16 -9.5 31.5t-5.5 33.5z" />
<glyph unicode="/" horiz-adv-x="616" d="M586 1494q0 -47 -12 -92q-12 -44 -22 -90q-42 -192 -79 -382.5t-79 -384.5q-39 -194 -82 -386.5t-77 -385.5q-3 -18 -5 -39t-9 -40t-20 -31t-36 -12q-18 0 -43.5 7t-48 19.5t-38 30t-15.5 39.5q0 8 1 15.5t1 15.5q20 94 42 187.5t44 186.5l257 1152q5 21 12.5 60.5 t16 80.5t17.5 77.5t17 52.5q8 14 15.5 20t23.5 6q21 0 42 -8.5t39 -23t28 -34t10 -41.5z" />
<glyph unicode="0" horiz-adv-x="887" d="M341 1203q-23 -56 -37.5 -121t-22.5 -132.5t-10.5 -134.5t-2.5 -127q0 -22 2 -72t7 -116t13 -142.5t18 -154t24 -148t31.5 -125t38 -88t45.5 -33.5q17 0 32 17t26.5 40.5t20 47t12.5 36.5q39 124 54.5 249t15.5 255q0 96 -4.5 203.5t-16 214.5t-32.5 211t-53 195 q-10 30 -23.5 60t-36.5 52q-3 -3 -18.5 -30t-33 -59.5t-32 -62t-17.5 -35.5zM806 542q0 -44 -1.5 -105.5t-6 -133t-14 -147t-26.5 -148.5t-43 -138t-63 -113.5t-86.5 -77t-113.5 -28.5q-61 0 -107.5 25t-81 66.5t-59.5 95t-41 111t-26.5 114t-16.5 102.5 q-18 124 -27.5 247.5t-9.5 249.5t10.5 253t44.5 246q-8 12 -14.5 23.5t-6.5 26.5q0 8 1.5 13.5t3.5 12.5q17 52 45.5 109t68.5 104.5t90.5 78t112.5 30.5q55 0 98 -21t75.5 -56t56 -79.5t39.5 -94t27 -99t19 -92.5q26 -143 39 -286t13 -289z" />
<glyph unicode="1" horiz-adv-x="492" d="M395 -251q0 -30 -20.5 -39.5t-46.5 -9.5q-20 0 -47 5t-47 13q-26 12 -37.5 27.5t-16 35t-4.5 41t-2 44.5q-23 400 -37.5 795.5t-14.5 796.5q0 26 8 41.5t39 15.5q35 0 72 -17t53 -51q5 -10 7 -35t3.5 -52t1.5 -53.5t1 -41.5q10 -335 23 -668t47 -668q4 -46 11 -90t7 -90z " />
<glyph unicode="2" horiz-adv-x="757" d="M693 -165q0 -18 -4 -37.5t-12 -35.5q-9 -22 -33 -32t-53 -13.5t-59 -3t-50 -0.5q-55 -4 -109.5 -9t-108.5 -9q-17 -34 -52 -34q-10 0 -26 4.5t-32 11.5t-30 15.5t-19 17.5q-14 10 -22.5 24.5t-8.5 33.5q0 30 13 56t23 53q73 185 139.5 368.5t128.5 372.5q21 61 41 124 t36 126.5t25.5 128.5t9.5 130q0 21 -3 59t-13 75t-28 63.5t-50 26.5q-20 0 -40.5 -11.5t-39 -28.5t-33.5 -36.5t-24 -35.5q-22 -35 -39 -74.5t-29 -78.5q-4 -20 -7 -38.5t-11 -37.5q-6 -14 -14.5 -20t-24.5 -6q-21 0 -42.5 7.5t-39 20.5t-29 31.5t-11.5 42.5q0 34 13.5 67.5 t25.5 64.5q25 56 57 107t75 90t96.5 61.5t119.5 22.5q83 0 138 -34.5t86.5 -89t44 -123.5t12.5 -138q0 -118 -28.5 -252.5t-71.5 -271t-92 -268.5t-89 -242l-78 -227l289 39q8 0 14 1.5t14 1.5q30 0 42.5 -16.5t12.5 -43.5z" />
<glyph unicode="3" horiz-adv-x="873" d="M815 314q0 -68 -8.5 -143t-28 -148t-50.5 -141t-78.5 -119t-111.5 -81.5t-147 -30.5q-55 0 -106 14t-97 45q-32 22 -60 55t-49 71t-32.5 79t-11.5 81q0 55 57 55q23 0 58 -6t57 -17q20 -10 29.5 -24t15 -29.5t10 -34t12.5 -35.5q16 -38 47 -65.5t73 -27.5q44 0 79 30 t60.5 77t43 106.5t28.5 118t15.5 109.5t4.5 84q0 48 -7 104.5t-28 104.5t-58.5 79.5t-98.5 28.5h-16q-9 -10 -20 -25t-23.5 -28.5t-26.5 -22.5q-15 -10 -29 -10q-20 0 -39 11t-34.5 28t-25.5 38t-10 40v11.5t3 9.5q20 39 53.5 73.5t60.5 69.5q29 39 59.5 86.5t54.5 99 t39.5 104.5t15.5 103q0 32 -7 60t-22.5 49.5t-41 34t-61.5 12.5q-30 0 -53 -12.5t-39 -32t-26 -45t-15 -51.5q-6 -20 -6 -39.5t-7 -38.5q-6 -18 -15.5 -24.5t-28.5 -6.5q-22 0 -44 6.5t-39.5 19.5t-29.5 32t-12 44q0 39 16.5 83t38.5 78q43 69 113.5 103.5t151.5 34.5 q72 0 131 -21.5t102 -62t66 -98.5t23 -130q0 -61 -13.5 -120t-37 -114.5t-54 -109t-64.5 -101.5q86 -18 142.5 -65.5t90.5 -114t47.5 -144t13.5 -154.5z" />
<glyph unicode="4" horiz-adv-x="751" d="M358 423q-8 118 -14.5 232.5t-14.5 230.5q-34 -112 -71 -231t-59 -235h34h62.5t62.5 3zM584 -269q0 -27 -8 -39.5t-39 -12.5q-18 0 -37 4t-36.5 12.5t-31 21t-20.5 30.5q-5 9 -9.5 46.5t-9 89t-9 110.5t-8 113t-6 95.5t-2.5 57.5q-27 0 -54.5 -1.5t-54.5 -1.5 q-30 0 -75.5 2t-88.5 12.5t-73.5 34t-30.5 66.5q0 46 13.5 91t25.5 88q61 214 130 422.5t135 420.5q-4 38 -8.5 75.5t-4.5 74.5q0 31 20 40.5t48 9.5q22 0 49 -6.5t50.5 -19.5t40 -33t16.5 -48q0 -8 -3 -14.5t-3 -13.5q0 -74 5 -149.5t9 -149.5l36 -718q42 4 83.5 11t80.5 7 q26 0 41.5 -11t15.5 -38q0 -52 -18.5 -79t-48 -39t-68 -14.5t-78.5 -5.5l15 -294q3 -61 7 -123t4 -124z" />
<glyph unicode="5" horiz-adv-x="843" d="M781 485q0 -62 -3.5 -150t-16.5 -182t-37.5 -187.5t-66.5 -167t-104 -120t-149 -46.5q-72 0 -127.5 25t-97 68t-69.5 100t-41 122q-4 23 -8.5 46.5t-4.5 47.5q0 31 12.5 51.5t47.5 20.5q17 0 40 -5t44.5 -14.5t39.5 -23.5q18 -15 26 -32q13 -27 18.5 -68t16.5 -80 t34 -66.5t69 -27.5q38 0 66 47t48 119.5t34 161t21 170.5t10 148.5t3 94.5q0 29 -2 76.5t-8.5 101.5t-19.5 108.5t-33 98t-50 71.5t-71 28q-48 0 -94 -29q3 -10 4 -19t1 -20q0 -60 -62 -60q-8 0 -17 1.5t-17 1.5q-13 -6 -32 0t-37 18t-32 27t-18 28q-10 39 -9 80.5t1 80.5 q0 53 -3 105t-5 106q-4 4 -6 10.5t-2 12.5q0 32 4.5 57t17 40.5t35 23.5t60.5 9q57 3 112 6t112 10q27 4 53 8.5t56 4.5q26 0 35 -16t9 -39q0 -26 -6 -47t-28 -36q-10 -6 -47 -14t-80.5 -15.5t-84 -12t-56.5 -5.5l21 -190q31 10 62.5 14t62.5 4q82 0 142 -33.5t101 -89 t65.5 -126t38 -147t18 -150.5t4.5 -135z" />
<glyph unicode="6" horiz-adv-x="802" d="M296 277q3 -26 7.5 -67t12.5 -88.5t19 -96.5t26 -93t34.5 -76t43.5 -47q27 3 47.5 29t35 64t22.5 84t13 90.5t6 82.5t1 58q0 25 -2 72.5t-7 104.5t-13.5 118.5t-22 112.5t-33 87.5t-47.5 45.5q-40 -31 -66.5 -87t-43 -120.5t-23.5 -128t-7 -111.5v-18t-3 -16zM764 220 q0 -51 -4.5 -112.5t-16.5 -125.5t-35 -123t-58 -106t-85.5 -74.5t-119.5 -27.5q-70 0 -123.5 38t-93.5 100.5t-66.5 140.5t-42.5 157.5t-23.5 152t-7.5 123.5q0 35 1.5 70t1.5 73q0 259 54 495.5t159 471.5q4 10 10.5 26.5t16.5 32t21 26.5t25 11q17 0 35 -9t33 -22.5 t24 -31.5t9 -35q0 -16 -10 -48.5t-24 -69.5t-28 -71.5t-21 -52.5q-27 -86 -50 -172t-38 -174q27 20 59 29.5t66 9.5q79 0 135 -36.5t93 -95.5t57.5 -134.5t31 -153.5t13 -152t2.5 -130z" />
<glyph unicode="7" horiz-adv-x="638" d="M568 1426q0 -32 -8 -67q-27 -188 -49.5 -374.5t-41.5 -374.5q-20 -194 -36.5 -387.5t-36.5 -387.5l-7 -91q-3 -16 -4 -32.5t-6.5 -30t-17 -22t-32.5 -8.5q-14 0 -37 5.5t-45.5 16t-41.5 24t-24 29.5q-3 10 -4 20t-1 22q0 31 7 63.5t11 63.5q6 46 12 90q4 44 8 89 q22 196 42.5 390t46.5 388q18 130 37 256t38 256q-84 -6 -169 -11t-171 -5q-10 0 -22.5 1t-23 5t-17.5 11.5t-7 21.5q0 49 29 75t75 32q38 6 75.5 9t74.5 7q74 8 152 24.5t152 16.5q31 0 39 -23.5t8 -46.5q0 -14 -2.5 -27.5t-2.5 -27.5z" />
<glyph unicode="8" horiz-adv-x="871" d="M447 662q-10 -10 -20.5 -19.5t-20.5 -19.5q-32 -36 -53 -91.5t-33.5 -116.5t-18 -121.5t-5.5 -107.5q0 -20 1.5 -56.5t6 -81t13 -90.5t22 -84t33 -62t47.5 -24q43 0 74.5 26t53.5 67t36 93t21 103.5t9.5 98.5t2.5 78q0 49 -1 102.5t-11 104t-30 98t-57 85.5 q-17 21 -36 28zM348 818q35 16 71 16q23 27 40.5 66t29 82t17.5 85.5t6 78.5q0 25 -4 58.5t-12 68t-22 64.5t-32 48q-9 -10 -14.5 -21.5t-11 -20t-15.5 -13.5t-27 -5q-10 0 -20.5 3.5t-20.5 6.5q-27 -57 -39.5 -129t-12.5 -133q0 -25 4 -62t11.5 -74.5t20.5 -70t31 -48.5z M806 259q0 -64 -6 -134.5t-21.5 -140.5t-42 -133.5t-69.5 -112t-103.5 -77.5t-142.5 -29q-72 0 -123 25.5t-87.5 69t-59 99.5t-35.5 117t-17.5 123t-4.5 115q0 68 5 137.5t18.5 136.5t38.5 130.5t65 120.5q-38 30 -62.5 71.5t-39 88.5t-20 96.5t-5.5 94.5q0 53 7 110.5 t22.5 113.5t40 107t60.5 93q5 8 14.5 18.5t20.5 19.5t23 15.5t22 6.5q21 0 31 -11q23 12 51.5 20.5t55.5 8.5q77 0 129 -40.5t83 -101.5t44.5 -132.5t13.5 -133.5q0 -47 -6.5 -96.5t-20 -98t-33.5 -94t-46 -83.5q64 -42 103 -101.5t60 -129t29 -144.5t8 -145z" />
<glyph unicode="9" horiz-adv-x="800" d="M506 938l-7.5 67.5t-12.5 86.5t-19 93.5t-26 89.5t-34.5 74.5t-43.5 48.5q-29 -4 -48.5 -29.5t-34 -64.5t-22.5 -85.5t-13 -91.5t-6 -83.5t-1 -59.5q0 -25 2 -70t7 -100.5t14 -113.5t23 -108t33.5 -84t45.5 -41q40 29 66.5 83t43 116t23.5 125t7 110v19.5t3 17.5z M714 862q0 -38 -1.5 -75t-1.5 -76q0 -254 -55 -488t-158 -466q-5 -10 -11.5 -25.5t-16.5 -30.5t-22 -26t-26 -11q-18 0 -35.5 9t-31 24t-22.5 32.5t-9 35.5q0 13 9 41t20.5 59t24 60t18.5 45q31 90 54.5 182.5t42.5 184.5q-57 -36 -120 -36q-82 0 -138 35.5t-93.5 94 t-58.5 134t-31 153t-12 151.5t-2 131q0 51 5 112t18 122.5t35 119t58 102t86 71.5t118 27q69 0 122 -37t92.5 -97t66.5 -136t43.5 -152.5t24 -147.5t7.5 -122z" />
<glyph unicode=":" horiz-adv-x="392" d="M100 -160q0 13 9 20.5t23 10.5t27.5 3h23.5q13 0 30.5 -0.5t33.5 -5t27 -14.5t11 -27q0 -6 -1 -27.5t-1.5 -46t-0.5 -45.5q0 -20 -2 -21q-10 -14 -26.5 -16t-31.5 -2q-40 0 -59.5 4t-28.5 15.5t-11 32.5t-7 54q-4 16 -10 31.5t-6 33.5zM100 620q0 13 9 20.5t23 10.5 t27.5 3h23.5q13 0 30.5 -0.5t33.5 -5t27 -14.5t11 -27q0 -6 -1 -27.5t-1.5 -46t-0.5 -45.5q0 -20 -2 -21q-10 -14 -26.5 -16t-31.5 -2q-40 0 -59.5 4t-28.5 15.5t-11 32.5t-7 54q-4 16 -10 31.5t-6 33.5z" />
<glyph unicode=";" horiz-adv-x="390" d="M287 -175q0 -81 -26 -155q-27 -75 -73 -142q-6 -8 -13 -19t-16 -20.5t-19.5 -16t-21.5 -6.5q-14 0 -33 11t-35 26.5t-27 34t-11 32.5q0 10 7.5 24t17.5 27.5t20.5 26.5t16.5 23q17 30 26 56t13 51.5t6 52t7 59.5q3 23 15 30q13 6 35 6q53 0 82 -20t29 -81zM103 620 q0 13 9 20.5t22.5 10.5t27.5 3h24q13 0 30.5 -0.5t33 -5t26.5 -14.5t11 -27q0 -6 -0.5 -27.5t-1 -46t-2.5 -45.5q-1 -20 -3 -21q-8 -14 -25 -16t-33 -2q-39 0 -58.5 4t-28 15.5t-11.5 32.5t-8 54q-3 16 -8 31.5t-5 33.5z" />
<glyph unicode="&#x3c;" horiz-adv-x="582" d="M547 178q0 -14 -14 -23.5t-33.5 -15.5t-40 -8t-31.5 -2q-23 0 -40.5 9t-32.5 27q-16 17 -46.5 55.5t-67.5 86.5t-76 102t-71 103t-52 87t-20 58q0 34 19.5 64.5t35.5 57.5l189 354q5 12 14 29t18.5 33t22 27.5t26.5 11.5t28.5 -8t26 -19.5t19 -26t7.5 -27.5 q0 -22 -8 -39.5t-16 -35.5q-53 -105 -106.5 -210.5t-106.5 -210.5q22 -44 56 -93t72.5 -97.5t77.5 -95t72 -83.5q9 -10 22 -23.5t25.5 -27.5t21.5 -30t9 -29z" />
<glyph unicode="=" horiz-adv-x="694" d="M618 836q0 -18 -8 -34q-8 -22 -15 -36t-17.5 -22t-25.5 -11q-14 -3 -38 -3h-354q-9 0 -22.5 0.5t-27.5 3.5t-23.5 10.5t-9.5 21.5q0 31 22 55t53 31q26 4 52 4.5t52 3.5q74 4 148 8.5t151 4.5q9 0 20 -1t21 -4t16 -11t6 -21zM625 542q0 -13 -6.5 -28.5t-16 -30.5 t-21.5 -26.5t-23 -15.5q-10 -3 -18 -3h-19q-39 0 -78 3t-78 3q-57 0 -114 -3t-115 -3q-10 0 -20.5 1t-19 4t-14 9.5t-5.5 19.5q0 34 20.5 57t52.5 29q26 6 52.5 7t53.5 3q66 6 134 9.5t136 3.5q9 0 26 -0.5t33.5 -4.5t28 -12t11.5 -22z" />
<glyph unicode="&#x3e;" horiz-adv-x="581" d="M558 706q0 -16 -6 -31.5t-14.5 -30t-18 -29.5t-16.5 -28l-190 -354q-6 -12 -14 -29.5t-17.5 -34.5t-22 -28.5t-26.5 -11.5t-28.5 8t-26.5 19.5t-19 26.5t-7 29q0 20 8 38.5t16 34.5q53 108 106 212t107 212q-22 44 -56 92.5t-72.5 97.5t-78.5 95t-72 84l-22 22t-25 27.5 t-21.5 28.5t-9.5 29q0 16 14.5 25.5t34 14.5t39.5 7t32 2q23 0 40 -9t33 -25q16 -18 46.5 -56.5t67.5 -86.5t76 -102t70.5 -102.5t52 -87.5t20.5 -59z" />
<glyph unicode="?" horiz-adv-x="821" d="M742 1099q0 -104 -11 -210t-49 -204q-23 -61 -61.5 -126.5t-74.5 -133t-63 -134.5t-27 -131q0 -16 1.5 -30t1.5 -30q0 -34 -13 -56t-52 -22q-22 0 -53.5 8t-50.5 18q-31 16 -40.5 37.5t-9.5 56.5q0 68 20 131t49.5 122t65 116t66.5 115q61 114 83.5 240t22.5 256 q0 26 -3 62.5t-11 75.5t-20.5 78t-31.5 69.5t-46 49.5t-62 19q-43 0 -70 -27.5t-43 -66.5t-21.5 -82.5t-5.5 -75.5q0 -36 11.5 -75t26 -71t26 -55t11.5 -28q0 -13 -11 -21t-26.5 -12.5t-31 -6.5t-25.5 -2q-49 0 -81 30t-50 73.5t-25 93t-7 87.5q0 73 18 143t57 124.5 t98 88.5t141 34q113 0 186 -47.5t116 -123t59 -169.5t16 -188zM272 -160q0 13 9 20.5t22.5 10.5t27 3h24.5q13 0 30.5 -0.5t33 -5t26.5 -14.5t11 -27q0 -6 -0.5 -27.5t-1 -46t-2.5 -45t-4 -21.5q-8 -14 -24.5 -16t-32.5 -2q-39 0 -58.5 4t-28 15.5t-11.5 32.5t-8 54 q-3 16 -8 31.5t-5 33.5z" />
<glyph unicode="@" horiz-adv-x="711" d="M385 789q-34 -22 -55 -56.5t-33 -74t-16.5 -81.5t-4.5 -79v-18t2 -18q18 27 35 69.5t31 88.5t24.5 90.5t16.5 78.5zM671 795q0 -25 -3.5 -64t-11 -83t-20.5 -90t-32 -82t-45 -59t-60 -23q-39 0 -61 29.5t-30 64.5q-9 -22 -20 -46t-26.5 -44.5t-35.5 -34t-48 -13.5 q-31 0 -52 14.5t-32.5 37t-16.5 49t-5 52.5q0 52 8 107.5t28.5 106t53 93t81.5 70.5q16 10 31.5 17t33.5 9q8 16 21 26.5t31 10.5q20 0 31.5 -8.5t18 -21.5t8.5 -29.5t2 -31.5q0 -70 -10.5 -140.5t-10.5 -140.5q0 -12 1.5 -23.5t3.5 -23.5q14 23 25.5 57.5t18.5 72 t10.5 73.5t3.5 65q0 36 -6 78t-21.5 77.5t-44 59.5t-74.5 24t-83 -23.5t-65.5 -61t-48.5 -85.5t-33.5 -97.5t-20 -97t-6.5 -82.5q0 -36 5 -89.5t21.5 -103.5t45.5 -86t78 -36q23 0 45 9.5t40.5 21t33 20.5t24.5 9t18 -9t13.5 -21.5t8 -25.5t2.5 -22q0 -26 -21.5 -44 t-51.5 -30.5t-61 -18.5t-51 -6q-52 0 -91.5 20.5t-69.5 53.5t-49.5 77t-31.5 91.5t-17.5 95t-5.5 89.5q0 53 9 115.5t28 125t49 120t71 102.5t94 71.5t118 26.5q72 0 121.5 -31t80 -80.5t43.5 -111t13 -122.5z" />
<glyph unicode="A" horiz-adv-x="964" d="M1017 415q0 -27 -19.5 -57t-43.5 -44q-6 -4 -22 -8t-33.5 -7.5t-33.5 -6.5t-25 -4l31 -193q14 -90 21.5 -180t33.5 -179q3 -8 5 -14t2 -17q0 -17 -9.5 -26t-23 -13.5t-29.5 -6t-29 -1.5h-18q-40 0 -61.5 6.5t-33 22.5t-15.5 40t-9 59q-31 238 -71 476q-81 -10 -162 -19.5 t-163 -17.5l-41 -255q-3 -23 -7.5 -63.5t-10.5 -82.5t-13 -78.5t-16 -53.5q-8 -16 -14.5 -22t-24.5 -6q-23 0 -46 8t-40.5 23t-28 36t-10.5 47t6 52t10 52q14 86 25.5 171t26.5 170q-9 1 -21 4t-23 8.5t-18.5 13t-7.5 18.5q0 13 9.5 24t23 20.5t28 17t24.5 11.5 q27 182 52 362.5t45 365.5q5 49 9 99.5t8.5 101.5t11.5 100.5t20 98.5q12 47 39 75.5t81 28.5q16 0 30.5 -2.5t26.5 -10.5q34 -17 70 -92.5t72.5 -182.5t69.5 -232t60.5 -242t47 -211t28.5 -140q27 4 54.5 7.5t54.5 3.5q13 0 30 -1.5t32 -7.5t25 -17t10 -29zM608 425 q-34 185 -73.5 366.5t-92.5 361.5q-23 -196 -50.5 -389.5t-58.5 -387.5q70 10 138 22.5t137 26.5z" />
<glyph unicode="B" horiz-adv-x="1006" d="M978 210q0 -152 -49 -265.5t-136 -189t-207.5 -112.5t-263.5 -37h-44q-13 0 -39 1t-52.5 5.5t-46.5 15t-20 28.5q0 21 9.5 41t25 36t35 27.5t39.5 14.5q-10 13 -15.5 35.5t-9.5 47t-6 48.5t-3 41q-23 202 -40 402t-17 404q0 130 4 257.5t6 257.5q3 53 2.5 105t2.5 105 q-8 -3 -17 -2.5t-19 0.5q-20 0 -38.5 7t-18.5 34q0 34 14 55t36.5 32t50 14t55.5 3q125 0 242 -31t206.5 -96t144 -165.5t54.5 -240.5q0 -114 -41.5 -218t-122.5 -185q73 -31 126 -81t86.5 -112.5t50 -134.5t16.5 -147zM666 1107q0 78 -25 138.5t-69 105t-105 72.5t-134 42 q3 -6 2.5 -11.5t-0.5 -8.5q0 -124 -2.5 -244t-2.5 -243v-135q0 -26 1.5 -52.5t1.5 -53.5q34 14 68.5 14.5t69.5 0.5q98 61 146.5 161t48.5 214zM783 212q0 62 -11.5 121t-38.5 107.5t-71 83.5t-111 52q-99 -56 -210 -75q10 -147 25 -293.5t42 -291.5q6 -34 15 -67t11 -68 q87 12 153 48.5t109.5 93.5t65 131t21.5 158z" />
<glyph unicode="C" horiz-adv-x="1056" d="M1067 85q0 -20 -5.5 -38.5t-12.5 -37.5q-29 -74 -70.5 -137t-96 -108.5t-123.5 -71.5t-152 -26q-110 0 -189.5 47t-135.5 121.5t-91.5 167t-56.5 184.5q-31 134 -48 268.5t-17 269.5q0 79 7 164t25.5 167.5t49.5 159.5t78 143t111 116.5t150 79.5q31 12 65 16.5t68 4.5 q68 0 128.5 -22.5t107 -62.5t73 -97.5t26.5 -127.5q0 -23 -10.5 -35t-36.5 -12q-48 0 -74.5 16t-43.5 39t-28 50.5t-26.5 51t-41.5 39t-72 15.5t-85.5 -17.5t-72.5 -46t-59.5 -64.5t-47.5 -72q-55 -101 -77 -216.5t-22 -230.5q0 -39 3.5 -101t10.5 -136t20 -156.5t32 -162 t45.5 -152t61 -127.5t78 -87.5t98.5 -32.5q56 0 98.5 29.5t73 74.5t50.5 97q20 53 32 98q4 13 7.5 23.5t9.5 18.5t15 12t26 4q18 0 43.5 -7.5t48 -20.5t38 -31t15.5 -40z" />
<glyph unicode="D" horiz-adv-x="1040" d="M1005 631q0 -139 -24.5 -273.5t-81.5 -251.5t-149 -212.5t-226 -157.5q-34 -16 -73.5 -28.5t-82 -21.5t-84 -14.5t-77.5 -5.5q-14 0 -32 1t-33.5 5.5t-26 14.5t-10.5 29q0 16 6.5 32.5t17.5 32t24 28t28 18.5q-6 10 -12.5 58.5t-11 122.5t-8 166t-7 189t-5.5 194t-3 179 t-2 142.5t-1 87.5q0 122 4 240.5t4 240.5q-14 0 -26.5 8t-12.5 23q0 21 10.5 38.5t26.5 30.5t36.5 20.5t38.5 7.5t35 -3.5t35 -7.5q173 -42 308 -126t227 -205t140 -273t48 -329zM812 654q0 130 -31 245t-92.5 210.5t-154.5 168.5q-94 74 -216 122v-5q0 -335 11.5 -664.5 t33.5 -663.5q4 -51 7 -101t11 -100q122 40 205.5 125t133.5 193.5t71 231t21 238.5z" />
<glyph unicode="E" horiz-adv-x="968" d="M998 -17q0 -22 -17.5 -42.5t-42 -40t-50.5 -36t-43 -26.5q-44 -29 -87.5 -53.5t-90 -43t-95 -28.5t-101.5 -10l-21 -3q-43 0 -85.5 10t-78.5 30t-65 51t-44 75q-12 35 -18.5 83.5t-9.5 100.5t-5 102t-4 89q-20 398 -31 795q-3 46 -4 91.5t-1 90.5q0 78 9 133t36.5 90 t79 50.5t135.5 15.5t169.5 -1.5t171.5 -1.5q26 0 52 2t52 -4q16 -3 27.5 -8.5t11.5 -25.5q0 -47 -31.5 -69.5t-74.5 -30.5t-89 -7.5t-76 0.5h-169h-52t-52 -2q-8 -20 -10.5 -40.5t-2.5 -42.5q0 -142 7.5 -280t13.5 -279q81 6 160 15t160 21q12 0 21.5 1.5t19.5 1.5 q27 0 38.5 -14.5t11.5 -40.5q0 -18 -2 -33.5t-9 -31.5q-9 -26 -29.5 -37.5t-46.5 -16t-54 -4.5t-49 -2q-55 -3 -107.5 -4t-105.5 -4q1 -27 3.5 -81.5t6 -123t8 -141t9.5 -137t11.5 -112.5t13.5 -65q14 -27 32 -35.5t48 -8.5q48 0 101.5 19t104 48t97 64t80.5 69 q14 12 28.5 24t33.5 12q20 0 38 -11.5t32.5 -29t22.5 -38.5t8 -38z" />
<glyph unicode="F" horiz-adv-x="826" d="M849 1468q0 -39 -21 -61t-52 -32.5t-66 -13t-64 -2.5q-57 0 -114.5 1t-114.5 1h-54.5t-54.5 -2q-10 -22 -13 -45t-3 -46q0 -122 9.5 -242t19.5 -242q78 6 156 15.5t159 21.5q10 0 19 1t20 1q52 0 52 -57q0 -16 -3.5 -31.5t-9.5 -30.5q-9 -26 -30 -38.5t-47 -17t-54 -4 t-49 -0.5l-202 -8q8 -124 17 -244.5t19 -244.5q10 -94 17.5 -188.5t21.5 -188.5v-21q0 -30 -17 -39.5t-43 -9.5q-48 0 -91 16q-29 10 -43 25t-20 34t-7 41t-3 48q-12 196 -26 390.5t-26 391.5q-8 146 -17 289t-9 289q0 77 10 130.5t37 87.5t78 49.5t133 15.5 q84 0 167.5 -1.5t167.5 -1.5q30 0 57.5 2t54.5 -4q16 -3 27.5 -8.5t11.5 -25.5z" />
<glyph unicode="G" horiz-adv-x="1128" d="M1093 633q0 -42 -15 -64.5t-39.5 -34t-55 -14t-61.5 -4.5q70 -73 111.5 -167.5t41.5 -196.5q0 -100 -33.5 -195.5t-96 -169.5t-150 -119.5t-193.5 -45.5q-84 0 -152 32.5t-121 89t-93.5 131.5t-69 160t-47.5 176t-30 178t-15.5 165.5t-4.5 141.5q0 73 7 156t24 167.5 t45.5 165t73 149t105 119.5t140.5 77q30 10 60 15.5t60 5.5q130 0 216 -70q88 -70 130 -190q8 -18 13 -37t5 -38q0 -23 -17 -30t-35 -7q-47 0 -75.5 17t-48 42t-34.5 54.5t-33.5 54.5t-45.5 42t-73 17q-65 0 -114.5 -36.5t-85.5 -96t-61 -134t-39 -149t-20.5 -143.5 t-6.5 -117q0 -51 6.5 -140.5t21.5 -195t40 -214t63.5 -197t91 -144.5t122.5 -56q61 0 110.5 36t84 90t53 115.5t18.5 114.5q0 51 -14.5 101t-40.5 95t-62.5 83.5t-80.5 64.5q-16 10 -34.5 18.5t-38.5 14.5q-10 1 -40 3.5t-61 6t-56 12t-25 25.5q0 23 8 48t23 44.5t35 32.5 t46 13q38 0 81.5 -11t77.5 -25q65 4 128.5 8.5t125.5 11.5q22 3 44 7t45 4q31 0 46.5 -14.5t15.5 -48.5z" />
<glyph unicode="H" horiz-adv-x="1129" d="M1089 711q0 -58 -29.5 -82t-84.5 -35q12 -200 15 -397.5t3 -397.5q0 -31 -13 -48t-47 -17q-29 0 -56.5 6.5t-49.5 20t-36 36.5t-14 56v406v153.5t-2 153.5q-112 -16 -224 -27t-223 -15q4 -277 15 -554q4 -57 8.5 -111.5t4.5 -109.5q0 -26 -14 -39t-40 -13q-20 0 -42 3.5 t-43.5 11.5t-39.5 19.5t-29 28.5q-4 6 -6.5 38.5t-4.5 82t-3 112t-1 129v130.5v118.5v95v56.5q-18 0 -32.5 8t-14.5 28q0 23 13.5 44.5t33.5 36.5v785q0 26 9.5 41.5t36.5 15.5q44 0 71 -13t40.5 -35.5t18 -54.5t6.5 -69q4 -159 5 -317t5 -317q112 10 222.5 21.5t222.5 33.5 q-6 138 -16 273t-29 273q-10 65 -24.5 129t-14.5 131q0 23 18 29.5t37 6.5q31 0 63 -10.5t51 -36.5q12 -17 25 -71t24 -128t21.5 -159.5t18.5 -164.5t13.5 -142t7.5 -91q16 4 32.5 7t32.5 3q31 0 45 -19t14 -49z" />
<glyph unicode="I" horiz-adv-x="863" d="M857 -113q0 -38 -19.5 -71t-53.5 -48q-10 -5 -50.5 -10t-87.5 -8.5t-89 -7.5t-59 -6q-4 -22 -21 -30.5t-36 -8.5q-22 0 -51 6.5t-51 14.5q-58 -8 -118 -17t-121 -9q-47 0 -47 44t25 67.5t60 35.5t75.5 16t71.5 9q-6 369 -13.5 733t-7.5 733q-53 -4 -104 -7 q-52 -3 -102 -3q-10 0 -21.5 0.5t-21.5 4t-17 10.5t-7 21q0 25 10.5 44t28 31t38 20t42.5 12q56 10 114 17.5t116 14.5t116 14.5t115 20.5q55 12 109 31t112 19q31 0 41.5 -23t10.5 -50q0 -22 -4.5 -42t-19.5 -39q-8 -10 -34.5 -20t-63.5 -17.5t-79 -14.5t-82 -13t-72.5 -10 t-47.5 -5q14 -181 20 -361.5t9.5 -361.5t7.5 -361.5t15 -361.5q74 12 149.5 23t151.5 11q22 0 42.5 -10t20.5 -37z" />
<glyph unicode="J" horiz-adv-x="1141" d="M1161 1473q0 -52 -23 -77.5t-58 -35.5t-76 -12t-77 -7l-70 -8q30 -230 37 -459.5t7 -463.5q0 -73 -4 -154.5t-18.5 -161t-41.5 -152.5t-74 -128.5t-116 -88.5t-165 -33q-110 0 -196.5 47.5t-146.5 124t-91 175t-31 199.5q0 21 2 68t10.5 95.5t26 85.5t47.5 37 q17 0 42 -8.5t48 -22.5t39 -33t16 -40q0 -49 -11.5 -96t-11.5 -96q0 -53 15.5 -118.5t46.5 -123t78.5 -96.5t111.5 -39q47 0 80 17.5t56 46.5t36.5 67t22.5 77q30 131 34.5 265.5t4.5 272.5q0 178 -8.5 356t-30.5 356q-88 -10 -174 -21.5t-174 -11.5q-22 0 -34.5 9t-12.5 32 q0 46 27.5 70t68.5 34q69 20 141 28.5t142 18.5v21q0 22 16 28t34 6q27 0 53 -8t48 -26q73 12 145 28t149 16q27 0 43.5 -16.5t16.5 -43.5z" />
<glyph unicode="K" horiz-adv-x="951" d="M1013 -279q0 -18 -17 -31t-40.5 -21t-47.5 -12t-38 -4q-4 0 -6.5 -1t-6.5 1q-26 5 -45.5 17.5t-35.5 29t-30 36t-30 39.5q-104 131 -195.5 270t-165.5 292l-16 -18v-502q0 -14 -1 -31.5t-6.5 -33.5t-15.5 -26t-29 -10q-42 0 -68.5 13t-41.5 35.5t-20 54t-5 68.5 q0 122 -2.5 243t-2.5 243q0 53 4 104t4 104q0 186 -14.5 370t-30.5 369q-4 43 -8 85.5t-4 85.5q0 31 20 41q20 11 44 11q73 0 114.5 -29.5t41.5 -107.5q0 -118 8 -232q6 -142 8.5 -281t4.5 -280q140 176 221 377q80 202 122 423q1 13 4.5 32.5t9.5 38.5t17 32.5t29 13.5 q21 0 43 -7t39.5 -20t28.5 -31t11 -40q0 -57 -13.5 -110.5t-27.5 -108.5q-27 -110 -58 -203.5t-70.5 -180t-91.5 -170.5t-123 -174l54 -109q69 -131 153.5 -255.5t184.5 -235.5q34 -38 70 -70t63 -73q8 -8 8 -21z" />
<glyph unicode="L" horiz-adv-x="811" d="M857 -110q0 -30 -32 -57.5t-82 -50t-110.5 -41.5t-118.5 -32t-106 -20t-71 -7q-44 0 -81.5 10.5t-64.5 32t-42 55t-15 81.5q0 347 2.5 691.5t2.5 694.5q0 55 -2.5 108t-2.5 108q0 13 1 30.5t6.5 32.5t16 25.5t28.5 10.5t38 -5.5t38 -16t31.5 -25.5t19.5 -34 q6 -23 5.5 -50t-0.5 -54q6 -346 10 -686.5t4 -686.5q0 -39 0.5 -78t4.5 -78q35 1 85.5 11.5t102 27t97 37t71.5 44.5q12 12 25 24t32 12q17 0 36 -11.5t34.5 -29t26 -37t10.5 -36.5z" />
<glyph unicode="M" horiz-adv-x="1242" d="M1157 -303q0 -26 -12.5 -41.5t-42.5 -15.5q-16 0 -32.5 3.5t-32.5 9.5q-32 9 -51 17t-28.5 20.5t-12.5 32t-4 52.5q-10 266 -22.5 528.5t-39.5 527.5q-18 -90 -35 -179.5t-35 -181.5q-18 -96 -34.5 -196.5t-51.5 -193.5q-14 -38 -35 -59.5t-64 -21.5q-31 0 -50.5 11 t-37.5 33q-17 18 -36.5 70t-41 121.5t-42.5 149t-39 153t-32.5 134.5t-22.5 92v-176q0 -173 6.5 -345t22.5 -342q4 -38 11 -75.5t7 -75.5q0 -34 -22.5 -44t-50.5 -10q-74 0 -113.5 31.5t-39.5 108.5q0 157 -8 312t-8 312q0 22 1 76.5t2 129.5t3 163t4.5 177.5t5.5 174.5 t5.5 152.5t5.5 112.5t7 54q6 18 15 23.5t27 5.5q49 0 82 -21.5t45 -72.5q18 -27 41.5 -99t49.5 -168.5t52.5 -207.5t51 -214t44.5 -188.5t32 -131.5q38 224 76.5 445t73.5 445q6 38 13.5 74t7.5 74q0 23 -6.5 43t-6.5 43q0 27 17.5 33t39.5 6q21 0 49.5 -6.5t55.5 -19.5 t45.5 -32.5t18.5 -45.5q0 -46 -7 -97q47 -220 78 -440t46 -444q16 -192 26 -382t24 -379q3 -12 4 -22.5t1 -22.5z" />
<glyph unicode="N" horiz-adv-x="1036" d="M920 -193q0 -23 -4.5 -46t-15.5 -40.5t-29 -28t-47 -10.5q-35 0 -56.5 15t-39.5 42q-25 35 -44.5 81t-35 95t-29 97.5t-26.5 90.5q-70 218 -130.5 435.5t-129.5 435.5q-6 -282 -9.5 -561.5t-3.5 -561.5q0 -14 -1.5 -32.5t-6.5 -34.5t-16 -28t-31 -12q-66 0 -100.5 36 t-34.5 102q0 365 1.5 724t1.5 722v184q0 30 11 50t48 20q26 0 53.5 -7t49 -21t35 -37t13.5 -54q55 -104 92 -214.5t72 -222.5q51 -162 100 -325t100 -328q-8 246 -16.5 491t-32.5 490q-6 53 -15 103.5t-9 104.5q0 27 18.5 36.5t41.5 9.5q40 0 69 -6.5t48.5 -22t30 -42 t16.5 -66.5q8 -70 12.5 -141t8.5 -140q12 -174 17 -346t9 -346q4 -173 9.5 -345t5.5 -346z" />
<glyph unicode="O" horiz-adv-x="1024" d="M945 698q0 -55 -2 -126.5t-9 -153.5t-20.5 -168t-36 -168t-55 -154.5t-78 -127t-105 -86.5t-136.5 -32t-139 35.5t-105 94.5q-35 47 -62 115t-47 148.5t-34.5 167.5t-23 172t-12 161t-3.5 133q0 96 8.5 201.5t31.5 208.5t63.5 199.5t104.5 172.5q6 8 16 18.5t21.5 20.5 t23.5 17t24 7t23 -6.5t19 -17.5q27 16 57.5 22.5t62.5 6.5q95 0 163 -45t113.5 -117.5t73 -165t41.5 -188.5t18 -186t4 -159zM742 641q0 34 -2 103.5t-9.5 153.5t-21 172.5t-37 160.5t-58 118t-82.5 46q-20 0 -35.5 -18t-30 -46.5t-26 -62.5t-23 -65t-22 -56t-22.5 -35 q-4 -4 -12.5 -4.5t-16.5 -0.5q-22 0 -41 7q-22 -88 -30.5 -176t-8.5 -177q0 -27 2.5 -82t8 -125t14.5 -150.5t22 -160.5t30.5 -153.5t41 -130t52 -90.5t63.5 -34q20 0 35.5 11t29.5 23q39 35 67.5 92t48 126t32.5 145t19.5 150.5t9 141t2.5 117.5z" />
<glyph unicode="P" horiz-adv-x="928" d="M914 1099q0 -129 -41 -259t-114.5 -243t-176 -201.5t-224.5 -133.5q8 -108 18 -215t28 -214q4 -20 8.5 -40.5t4.5 -43.5q0 -34 -16.5 -45.5t-48.5 -11.5q-22 0 -53 5.5t-53 15.5q-26 14 -34.5 29t-12.5 41q-22 110 -26.5 221t-12.5 221q-26 3 -43 14t-17 38q0 26 15 54.5 t35 44.5q-12 242 -10 480t-1 479q-6 -3 -11.5 -4t-11.5 -1q-14 0 -23.5 7t-15 17.5t-8.5 23t-3 22.5q0 39 19.5 56.5t53.5 32.5q0 14 0.5 33t5.5 35t15 27t31 11q34 0 65 -13t47 -44q46 8 88.5 14.5t88.5 6.5q103 0 183.5 -34.5t136 -96t85 -146t29.5 -183.5zM719 1122 q0 60 -15.5 112.5t-47 91t-79.5 60.5t-113 22q-35 0 -70.5 -5t-69.5 -16q0 -238 3 -471.5t17 -469.5q83 43 152.5 119.5t118.5 169.5t76.5 194t27.5 193z" />
<glyph unicode="Q" horiz-adv-x="1150" d="M1131 -453q0 -16 -17 -29.5t-40.5 -24t-46.5 -16.5t-36 -6q-30 0 -72.5 31.5t-84 73t-78 84.5t-54.5 66q-39 -23 -82.5 -33.5t-89.5 -10.5q-77 0 -134.5 28.5t-100.5 76.5t-73.5 110t-51 129.5t-33.5 135t-23 126.5q-20 114 -30.5 224.5t-10.5 224.5q0 98 11.5 206.5 t39 214.5t73.5 201.5t115 168.5q14 16 36 35t42 19q14 0 26.5 -7.5t20.5 -18.5q62 31 135 32q103 0 175.5 -47.5t122 -125t77.5 -176.5t42.5 -201t18 -198t3.5 -170q0 -94 -7.5 -202.5t-27.5 -217.5t-54.5 -210.5t-86.5 -180.5q49 -57 99 -113t109 -106q9 -6 24 -17 t29 -23.5t24.5 -26t10.5 -26.5zM809 672q0 38 -3 108t-10.5 153.5t-23 170t-41.5 157.5t-64 115.5t-92 44.5q-36 0 -60.5 -21.5t-41.5 -54.5t-29 -70.5t-24.5 -71t-29 -55t-39.5 -21.5q-26 0 -47 11q-26 -92 -35 -185t-9 -187q0 -31 2.5 -87t9 -127.5t16.5 -152t25.5 -160 t35.5 -153t46.5 -129t60 -89t74.5 -33.5q18 0 36 7.5t32 18.5q-8 12 -27.5 40t-43.5 64.5t-50 76t-47.5 74.5t-35.5 60.5t-14 33.5q0 12 9 19.5t22 11.5t26 6t21 2q51 0 78.5 -18.5t58.5 -57.5q30 -38 57.5 -77.5t57.5 -78.5q31 72 50.5 154.5t30 167.5t14.5 170t4 163z" />
<glyph unicode="R" horiz-adv-x="1015" d="M1113 -295q0 -16 -15.5 -26t-37 -16.5t-43 -9t-32.5 -2.5q-26 0 -42 4.5t-38 15.5q-6 4 -30.5 33.5t-60 76t-80.5 106.5t-92.5 123t-93.5 126t-85 115.5t-67 92.5t-40 55l-8 -2q8 -155 20.5 -309t42.5 -305q4 -16 8.5 -32.5t4.5 -34.5q0 -30 -19.5 -38.5t-43.5 -8.5 q-13 0 -31 1t-37.5 5t-36 10t-25.5 15q-18 16 -22.5 32.5t-8.5 40.5q-38 261 -47.5 524.5t-9.5 525.5q0 114 1.5 225t3.5 225q-16 1 -29.5 10t-24 23t-16 29t-5.5 29t7 28.5t18 26t24 22t24 17.5v23q0 13 0.5 30t5 32t15 24.5t31.5 9.5q27 0 54.5 -9t46.5 -32q98 39 205 39 q95 0 173 -38t133.5 -101.5t85.5 -147t30 -174.5q0 -98 -36.5 -189t-95 -173t-133.5 -150.5t-151 -118.5q122 -162 247.5 -321.5t256.5 -318.5l24 -27t33 -39.5t29.5 -41.5t12.5 -30zM733 1135q0 48 -17 100t-48 94.5t-74.5 69.5t-96.5 27q-43 0 -85.5 -12t-81.5 -32 q3 -194 5 -387.5t6 -387.5l23 -2q68 38 133.5 95t118 127t85 148.5t32.5 159.5z" />
<glyph unicode="S" horiz-adv-x="925" d="M885 111q0 -96 -31 -182t-89 -150.5t-140 -102.5t-182 -38q-88 0 -163 28t-129.5 78.5t-85 123t-30.5 162.5q0 18 1.5 45.5t8.5 53t20.5 43t39.5 17.5q21 0 46.5 -8.5t47.5 -23t37 -34.5t15 -43v-76q0 -90 48.5 -146.5t141.5 -56.5q65 0 111.5 30t76 77t43 104.5 t13.5 113.5q0 109 -45 212t-112.5 201t-146.5 193t-147 188.5t-112.5 187.5t-44.5 191q0 79 31.5 137t84.5 95t120 54.5t138 17.5q87 0 156 -24.5t117 -71.5t73.5 -115t25.5 -155q0 -13 -1.5 -32.5t-6.5 -38.5t-15.5 -32.5t-28.5 -13.5q-26 0 -52 13q-22 12 -35.5 22.5 t-21.5 24.5t-12 31t-6 41q-6 47 -17 84.5t-31.5 63.5t-54.5 40.5t-87 14.5q-38 0 -72.5 -8t-60 -26t-40.5 -47.5t-15 -71.5q0 -60 27 -122.5t70.5 -127.5t98.5 -133.5t113.5 -141t114 -150t99 -160.5t70 -172t26.5 -184z" />
<glyph unicode="T" horiz-adv-x="880" d="M916 1489q0 -47 -26.5 -77t-71.5 -40q-73 -16 -149 -16.5t-150 -4.5v-257q0 -328 20 -654q19 -325 65 -652q4 -20 9 -39t5 -39q0 -31 -16.5 -45t-46.5 -14q-23 0 -57.5 5.5t-54.5 17.5q-26 16 -33 32t-11 43q-14 92 -19.5 184.5t-11.5 185.5q-16 198 -26 394t-10 393 q0 108 1 215t1 217q-81 -8 -162 -15.5t-163 -7.5q-20 0 -32 9.5t-12 29.5q0 46 30 71t71 35q66 14 135 19t138 12q0 13 1.5 25.5t6 22.5t13.5 16.5t26 6.5q31 0 63.5 -14.5t50.5 -40.5l216 23q31 4 62.5 8.5t62.5 4.5q14 0 28 -1t24.5 -7t16.5 -17t6 -29z" />
<glyph unicode="U" d="M1000 498q0 -70 -4.5 -157t-19 -178t-42 -177.5t-74 -154t-115 -108.5t-164.5 -41q-53 0 -104 15.5t-93 46.5q-68 49 -114 142.5t-76 209.5t-45.5 247t-23 257t-8.5 237.5t-1 191.5v59.5t0.5 86t2 98.5t4 97t6.5 81t10 51t14.5 22t27.5 6q58 0 92.5 -35.5t34.5 -94.5 q0 -86 -4 -171.5t-4 -171.5q0 -38 1 -110.5t4.5 -165.5t11.5 -199.5t21.5 -211t34.5 -201.5t50 -171t68 -118.5t90 -44.5q48 0 84 38t60 97t39 131.5t22.5 143.5t10.5 131.5t3 95.5q0 72 -3.5 159.5t-9.5 182.5t-16.5 194t-24.5 191.5t-33 177.5t-43 151q-4 12 -12.5 30 t-8.5 30q0 21 9.5 31t24 14.5t31.5 5.5t31 1q31 0 51 -3t48 -18q18 -10 34 -57t30.5 -118.5t27 -162t22.5 -186t18 -190.5t13 -175.5t8 -141.5t3 -90z" />
<glyph unicode="V" horiz-adv-x="942" d="M838 997q0 -308 -51 -607.5t-172 -585.5q4 -9 11.5 -26t15.5 -36t14 -35.5t6 -24.5q0 -18 -10.5 -27.5t-26 -13t-31.5 -3.5h-28q-34 0 -60 3.5t-52 27.5q-18 16 -42.5 78.5t-53 157t-59 213t-61 243.5t-59 249.5t-52.5 231t-41.5 188.5t-27.5 121q-14 66 -31.5 131 t-17.5 134q0 23 17 29.5t35 6.5q38 0 71.5 -13t53.5 -44q10 -18 16 -48.5t10 -50.5q42 -190 86 -377.5t93 -376.5q31 -118 62 -233.5t68 -231.5q65 205 92.5 419.5t27.5 430.5q0 34 -0.5 84.5t-2 108.5t-5 119t-8.5 117t-13 104q-8 47 -20 76q-4 10 -9 18.5t-5 20.5 q0 16 12 24.5t27.5 14t32.5 6.5t27 1q35 0 62 -7t53 -34q12 -12 19.5 -53.5t12.5 -99t8.5 -123t4.5 -126.5t1 -109.5v-71.5z" />
<glyph unicode="W" horiz-adv-x="1358" d="M1239 1224q0 -159 -2.5 -317.5t-12.5 -316.5t-28 -315.5t-48 -314.5l-21 -104q4 -9 13.5 -29t20 -43t18.5 -42.5t8 -25.5q0 -17 -13.5 -26.5t-32 -14t-38 -5.5t-31.5 -1q-14 0 -27 0.5t-25 4.5q-30 10 -40 23t-24 39q-55 104 -96 215.5t-72 226.5t-56 231.5t-47 231.5 q-47 -429 -148 -850q12 -23 26.5 -51t14.5 -56q0 -18 -11.5 -28.5t-29 -14t-36.5 -4.5t-32 1q-4 -3 -7.5 -4.5t-10.5 -1.5q-46 0 -72.5 27.5t-41.5 66.5q-46 118 -81 251t-61 269t-45 272t-32 264q-18 155 -35 308t-17 310q0 27 8 42.5t39 15.5q48 0 74.5 -15t40.5 -40.5 t18 -59.5q6 -34 8 -73q26 -289 63.5 -574.5t107.5 -566.5q35 181 54 362t37 363q4 48 5.5 97.5t4.5 99.5t9 99.5t20 96.5q12 42 38 64t71 22q44 0 69 -19.5t38.5 -49t19 -66t9.5 -68.5q31 -235 81 -465.5t119 -457.5q26 202 32.5 402t6.5 404q0 116 -2 233q-3 117 -17 235 q0 14 -2.5 26t-2.5 26q0 27 17 39.5t43 12.5q17 0 37 -3.5t40.5 -9t38 -14.5t27.5 -22q5 -6 8.5 -28.5t6 -54t4 -66.5t2 -67.5t0.5 -58v-37.5z" />
<glyph unicode="X" horiz-adv-x="851" d="M845 -339q0 -16 -8.5 -25t-20 -13t-26 -5t-26.5 -1q-31 0 -53 0.5t-39 8.5t-30 24t-26 47q-53 116 -92.5 237.5t-81.5 243.5q-34 -88 -71.5 -174t-76.5 -171q-18 -39 -34 -79t-39 -77q-12 -18 -23 -28.5t-34 -10.5q-17 0 -39 9t-42.5 24t-34.5 33.5t-14 37.5q0 8 13 40 t33.5 77t45 97.5t47 101t40 86.5t24.5 55q31 73 55 146.5t46 147.5q-8 23 -25 75t-40 120.5t-50.5 148t-55 160.5t-53.5 157t-45.5 137t-31 101.5t-11.5 49.5q0 12 7 18.5t17.5 10t21.5 4.5t19 1q55 0 85.5 -23.5t52.5 -70.5q58 -130 103.5 -265t91.5 -270q23 116 46 230 t42 230q5 25 10.5 62.5t11.5 78t13 76t17 56.5q6 14 13.5 20t25.5 6q21 0 43 -8t39.5 -22t28.5 -33.5t11 -43.5q0 -92 -19.5 -181.5t-34.5 -182.5q-30 -162 -57.5 -324t-70.5 -321q62 -188 127.5 -372.5t143.5 -365.5q10 -22 20.5 -43.5t10.5 -47.5z" />
<glyph unicode="Y" horiz-adv-x="760" d="M758 1564q0 -27 -17 -99t-43 -167.5t-58.5 -203t-63.5 -205.5t-57 -175t-39 -112q14 -116 19 -230t12 -230q6 -98 12 -196.5t6 -196.5q0 -30 -15 -46t-45 -16q-12 0 -31 3.5t-39.5 9t-38 13.5t-23.5 16q-16 18 -20 34t-4 38q0 202 -3.5 401t-3.5 400l-11 11 q-8 12 -17.5 33t-19.5 44.5t-18 45.5q-6 22 -12 35q-43 120 -81 239.5t-81 239.5q-6 21 -20.5 56.5t-28.5 74.5t-25.5 73.5t-11.5 52.5q0 14 8 23.5t20 14t25 5.5t23 1q34 0 63 -3t59 -23q8 -5 25 -48t37.5 -106.5t43.5 -137.5t42.5 -143t35.5 -122q16 -54 22 -75 q43 166 86.5 330t74.5 333q3 16 6 35t9 34.5t17.5 26.5t32.5 11q17 0 42 -8t48.5 -21.5t40.5 -31t17 -38.5z" />
<glyph unicode="Z" horiz-adv-x="812" d="M814 -154q0 -38 -19 -70.5t-54 -46.5q-12 -5 -51 -8.5t-93.5 -6t-117 -4t-119.5 -2t-101.5 -0.5h-63.5q-8 -14 -22 -24t-33 -10q-17 0 -40 8.5t-44.5 23t-37 32.5t-15.5 37q0 17 7.5 44.5t18.5 56.5t21.5 58t17.5 47l260 759l137 398q23 66 45 133t52 132 q-42 -3 -83.5 -4t-83.5 -1h-41t-66 0.5t-78 1t-76.5 2.5t-61 5t-30.5 6q-18 9 -19 29q0 38 25 59.5t60 31.5t73.5 13t65.5 3q31 0 62.5 -3t62.5 -3q65 0 128.5 5.5t126.5 5.5q22 0 48 -4.5t47.5 -15.5t35.5 -29.5t14 -46.5q0 -23 -9 -42.5t-19 -41.5q-46 -110 -81 -221 t-73 -223q-90 -269 -175 -536.5t-173 -537.5q53 3 106.5 4.5t106.5 5.5q74 6 148 17.5t151 11.5q23 0 41.5 -11t18.5 -38z" />
<glyph unicode="[" horiz-adv-x="553" d="M615 -347q0 -31 -13.5 -59t-41.5 -42q-18 -10 -54.5 -17.5t-78 -13.5t-80.5 -8.5t-60 -2.5q-43 0 -77 14.5t-45 61.5q-10 46 -13.5 92.5t-7.5 91.5q-8 98 -16 193.5t-15 191.5q-14 198 -19.5 392t-11.5 391q-6 162 -12 322t-6 322q0 17 2 30t7.5 21t17.5 11q13 2 33 1 q10 6 49.5 10.5t87.5 7.5t93.5 4t67.5 1q20 0 27 -11.5t7 -29.5q0 -35 -9 -63t-48 -39q-35 -12 -75.5 -17t-77.5 -11q12 -226 19.5 -454t18 -455.5t28 -454t48.5 -451.5q20 3 46.5 9t54.5 12t53.5 10.5t43.5 4.5q30 0 43.5 -19t13.5 -46z" />
<glyph unicode="\" horiz-adv-x="616" d="M585 -243q0 -23 -10.5 -42.5t-28 -34t-39 -22t-42.5 -7.5q-16 0 -23.5 4.5t-15.5 18.5q-8 16 -17 52t-17 77t-15.5 80t-12.5 61l-257 1155q-22 94 -44.5 186t-41.5 186q0 8 -1.5 15.5t-1.5 15.5q0 21 15.5 39t38.5 31.5t48.5 21t43.5 7.5q23 0 36 -13t19.5 -32t9 -40 t5.5 -38q34 -196 77 -388.5t82 -385.5q42 -192 79.5 -383.5t78.5 -383.5q10 -46 22 -90t12 -90z" />
<glyph unicode="]" horiz-adv-x="556" d="M493 -404q0 -38 -10 -53t-50 -12q-10 -6 -50 -10t-88 -6t-93.5 -3.5t-67.5 -1.5q-20 0 -27 12t-7 30q0 32 8.5 61t46.5 40q38 10 77.5 15t78.5 11q-12 228 -20 455.5t-18 454t-27.5 453.5t-49.5 452q-21 -3 -48 -9.5t-54.5 -12t-52.5 -10t-42 -4.5q-31 0 -44 18.5 t-13 46.5q0 31 13.5 59.5t40.5 44.5q17 9 54 16t78.5 13t80 9t60.5 3q43 0 77 -15.5t45 -62.5q10 -43 12.5 -90.5t8.5 -93.5q8 -96 16.5 -192.5t14.5 -192.5q14 -196 19.5 -391.5t11.5 -391.5q6 -161 12.5 -321t6.5 -321z" />
<glyph unicode="^" horiz-adv-x="322" d="M361 831q0 -22 -18 -29t-34 -7q-23 0 -49.5 8.5t-41.5 27.5q-4 4 -9.5 26.5t-13.5 54t-15.5 68.5t-15.5 70.5t-14.5 59.5l-9.5 38q-1 -8 -7 -33t-13 -59t-16 -71.5t-17 -70t-13.5 -55.5t-8.5 -25l-11 -11t-15 -5q-14 0 -28.5 8.5t-25.5 21t-17.5 27.5t-6.5 29q0 4 8 43 t19 95.5t24 121t24.5 119.5t20 92.5t8.5 40.5q12 22 28 34.5t42 12.5q20 0 33.5 -8t23.5 -21t15.5 -28.5t10.5 -31.5q6 -18 19.5 -61.5t29.5 -99.5t32.5 -118.5t30 -116t22.5 -94t9 -53.5z" />
<glyph unicode="_" horiz-adv-x="501" d="M521 -438q1 -18 -7 -34q-8 -22 -15.5 -36t-17.5 -22t-25 -11t-39 -3h-353q-9 0 -23 0.5t-27.5 3.5t-23.5 10.5t-10 21.5q0 31 22.5 55t53.5 31q26 4 52 4.5t52 3.5q74 4 148 8.5t151 4.5q9 0 20 -1t21 -4t15.5 -11t5.5 -21z" />
<glyph unicode="`" horiz-adv-x="283" d="M322 1216q0 -13 -7 -25t-18.5 -21t-24.5 -14t-25 -5q-16 0 -30.5 6.5t-26.5 16.5q-42 30 -61.5 45t-34.5 27.5t-33 28t-58 47.5q-12 10 -23.5 22t-18.5 28v10q0 13 8.5 30t22 30.5t30 23.5t30.5 10q20 0 36.5 -15t31.5 -27l109 -112q9 -9 25 -21t31 -26.5t26 -30 t11 -28.5z" />
<glyph unicode="a" horiz-adv-x="635" d="M616 -283q0 -26 -13 -36t-36 -10q-61 0 -88 32.5t-40 86.5q-4 18 -7.5 37t-6.5 37q-3 17 -5.5 23.5t-4.5 24.5q-16 -38 -38.5 -79t-52.5 -75.5t-67 -56.5t-81 -22q-47 0 -78.5 23t-49 57.5t-24.5 76.5q-7 40 -7 78q0 88 17.5 192t48.5 207t73 198.5t91 167.5v-1l8 11 q14 20 33 42.5t45 22.5q25 0 43 -21.5t26 -44.5q34 -6 54.5 -16t32 -24.5t15.5 -33t4 -40.5v-19.5t-1 -21.5q-1 -10 -1 -24.5v-25.5q0 -13 4.5 -34t9.5 -43l9 -48q6 -38 11 -86t11 -96q5 -49 10.5 -95.5t10.5 -85.5l31 -192l4 -22q3 -17 6 -31.5t3 -32.5zM318 464q0 3 -1 9 l-2 12q-30 -64 -53 -138.5t-38 -152t-22 -154.5t-7 -146v-11.5t1 -10.5v-2q31 48 54 127t38.5 165.5t22.5 167.5t7 134z" />
<glyph unicode="b" horiz-adv-x="690" d="M660 434q0 -53 -5 -117.5t-15.5 -133t-28 -138t-42 -133.5t-58 -118t-74.5 -90q-30 -26 -67 -42.5t-76 -16.5q-14 0 -30 4.5t-24 21.5q-29 3 -56 11q-28 10 -46 38q-4 9 -6.5 22t-5.5 27q-1 6 -2.5 12t-2.5 11q-38 234 -51.5 468t-13.5 472v73t0.5 118.5t1 139t2 136.5 t4 110t5.5 59q5 18 14 30t31 12q61 0 88 -38.5t27 -94.5v-334v-110t0.5 -95t2 -95t3.5 -108q16 35 38.5 68.5t51.5 61t64 44.5t78 17q62 0 100.5 -27.5t58.5 -69.5t27 -94.5t7 -100.5zM481 464q0 26 -2 57.5t-16 54.5q-12 -9 -20.5 -19.5t-17.5 -23.5l-3 -4v2 q-36 -60 -58.5 -139.5t-36.5 -164.5t-19 -169t-5 -151q0 -14 0.5 -42.5t4.5 -46.5q51 43 84 125.5t53 178t28 188t8 154.5z" />
<glyph unicode="c" horiz-adv-x="572" d="M577 -9q0 -27 -9 -55.5t-21 -54.5q-16 -38 -37.5 -73.5t-50.5 -63.5t-65 -45t-82 -17q-81 0 -134 40t-84.5 101.5t-43.5 134t-12 137.5q0 48 4 114t15 136t32 139t55 123t83 87.5t116 33.5q14 0 41.5 -5t54 -15t47 -26t20.5 -37q0 -20 -17.5 -30t-42 -14.5t-49.5 -5.5 t-41 -1h-23q-36 -32 -59.5 -95t-36.5 -134.5t-18.5 -141t-5.5 -113.5q0 -62 10 -123t40 -114q6 -12 18.5 -27t27.5 -15q12 0 24.5 19.5t23 45.5t17 51t8.5 36q1 5 1.5 12t0.5 13q0 12 0.5 23t2.5 17q9 22 24 30t37 8q20 0 42 -5t41.5 -17t32.5 -30t13 -43z" />
<glyph unicode="d" horiz-adv-x="673" d="M645 -260q0 -14 -6.5 -24t-16.5 -15.5t-21 -8t-21 -2.5q-16 0 -34 3.5t-36.5 11t-33 18.5t-22.5 25t-11.5 35.5t-5.5 43.5q-13 -31 -30.5 -61t-42.5 -52.5t-55.5 -36t-68.5 -13.5q-66 0 -107 31t-63.5 78.5t-30 104t-7.5 108.5q0 43 4 97.5t10.5 111.5t16 111t19.5 96 q13 48 32 106t48 108t72 85t103 39q-4 105 -11.5 194t-14.5 183l-13 144l-6 52q-3 21 -4 42.5t-1 42.5q0 30 16.5 41.5t42.5 11.5q57 0 87 -17t42.5 -45.5t13.5 -67t1 -82.5q0 -29 7 -65l6 -48l11 -132q3 -31 5 -62.5t5 -62.5l27 -280l52 -522l4 -49q5 -53 9.5 -110 t17.5 -113q4 -14 7.5 -27.5t3.5 -27.5zM342 501q0 14 -0.5 31.5t-0.5 33.5v35q-9 -13 -23.5 -36t-22.5 -41q-21 -46 -38 -116.5t-29 -148t-18.5 -151t-6.5 -122.5q0 -18 0.5 -41.5t4.5 -47.5t12 -46t20 -37q20 25 35.5 76.5t26.5 117t19 138.5t12.5 141t6.5 125t2 89z" />
<glyph unicode="e" horiz-adv-x="562" d="M567 -62q0 -39 -21.5 -80.5t-55.5 -76t-77.5 -56.5t-86.5 -22q-61 0 -105 24t-76.5 65t-52.5 93t-32 107t-16.5 110.5t-4.5 100.5q0 39 4.5 92.5t15.5 110.5t30.5 113t49 100t70.5 71.5t94 27.5q42 0 75 -17t55.5 -45t35 -64.5t12.5 -75.5q0 -51 -23.5 -110.5 t-60.5 -115.5t-83 -100.5t-92 -68.5q3 -23 10.5 -68t21.5 -89t33 -76.5t45 -32.5q13 0 22.5 7.5t17.5 20.5t14 29q4 16 10 30l8 18q3 4 3.5 5t2.5 4q9 17 17.5 31.5t23.5 24.5h-1q5 5 11 6t11 1q14 0 31 -9.5t31.5 -23t23.5 -29.5t9 -32zM309 511q0 13 -1 27.5t-6 24.5 q-18 -22 -32 -52.5t-23 -63.5t-15 -67t-8 -62q34 40 59.5 91t25.5 102z" />
<glyph unicode="f" horiz-adv-x="521" d="M580 1316q0 -14 -12.5 -24t-29.5 -16t-33.5 -8.5t-26.5 -2.5q-30 0 -56 10t-55 11q-43 -12 -77 -52t-53.5 -117t-22 -192.5t16.5 -279.5q82 17 153 29.5t110 12.5q31 0 43 -17t12 -43t-5.5 -48t-27.5 -37l-272 -41q6 -55 11 -110t10 -109q21 -169 36 -276.5t24.5 -172 t15.5 -92.5t8.5 -37.5t3.5 -8.5t1 -3q0 -27 -17 -38t-41 -11q-18 0 -38 3t-39.5 9.5t-35 18.5t-22.5 29q-10 88 -24.5 168.5t-24.5 167.5q-10 103 -22.5 218.5t-20.5 221.5q-5 -1 -10.5 -0.5t-11.5 0.5q-21 0 -34.5 9.5t-13.5 35.5q0 30 15 55q14 25 44 32q-4 72 -9 159 t-3.5 177.5t15 175.5t48.5 150.5t96 106t158 40.5q20 0 55.5 -6.5t71.5 -20t63 -33t27 -44.5z" />
<glyph unicode="g" horiz-adv-x="695" d="M725 22q0 -13 -7 -30.5t-18 -36t-24 -38t-25 -35.5l-19 -27l-20 -34l-17 -31q1 -26 4 -56t5 -57q14 -134 25.5 -273.5t11.5 -272.5q0 -72 -11.5 -145.5t-43.5 -132.5t-88 -97t-143 -38q-60 0 -101.5 22.5t-67 59.5t-37 86.5t-11.5 102.5q0 105 24.5 213t64 213.5 t90.5 206t103 192.5v6.5t-1 10.5q-17 -31 -38.5 -64t-48 -59t-58.5 -43t-71 -17q-55 0 -91.5 26t-58 66.5t-30.5 88.5t-9 91q0 49 6 97t14 94q13 73 33 158t50 169t69.5 158t93.5 126l10 9q17 17 39 33t45 16q14 0 25.5 -7.5t19 -20t12.5 -27t5 -27.5q0 -16 -12 -33h2 q79 0 107 -73q14 -13 21.5 -31.5t7.5 -38.5q0 -10 -1.5 -23t-4.5 -23q-3 -12 -4 -22t-1 -20q0 -30 1.5 -74t4 -92t6 -94t5.5 -80q9 12 21.5 21t29.5 9q14 0 33 -10.5t35 -26t27 -33.5t11 -32zM368 558q0 8 0.5 17t3.5 19l-9 -11q-10 -12 -19.5 -22.5t-17.5 -22.5 q-34 -49 -59 -127.5t-42 -165t-25.5 -170t-8.5 -142.5q0 -30 1.5 -60t12.5 -59q18 20 30 42.5t22 47.5q29 64 50 148.5t34 174t19.5 176t7.5 155.5zM467 -830q0 88 -4 165.5t-12 165.5q-23 -56 -47 -120.5t-42.5 -130t-30 -130.5t-11.5 -123v-9q0 -30 4 -64.5t24 -56.5h15 q26 0 43.5 17.5t29 44.5t18 61t9 68t3.5 64t1 48z" />
<glyph unicode="h" horiz-adv-x="730" d="M682 -230q0 -26 -16.5 -37.5t-41.5 -11.5q-16 0 -32.5 3t-32.5 7q-27 8 -42 19.5t-23 26.5t-10 33.5t-3 40.5q0 6 -0.5 11.5t-0.5 10.5q-4 74 -7.5 152t-3.5 152q0 38 1 75.5t2 75.5t1.5 75t0.5 74q0 8 -0.5 15.5t-1.5 14.5q-34 -49 -59.5 -109.5t-45 -125t-33 -128.5 t-22.5 -123l-4 -27q-6 -46 -12.5 -93.5t-6.5 -93.5q0 -20 6 -43q3 -10 5 -20t2 -24q0 -31 -16 -42.5t-42 -11.5q-16 0 -34.5 2.5t-36 8.5t-33 15t-24.5 24q-8 17 -15 89.5t-13 180.5t-11 242.5t-10 276t-8 281t-5 256.5t-3.5 203.5t-1.5 121.5q0 26 7.5 47.5t41.5 21.5 q35 0 66 -16.5t45 -50.5q3 -5 5.5 -42t5 -95t5.5 -132.5t5.5 -154.5t5 -160.5t4.5 -151.5l7 -192q16 40 39 84.5t53.5 80.5t69 59.5t85.5 23.5q57 0 89.5 -29.5t49 -74t20 -95t3.5 -92.5q0 -26 -0.5 -50.5t-1.5 -49.5q-1 -26 -2 -51.5t-1 -51.5q0 -90 4 -184t20 -185l2 -18 q3 -8 4 -18.5t1 -19.5z" />
<glyph unicode="i" horiz-adv-x="330" d="M229 793q0 -22 -10 -31.5t-36 -9.5q-12 0 -36.5 3t-49.5 9.5t-44 18.5q-19 13 -19 29q0 5 4 29t9.5 51t10 49.5t7.5 24.5v-1q6 10 15.5 12.5t18.5 2.5q12 0 30.5 -3t37.5 -9t34.5 -15t19.5 -19t4.5 -28t-0.5 -32q0 -5 -0.5 -12.5t-0.5 -11.5v-12q1 -8 2 -14t2 -14t1 -17z M277 -243q0 -30 -13.5 -42t-43.5 -12q-16 0 -35 3.5t-37 11t-33.5 18t-23.5 22.5q-5 8 -9 48.5t-6 100t-4 134t-2.5 150t-0.5 146.5v125v100q0 13 0.5 26t5 22.5t14.5 16t28 6.5q57 0 84 -31.5t33 -85.5q6 -79 9.5 -157.5t6.5 -159.5q3 -73 4 -143q2 -72 9 -142q1 -14 2 -27 t4 -26q3 -26 5.5 -51.5t2.5 -52.5z" />
<glyph unicode="j" horiz-adv-x="430" d="M218 932q0 -16 -0.5 -30.5t-1.5 -30.5t-1.5 -31.5t-0.5 -30.5q0 -23 -7.5 -43t-37.5 -20q-10 0 -34.5 4t-49.5 12t-44.5 19t-19.5 25q0 5 5.5 32.5t13.5 59.5t14.5 58.5t9.5 29.5v-2q6 14 12 17q8 3 22 3q16 0 36.5 -3.5t39 -12t31.5 -22t13 -34.5zM450 102 q0 -8 -12.5 -36t-30.5 -64.5t-39 -75.5q-20 -40 -36 -71q-8 -16 -13.5 -28.5t-9.5 -18.5l12 -70q23 -150 44 -300.5t21 -304.5q0 -46 -2 -94.5t-11.5 -95t-31 -89t-60.5 -73.5q-30 -23 -65 -37t-73 -14q-72 0 -118 30.5t-73 79t-38.5 107.5t-11.5 117q0 103 20.5 204.5 t53 200t73.5 193.5q41 96 82 188q-20 117 -31.5 232t-18.5 237l-4 62q-3 48 -6 96.5t-3 97.5q0 26 8 45t38 19q14 0 27.5 -3t27.5 -9v1q25 -12 38 -26.5t19.5 -31.5t8.5 -36.5t2 -40.5v-21q4 -91 9.5 -169.5t16.5 -169.5q12 23 28 43.5t44 20.5q14 0 34.5 -9.5t38 -23.5 t30 -31t12.5 -31zM212 -836q0 86 -8.5 176t-21.5 177q-39 -104 -67.5 -219t-28.5 -225q0 -22 1 -48.5t6.5 -54t14.5 -52t25 -40.5q1 -1 7 -1q17 0 29 17.5t19.5 45t12 61t7.5 65.5t3.5 58.5t0.5 39.5z" />
<glyph unicode="k" horiz-adv-x="625" d="M702 -320q0 -14 -15.5 -25.5t-36 -19.5t-41 -12.5t-32.5 -4.5q-22 0 -40 8.5t-33.5 21.5t-29.5 28.5t-26 31.5q-46 56 -93.5 125t-85.5 131q0 -5 1.5 -13t1.5 -13q3 -27 4.5 -54t5.5 -54q1 -16 3 -31t5 -31q3 -21 5.5 -42t2.5 -43q0 -27 -16 -37t-42 -10q-18 0 -38.5 3 t-40 10.5t-35.5 20.5t-23 34q-4 16 -8 58.5t-6.5 95.5t-4.5 106t-3 88q0 8 -1 13t-1 11q-10 9 -18 22q-8 12 -8 24q0 17 6.5 30t14.5 25q-8 160 -8 319q0 131 3.5 260.5t5.5 259.5l4 174q1 13 1.5 33.5t0.5 44.5v60t1 58t2.5 49.5t5.5 32.5v-1q5 20 14 28.5t31 8.5 q55 0 85 -32.5t30 -86.5q0 -87 -1 -173.5t-2 -173.5t-2 -173.5t-1 -173.5q0 -31 1 -63t1 -65q1 -26 1 -53v-57l140 223v-1l12 23q4 6 4.5 9t2.5 7.5t9 15t26 31.5q6 6 15 11.5t24 5.5q14 0 29 -8.5t26.5 -21.5t19.5 -28.5t8 -28.5q0 -10 -11.5 -35.5t-30.5 -62t-42.5 -79 t-49 -85.5t-48.5 -83t-42 -71l-33 -55q30 -52 69.5 -115t83.5 -127t90 -122t91 -103l13 -10q16 -12 32.5 -28.5t16.5 -34.5z" />
<glyph unicode="l" horiz-adv-x="365" d="M394 -338q0 -18 -9 -29.5t-23 -19t-30 -10.5t-29 -3q-46 0 -79.5 26t-58.5 67t-40.5 93.5t-26 105t-15.5 101.5t-8 84q-12 121 -16 246t-4 247q0 334 23 661q0 5 0.5 12t0.5 13q1 27 2.5 63t4 71t6 64.5t8.5 40.5v-1q5 18 14.5 27t31.5 9q47 0 79 -31t32 -78 q0 -10 -0.5 -20t-1.5 -19t-2 -17.5t-1 -14.5q-4 -51 -6 -101t-4 -101q-6 -112 -9.5 -223t-3.5 -224q0 -48 1 -126t5 -169.5t11.5 -189t19 -186t27.5 -160.5q17 -71 39 -110q12 -5 22.5 -16.5t19 -25t14.5 -28.5t6 -28z" />
<glyph unicode="m" horiz-adv-x="1136" d="M278 -294q0 -30 -17.5 -39t-42.5 -9q-22 0 -43.5 3.5t-40 12.5t-32.5 24.5t-19 40.5q-18 78 -20.5 152.5t-2.5 154.5v160q0 109 9 226.5t19 226.5q0 4 1.5 9.5t1.5 7.5q1 14 4 31t8.5 31t16.5 23q12 9 30 9q21 0 39.5 -8.5t33 -22t23 -33t8.5 -40.5q0 -26 -2 -54t-5 -54 q-3 -18 -3.5 -27t-1.5 -30q16 27 36 55t44.5 49.5t54 35t62.5 13.5q34 0 56 -11t35 -30t18.5 -45t5.5 -54q0 -18 -1 -35l-2 -34t-1.5 -33t-0.5 -35q0 -34 1.5 -64.5t4.5 -63.5q13 43 32 97.5t44 111.5t56 112.5t66.5 98t77 69.5t87.5 27q72 0 101 -41.5t29 -107.5 q0 -18 -1.5 -38t-3.5 -38q-6 -70 -9.5 -144.5t-3.5 -144.5v-25q0 -91 7.5 -171.5t31.5 -169.5l10 -35q5 -18 12 -40.5t12.5 -43t9.5 -39t4 -28.5q0 -27 -19.5 -36.5t-40.5 -9.5q-13 0 -30 0.5t-33 4t-31 10t-24 16.5v-1q-12 12 -17 29q-6 18 -8 34l-3 11q-18 70 -30.5 126 t-20 112t-11 116t-3.5 138q0 66 6 135t12 135q0 6 1 14.5t2 15.5q-49 -77 -86 -168.5t-66.5 -188t-51 -193t-38.5 -183.5q0 -1 6 -15t12 -31.5t11 -33.5t5 -22q0 -30 -19.5 -36.5t-40.5 -6.5q-16 0 -34 1.5t-35.5 6.5t-32.5 13.5t-24 24.5q-8 13 -18 61.5t-22 114.5 t-22.5 141.5t-19.5 143t-14 118t-5 68.5v20q-42 -90 -69 -192.5t-42 -201.5l-5 -24q-3 -10 -4 -20q-1 -8 -1 -18q0 -14 3 -35t9 -46q6 -34 10.5 -70t4.5 -71z" />
<glyph unicode="n" horiz-adv-x="708" d="M278 -294q0 -30 -17.5 -39t-42.5 -9q-22 0 -43.5 3.5t-40 12.5t-32.5 24.5t-19 40.5q-18 78 -20.5 152.5t-2.5 154.5v160q0 109 9 226.5t19 226.5q0 4 1.5 9.5t1.5 7.5q1 14 4 31t8.5 31t16.5 23q12 9 30 9q21 0 39.5 -8.5t33 -22t23 -33t8.5 -40.5q0 -22 -1.5 -49 t-4.5 -50v-14q-1 -9 -2 -15q18 36 41.5 76t54 73t67.5 54t82 21q38 0 62.5 -11.5t39.5 -33t21 -50t6 -61.5q0 -44 -2.5 -89t-5.5 -89q-4 -46 -6.5 -90t-2.5 -89q0 -55 2.5 -113t8 -110.5t12 -95t12.5 -65.5q5 -20 11 -45t12 -51.5t10 -51.5t4 -44q0 -29 -23 -37t-45 -8 t-50 3.5t-50 15.5q-27 20 -35.5 54.5t-11.5 68.5l-4 35q-4 31 -10.5 82t-12 112t-9.5 126.5t-4 128.5q0 56 4.5 108t9.5 105q3 27 4 44t4 44q-26 -42 -52 -97.5t-49.5 -116t-42 -117.5t-29.5 -100l-8 -29q-6 -21 -10.5 -41.5t-4.5 -38.5q0 -23 2.5 -54t6.5 -58q4 -33 9 -67 q0 -3 2.5 -17t5 -33.5t4.5 -41t2 -38.5z" />
<glyph unicode="o" horiz-adv-x="659" d="M629 233q0 -113 -18.5 -225.5t-77.5 -212.5q-18 -30 -41.5 -58t-51.5 -50.5t-61 -36.5t-70 -14q-57 0 -99 27t-72.5 70.5t-51 98.5t-31.5 113t-15.5 112.5t-4.5 96.5q0 47 4 102.5t13.5 114t26 116t42.5 107.5t63 90q36 38 84 62v-1q42 22 83 22q26 0 40.5 -11t12.5 -37 q72 -13 116 -69t68 -130t32.5 -152t8.5 -135zM335 558q-22 0 -41 17q-25 -38 -42 -86.5t-26.5 -100t-13.5 -103.5q-4 -51 -4 -97q0 -38 4 -97t15 -119t31 -112t53 -77q40 23 66.5 74.5t42.5 113t21.5 123.5t5.5 106q0 32 -4 84.5t-13 106.5t-25 100.5t-41 70.5 q-12 -4 -29 -4z" />
<glyph unicode="p" horiz-adv-x="728" d="M243 38q0 -62 -0.5 -114t1.5 -115l24 17l14 9q64 51 111.5 124.5t78.5 156.5t46 171t15 167q0 16 -0.5 44t-6 55t-16 47t-29.5 20q-31 0 -63.5 -37.5t-60.5 -89.5t-50 -104.5t-33 -82.5q0 -1 -0.5 -1.5t-0.5 -1.5v-1q-8 -18 -16.5 -39t-10.5 -39q-3 -18 -4.5 -41 t-1.5 -47q0 -13 1 -25.5t1 -23.5q0 -14 0.5 -26.5t0.5 -22.5zM315 -1150q0 -29 -16 -39.5t-42 -10.5q-31 0 -68.5 10t-59.5 36q-6 9 -12.5 53t-11.5 103.5t-9 122.5t-8 111l-5 69q-16 278 -15 556q0 162 5.5 319t12.5 318l5 137q0 21 0.5 41t4.5 39q6 17 16 27t32 10 q56 0 82 -33.5t30 -81.5q42 57 99.5 91t133.5 34q64 0 107.5 -28.5t69.5 -73.5t37 -100t11 -109q0 -103 -18.5 -204.5t-56.5 -197t-96.5 -181t-138.5 -151.5q-10 -9 -24.5 -19.5t-30 -19.5t-31.5 -15.5t-29 -6.5q-14 0 -24.5 6.5t-18.5 15.5q3 -90 7 -186t10.5 -193 t16.5 -192t24 -183q4 -17 7.5 -35.5t3.5 -38.5z" />
<glyph unicode="q" horiz-adv-x="686" d="M772 -875q0 -51 -5 -113t-24.5 -116t-59 -90.5t-110.5 -36.5q-57 0 -97 21t-67.5 56t-43 80t-24 93t-11 96t-2.5 90q0 289 31 568q-38 -42 -82 -68t-105 -26q-47 0 -78.5 21t-49.5 54t-25 73.5t-7 79.5q0 77 14 150t34 147q38 142 98 261.5t168 221.5l11 7h-2 q18 18 42.5 36.5t48.5 18.5q14 0 25.5 -8.5t18.5 -20.5t10.5 -27t3.5 -28q4 1 5.5 1.5t5.5 0.5q21 0 44.5 -6.5t43 -19.5t32.5 -32t13 -42t-6.5 -53t-14.5 -60q-5 -20 -9.5 -39t-7.5 -36q-3 -12 -2.5 -23.5t0.5 -22.5q-5 -62 -12 -124t-13 -123q-5 -40 -8.5 -72t-7.5 -71 q10 6 22.5 11.5t22.5 5.5q16 0 29 -11t23.5 -26.5t16.5 -33t6 -30.5q0 -14 -7 -27.5t-18.5 -24.5t-24.5 -20t-23 -14q79 -151 128.5 -313.5t49.5 -334.5zM436 576q1 4 1 11l-11 -12q-23 -26 -45.5 -54.5t-41.5 -62.5q-34 -56 -62.5 -128t-48.5 -149t-31 -154t-11 -144 q0 -9 1 -20.5t4 -22.5q17 14 31.5 34t27.5 38v-1l5 9q39 68 69 149.5t52 168t36.5 173.5t23.5 165zM590 -880q0 101 -22 204t-58 198q-3 -49 -4.5 -98t-1.5 -98v-74q0 -27 1.5 -75t7.5 -98.5t18 -94.5t33 -65q9 17 14.5 44t8 55.5t3 56t0.5 45.5z" />
<glyph unicode="r" horiz-adv-x="640" d="M185 -321q-20 0 -42.5 5.5t-43 17t-34 29t-13.5 42.5q0 36 3 72t7 71v-2l8 88q4 47 6.5 102.5t4.5 113.5t3.5 114t1.5 102q0 27 -1 55.5t-1 56.5q-1 25 -1 55.5v56.5q0 27 7.5 44.5t40.5 17.5q30 0 63.5 -15.5t45.5 -43.5h-1q6 -14 9.5 -46t5.5 -57q22 34 50 71.5 t60 69.5t68.5 52.5t78.5 20.5q55 0 83.5 -27t41.5 -68t14 -87t1 -84v-10q0 -16 -0.5 -31t-5 -27.5t-15.5 -20t-31 -7.5q-21 0 -44 6t-43.5 17.5t-34.5 28.5q-13 18 -15 41v21t1 21q0 6 0.5 16t0.5 19q-42 -42 -73.5 -103t-57 -130t-43.5 -139q-18 -68 -31 -124v-4 q-4 -40 -5.5 -79.5t-2.5 -80.5q-1 -47 -3 -95t-8 -94q-3 -25 -14.5 -38.5t-40.5 -13.5z" />
<glyph unicode="s" horiz-adv-x="556" d="M503 653q0 -16 -11 -26.5t-26.5 -17.5t-32 -9.5t-26.5 -2.5q-16 0 -30 3.5t-29 6.5q-14 4 -27 7.5t-27 3.5q-20 0 -39.5 -6.5t-35 -18.5t-25 -28.5t-9.5 -37.5q0 -31 13 -62t34.5 -62t49 -63t59.5 -64q38 -42 76 -85t68.5 -89.5t50 -98.5t19.5 -109q0 -49 -16 -88.5 t-45.5 -66.5t-70.5 -42t-89 -15q-13 0 -39.5 5t-60.5 15t-69.5 21.5t-65 25t-48.5 27.5t-19 25q0 16 14.5 32.5t34 30t41 22.5t35.5 9q20 0 41.5 -9t43.5 -21q25 -13 50 -23q24 -11 52 -11q21 0 24.5 14.5t3.5 32.5q0 46 -15.5 87t-40.5 80t-57.5 76t-64.5 73 q-34 36 -66 72.5t-56.5 75t-39.5 78.5t-15 86q0 56 24.5 101t64.5 77.5t90 50t100 17.5q17 0 52.5 -7.5t69 -20.5t59.5 -31t26 -40z" />
<glyph unicode="t" horiz-adv-x="518" d="M351 -268q0 -14 -6.5 -23.5t-16.5 -15t-21 -7.5t-21 -2q-14 0 -33 3.5t-37 10t-33 16t-23 24.5q-8 13 -14 48.5t-9.5 83t-6.5 101.5t-4.5 103.5t-2.5 89t-1 59.5q0 91 3.5 176t7.5 175q-6 0 -13 -1.5t-13 -1.5q-17 -3 -34.5 -4t-36.5 -1q-22 0 -39 7.5t-17 35.5 q0 32 14.5 51.5t36.5 30.5t48 15.5t51 7.5q4 0 5 0.5t5 0.5q1 16 2.5 38.5t3.5 50.5q1 43 3.5 91.5t5 93.5t6.5 79.5t8 48.5q6 17 14.5 27.5t32.5 10.5q52 0 80.5 -34t28.5 -83q0 -57 -3.5 -114.5t-5.5 -115.5l-4 -67q32 4 65 12q31 6 63 11.5t62 5.5q26 0 40 -13.5 t14 -39.5q0 -29 -10 -56.5t-36 -41.5h1q-5 -3 -31 -7.5t-59.5 -8t-65 -7.5t-47.5 -6h-1q-3 -73 -4 -143.5t-1 -143.5q0 -100 5.5 -212.5t20.5 -213.5l10 -59q5 -22 9 -43.5t4 -42.5z" />
<glyph unicode="u" horiz-adv-x="696" d="M611 558q0 -13 -2.5 -27.5t-5.5 -25.5q-3 -14 -5.5 -26.5t-2.5 -24.5q0 -121 4.5 -242.5t25.5 -243.5q6 -47 15.5 -91t21.5 -90l2 -8v3q4 -9 7.5 -19t3.5 -20q0 -14 -7.5 -23.5t-17.5 -14.5t-22 -7q-14 -1 -24 -1q-43 0 -68 10t-40.5 27.5t-23 42t-12.5 54.5l-4 24 q-5 18 -6 39q-1 10 -2 9.5t-2 9.5q-18 -32 -42 -69t-55 -69t-66 -53.5t-75 -21.5q-56 0 -86.5 34t-45 82.5t-17 101t-2.5 91.5q0 148 10 294t21 293q0 4 1 10t1 10q1 18 2.5 34t6.5 30v-1q5 21 15 30t30 9t39.5 -7t35 -19.5t25.5 -29.5t10 -38v-24.5t-2 -24.5q0 -9 -0.5 -23 t-0.5 -23q-10 -125 -15.5 -247.5t-5.5 -248.5q0 -35 0.5 -70t7.5 -71q43 55 74 140t52.5 180.5t35 190t20.5 167.5q0 4 0.5 9t0.5 9q1 14 2.5 27t9.5 25q0 12 1.5 25t6.5 24t14.5 17.5t28.5 6.5q52 0 81.5 -32t32.5 -81q6 -10 9.5 -20t3.5 -22z" />
<glyph unicode="v" horiz-adv-x="578" d="M543 642q0 -179 -27.5 -353t-67.5 -347q-5 -17 -6 -29q-8 -38 -16.5 -77.5t-26.5 -78.5q-17 -32 -46 -56t-64 -24q-14 0 -30 6.5t-34 16.5q-26 18 -39 50t-22 66l-3 9v-1q-22 84 -37 168.5t-29 170.5q-8 53 -15.5 105.5t-18.5 104.5l-18 77q-6 26 -13.5 56.5t-14 58 t-10.5 49.5q-4 20 -4 28q0 25 16.5 33.5t37.5 8.5q42 0 73.5 -18t45.5 -60q8 -22 14 -46.5t10 -49.5q22 -86 42 -181.5t34 -183.5l12 -67q1 -6 1 -10t1 -6.5t1.5 -6.5l1.5 -12q29 138 48.5 276.5t19.5 278.5q0 29 -3.5 56.5t-7.5 56.5q-4 27 -7 56.5t-3 59.5q0 27 17 37.5 t41 10.5q30 0 55 -4t43 -15t30 -31q12 -21 16 -53q3 -30 3 -64.5v-65.5z" />
<glyph unicode="w" horiz-adv-x="848" d="M524 522v-20t-3 -19q20 -70 36 -141q16 -72 32 -142q8 79 13.5 159.5t5.5 159.5q0 78 -5 159.5t-26 155.5l-5 18q-3 6 -4 14t-1 16q0 14 7 22.5t17.5 12.5t23.5 5t23 1q32 1 68 -7q23 -6 37.5 -19t21.5 -30t9.5 -37t4.5 -41q0 -3 0.5 -5t0.5 -5q6 -57 9.5 -115t3.5 -114 q0 -174 -20 -347t-49 -343q-4 -26 -11 -53.5t-20 -51t-34 -38t-52 -14.5q-35 0 -57 16t-36 41.5t-20 56.5t-10 61q-3 14 -5 26q-3 12 -5 22l-36 161q-10 -36 -27.5 -91.5t-38 -111t-40.5 -101t-33 -62.5q-14 -17 -36.5 -27t-44.5 -10q-39 0 -67 25q-26 26 -34 60 q-8 33 -12 67q0 3 -1 7v7q-20 143 -29 290.5t-9 293.5v216q0 12 1.5 25t6 24t14.5 17.5t28 6.5q48 0 79 -28.5t35 -75.5q4 -62 6 -126t3 -126q1 -72 2 -138.5t9 -141.5q16 51 30 105.5t25 110.5t18 111.5t7 107.5q0 6 -0.5 10.5t-0.5 11.5q-1 6 -1 12.5v13.5q0 32 14 47.5 t49 15.5q13 0 32 -3.5t38 -11.5t34.5 -19.5t20.5 -26.5h-1q6 -13 7.5 -24.5t1.5 -25.5z" />
<glyph unicode="x" horiz-adv-x="604" d="M616 -254q0 -16 -11 -24.5t-25 -12.5t-30 -5t-25 -1q-20 0 -35.5 1t-29 6.5t-25 15.5t-23.5 29q-22 40 -41 83t-37 84q-9 23 -15 37.5t-16 36.5q-29 -74 -58 -144t-60 -140q-9 -18 -20.5 -36t-38.5 -18q-14 0 -34 8.5t-39 22.5t-33 30.5t-14 33.5q0 13 5.5 27t11.5 27h-1 q49 107 93 210q45 103 87 208q-9 21 -25.5 64t-36 95t-40.5 109t-37 107t-27 88.5t-11 54.5q0 26 16 33t37 7q42 0 72.5 -17t47.5 -57q6 -17 13 -36t13 -37l11 -32q16 -42 28.5 -76t30.5 -74q32 83 60 172t41 179l4 35q0 18 5 39q6 18 15 27.5t31 9.5q21 0 40.5 -7t35 -19 t25 -29.5t9.5 -41.5q0 -36 -8.5 -85t-22.5 -102.5t-31.5 -111t-36.5 -111.5t-36.5 -101.5t-30.5 -82.5l79 -167q23 -49 48.5 -102.5t46.5 -98.5t34.5 -76t13.5 -35z" />
<glyph unicode="y" horiz-adv-x="640" d="M569 -388q0 -53 -3.5 -112t-13 -118t-25 -116t-38.5 -107q-39 -73 -98 -128t-129.5 -93t-150 -57t-159.5 -19q-12 0 -28 1t-32 5.5t-26 15t-10 28.5q0 8 4 16q0 3 0.5 4.5t0.5 3.5q9 26 20.5 41.5t26.5 24t35.5 11.5t46.5 6q83 4 157 39v-2q84 42 133 104t74.5 136.5 t32 158t6.5 167.5v29v16v16t-2 29q-46 -35 -95 -35q-57 0 -96.5 31.5t-66 83t-41.5 117t-22.5 134t-9.5 133.5q-2 66 -2 116v54q0 69 1 135.5t5 132.5v19v31.5t2 29.5q5 21 15 30.5t32 9.5q10 0 20 -1.5t20 -4.5q25 -10 39.5 -21t21.5 -26t9 -34.5t2 -45.5v-174 q0 -31 0.5 -77.5t3 -101t6.5 -113t12 -113t18.5 -100t25.5 -75.5q23 51 40 119t28 146.5t17 162t9.5 162.5t4 150t0.5 124q0 13 0.5 28t6 27.5t15 20.5t29.5 8q9 0 20 -3t19 -5q3 0 6 -0.5t5 -0.5q18 -6 35 -13t29.5 -17t19.5 -25.5t7 -39.5q0 -30 -0.5 -68.5t-2.5 -80 t-4.5 -81t-5.5 -71.5l-5 -45q-3 -18 -4 -36.5t-1 -33.5q0 -83 1.5 -166t3.5 -166q3 -83 4 -165.5t1 -165.5z" />
<glyph unicode="z" horiz-adv-x="595" d="M604 -154q0 -23 -19 -43t-50 -35t-69 -26.5t-74.5 -18.5t-67 -11t-47.5 -4q-32 0 -68.5 5t-72 16t-66.5 28.5t-53 42.5v-1q-10 10 -20 24.5t-10 32.5q0 12 9 21t21 13q13 31 27 62t29 61l19 46q69 135 128.5 267.5t117.5 274.5l-52 -3l-64 -4l-43 -5q-18 -3 -34 -4 t-33 -1q-49 0 -50 48q0 22 5.5 39.5t19.5 32.5q6 8 34.5 15t66 12.5t81 11t84 9.5t72 6t44.5 2q23 0 43.5 -7t20.5 -39q0 -18 -9 -39.5t-20 -38.5q3 -6 3 -20t-10.5 -47.5t-28 -82t-41 -107t-48.5 -119.5t-51 -122t-50 -114l-73 -169q22 -5 51 -5q58 0 111 22t91 44 q22 12 39 20t27 8q17 0 32 -9.5t26 -24.5t16.5 -31.5t5.5 -32.5z" />
<glyph unicode="{" horiz-adv-x="652" d="M729 -362q0 -30 -25 -51t-60.5 -33.5t-71.5 -17.5t-58 -5q-62 0 -125 20t-112 63q-39 32 -62 70t-34.5 79.5t-15 86.5t-3.5 94q-3 96 -4 192q0 97 -8 193q-3 21 -4.5 43t-5.5 44t-10 43t-20 39q-14 -4 -28 -7t-29 -3q-38 0 -48.5 17t-10.5 50q0 38 11.5 59.5t28.5 34.5 t37.5 23.5t37.5 27.5t29 46t12 80q0 64 -19 126t-42.5 125t-42.5 129t-19 137q0 68 21.5 124.5t61.5 96t95 61.5t124 22q16 0 49 -5t66.5 -15.5t59 -26t25.5 -36.5q0 -17 -17.5 -29t-41 -20t-47.5 -12t-37 -4q-12 0 -23.5 1.5t-23.5 1.5q-65 0 -93.5 -38.5t-28.5 -99.5 q0 -73 21 -142t46 -136.5t46.5 -136.5t21.5 -141q0 -65 -23 -124.5t-70 -104.5q39 -46 58.5 -116t27 -151.5t7.5 -166.5t3 -161.5t11 -137t33 -91.5q20 -26 47.5 -40.5t61.5 -14.5q25 0 44.5 8t35.5 17t30.5 16.5t30.5 7.5q17 0 32 -11.5t26 -29t16.5 -37t5.5 -33.5z" />
<glyph unicode="|" horiz-adv-x="380" d="M309 1010q0 -190 -5.5 -378t-12 -376.5t-12.5 -376.5t-6 -377q0 -31 -11 -54.5t-49 -23.5q-20 0 -44.5 6.5t-43.5 14.5q-38 16 -51.5 36.5t-13.5 62.5v23.5t2 25.5q8 194 14.5 387.5t17.5 387.5q10 204 16.5 404.5t6.5 404.5v183t-3 183q-3 62 -5 125t-2 125q0 27 7.5 41 t38.5 14q17 0 37.5 -5t38 -14t31.5 -22.5t21 -31.5q5 -18 9 -73.5t7 -131t6 -162t4 -165t1.5 -141.5t0.5 -92z" />
<glyph unicode="}" horiz-adv-x="663" d="M670 623q0 -39 -11.5 -60t-29 -34t-37 -23t-37 -27t-28.5 -46.5t-11 -79.5q0 -65 19 -127t41 -125t41 -128.5t19 -137.5q0 -69 -21.5 -125t-61 -95.5t-95.5 -61.5t-124 -22q-16 0 -49 5t-66 15.5t-58 25.5t-25 35q0 17 17 29t40.5 20t47 12t36.5 4h49q62 0 91 38t29 99 q0 73 -21.5 142t-47 136.5t-46 136.5t-20.5 142q0 65 23.5 123t69.5 103q-39 46 -57.5 116.5t-26.5 152t-8.5 167t-3 162.5t-11 137.5t-33.5 91.5q-18 26 -47 40t-60 14q-26 0 -45.5 -7.5t-35.5 -16.5t-31 -17t-31 -8q-17 0 -31 11.5t-25 29.5t-17.5 37t-6.5 34 q0 30 25 50.5t60.5 33t71.5 17.5q37 5 59 5q65 0 126 -20t110 -63q39 -34 62 -72t34.5 -79t15.5 -86t5 -93q3 -98 3 -193.5t8 -191.5q1 -21 3 -43t5.5 -44t10.5 -43.5t19 -38.5q16 4 30.5 7.5t29.5 3.5q35 0 46.5 -18.5t11.5 -49.5z" />
<glyph unicode="~" horiz-adv-x="603" d="M578 680q0 -44 -11 -87.5t-34 -78.5t-59.5 -56.5t-87.5 -21.5q-72 0 -105 37t-46.5 91t-17.5 114q-3 61 -15 109q-4 8 -8 21t-16 13t-18.5 -8t-9 -19.5t-3 -23.5t-0.5 -20q0 -38 6.5 -74t16.5 -74q4 -16 12.5 -38t8.5 -37q0 -22 -15.5 -28t-33.5 -6q-35 0 -55.5 21 t-30.5 52q-16 46 -25 94.5t-9 97.5q0 36 8.5 70t27.5 61t47.5 43t70.5 16q44 0 72.5 -16t46.5 -43t28 -61.5t15 -71.5t9 -74q5 -37 11 -67q3 -12 6.5 -28t21.5 -16q17 0 27.5 11.5t16.5 28.5t7 35.5t1 31.5q0 51 -13 87t-28.5 62t-28.5 44.5t-13 32.5q0 12 10.5 21.5 t25.5 17.5t30 11.5t25 3.5q36 0 61.5 -33t41 -78t22.5 -91.5t7 -75.5z" />
<glyph unicode="&#xa1;" horiz-adv-x="451" d="M290 901q0 -14 -9 -21t-23 -10t-28 -3h-23q-13 0 -30.5 1t-33.5 5.5t-27 13.5t-11 27q0 5 1 27.5t1.5 47t1.5 44t4 22.5q8 14 25 16t32 2q39 0 58.5 -4.5t28 -16.5t11 -32.5t9.5 -53.5q3 -16 8 -31.5t5 -33.5zM355 -794q0 -27 -6.5 -42t-40.5 -15q-18 0 -37 4.5t-36.5 13 t-31 21t-20.5 28.5q-4 9 -9.5 68.5t-12 151t-13 206.5t-14 238t-14 245t-12 226t-10 182t-8.5 113q0 10 -1.5 21t-1.5 21q0 55 52 55q16 0 38.5 -3.5t46 -10.5t42.5 -18q18 -11 26 -26q10 -18 10.5 -38t0.5 -42q8 -289 20 -574t24 -575q3 -62 5.5 -125t2.5 -125z" />
<glyph unicode="&#xa2;" horiz-adv-x="627" d="M430 -245q0 -26 -10 -35.5t-36 -9.5q-14 0 -36.5 3t-43.5 9.5t-37 18t-19 29.5q-3 14 -2.5 27t0.5 28q0 49 1 97t4 98q-66 30 -104 93.5t-56 140t-22.5 156t-4.5 140.5q0 42 1 96t7 110.5t19.5 112.5t37.5 102t60.5 78.5t90.5 44.5q-5 31 -10 66.5t-9 72.5t-5.5 73.5 t-1.5 67.5q0 26 14 34q16 8 38 8q23 0 47 -5t46 -13q20 -8 27.5 -25t9.5 -37.5t1 -42t-1 -38.5v-90t-3 -87q23 -10 49 -31.5t48 -48.5t36.5 -56t14.5 -56q0 -22 -13 -29.5t-31 -7.5q-49 0 -76 20.5t-46 43.5t-37 43.5t-49 20.5q-20 0 -31 -16q-10 -16 -18 -31 q-20 -39 -30.5 -80t-14.5 -82.5t-4.5 -84t-0.5 -83.5q0 -47 0.5 -95t4.5 -95.5t13 -94t26 -90.5q4 -10 12.5 -25.5t20 -29.5t24.5 -23.5t27 -9.5q17 0 27.5 15.5t16.5 37t8 43t2 34.5q0 12 -2.5 23.5t-2.5 25.5q0 22 15 30.5t34 8.5q22 0 46 -3t44 -13t33 -27t13 -45 q0 -46 -10.5 -89.5t-33.5 -78.5t-58 -60.5t-83 -34.5q4 -20 3.5 -40.5t1.5 -42.5q4 -42 11 -82.5t7 -83.5z" />
<glyph unicode="&#xa3;" horiz-adv-x="730" d="M702 241q0 -52 -24.5 -88t-63.5 -58t-85.5 -31.5t-89.5 -9.5q-51 0 -101.5 5t-100.5 5h-19q-12 -16 -28.5 -36.5t-38.5 -20.5q-12 0 -25 8.5t-24.5 20t-19 26t-7.5 25.5q0 9 6.5 21.5t16.5 25.5t19 25t16 22q39 62 54.5 138.5t15.5 150.5q0 23 -1.5 47.5t-3.5 48.5 q-18 -3 -34 -4t-34 -1q-31 0 -31 31q0 22 5.5 35.5t17.5 21.5t27.5 12.5t35.5 8.5q-9 47 -22 94.5t-25 94t-20.5 94t-8.5 94.5q0 57 18.5 102.5t51.5 76.5t79 48t103 17q86 0 138 -44t78 -122q6 -18 11 -35t5 -35t-8.5 -30t-28.5 -12q-32 0 -51 13t-31 32.5t-20.5 43t-20 43 t-27.5 32.5t-45 13q-61 0 -89 -39t-28 -96q0 -46 8.5 -92t20.5 -91.5t25 -91t22 -89.5q34 6 70 14.5t70 8.5q23 0 31 -12.5t8 -34.5q0 -32 -9 -47.5t-24.5 -23t-37 -8.5t-46.5 -4l-44 -3q8 -62 8 -122q0 -77 -14.5 -151t-48.5 -143q35 0 69 -2.5t69 -2.5q17 0 40.5 2t45 10 t35.5 21.5t14 36.5q0 16 -5 31.5t-11.5 30t-11.5 26.5t-5 22q0 12 7 19.5t17.5 11.5t22 6t20.5 2q32 0 54 -11.5t35 -30t18 -43t5 -53.5z" />
<glyph unicode="&#xa4;" horiz-adv-x="621" d="M380 675q-20 34 -39 53.5t-58 19.5q-43 0 -72 -29.5t-29 -72.5q0 -18 7 -36t19 -32t29 -22t36 -8q39 0 54.5 14t21.5 33.5t10 41.5t21 38zM512 977q0 -14 -19 -59t-42 -99q32 -39 49 -91t17 -108q0 -32 -9 -62t-23 -57q21 -35 40.5 -69.5t35 -64t25 -50t9.5 -27.5 q0 -14 -9.5 -22t-23 -12t-28.5 -4.5t-24 -0.5h-19q-30 1 -48 10.5t-30.5 24.5t-21.5 35t-22 42q-4 6 -7.5 13.5t-6.5 15.5q-34 -13 -74 -13q-22 -1 -42 3l-26 -53l-20 -44t-32 -34q-4 -4 -9 -4.5t-9 -0.5q-14 0 -33 8.5t-35.5 22t-27.5 30.5t-11 33q0 26 15 50t27 46 q5 8 9 16l9 18q-27 35 -42 79t-15 92q0 52 17.5 99.5t50.5 83.5q-16 27 -30.5 52.5t-26 47t-18 36.5t-6.5 19q0 10 7 17t17.5 10.5t21.5 5t19 1.5q30 0 53.5 -8t42.5 -31q14 -17 27.5 -36.5t25.5 -40.5q17 4 38 4q22 0 42 -4l31 61q5 10 12 27.5t17 33t21.5 27t27.5 11.5 q13 0 28 -7.5t27.5 -19.5t20 -26t7.5 -27z" />
<glyph unicode="&#xa5;" horiz-adv-x="656" d="M416 683q23 3 48 2.5t48 -0.5h21t13 -10q0 -4 -1.5 -9t-3.5 -12q-10 -27 -20 -35.5t-40 -8.5h-94q4 -23 6 -48t5 -48q31 0 60.5 1t58.5 1q6 0 20 -1t14 -12q0 -14 -13.5 -34.5t-27.5 -24.5q-8 -4 -16 -5t-16 -1q-20 0 -37 1.5t-35 4.5q4 -94 11 -187.5t7 -187.5 q0 -14 -8 -17.5t-18 -3.5q-6 0 -20 2t-29 5.5t-27.5 7.5t-17.5 9q-8 6 -10.5 13.5t-2.5 17.5q0 86 -1 170.5t-1 170.5q-27 -3 -54.5 -3h-55.5h-17t-11 8q0 25 15 36.5t36.5 15.5t44.5 4t39 1v104h-73h-14.5t-20.5 1.5t-18.5 3t-8.5 5.5q0 17 10.5 27.5t25.5 16.5t31 8t29 3 q-42 90 -77 181t-76 180q-6 13 -17.5 35.5t-22.5 46.5t-19.5 45.5t-8.5 31.5q0 8 10 8h16q26 0 52 -0.5t52 -12.5q4 -3 17.5 -33.5t31 -76t38 -99t38 -102t31 -86t18.5 -50.5q39 120 79.5 238t66.5 240q3 12 4.5 21.5t8.5 20.5q6 10 21 10q9 0 25 -2t32.5 -7t28.5 -13 t12 -20q0 -20 -11.5 -60.5t-29.5 -94t-41 -112.5t-44.5 -114t-39 -99.5t-26.5 -67.5z" />
<glyph unicode="&#xa6;" horiz-adv-x="371" d="M296 870v-37t-5 -34t-17.5 -24t-36.5 -9q-25 0 -51.5 6t-49 19t-36.5 33t-14 49q0 94 4 187t4 187q0 114 -3 226.5t-3 228.5q0 13 1 25.5t5 22t13.5 15t27.5 5.5q13 0 31.5 -4t36 -11t31.5 -18.5t21 -24.5q8 -17 13.5 -76.5t11 -142t8 -178t5 -183.5t3 -159t0.5 -103z M296 -422q0 -35 -16.5 -47.5t-48.5 -12.5q-13 0 -31 3t-37.5 9t-36 13t-25.5 17q-16 18 -18 37.5t-2 42.5q-3 42 -3 82v82v127v77.5t0.5 125t1.5 145.5t2 141.5t3 113t6 58.5q4 18 13.5 23t28.5 5q58 0 93 -31.5t39 -90.5q10 -192 10.5 -383t10.5 -384q3 -39 6.5 -76.5 t3.5 -76.5z" />
<glyph unicode="&#xa7;" horiz-adv-x="920" d="M443 1000q-14 -21 -26.5 -38.5t-22 -35.5t-15.5 -39t-6 -48q0 -49 18.5 -93t47.5 -83t65 -72.5t69 -63.5q23 34 34 71.5t11 79.5q0 48 -14 93.5t-37.5 86.5t-55.5 76.5t-68 65.5zM880 20q0 -95 -32.5 -169t-90.5 -125.5t-136.5 -79t-169.5 -27.5q-88 0 -161 25 t-124.5 72.5t-79.5 117t-28 160.5q0 21 3.5 55.5t9.5 70t13.5 68t18.5 50.5q10 16 20 23.5t29 7.5q17 0 41.5 -8.5t46 -22t37 -33t15.5 -40.5q0 -18 -3.5 -39.5t-9 -45.5t-9.5 -50t-4 -52q0 -94 46.5 -145.5t143.5 -51.5q57 0 100 18t71.5 51t43 78.5t14.5 101.5 q0 42 -7.5 81.5t-26.5 77.5q-20 42 -51.5 74t-62.5 64q-55 51 -116 106.5t-111.5 118t-84.5 133.5t-34 151q0 70 30.5 135t81.5 115q-49 26 -97.5 59.5t-86 76.5t-61 94.5t-23.5 112.5q0 73 32 129t82.5 93.5t115 57t129.5 19.5q87 0 152.5 -28t109 -78.5t65 -120 t21.5 -153.5q0 -14 -1 -35.5t-3 -45t-5.5 -44t-8.5 -31.5q-6 -14 -14.5 -20t-24.5 -6q-18 0 -37.5 6.5t-37 18.5t-30.5 27.5t-17 33.5q-3 10 -3 19.5v19.5q0 46 -2 96.5t-17.5 93.5t-48.5 71q-34 28 -96 28q-31 0 -61.5 -10.5t-54 -30t-38 -47t-14.5 -60.5q0 -35 14.5 -66.5 t39 -57.5t53.5 -47t59 -35q91 -47 171.5 -101.5t145.5 -137.5q51 -69 81.5 -150t30.5 -167q0 -78 -26.5 -149t-80.5 -129q38 -40 68.5 -82t52 -87.5t32.5 -96t11 -106.5z" />
<glyph unicode="&#xa8;" horiz-adv-x="444" d="M-39 1400q0 13 9 20.5t22.5 10.5t27.5 3h24q13 0 30.5 -0.5t33.5 -5t27 -14.5t11 -27q0 -6 -1 -27.5t-1.5 -46t-1 -45t-2.5 -21.5q-10 -14 -26 -16t-31 -2q-40 0 -59.5 4t-28.5 15.5t-11 32.5t-7 54q-4 16 -10 31.5t-6 33.5zM299 1400q0 13 9 20.5t22.5 10.5t27.5 3h24 q13 0 30.5 -0.5t33.5 -5t27 -14.5t11 -27q0 -6 -1 -27.5t-1.5 -46t-1 -45t-2.5 -21.5q-10 -14 -26 -16t-31 -2q-40 0 -59.5 4t-28.5 15.5t-11 32.5t-7 54q-4 16 -10 31.5t-6 33.5z" />
<glyph unicode="&#xa9;" horiz-adv-x="894" d="M733 714q-4 30 -7.5 58.5t-10.5 55.5q-10 48 -31.5 105t-55 105.5t-79 81.5t-102.5 33q-44 0 -83 -23q-53 -30 -89.5 -84.5t-59.5 -119t-33 -131.5t-10 -123q0 -57 11.5 -129.5t37 -142.5t66.5 -125.5t100 -80.5q14 -6 28.5 -8t29.5 -2q30 0 56.5 11t50 28.5t42 40 t33.5 44.5q53 82 70.5 175t17.5 187q0 14 2 26t16 18zM450 43q-72 0 -130.5 29.5t-104 77.5t-78.5 111t-55 131t-32.5 137t-10.5 128q0 60 9.5 129.5t30.5 139t53.5 133t78 113t104 79.5t132.5 30q69 0 126 -28.5t103 -77t79 -110.5t55.5 -131t33.5 -139.5t11 -132.5 q0 -70 -12 -143t-36 -141t-58.5 -129t-80 -107t-100 -72.5t-118.5 -26.5zM660 501q0 -23 -9.5 -46t-21.5 -45q-26 -49 -67.5 -85.5t-98.5 -36.5q-49 0 -85 20.5t-61.5 55.5t-41.5 79.5t-25.5 91t-12.5 92t-3 82.5q0 58 9 116.5t35 112.5q13 29 34 56.5t47 49t57 34.5t65 13 q31 0 61.5 -15t55.5 -39t40 -54.5t15 -63.5q0 -29 -32 -28q-34 0 -50 15t-27.5 33t-23.5 33t-36 15q-12 0 -24.5 -4.5t-22.5 -11.5q-30 -18 -48.5 -48t-29.5 -64.5t-14.5 -70t-3.5 -66.5q0 -27 4.5 -80.5t17.5 -107t36 -93t61 -39.5q32 0 48 26.5t25 59t17.5 59.5t29.5 27 q13 0 27 -6.5t26 -16.5t19.5 -23.5t7.5 -26.5z" />
<glyph unicode="&#xaa;" horiz-adv-x="556" d="M313 1286q-26 -36 -45.5 -70.5t-33.5 -70t-26 -72.5t-22 -78q-8 -27 -14.5 -53t-6.5 -54v-23q32 30 56.5 83t42 113.5t29.5 120.5t20 104zM537 771q0 -13 -11 -20.5t-26 -11.5t-31.5 -5.5t-25.5 -1.5q-32 0 -49.5 20t-26 49t-11 60.5t-4.5 55.5q-14 -30 -33.5 -60 t-45 -55.5t-55.5 -41t-66 -15.5q-31 0 -53 12.5t-36.5 33.5t-21 47t-6.5 53q0 69 19 138.5t50 135t70.5 126t81.5 112.5q8 9 18.5 22t22.5 25t25 20t28 8q16 0 28 -13.5t18 -27.5q5 3 16 2q26 0 43 -9t26.5 -24.5t13 -35.5t3.5 -42q0 -51 -4 -100.5t-4 -100.5 q0 -69 1.5 -140t16.5 -140q1 -6 6.5 -17.5t10 -23t8.5 -21.5t4 -14zM526 639q0 -16 -5 -31t-13 -27q-16 -22 -40 -25t-46 -6q-55 -4 -107 -10.5t-106 -12.5q-34 -4 -67.5 -10t-67.5 -6q-16 0 -29 6.5t-13 24.5q0 10 3 13q5 20 15 31.5t23.5 18t30 10t32.5 5.5 q69 12 135.5 24t135.5 23q18 3 36.5 7t36.5 4q22 0 34 -8.5t12 -30.5z" />
<glyph unicode="&#xab;" horiz-adv-x="738" d="M394 -167q0 -14 -15 -24t-35 -16t-40.5 -9t-29.5 -3q-12 0 -23 1.5t-21 8.5q-13 6 -37.5 37t-51.5 68t-50 71.5l-33 49.5q-22 31 -43 67.5t-21 75.5q0 17 7 34t18 32.5t22.5 31t22.5 30.5l112 169q6 10 15 26.5t21 31t25 25t27 10.5q13 0 26 -7.5t24 -20t18 -27.5t7 -28 q0 -9 -11 -32.5t-28.5 -54t-38.5 -65.5t-40 -66.5t-35 -56.5q-18 -25 -24 -37q30 -62 77 -121.5t90 -112.5q16 -18 30.5 -34.5t29.5 -35.5q5 -10 5 -18zM732 -167q0 -14 -15 -24t-35 -16t-40.5 -9t-29.5 -3q-12 0 -23 1.5t-21 8.5q-13 6 -37.5 37t-51.5 68t-50 71.5 l-33 49.5q-22 31 -43 67.5t-21 75.5q0 17 7 34t18 32.5t22.5 31t22.5 30.5l112 169q6 10 15 26.5t21 31t25 25t27 10.5q13 0 26 -7.5t24 -20t18 -27.5t7 -28q0 -9 -11 -32.5t-28.5 -54t-38.5 -65.5t-40 -66.5t-35 -56.5q-18 -25 -24 -37q30 -62 77 -121.5t90 -112.5 q16 -18 30.5 -34.5t29.5 -35.5q5 -10 5 -18z" />
<glyph unicode="&#xac;" horiz-adv-x="640" d="M569 485q0 -12 -1 -36.5t-3 -51.5t-4.5 -50.5t-6.5 -32.5q-13 -21 -34 -21q-17 0 -34.5 7t-32.5 19.5t-24.5 28t-9.5 33.5q0 34 6.5 65t6.5 65q0 10 -1.5 19.5t-4.5 19.5q-84 -6 -169 -12t-171 -6q-18 0 -34 6t-16 28q0 16 6.5 33t17.5 29q14 18 35 22t43 7 q69 8 136.5 13t136.5 13q10 0 20.5 1t20.5 1q39 0 62.5 -20t35.5 -50t15.5 -65t3.5 -65z" />
<glyph unicode="&#xad;" horiz-adv-x="566" d="M554 706q0 -18 -8 -34q-8 -22 -15 -36t-17.5 -22t-25.5 -11t-38 -3h-354q-9 0 -22.5 0.5t-27.5 3.5t-23.5 10.5t-9.5 21.5q0 31 22 55t53 31q26 4 52 4.5t52 3.5q74 4 148.5 8.5t150.5 4.5q9 0 20.5 -1t21 -4t15.5 -11t6 -21z" />
<glyph unicode="&#xae;" horiz-adv-x="878" d="M442 98q-74 0 -138.5 36.5t-113.5 90.5q-40 47 -69 101.5t-47 114t-26.5 120.5t-8.5 122q0 58 9.5 125t30.5 133.5t53 128t77 108.5t102 75t128 28q66 0 121.5 -25.5t100 -69.5t77.5 -102t55 -124.5t33 -136t11 -135.5q0 -114 -28.5 -221t-80.5 -188.5t-125 -131 t-161 -49.5zM307 1094q14 3 28.5 2.5t28.5 -0.5q51 0 99 -12t85.5 -38t60.5 -67t23 -99q0 -42 -13 -78.5t-36.5 -68t-54.5 -57.5t-68 -45q47 -51 95 -103t95 -103q14 34 23 64.5t14 60t6 60t1 65.5q0 18 4 35t20 27q-3 10 -3 18t-3 16q-5 35 -14 77.5t-24.5 85.5t-37.5 82.5 t-51 70.5t-64.5 50t-78.5 19q-42 0 -75 -17.5t-60 -44.5zM367 992q16 -31 15 -67q0 -22 -2.5 -43t-2.5 -43q-3 -31 -3 -61v-61q27 10 54 25t48.5 35t35 45.5t13.5 57.5t-15 54t-38.5 34t-51 17.5t-53.5 6.5zM403 332q0 -34 -36 -34q-26 0 -50 8q-23 10 -30 25.5t-11 41.5 q-8 77 -9.5 154t-1.5 153l-2 3h2q3 77 5.5 152t12.5 152q-14 -3 -27 -6t-25 -7q-27 -61 -43 -135t-16 -141q0 -38 5.5 -86t19.5 -99t34.5 -100.5t50 -88t67.5 -62.5t88 -24q47 0 85 23t66 58q-20 16 -35 37t-33 41l-70 78t-70 80q3 -42 4.5 -82t8.5 -81q3 -14 6.5 -29 t3.5 -31z" />
<glyph unicode="&#xaf;" horiz-adv-x="442" d="M481 1268q0 -49 -22.5 -78t-73.5 -29q-84 0 -166.5 1.5t-166.5 1.5h-26t-30 2.5t-24.5 9.5t-10.5 22q0 23 13.5 49t35.5 34q6 3 36.5 6.5t72 7t89.5 6t91.5 4.5t77.5 3t47 1q23 0 40 -7t17 -34z" />
<glyph unicode="&#xb0;" horiz-adv-x="465" d="M472 1257q0 -48 -19 -91.5t-51 -76.5t-75.5 -53t-91.5 -20q-53 0 -98 21t-76.5 57.5t-49 84t-17.5 99.5q0 51 17.5 97.5t48.5 83t75 58t98 21.5q58 0 103 -24t75 -63t45.5 -90t15.5 -104zM334 1312q-20 34 -38.5 53.5t-57.5 19.5q-43 0 -72.5 -29.5t-29.5 -72.5 q0 -18 7.5 -36t19 -31.5t28.5 -22t37 -8.5q39 0 54.5 14t21 33.5t9.5 41.5t21 38z" />
<glyph unicode="&#xb1;" horiz-adv-x="715" d="M441 220q0 -26 -21 -32.5t-42 -6.5q-58 0 -92.5 20t-34.5 87v257q-42 -3 -84 -3h-85q-16 0 -31.5 7.5t-15.5 26.5q0 36 24.5 56t59 27.5t72 9t63.5 3.5q1 30 0.5 75.5t-0.5 92.5t1.5 90.5t8.5 69.5q4 18 13 26t29 8q46 0 68 -19.5t30.5 -49t8.5 -64.5t2 -67l2 -151 q51 4 103 7t103 3q22 0 39.5 -6.5t17.5 -32.5q0 -18 -9 -39.5t-20 -35.5q-18 -26 -46.5 -28.5t-54.5 -2.5l-130 -3q0 -74 1 -149.5t17 -149.5q0 -6 1.5 -12t1.5 -14zM628 4q0 -18 -8 -34q-8 -22 -15 -36t-17.5 -22t-25.5 -11t-38 -3h-354q-9 0 -22.5 0.5t-27 3.5t-23.5 10.5 t-10 21.5q0 31 22 55q21 24 53 31q26 4 52 4.5t52 3.5l148 8q76 5 152 5q9 0 20 -1t20.5 -4t15.5 -11t6 -21z" />
<glyph unicode="&#xb2;" horiz-adv-x="452" d="M430 548q0 -25 -10 -42q-6 -14 -22.5 -21.5t-35.5 -9t-37.5 -1.5t-32.5 -2q-31 0 -62 -2.5t-62 -5.5q-16 -16 -39 -15q-12 0 -28.5 4.5t-32 13t-26 21t-10.5 26.5q0 16 8.5 30.5t15.5 29.5q16 32 39 81.5t48.5 106.5t50 118.5t44 119t32 107.5t12.5 85q0 12 -0.5 29 t-4.5 32.5t-12.5 26.5t-24.5 11q-22 0 -40.5 -15.5t-33.5 -37t-25 -46t-15 -41.5q-6 -18 -14 -30t-30 -12q-14 0 -29 4t-27.5 12t-21 19.5t-8.5 27.5q0 20 8 37t18 35q34 66 88.5 107.5t132.5 41.5q48 0 82 -16t55.5 -43t31.5 -65t10 -82q0 -69 -22 -149t-54.5 -161.5 t-68 -160.5t-63.5 -145l86 12t86 6q20 0 32 -9.5t12 -31.5z" />
<glyph unicode="&#xb3;" horiz-adv-x="517" d="M506 787q0 -62 -15 -124t-47 -111.5t-83.5 -80t-122.5 -30.5q-39 0 -79.5 13t-73 37t-53 58.5t-20.5 78.5q0 22 14 32q12 10 32 10q39 0 61.5 -9t34.5 -22t18 -29t12.5 -29t19 -22t36.5 -9q36 0 60.5 28.5t39 68.5t20 82t5.5 71q0 25 -3.5 51.5t-15.5 48t-32 34.5t-53 11 q-14 -14 -29.5 -29t-35.5 -15q-14 0 -28.5 6t-26 15.5t-18.5 23.5t-7 28t26.5 41.5t59 64.5t59 80.5t26.5 91.5q0 65 -65 65q-38 0 -49.5 -19.5t-17 -43t-13 -43t-34.5 -19.5q-14 0 -29 3.5t-29 11t-22 19.5t-8 29q0 39 19 69t49 50.5t66.5 31t70.5 10.5q39 0 76 -10 t65.5 -30t46 -51t17.5 -75q0 -61 -26.5 -115t-64.5 -101q44 -10 76 -34.5t52.5 -57.5t29.5 -72.5t9 -82.5z" />
<glyph unicode="&#xb4;" horiz-adv-x="304" d="M-39 1211q0 13 11 28.5t26 29.5t30.5 26.5t26.5 21.5l127 117q16 12 33.5 27t36.5 15q13 0 29.5 -10t30 -23.5t22.5 -30.5t9 -30v-5.5t-2 -4.5q-4 -16 -16 -27.5t-26 -22.5q-40 -32 -61.5 -48.5t-40 -30t-41 -29t-62.5 -45.5q-14 -10 -28 -16.5t-30 -6.5q-12 0 -24.5 5 t-24.5 14t-19 21t-7 25z" />
<glyph unicode="&#xb5;" horiz-adv-x="813" d="M352 597q0 -49 -11 -101t-17 -102q-4 -27 -3.5 -55.5t0.5 -56.5q0 -43 2 -96.5t6.5 -108.5t13 -107t22.5 -91q22 26 41 73.5t34.5 106t28.5 123t23 126.5t16.5 115t10.5 88q1 23 2.5 46.5t8 43t20.5 34.5t44 22q6 3 13.5 2.5t15.5 -0.5q39 0 64 -22t29 -63 q4 -42 3.5 -85.5t-0.5 -86.5q0 -73 -1.5 -146.5t-1.5 -147.5q0 -70 4 -142t22 -141q4 -16 10 -31.5t6 -33.5q0 -23 -20 -31t-40 -8q-49 0 -77 9.5t-41.5 29t-18.5 51t-9 74.5q-14 -26 -33.5 -57.5t-44 -58t-54.5 -44t-62 -17.5q-34 0 -60 16q-24 15 -44 38q-8 -144 -8 -293 q0 -94 6.5 -189t6.5 -191q0 -22 -18.5 -28t-36.5 -6q-12 0 -29.5 2.5t-35 8.5t-32.5 14.5t-23 18.5q-5 9 -7.5 31.5t-3.5 47.5t-1 48.5v34.5q0 196 8 387q6 191 30 385q8 62 17 126t20 126q6 30 11.5 60t9.5 60l2.5 57.5t2.5 71t3 69t7 51.5q8 23 20.5 29t34.5 2q6 3 16 3 q38 0 68 -26.5t30 -64.5z" />
<glyph unicode="&#xb6;" horiz-adv-x="1041" d="M642 1367q5 -40 8 -89t3 -100t-1 -101t1 -90q3 -127 4 -266.5t3 -266.5q22 3 42 8.5t42 9.5q-4 100 -7.5 213t-5.5 229t-2.5 229t-0.5 213q-22 4 -43 7.5t-43 3.5zM502 454q0 103 0.5 217.5t1 231.5t0 230.5t-1.5 214.5v13q-79 -12 -139 -61t-101 -119.5t-62 -151.5 t-21 -156q0 -77 22.5 -146.5t63.5 -126t100.5 -95t136.5 -51.5zM668 -266q0 -23 -8.5 -43t-38.5 -20q-16 0 -35.5 7.5t-34.5 13.5q-34 18 -43 41t-9 61v116v130.5t0.5 131t2.5 116.5q-108 16 -196 67t-151 127.5t-97.5 174t-34.5 205.5q0 83 21 176t62 177.5t100.5 153 t139.5 104.5q53 26 113 35t118 9t117 -7q12 -3 35.5 -7t51.5 -11t57 -15.5t53 -19t39.5 -22t15.5 -24.5t-7 -24t-18 -21t-24 -17t-23 -11q5 -142 9.5 -295t9.5 -309t11.5 -309t15.5 -293q1 -34 4 -81t5.5 -95.5t6 -95t8.5 -79.5q3 -14 4 -27.5t1 -27.5q0 -27 -17 -37 t-40 -10q-26 0 -57.5 10t-46.5 32q-10 14 -14 34t-5.5 41.5t-1 43t-0.5 39.5q-3 42 -5 96.5t-3.5 112t-3.5 112.5t-4 98q-22 -8 -43.5 -10.5t-44.5 -5.5q1 -58 2 -129t1.5 -145t1 -145t0.5 -129z" />
<glyph unicode="&#xb7;" horiz-adv-x="301" d="M53 620q0 13 9.5 20.5t23 10.5t27 3h23.5q13 0 31 -0.5t33.5 -5t26.5 -14.5t11 -27q0 -6 -0.5 -27.5t-1.5 -46t-1.5 -45t-1.5 -21.5q-10 -14 -26.5 -16t-30.5 -2q-40 0 -60 4t-29 15.5t-11 32.5t-7 54q-4 16 -10 31.5t-6 33.5z" />
<glyph unicode="&#xb8;" horiz-adv-x="340" d="M380 -505q0 -36 -18.5 -65.5t-47 -50.5t-62.5 -32t-65 -11q-39 0 -77 11.5t-74 30.5q-8 3 -20.5 9t-24.5 14.5t-21 17.5t-9 18q0 10 11 19t25.5 14.5t29.5 8.5t22 3q17 0 33 -5.5t31.5 -12t31 -11.5t32.5 -5q18 0 39 11t21 33q0 12 -11.5 16.5t-22.5 4.5 q-14 0 -27.5 -2.5t-27.5 -2.5q-39 0 -67.5 23t-28.5 65q0 12 6 42.5t14.5 64t18 62.5t16.5 36q8 10 15.5 13t17.5 3q13 0 30.5 -6.5t32.5 -17.5t25.5 -25.5t10.5 -28.5q0 -10 -2 -24.5t-5 -30t-7 -29t-7 -20.5q29 -4 57.5 -15t52 -28.5t38 -41.5t14.5 -55z" />
<glyph unicode="&#xb9;" horiz-adv-x="262" d="M233 506q0 -23 -17 -31t-35 -8q-30 0 -62 9t-42 40q-3 12 -3 24v23q-12 200 -21.5 398t-9.5 398q0 20 9 31q8 10 32 10q22 0 48.5 -9.5t37.5 -31.5q4 -6 6 -19.5t2 -27v-27v-22.5q6 -166 14 -333t30 -333q3 -23 7 -46t4 -45z" />
<glyph unicode="&#xba;" horiz-adv-x="533" d="M202 1296q-16 -35 -24 -82.5t-8 -86.5q0 -20 3.5 -61t12.5 -84t25.5 -75t42.5 -32q31 0 48.5 25t25 59.5t9.5 70.5t2 58q0 26 -2.5 60t-9 68t-17.5 64.5t-28 52.5q-6 -20 -13.5 -32t-30.5 -12q-16 -1 -36 7zM480 1073q0 -56 -11 -110.5t-37 -97.5t-70 -69.5t-108 -26.5 q-62 0 -104 31t-67 79t-35 104.5t-10 107.5q0 78 16 157.5t62 144.5q5 9 14 20.5t20 22t23 17.5t23 7q16 0 24 -8q30 13 57 13q26 0 48.5 -9t42.5 -24q38 -31 60 -74t33.5 -91.5t15 -98t3.5 -95.5zM521 672q-1 -78 -73 -85q-61 -8 -119.5 -11.5t-119.5 -7.5q-31 -3 -62 -5 t-65 -2q-16 0 -30 5t-14 23q0 35 23 51t55 22q31 6 62 9q30 3 62 7q58 8 118.5 19.5t121.5 11.5q18 0 29.5 -8.5t11.5 -28.5z" />
<glyph unicode="&#xbb;" horiz-adv-x="738" d="M407 171q0 -18 -7 -35t-17.5 -33t-22.5 -31.5t-21 -28.5l-114 -171q-6 -10 -15.5 -25.5t-20.5 -30.5t-24 -25t-26 -10q-14 0 -27.5 7.5t-25 19.5t-18.5 26t-7 27q0 9 11 33t28.5 55.5t38.5 66.5t40.5 66t35.5 56.5t23 37.5q-27 62 -74 120q-46 58 -92 111 q-14 20 -30 36.5t-28 36.5q-8 8 -8 18q0 13 15 23.5t35.5 16.5t41 9t31.5 3q12 0 22 -3t22 -10q13 -6 37 -36t50.5 -66.5t50 -71t33.5 -49.5q20 -31 41.5 -67.5t21.5 -75.5zM745 171q0 -18 -7 -35t-17.5 -33t-22.5 -31.5t-21 -28.5l-114 -171q-6 -10 -15.5 -25.5 t-20.5 -30.5t-24 -25t-26 -10q-14 0 -27.5 7.5t-25 19.5t-18.5 26t-7 27q0 9 11 33t28.5 55.5t38.5 66.5t40.5 66t35.5 56.5t23 37.5q-27 62 -74 120q-46 58 -92 111q-14 20 -30 36.5t-28 36.5q-8 8 -8 18q0 13 15 23.5t35.5 16.5t41 9t31.5 3q12 0 22 -3t22 -10 q13 -6 37 -36t50.5 -66.5t50 -71t33.5 -49.5q20 -31 41.5 -67.5t21.5 -75.5z" />
<glyph unicode="&#xbc;" horiz-adv-x="1021" d="M282 506q0 -23 -17 -31t-35 -8q-30 0 -62 9t-42 40q-3 12 -2.5 24t0.5 23q-12 200 -22 398t-10 398q0 20 9 30.5t33 10.5q22 0 48 -9.5t38 -31.5q4 -6 6 -19.5t2 -27v-27v-22.5q6 -166 14 -333t30 -333q3 -23 6.5 -46t3.5 -45zM740 1205q0 -30 -12.5 -58.5t-24.5 -55.5 q-104 -273 -200.5 -545.5t-189.5 -546.5q-4 -12 -11 -36.5t-14.5 -50.5t-15.5 -48t-13 -29q-9 -13 -26 -13q-13 0 -30.5 6t-33.5 15.5t-27 23.5t-11 28q0 12 15 58.5t40.5 118t58 160t67.5 182t70 186t65 170.5t52 137t33 85l67 174q8 22 16 44.5t18 41.5q6 12 14 20 q9 9 23 9q30 0 50 -24.5t20 -51.5zM1002 186q0 -30 -11.5 -46t-30 -24t-41 -10t-44.5 -3q4 -62 9.5 -127t5.5 -130q0 -22 -9.5 -30.5t-31.5 -8.5q-23 0 -49 9t-40 32q-4 8 -7.5 42.5t-7.5 75.5t-6.5 78t-4.5 51h-52q-18 0 -47 2t-57 9t-49 21t-21 38q0 16 11 54.5t29.5 88.5 t39 106t41.5 108t37 93.5t24 62.5q-3 20 -5.5 37t-2.5 35q0 23 18 31t37 8q13 0 31 -3.5t34.5 -12t28 -21.5t13.5 -30q0 -3 -1.5 -6t-1.5 -7q0 -38 2.5 -74.5t5.5 -73.5l21 -346q22 3 42 5q22 3 44 3q18 0 32 -8.5t14 -28.5zM727 204l-11 159q-16 -39 -30 -79.5t-24 -81.5 h13q14 0 26 1t26 1z" />
<glyph unicode="&#xbd;" horiz-adv-x="1038" d="M266 506q0 -23 -16 -31q-18 -8 -36 -8q-30 0 -62 9t-42 40q-3 12 -2.5 24t0.5 23q-12 200 -21.5 398t-9.5 398q0 20 9 30.5t32 10.5q22 0 48 -9.5t38 -31.5q4 -6 6 -19.5t2 -27v-27v-22.5q6 -166 14 -333t30 -333q3 -23 6.5 -46t3.5 -45zM724 1205q0 -30 -12.5 -58.5 t-23.5 -55.5q-104 -273 -201 -545.5t-189 -546.5q-4 -12 -11 -36.5t-15 -50.5t-16 -48t-13 -29q-9 -13 -26 -13q-13 0 -30.5 6t-33 15.5t-26.5 23.5t-11 28q0 12 15 58.5t40 118t57.5 160t68 182t70.5 186t65 170.5t52 137t32 85l68 174l16 44q8 23 18 42q6 12 14 20.5 t22 8.5q30 0 50 -24.5t20 -51.5zM1005 -102q-1 -25 -11 -42q-6 -14 -22 -21.5t-35 -9t-38 -1.5t-32 -2q-31 0 -62 -2.5t-63 -5.5q-16 -16 -39 -15q-12 0 -28 4.5t-31.5 13t-26 21t-10.5 26.5q0 16 8.5 30.5t14.5 29.5q16 32 39.5 81.5t49 106.5t50 118.5t44 119t32 107.5 t12.5 85q0 12 -1 29t-4.5 32.5t-12 26.5t-24.5 11q-22 0 -41 -15.5t-34 -37t-24.5 -46t-14.5 -41.5q-6 -18 -14 -30q-9 -12 -31 -12q-14 0 -29 4t-27 12t-20.5 19.5t-8.5 27.5q0 20 7.5 37t18.5 35q34 66 88.5 107.5t132.5 41.5q48 0 81.5 -16t55 -43t32 -65t10.5 -82 q0 -69 -22 -149t-54.5 -161.5t-68.5 -160.5t-63 -145l86 12t86 6q20 0 32 -9.5t12 -31.5z" />
<glyph unicode="&#xbe;" horiz-adv-x="1245" d="M963 1205q0 -30 -12 -58.5t-24 -55.5q-104 -273 -201 -545.5t-189 -546.5q-4 -12 -11 -36.5t-15 -50.5t-15.5 -48t-13.5 -29q-9 -13 -26 -13q-13 0 -30.5 6t-33 15.5t-26.5 23.5t-11 28q0 12 15 58.5t40.5 118t57.5 160t67.5 182t70.5 186t65 170.5t52 137t32 85l68 174 q8 22 15.5 44.5t18.5 41.5q6 12 14 20.5t22 8.5q30 0 50 -24.5t20 -51.5zM1226 186q0 -30 -12 -46t-30 -24t-40 -10q-24 -2 -46 -3q4 -62 10 -127t6 -130q0 -22 -10 -30q-10 -9 -32 -9q-23 0 -48.5 9t-39.5 32q-4 8 -8 42.5t-7.5 75.5t-6.5 78t-4 51h-52q-18 0 -47.5 2 t-57 9t-48.5 21t-21 38q0 16 11 54.5t29 88.5t39 106t42 108t37 93.5t24 62.5q-3 20 -5.5 37t-2.5 35q0 23 17.5 31t37.5 8q13 0 31 -3.5t34.5 -12t28 -21.5t12.5 -30q0 -3 -1 -6t-1 -7q0 -38 2.5 -74.5t4.5 -73.5l21 -346q22 3 43 5.5t43 2.5q18 0 32.5 -8.5t14.5 -28.5z M950 204l-10 159q-16 -39 -30 -79.5t-25 -81.5h13q14 0 26 1t26 1zM537 787q0 -62 -15 -124t-47 -111.5t-83 -80t-123 -30.5q-39 0 -79 13t-73 37t-53.5 58.5t-20.5 78.5q0 22 13.5 32t33.5 10q39 0 61 -9t34.5 -22t18 -29t12 -29t19 -22t37.5 -9q36 0 60 28.5t38.5 68.5 t20 82t5.5 71q0 25 -3.5 51.5t-15.5 48t-32 34.5q-21 13 -53 11q-14 -14 -30 -29q-14 -15 -34 -15q-14 0 -28.5 6t-26.5 15.5t-19 23.5t-7 28t26.5 41.5t59 64.5t59 80.5t26.5 91.5q0 65 -64 65q-38 0 -50 -19.5t-17.5 -43t-13 -43t-34.5 -19.5q-14 0 -29 3.5t-28.5 11 t-22 19.5t-8.5 29q0 39 19.5 69t49.5 50.5t66 31t70 10.5q39 0 76 -10t65.5 -30t46.5 -51t18 -75q0 -61 -27 -115t-65 -101q44 -10 76 -34.5t52.5 -57.5t29.5 -72.5t9 -82.5z" />
<glyph unicode="&#xbf;" horiz-adv-x="832" d="M572 935q0 -14 -9 -21.5t-23 -10t-28.5 -2.5h-25.5q-13 0 -30.5 0.5t-33 5.5t-26.5 14t-11 27q0 5 0.5 27t2 47t2.5 44.5t3 21.5q10 14 25.5 16.5t31.5 2.5q39 0 58.5 -4.5t28 -16.5t11 -33t8.5 -53q3 -16 9.5 -31.5t6.5 -33.5zM790 -461q0 -73 -18 -143t-57 -125 t-98 -88.5t-141 -33.5q-113 0 -186 47.5t-116 122.5t-59 169.5t-16 188.5q0 104 11 209.5t49 203.5q23 60 61.5 126t75 134t63 135t26.5 130v57q0 35 11.5 58t50.5 23q22 0 53.5 -8t50.5 -18q31 -16 40.5 -37.5t9.5 -56.5q0 -69 -19.5 -131t-49 -121.5t-64.5 -116.5 t-65 -114q-62 -114 -85.5 -240.5t-23.5 -256.5q0 -26 3 -62.5t11 -75.5t20.5 -78t32 -69.5t46 -49t61.5 -18.5q43 0 71 27t43.5 66t22 82.5t6.5 76.5q0 36 -11.5 74.5t-26 71t-26 55t-11.5 28.5q0 13 11 20.5t26 12t30.5 6.5t25.5 2q49 0 81 -30t49.5 -73.5t24 -92.5 t6.5 -87z" />
<glyph unicode="&#xc0;" horiz-adv-x="964" d="M1017 415q0 -27 -19.5 -57t-43.5 -44q-6 -4 -22 -8t-33.5 -7.5t-33.5 -6.5t-25 -4l31 -193q14 -90 21.5 -180t33.5 -179q3 -8 5 -14t2 -17q0 -17 -9.5 -26t-23 -13.5t-29.5 -6t-29 -1.5h-18q-40 0 -61.5 6.5t-33 22.5t-15.5 40t-9 59q-31 238 -71 476q-81 -10 -162 -19.5 t-163 -17.5l-41 -255q-3 -23 -7.5 -63.5t-10.5 -82.5t-13 -78.5t-16 -53.5q-8 -16 -14.5 -22t-24.5 -6q-23 0 -46 8t-40.5 23t-28 36t-10.5 47t6 52t10 52q14 86 25.5 171t26.5 170q-9 1 -21 4t-23 8.5t-18.5 13t-7.5 18.5q0 13 9.5 24t23 20.5t28 17t24.5 11.5 q27 182 52 362.5t45 365.5q5 49 9 99.5t8.5 101.5t11.5 100.5t20 98.5q12 47 39 75.5t81 28.5q16 0 30.5 -2.5t26.5 -10.5q34 -17 70 -92.5t72.5 -182.5t69.5 -232t60.5 -242t47 -211t28.5 -140q27 4 54.5 7.5t54.5 3.5q13 0 30 -1.5t32 -7.5t25 -17t10 -29zM608 425 q-34 185 -73.5 366.5t-92.5 361.5q-23 -196 -50.5 -389.5t-58.5 -387.5q70 10 138 22.5t137 26.5zM371 1697q0 -13 -7 -25t-18.5 -21t-24.5 -14t-25 -5q-16 0 -30.5 6.5t-26.5 16.5q-42 30 -61.5 45t-34.5 27.5t-33 28t-58 47.5q-12 10 -23.5 22t-18.5 28v10q0 13 8.5 30 t22 30.5t30 23.5t30.5 10q20 0 36.5 -15t31.5 -27l109 -112q9 -9 25 -21t31 -26.5t26 -30t11 -28.5z" />
<glyph unicode="&#xc1;" horiz-adv-x="964" d="M1017 415q0 -27 -19.5 -57t-43.5 -44q-6 -4 -22 -8t-33.5 -7.5t-33.5 -6.5t-25 -4l31 -193q14 -90 21.5 -180t33.5 -179q3 -8 5 -14t2 -17q0 -17 -9.5 -26t-23 -13.5t-29.5 -6t-29 -1.5h-18q-40 0 -61.5 6.5t-33 22.5t-15.5 40t-9 59q-31 238 -71 476q-81 -10 -162 -19.5 t-163 -17.5l-41 -255q-3 -23 -7.5 -63.5t-10.5 -82.5t-13 -78.5t-16 -53.5q-8 -16 -14.5 -22t-24.5 -6q-23 0 -46 8t-40.5 23t-28 36t-10.5 47t6 52t10 52q14 86 25.5 171t26.5 170q-9 1 -21 4t-23 8.5t-18.5 13t-7.5 18.5q0 13 9.5 24t23 20.5t28 17t24.5 11.5 q27 182 52 362.5t45 365.5q5 49 9 99.5t8.5 101.5t11.5 100.5t20 98.5q12 47 39 75.5t81 28.5q16 0 30.5 -2.5t26.5 -10.5q34 -17 70 -92.5t72.5 -182.5t69.5 -232t60.5 -242t47 -211t28.5 -140q27 4 54.5 7.5t54.5 3.5q13 0 30 -1.5t32 -7.5t25 -17t10 -29zM608 425 q-34 185 -73.5 366.5t-92.5 361.5q-23 -196 -50.5 -389.5t-58.5 -387.5q70 10 138 22.5t137 26.5zM354 1702q0 13 11 28.5t26 29.5t30.5 26.5t26.5 21.5l127 117q16 12 33.5 27t36.5 15q13 0 29.5 -10t30 -23.5t22.5 -30.5t9 -30v-5.5t-2 -4.5q-4 -16 -16 -27.5t-26 -22.5 q-40 -32 -61.5 -48.5t-40 -30t-41 -29t-62.5 -45.5q-14 -10 -28 -16.5t-30 -6.5q-12 0 -24.5 5t-24.5 14t-19 21t-7 25z" />
<glyph unicode="&#xc2;" horiz-adv-x="964" d="M1017 415q0 -27 -19.5 -57t-43.5 -44q-6 -4 -22 -8t-33.5 -7.5t-33.5 -6.5t-25 -4l31 -193q14 -90 21.5 -180t33.5 -179q3 -8 5 -14t2 -17q0 -17 -9.5 -26t-23 -13.5t-29.5 -6t-29 -1.5h-18q-40 0 -61.5 6.5t-33 22.5t-15.5 40t-9 59q-31 238 -71 476q-81 -10 -162 -19.5 t-163 -17.5l-41 -255q-3 -23 -7.5 -63.5t-10.5 -82.5t-13 -78.5t-16 -53.5q-8 -16 -14.5 -22t-24.5 -6q-23 0 -46 8t-40.5 23t-28 36t-10.5 47t6 52t10 52q14 86 25.5 171t26.5 170q-9 1 -21 4t-23 8.5t-18.5 13t-7.5 18.5q0 13 9.5 24t23 20.5t28 17t24.5 11.5 q27 182 52 362.5t45 365.5q5 49 9 99.5t8.5 101.5t11.5 100.5t20 98.5q12 47 39 75.5t81 28.5q16 0 30.5 -2.5t26.5 -10.5q34 -17 70 -92.5t72.5 -182.5t69.5 -232t60.5 -242t47 -211t28.5 -140q27 4 54.5 7.5t54.5 3.5q13 0 30 -1.5t32 -7.5t25 -17t10 -29zM608 425 q-34 185 -73.5 366.5t-92.5 361.5q-23 -196 -50.5 -389.5t-58.5 -387.5q70 10 138 22.5t137 26.5zM590 1670q0 -10 -7.5 -16.5t-18 -10t-22 -4t-19.5 -0.5q-12 0 -25.5 0.5t-24.5 7.5q-18 8 -25 21.5t-14 27.5q-16 42 -31 81t-34 78q-18 -46 -36 -90t-36 -89 q-4 -12 -8.5 -20.5t-15.5 -16.5q-3 -3 -13 -2q-10 0 -22.5 5.5t-23 14.5t-17.5 21t-7 24q0 9 12.5 46t28.5 81.5t31 85t22 54.5q12 26 28 40.5t47 14.5q36 0 65 -29q23 -23 39 -53.5t31 -60.5q5 -10 21.5 -42t32.5 -67t29 -65.5t13 -36.5z" />
<glyph unicode="&#xc3;" horiz-adv-x="964" d="M1017 415q0 -27 -19.5 -57t-43.5 -44q-6 -4 -22 -8t-33.5 -7.5t-33.5 -6.5t-25 -4l31 -193q14 -90 21.5 -180t33.5 -179q3 -8 5 -14t2 -17q0 -17 -9.5 -26t-23 -13.5t-29.5 -6t-29 -1.5h-18q-40 0 -61.5 6.5t-33 22.5t-15.5 40t-9 59q-31 238 -71 476q-81 -10 -162 -19.5 t-163 -17.5l-41 -255q-3 -23 -7.5 -63.5t-10.5 -82.5t-13 -78.5t-16 -53.5q-8 -16 -14.5 -22t-24.5 -6q-23 0 -46 8t-40.5 23t-28 36t-10.5 47t6 52t10 52q14 86 25.5 171t26.5 170q-9 1 -21 4t-23 8.5t-18.5 13t-7.5 18.5q0 13 9.5 24t23 20.5t28 17t24.5 11.5 q27 182 52 362.5t45 365.5q5 49 9 99.5t8.5 101.5t11.5 100.5t20 98.5q12 47 39 75.5t81 28.5q16 0 30.5 -2.5t26.5 -10.5q34 -17 70 -92.5t72.5 -182.5t69.5 -232t60.5 -242t47 -211t28.5 -140q27 4 54.5 7.5t54.5 3.5q13 0 30 -1.5t32 -7.5t25 -17t10 -29zM608 425 q-34 185 -73.5 366.5t-92.5 361.5q-23 -196 -50.5 -389.5t-58.5 -387.5q70 10 138 22.5t137 26.5zM634 1780q0 -65 -39 -104t-112 -39q-56 0 -87 16t-47 41.5t-21.5 54t-10 54t-11.5 41.5t-25 16q-39 0 -39 -33q0 -26 10 -53.5t22 -52t22.5 -43.5t10.5 -26q0 -16 -19 -21 t-31 -5q-34 0 -53.5 13t-34.5 39q-18 34 -32.5 70t-14.5 73q0 65 46 97.5t115 32.5q51 0 92 -24t56 -69q3 -9 5.5 -30t8 -42.5t14 -38.5t22.5 -17q6 0 10 6t6 13t2 13.5v9.5q0 27 -5 55t-16 54q-4 12 -9.5 21.5t-5.5 20.5q0 17 18.5 22.5t33.5 5.5q36 0 59.5 -15.5t37 -40 t18 -55t4.5 -60.5z" />
<glyph unicode="&#xc4;" horiz-adv-x="964" d="M1017 415q0 -27 -19.5 -57t-43.5 -44q-6 -4 -22 -8t-33.5 -7.5t-33.5 -6.5t-25 -4l31 -193q14 -90 21.5 -180t33.5 -179q3 -8 5 -14t2 -17q0 -17 -9.5 -26t-23 -13.5t-29.5 -6t-29 -1.5h-18q-40 0 -61.5 6.5t-33 22.5t-15.5 40t-9 59q-31 238 -71 476q-81 -10 -162 -19.5 t-163 -17.5l-41 -255q-3 -23 -7.5 -63.5t-10.5 -82.5t-13 -78.5t-16 -53.5q-8 -16 -14.5 -22t-24.5 -6q-23 0 -46 8t-40.5 23t-28 36t-10.5 47t6 52t10 52q14 86 25.5 171t26.5 170q-9 1 -21 4t-23 8.5t-18.5 13t-7.5 18.5q0 13 9.5 24t23 20.5t28 17t24.5 11.5 q27 182 52 362.5t45 365.5q5 49 9 99.5t8.5 101.5t11.5 100.5t20 98.5q12 47 39 75.5t81 28.5q16 0 30.5 -2.5t26.5 -10.5q34 -17 70 -92.5t72.5 -182.5t69.5 -232t60.5 -242t47 -211t28.5 -140q27 4 54.5 7.5t54.5 3.5q13 0 30 -1.5t32 -7.5t25 -17t10 -29zM608 425 q-34 185 -73.5 366.5t-92.5 361.5q-23 -196 -50.5 -389.5t-58.5 -387.5q70 10 138 22.5t137 26.5zM125 1811q0 13 9 20.5t22.5 10.5t27.5 3h24q13 0 30.5 -0.5t33.5 -5t27 -14.5t11 -27q0 -6 -1 -27.5t-1.5 -46t-1 -45t-2.5 -21.5q-10 -14 -26 -16t-31 -2q-40 0 -59.5 4 t-28.5 15.5t-11 32.5t-7 54q-4 16 -10 31.5t-6 33.5zM463 1811q0 13 9 20.5t22.5 10.5t27.5 3h24q13 0 30.5 -0.5t33.5 -5t27 -14.5t11 -27q0 -6 -1 -27.5t-1.5 -46t-1 -45t-2.5 -21.5q-10 -14 -26 -16t-31 -2q-40 0 -59.5 4t-28.5 15.5t-11 32.5t-7 54q-4 16 -10 31.5 t-6 33.5z" />
<glyph unicode="&#xc5;" horiz-adv-x="964" d="M1017 415q0 -27 -19.5 -57t-43.5 -44q-6 -4 -22 -8t-33.5 -7.5t-33.5 -6.5t-25 -4l31 -193q14 -90 21.5 -180t33.5 -179q3 -8 5 -14t2 -17q0 -17 -9.5 -26t-23 -13.5t-29.5 -6t-29 -1.5h-18q-40 0 -61.5 6.5t-33 22.5t-15.5 40t-9 59q-31 238 -71 476q-81 -10 -162 -19.5 t-163 -17.5l-41 -255q-3 -23 -7.5 -63.5t-10.5 -82.5t-13 -78.5t-16 -53.5q-8 -16 -14.5 -22t-24.5 -6q-23 0 -46 8t-40.5 23t-28 36t-10.5 47t6 52t10 52q14 86 25.5 171t26.5 170q-9 1 -21 4t-23 8.5t-18.5 13t-7.5 18.5q0 13 9.5 24t23 20.5t28 17t24.5 11.5 q27 182 52 362.5t45 365.5q5 49 9 99.5t8.5 101.5t11.5 100.5t20 98.5q12 47 39 75.5t81 28.5q16 0 30.5 -2.5t26.5 -10.5q34 -17 70 -92.5t72.5 -182.5t69.5 -232t60.5 -242t47 -211t28.5 -140q27 4 54.5 7.5t54.5 3.5q13 0 30 -1.5t32 -7.5t25 -17t10 -29zM608 425 q-34 185 -73.5 366.5t-92.5 361.5q-23 -196 -50.5 -389.5t-58.5 -387.5q70 10 138 22.5t137 26.5zM452 1791q-14 16 -24.5 22t-32.5 6q-20 0 -42.5 -11.5t-22.5 -35.5q0 -22 19 -33t38 -11q25 0 34.5 7t13.5 17t6 21.5t11 17.5zM574 1759q0 -34 -17.5 -58.5t-45 -42t-59 -26 t-60.5 -8.5q-31 0 -64 9t-60.5 27.5t-45 45.5t-17.5 64q0 35 17 61.5t44 45t59.5 27.5t64.5 9q35 0 68 -10t59 -29.5t41.5 -48t15.5 -66.5z" />
<glyph unicode="&#xc6;" horiz-adv-x="1513" d="M1543 -17q0 -22 -17.5 -42.5t-41.5 -40t-49.5 -36t-42.5 -26.5q-46 -29 -89 -53.5t-89.5 -43t-95 -28.5t-103.5 -10l-18 -3q-86 -1 -141.5 23.5t-89 67t-49 98t-22 118t-7 128t-3.5 127.5q-90 -4 -179.5 -16.5t-181.5 -20.5l-89 -255q-8 -25 -19.5 -64.5t-25 -81 t-27 -78.5t-27.5 -54q-10 -14 -18 -21t-26 -7q-42 0 -73 25t-31 68q0 9 10 43t24 80t32.5 99.5t35.5 102t30.5 87t18.5 54.5q-20 4 -41 12t-21 32q0 10 12 22t28.5 22t32.5 18t26 11q61 182 118.5 362.5t112.5 365.5q29 99 53 201.5t66 198.5q22 46 54 75t87 29 q47 0 66.5 -21t34.5 -62q34 12 70 15t71 3q86 0 171.5 -1.5t171.5 -1.5q26 0 51.5 2t52.5 -4q16 -3 27.5 -8.5t11.5 -25.5q0 -39 -21.5 -61t-52.5 -32.5t-67 -13t-64 -2.5q-58 0 -117 1t-117 1h-52.5t-51.5 -2q-8 -20 -11 -40.5t-3 -42.5q0 -142 8.5 -280t15.5 -279 q81 6 160 15t157 21q10 0 20 1.5t22 1.5q27 0 38 -14.5t11 -40.5q0 -18 -2 -33.5t-8 -31.5q-10 -26 -31 -38.5t-47 -17t-54 -3.5t-50 -1l-211 -8q1 -27 4 -81.5t6 -122t7.5 -142t10 -138.5t11 -112t13.5 -64q14 -27 31 -35.5t47 -8.5q49 0 102.5 19t104 48t97 64t81.5 69 q12 12 27.5 24t34.5 12q18 0 36.5 -11t32 -28.5t22 -38.5t8.5 -39zM659 425v63q0 166 -7 332.5t-27 332.5q-58 -196 -121 -389.5t-128 -387.5q70 10 141.5 22.5t141.5 26.5z" />
<glyph unicode="&#xc7;" horiz-adv-x="1053" d="M775 -505q0 -36 -18.5 -65.5t-47 -50.5t-62 -32t-65.5 -11q-39 0 -77 11.5t-73 30.5q-8 3 -21 9t-25 14.5t-21 17.5t-9 18q0 10 11 19t25.5 14.5t29.5 8.5t23 3q17 0 32.5 -5.5t31 -12t31 -11.5t32.5 -5q18 0 39 11t21 33q0 12 -11 16.5t-23 4.5q-14 0 -27 -2.5t-28 -2.5 q-39 0 -67.5 23t-28.5 65q0 12 4 38.5t12 57.5q-73 26 -127 79t-93 119.5t-66 143.5t-44 152q-31 134 -48 268.5t-17 269.5q0 79 7 164t25 167.5t49.5 159.5t78 143t111 116.5t150.5 79.5q31 12 65 16.5t67 4.5q68 0 129 -22.5t107.5 -62.5t73 -97.5t26.5 -127.5 q0 -23 -10.5 -35t-36.5 -12q-48 0 -74.5 16t-43.5 39t-28 50.5t-26.5 51t-41.5 39t-72 15.5t-85.5 -17.5t-72.5 -46t-59.5 -64.5t-47.5 -72q-55 -101 -77 -216.5t-22 -230.5q0 -39 3 -101t10.5 -136t20.5 -156.5t31.5 -162t45.5 -152t61.5 -127.5t78 -87.5t97.5 -32.5 q56 0 99 29.5t73.5 74.5t51 97.5t31.5 97.5q4 13 7.5 23.5t9 18.5t15 12t25.5 4q18 0 43.5 -7.5t48.5 -20.5t38.5 -31t15.5 -40q0 -20 -6 -38.5t-12 -37.5q-29 -73 -69 -134t-93 -106.5t-119 -72.5t-146 -30l-7 -31q29 -4 57 -15t51.5 -28.5t38 -41.5t14.5 -55z" />
<glyph unicode="&#xc8;" horiz-adv-x="968" d="M998 -17q0 -22 -17.5 -42.5t-42 -40t-50.5 -36t-43 -26.5q-44 -29 -87.5 -53.5t-90 -43t-95 -28.5t-101.5 -10l-21 -3q-43 0 -85.5 10t-78.5 30t-65 51t-44 75q-12 35 -18.5 83.5t-9.5 100.5t-5 102t-4 89q-20 398 -31 795q-3 46 -4 91.5t-1 90.5q0 78 9 133t36.5 90 t79 50.5t135.5 15.5t169.5 -1.5t171.5 -1.5q26 0 52 2t52 -4q16 -3 27.5 -8.5t11.5 -25.5q0 -47 -31.5 -69.5t-74.5 -30.5t-89 -7.5t-76 0.5h-169h-52t-52 -2q-8 -20 -10.5 -40.5t-2.5 -42.5q0 -142 7.5 -280t13.5 -279q81 6 160 15t160 21q12 0 21.5 1.5t19.5 1.5 q27 0 38.5 -14.5t11.5 -40.5q0 -18 -2 -33.5t-9 -31.5q-9 -26 -29.5 -37.5t-46.5 -16t-54 -4.5t-49 -2q-55 -3 -107.5 -4t-105.5 -4q1 -27 3.5 -81.5t6 -123t8 -141t9.5 -137t11.5 -112.5t13.5 -65q14 -27 32 -35.5t48 -8.5q48 0 101.5 19t104 48t97 64t80.5 69 q14 12 28.5 24t33.5 12q20 0 38 -11.5t32.5 -29t22.5 -38.5t8 -38zM551 1655q0 -13 -7 -25t-18.5 -21t-24.5 -14t-25 -5q-16 0 -30.5 6.5t-26.5 16.5q-42 30 -61.5 45t-34.5 27.5t-33 28t-58 47.5q-12 10 -23.5 22t-18.5 28v10q0 13 8.5 30t22 30.5t30 23.5t30.5 10 q20 0 36.5 -15t31.5 -27l109 -112q9 -9 25 -21t31 -26.5t26 -30t11 -28.5z" />
<glyph unicode="&#xc9;" horiz-adv-x="968" d="M998 -17q0 -22 -17.5 -42.5t-42 -40t-50.5 -36t-43 -26.5q-44 -29 -87.5 -53.5t-90 -43t-95 -28.5t-101.5 -10l-21 -3q-43 0 -85.5 10t-78.5 30t-65 51t-44 75q-12 35 -18.5 83.5t-9.5 100.5t-5 102t-4 89q-20 398 -31 795q-3 46 -4 91.5t-1 90.5q0 78 9 133t36.5 90 t79 50.5t135.5 15.5t169.5 -1.5t171.5 -1.5q26 0 52 2t52 -4q16 -3 27.5 -8.5t11.5 -25.5q0 -47 -31.5 -69.5t-74.5 -30.5t-89 -7.5t-76 0.5h-169h-52t-52 -2q-8 -20 -10.5 -40.5t-2.5 -42.5q0 -142 7.5 -280t13.5 -279q81 6 160 15t160 21q12 0 21.5 1.5t19.5 1.5 q27 0 38.5 -14.5t11.5 -40.5q0 -18 -2 -33.5t-9 -31.5q-9 -26 -29.5 -37.5t-46.5 -16t-54 -4.5t-49 -2q-55 -3 -107.5 -4t-105.5 -4q1 -27 3.5 -81.5t6 -123t8 -141t9.5 -137t11.5 -112.5t13.5 -65q14 -27 32 -35.5t48 -8.5q48 0 101.5 19t104 48t97 64t80.5 69 q14 12 28.5 24t33.5 12q20 0 38 -11.5t32.5 -29t22.5 -38.5t8 -38zM387 1645q0 13 11 28.5t26 29.5t30.5 26.5t26.5 21.5l127 117q16 12 33.5 27t36.5 15q13 0 29.5 -10t30 -23.5t22.5 -30.5t9 -30v-5.5t-2 -4.5q-4 -16 -16 -27.5t-26 -22.5q-40 -32 -61.5 -48.5t-40 -30 t-41 -29t-62.5 -45.5q-14 -10 -28 -16.5t-30 -6.5q-12 0 -24.5 5t-24.5 14t-19 21t-7 25z" />
<glyph unicode="&#xca;" horiz-adv-x="968" d="M998 -17q0 -22 -17.5 -42.5t-42 -40t-50.5 -36t-43 -26.5q-44 -29 -87.5 -53.5t-90 -43t-95 -28.5t-101.5 -10l-21 -3q-43 0 -85.5 10t-78.5 30t-65 51t-44 75q-12 35 -18.5 83.5t-9.5 100.5t-5 102t-4 89q-20 398 -31 795q-3 46 -4 91.5t-1 90.5q0 78 9 133t36.5 90 t79 50.5t135.5 15.5t169.5 -1.5t171.5 -1.5q26 0 52 2t52 -4q16 -3 27.5 -8.5t11.5 -25.5q0 -47 -31.5 -69.5t-74.5 -30.5t-89 -7.5t-76 0.5h-169h-52t-52 -2q-8 -20 -10.5 -40.5t-2.5 -42.5q0 -142 7.5 -280t13.5 -279q81 6 160 15t160 21q12 0 21.5 1.5t19.5 1.5 q27 0 38.5 -14.5t11.5 -40.5q0 -18 -2 -33.5t-9 -31.5q-9 -26 -29.5 -37.5t-46.5 -16t-54 -4.5t-49 -2q-55 -3 -107.5 -4t-105.5 -4q1 -27 3.5 -81.5t6 -123t8 -141t9.5 -137t11.5 -112.5t13.5 -65q14 -27 32 -35.5t48 -8.5q48 0 101.5 19t104 48t97 64t80.5 69 q14 12 28.5 24t33.5 12q20 0 38 -11.5t32.5 -29t22.5 -38.5t8 -38zM660 1629q0 -10 -7.5 -16.5t-18 -10t-22 -4t-19.5 -0.5q-12 0 -25.5 0.5t-24.5 7.5q-18 8 -25 21.5t-14 27.5q-16 42 -31 81t-34 78q-18 -46 -36 -90t-36 -89q-4 -12 -8.5 -20.5t-15.5 -16.5q-3 -3 -13 -2 q-10 0 -22.5 5.5t-23 14.5t-17.5 21t-7 24q0 9 12.5 46t28.5 81.5t31 85t22 54.5q12 26 28 40.5t47 14.5q36 0 65 -29q23 -23 39 -53.5t31 -60.5q5 -10 21.5 -42t32.5 -67t29 -65.5t13 -36.5z" />
<glyph unicode="&#xcb;" horiz-adv-x="968" d="M998 -17q0 -22 -17.5 -42.5t-42 -40t-50.5 -36t-43 -26.5q-44 -29 -87.5 -53.5t-90 -43t-95 -28.5t-101.5 -10l-21 -3q-43 0 -85.5 10t-78.5 30t-65 51t-44 75q-12 35 -18.5 83.5t-9.5 100.5t-5 102t-4 89q-20 398 -31 795q-3 46 -4 91.5t-1 90.5q0 78 9 133t36.5 90 t79 50.5t135.5 15.5t169.5 -1.5t171.5 -1.5q26 0 52 2t52 -4q16 -3 27.5 -8.5t11.5 -25.5q0 -47 -31.5 -69.5t-74.5 -30.5t-89 -7.5t-76 0.5h-169h-52t-52 -2q-8 -20 -10.5 -40.5t-2.5 -42.5q0 -142 7.5 -280t13.5 -279q81 6 160 15t160 21q12 0 21.5 1.5t19.5 1.5 q27 0 38.5 -14.5t11.5 -40.5q0 -18 -2 -33.5t-9 -31.5q-9 -26 -29.5 -37.5t-46.5 -16t-54 -4.5t-49 -2q-55 -3 -107.5 -4t-105.5 -4q1 -27 3.5 -81.5t6 -123t8 -141t9.5 -137t11.5 -112.5t13.5 -65q14 -27 32 -35.5t48 -8.5q48 0 101.5 19t104 48t97 64t80.5 69 q14 12 28.5 24t33.5 12q20 0 38 -11.5t32.5 -29t22.5 -38.5t8 -38zM172 1772q0 13 9 20.5t22.5 10.5t27.5 3h24q13 0 30.5 -0.5t33.5 -5t27 -14.5t11 -27q0 -6 -1 -27.5t-1.5 -46t-1 -45t-2.5 -21.5q-10 -14 -26 -16t-31 -2q-40 0 -59.5 4t-28.5 15.5t-11 32.5t-7 54 q-4 16 -10 31.5t-6 33.5zM510 1772q0 13 9 20.5t22.5 10.5t27.5 3h24q13 0 30.5 -0.5t33.5 -5t27 -14.5t11 -27q0 -6 -1 -27.5t-1.5 -46t-1 -45t-2.5 -21.5q-10 -14 -26 -16t-31 -2q-40 0 -59.5 4t-28.5 15.5t-11 32.5t-7 54q-4 16 -10 31.5t-6 33.5z" />
<glyph unicode="&#xcc;" horiz-adv-x="863" d="M857 -113q0 -38 -19.5 -71t-53.5 -48q-10 -5 -50.5 -10t-87.5 -8.5t-89 -7.5t-59 -6q-4 -22 -21 -30.5t-36 -8.5q-22 0 -51 6.5t-51 14.5q-58 -8 -118 -17t-121 -9q-47 0 -47 44t25 67.5t60 35.5t75.5 16t71.5 9q-6 369 -13.5 733t-7.5 733q-53 -4 -104 -7 q-52 -3 -102 -3q-10 0 -21.5 0.5t-21.5 4t-17 10.5t-7 21q0 25 10.5 44t28 31t38 20t42.5 12q56 10 114 17.5t116 14.5t116 14.5t115 20.5q55 12 109 31t112 19q31 0 41.5 -23t10.5 -50q0 -22 -4.5 -42t-19.5 -39q-8 -10 -34.5 -20t-63.5 -17.5t-79 -14.5t-82 -13t-72.5 -10 t-47.5 -5q14 -181 20 -361.5t9.5 -361.5t7.5 -361.5t15 -361.5q74 12 149.5 23t151.5 11q22 0 42.5 -10t20.5 -37zM383 1650q0 -13 -7 -25t-18.5 -21t-24.5 -14t-25 -5q-16 0 -30.5 6.5t-26.5 16.5q-42 30 -61.5 45t-34.5 27.5t-33 28t-58 47.5q-12 10 -23.5 22t-18.5 28v10 q0 13 8.5 30t22 30.5t30 23.5t30.5 10q20 0 36.5 -15t31.5 -27l109 -112q9 -9 25 -21t31 -26.5t26 -30t11 -28.5z" />
<glyph unicode="&#xcd;" horiz-adv-x="858" d="M853 -113q0 -38 -19.5 -71t-53.5 -48q-10 -5 -50.5 -10t-87.5 -8.5t-89 -7.5t-59 -6q-4 -22 -21 -30.5t-36 -8.5q-22 0 -51 6.5t-51 14.5q-58 -8 -118 -17t-121 -9q-47 0 -47 44t25 67.5t60 35.5t75.5 16t71.5 9q-6 369 -13.5 733t-7.5 733q-53 -4 -104 -7 q-52 -3 -102 -3q-10 0 -21.5 0.5t-21.5 4t-17 10.5t-7 21q0 25 10.5 44t28 31t38 20t42.5 12q56 10 114 17.5t116 14.5t116 14.5t115 20.5q55 12 109 31t112 19q31 0 41.5 -23t10.5 -50q0 -22 -4.5 -42t-19.5 -39q-8 -10 -34.5 -20t-63.5 -17.5t-79 -14.5t-82 -13t-72.5 -10 t-47.5 -5q14 -181 20 -361.5t9.5 -361.5t7.5 -361.5t15 -361.5q74 12 149.5 23t151.5 11q22 0 42.5 -10t20.5 -37zM298 1645q0 13 11 28.5t26 29.5t30.5 26.5t26.5 21.5l127 117q16 12 33.5 27t36.5 15q13 0 29.5 -10t30 -23.5t22.5 -30.5t9 -30v-5.5t-2 -4.5 q-4 -16 -16 -27.5t-26 -22.5q-40 -32 -61.5 -48.5t-40 -30t-41 -29t-62.5 -45.5q-14 -10 -28 -16.5t-30 -6.5q-12 0 -24.5 5t-24.5 14t-19 21t-7 25z" />
<glyph unicode="&#xce;" horiz-adv-x="863" d="M857 -113q0 -38 -19.5 -71t-53.5 -48q-10 -5 -50.5 -10t-87.5 -8.5t-89 -7.5t-59 -6q-4 -22 -21 -30.5t-36 -8.5q-22 0 -51 6.5t-51 14.5q-58 -8 -118 -17t-121 -9q-47 0 -47 44t25 67.5t60 35.5t75.5 16t71.5 9q-6 369 -13.5 733t-7.5 733q-53 -4 -104 -7 q-52 -3 -102 -3q-10 0 -21.5 0.5t-21.5 4t-17 10.5t-7 21q0 25 10.5 44t28 31t38 20t42.5 12q56 10 114 17.5t116 14.5t116 14.5t115 20.5q55 12 109 31t112 19q31 0 41.5 -23t10.5 -50q0 -22 -4.5 -42t-19.5 -39q-8 -10 -34.5 -20t-63.5 -17.5t-79 -14.5t-82 -13t-72.5 -10 t-47.5 -5q14 -181 20 -361.5t9.5 -361.5t7.5 -361.5t15 -361.5q74 12 149.5 23t151.5 11q22 0 42.5 -10t20.5 -37zM542 1624q0 -10 -7.5 -16.5t-18 -10t-22 -4t-19.5 -0.5q-12 0 -25.5 0.5t-24.5 7.5q-18 8 -25 21.5t-14 27.5q-16 42 -31 81t-34 78q-18 -46 -36 -90t-36 -89 q-4 -12 -8.5 -20.5t-15.5 -16.5q-3 -3 -13 -2q-10 0 -22.5 5.5t-23 14.5t-17.5 21t-7 24q0 9 12.5 46t28.5 81.5t31 85t22 54.5q12 26 28 40.5t47 14.5q36 0 65 -29q23 -23 39 -53.5t31 -60.5q5 -10 21.5 -42t32.5 -67t29 -65.5t13 -36.5z" />
<glyph unicode="&#xcf;" horiz-adv-x="863" d="M857 -113q0 -38 -19.5 -71t-53.5 -48q-10 -5 -50.5 -10t-87.5 -8.5t-89 -7.5t-59 -6q-4 -22 -21 -30.5t-36 -8.5q-22 0 -51 6.5t-51 14.5q-58 -8 -118 -17t-121 -9q-47 0 -47 44t25 67.5t60 35.5t75.5 16t71.5 9q-6 369 -13.5 733t-7.5 733q-53 -4 -104 -7 q-52 -3 -102 -3q-10 0 -21.5 0.5t-21.5 4t-17 10.5t-7 21q0 25 10.5 44t28 31t38 20t42.5 12q56 10 114 17.5t116 14.5t116 14.5t115 20.5q55 12 109 31t112 19q31 0 41.5 -23t10.5 -50q0 -22 -4.5 -42t-19.5 -39q-8 -10 -34.5 -20t-63.5 -17.5t-79 -14.5t-82 -13t-72.5 -10 t-47.5 -5q14 -181 20 -361.5t9.5 -361.5t7.5 -361.5t15 -361.5q74 12 149.5 23t151.5 11q22 0 42.5 -10t20.5 -37zM53 1782q0 13 9 20.5t22.5 10.5t27.5 3h24q13 0 30.5 -0.5t33.5 -5t27 -14.5t11 -27q0 -6 -1 -27.5t-1.5 -46t-1 -45t-2.5 -21.5q-10 -14 -26 -16t-31 -2 q-40 0 -59.5 4t-28.5 15.5t-11 32.5t-7 54q-4 16 -10 31.5t-6 33.5zM391 1782q0 13 9 20.5t22.5 10.5t27.5 3h24q13 0 30.5 -0.5t33.5 -5t27 -14.5t11 -27q0 -6 -1 -27.5t-1.5 -46t-1 -45t-2.5 -21.5q-10 -14 -26 -16t-31 -2q-40 0 -59.5 4t-28.5 15.5t-11 32.5t-7 54 q-4 16 -10 31.5t-6 33.5z" />
<glyph unicode="&#xd0;" horiz-adv-x="1093" d="M385 667q12 0 39.5 1.5t57 -0.5t52 -10.5t22.5 -26.5q0 -35 -16.5 -54t-42 -27t-54 -9t-53.5 -1q6 -120 12 -237.5t14 -235.5q4 -103 16 -201q122 40 205 125t133 193.5t71.5 231t21.5 238.5q0 130 -31 246t-93 211.5t-155 169t-215 119.5v-5q0 -365 16 -728zM16 561 q0 18 7 33q13 35 28 51t34.5 21t44.5 3t57 -2q-3 77 -2.5 151t0.5 148q0 122 2.5 240.5t2.5 240.5q-14 0 -26.5 8t-12.5 23q0 21 11 38.5t28 30.5t37 20.5t38 7.5t34 -3.5t34 -7.5q173 -42 308 -126t228 -204.5t141 -273t48 -329.5q0 -140 -25 -273.5t-82 -250.5 t-148.5 -212t-225.5 -159q-34 -16 -74 -28.5t-83 -21.5t-84.5 -14.5t-78.5 -5.5q-14 0 -31.5 1t-33 5.5t-26 14.5t-10.5 29q0 16 6.5 32.5t17.5 32t25.5 28t28.5 18.5q-8 12 -14 62.5t-11 121.5t-8 152.5t-5 155.5t-4 130.5t-2 77.5q-27 -3 -54.5 -3h-54.5q-10 0 -22 1 t-22 4t-15.5 10.5t-5.5 21.5z" />
<glyph unicode="&#xd1;" horiz-adv-x="1036" d="M920 -193q0 -23 -4.5 -46t-15.5 -40.5t-29 -28t-47 -10.5q-35 0 -56.5 15t-39.5 42q-25 35 -44.5 81t-35 95t-29 97.5t-26.5 90.5q-70 218 -130.5 435.5t-129.5 435.5q-6 -282 -9.5 -561.5t-3.5 -561.5q0 -14 -1.5 -32.5t-6.5 -34.5t-16 -28t-31 -12q-66 0 -100.5 36 t-34.5 102q0 365 1.5 724t1.5 722v184q0 30 11 50t48 20q26 0 53.5 -7t49 -21t35 -37t13.5 -54q55 -104 92 -214.5t72 -222.5q51 -162 100 -325t100 -328q-8 246 -16.5 491t-32.5 490q-6 53 -15 103.5t-9 104.5q0 27 18.5 36.5t41.5 9.5q40 0 69 -6.5t48.5 -22t30 -42 t16.5 -66.5q8 -70 12.5 -141t8.5 -140q12 -174 17 -346t9 -346q4 -173 9.5 -345t5.5 -346zM723 1806q0 -65 -39 -104t-112 -39q-56 0 -87 16t-47 41.5t-21.5 54t-10 54t-11.5 41.5t-25 16q-39 0 -39 -33q0 -26 10 -53.5t22 -52t22.5 -43.5t10.5 -26q0 -16 -19 -21t-31 -5 q-34 0 -53.5 13t-34.5 39q-18 34 -32.5 70t-14.5 73q0 65 46 97.5t115 32.5q51 0 92 -24t56 -69q3 -9 5.5 -30t8 -42.5t14 -38.5t22.5 -17q6 0 10 6t6 13t2 13.5v9.5q0 27 -5 55t-16 54q-4 12 -9.5 21.5t-5.5 20.5q0 17 18.5 22.5t33.5 5.5q36 0 59.5 -15.5t37 -40t18 -55 t4.5 -60.5z" />
<glyph unicode="&#xd2;" horiz-adv-x="1024" d="M945 698q0 -55 -2 -126.5t-9 -153.5t-20.5 -168t-36 -168t-55 -154.5t-78 -127t-105 -86.5t-136.5 -32t-139 35.5t-105 94.5q-35 47 -62 115t-47 148.5t-34.5 167.5t-23 172t-12 161t-3.5 133q0 96 8.5 201.5t31.5 208.5t63.5 199.5t104.5 172.5q6 8 16 18.5t21.5 20.5 t23.5 17t24 7t23 -6.5t19 -17.5q27 16 57.5 22.5t62.5 6.5q95 0 163 -45t113.5 -117.5t73 -165t41.5 -188.5t18 -186t4 -159zM742 641q0 34 -2 103.5t-9.5 153.5t-21 172.5t-37 160.5t-58 118t-82.5 46q-20 0 -35.5 -18t-30 -46.5t-26 -62.5t-23 -65t-22 -56t-22.5 -35 q-4 -4 -12.5 -4.5t-16.5 -0.5q-22 0 -41 7q-22 -88 -30.5 -176t-8.5 -177q0 -27 2.5 -82t8 -125t14.5 -150.5t22 -160.5t30.5 -153.5t41 -130t52 -90.5t63.5 -34q20 0 35.5 11t29.5 23q39 35 67.5 92t48 126t32.5 145t19.5 150.5t9 141t2.5 117.5zM550 1723q0 -13 -7 -25 t-18.5 -21t-24.5 -14t-25 -5q-16 0 -30.5 6.5t-26.5 16.5q-42 30 -61.5 45t-34.5 27.5t-33 28t-58 47.5q-12 10 -23.5 22t-18.5 28v10q0 13 8.5 30t22 30.5t30 23.5t30.5 10q20 0 36.5 -15t31.5 -27l109 -112q9 -9 25 -21t31 -26.5t26 -30t11 -28.5z" />
<glyph unicode="&#xd3;" horiz-adv-x="1024" d="M945 698q0 -55 -2 -126.5t-9 -153.5t-20.5 -168t-36 -168t-55 -154.5t-78 -127t-105 -86.5t-136.5 -32t-139 35.5t-105 94.5q-35 47 -62 115t-47 148.5t-34.5 167.5t-23 172t-12 161t-3.5 133q0 96 8.5 201.5t31.5 208.5t63.5 199.5t104.5 172.5q6 8 16 18.5t21.5 20.5 t23.5 17t24 7t23 -6.5t19 -17.5q27 16 57.5 22.5t62.5 6.5q95 0 163 -45t113.5 -117.5t73 -165t41.5 -188.5t18 -186t4 -159zM742 641q0 34 -2 103.5t-9.5 153.5t-21 172.5t-37 160.5t-58 118t-82.5 46q-20 0 -35.5 -18t-30 -46.5t-26 -62.5t-23 -65t-22 -56t-22.5 -35 q-4 -4 -12.5 -4.5t-16.5 -0.5q-22 0 -41 7q-22 -88 -30.5 -176t-8.5 -177q0 -27 2.5 -82t8 -125t14.5 -150.5t22 -160.5t30.5 -153.5t41 -130t52 -90.5t63.5 -34q20 0 35.5 11t29.5 23q39 35 67.5 92t48 126t32.5 145t19.5 150.5t9 141t2.5 117.5zM441 1697q0 13 11 28.5 t26 29.5t30.5 26.5t26.5 21.5l127 117q16 12 33.5 27t36.5 15q13 0 29.5 -10t30 -23.5t22.5 -30.5t9 -30v-5.5t-2 -4.5q-4 -16 -16 -27.5t-26 -22.5q-40 -32 -61.5 -48.5t-40 -30t-41 -29t-62.5 -45.5q-14 -10 -28 -16.5t-30 -6.5q-12 0 -24.5 5t-24.5 14t-19 21t-7 25z" />
<glyph unicode="&#xd4;" horiz-adv-x="1024" d="M945 698q0 -55 -2 -126.5t-9 -153.5t-20.5 -168t-36 -168t-55 -154.5t-78 -127t-105 -86.5t-136.5 -32t-139 35.5t-105 94.5q-35 47 -62 115t-47 148.5t-34.5 167.5t-23 172t-12 161t-3.5 133q0 96 8.5 201.5t31.5 208.5t63.5 199.5t104.5 172.5q6 8 16 18.5t21.5 20.5 t23.5 17t24 7t23 -6.5t19 -17.5q27 16 57.5 22.5t62.5 6.5q95 0 163 -45t113.5 -117.5t73 -165t41.5 -188.5t18 -186t4 -159zM742 641q0 34 -2 103.5t-9.5 153.5t-21 172.5t-37 160.5t-58 118t-82.5 46q-20 0 -35.5 -18t-30 -46.5t-26 -62.5t-23 -65t-22 -56t-22.5 -35 q-4 -4 -12.5 -4.5t-16.5 -0.5q-22 0 -41 7q-22 -88 -30.5 -176t-8.5 -177q0 -27 2.5 -82t8 -125t14.5 -150.5t22 -160.5t30.5 -153.5t41 -130t52 -90.5t63.5 -34q20 0 35.5 11t29.5 23q39 35 67.5 92t48 126t32.5 145t19.5 150.5t9 141t2.5 117.5zM693 1657 q0 -10 -7.5 -16.5t-18 -10t-22 -4t-19.5 -0.5q-12 0 -25.5 0.5t-24.5 7.5q-18 8 -25 21.5t-14 27.5q-16 42 -31 81t-34 78q-18 -46 -36 -90t-36 -89q-4 -12 -8.5 -20.5t-15.5 -16.5q-3 -3 -13 -2q-10 0 -22.5 5.5t-23 14.5t-17.5 21t-7 24q0 9 12.5 46t28.5 81.5t31 85 t22 54.5q12 26 28 40.5t47 14.5q36 0 65 -29q23 -23 39 -53.5t31 -60.5q5 -10 21.5 -42t32.5 -67t29 -65.5t13 -36.5z" />
<glyph unicode="&#xd5;" horiz-adv-x="1024" d="M945 698q0 -55 -2 -126.5t-9 -153.5t-20.5 -168t-36 -168t-55 -154.5t-78 -127t-105 -86.5t-136.5 -32t-139 35.5t-105 94.5q-35 47 -62 115t-47 148.5t-34.5 167.5t-23 172t-12 161t-3.5 133q0 96 8.5 201.5t31.5 208.5t63.5 199.5t104.5 172.5q6 8 16 18.5t21.5 20.5 t23.5 17t24 7t23 -6.5t19 -17.5q27 16 57.5 22.5t62.5 6.5q95 0 163 -45t113.5 -117.5t73 -165t41.5 -188.5t18 -186t4 -159zM742 641q0 34 -2 103.5t-9.5 153.5t-21 172.5t-37 160.5t-58 118t-82.5 46q-20 0 -35.5 -18t-30 -46.5t-26 -62.5t-23 -65t-22 -56t-22.5 -35 q-4 -4 -12.5 -4.5t-16.5 -0.5q-22 0 -41 7q-22 -88 -30.5 -176t-8.5 -177q0 -27 2.5 -82t8 -125t14.5 -150.5t22 -160.5t30.5 -153.5t41 -130t52 -90.5t63.5 -34q20 0 35.5 11t29.5 23q39 35 67.5 92t48 126t32.5 145t19.5 150.5t9 141t2.5 117.5zM727 1770q0 -65 -39 -104 t-112 -39q-56 0 -87 16t-47 41.5t-21.5 54t-10 54t-11.5 41.5t-25 16q-39 0 -39 -33q0 -26 10 -53.5t22 -52t22.5 -43.5t10.5 -26q0 -16 -19 -21t-31 -5q-34 0 -53.5 13t-34.5 39q-18 34 -32.5 70t-14.5 73q0 65 46 97.5t115 32.5q51 0 92 -24t56 -69q3 -9 5.5 -30t8 -42.5 t14 -38.5t22.5 -17q6 0 10 6t6 13t2 13.5v9.5q0 27 -5 55t-16 54q-4 12 -9.5 21.5t-5.5 20.5q0 17 18.5 22.5t33.5 5.5q36 0 59.5 -15.5t37 -40t18 -55t4.5 -60.5z" />
<glyph unicode="&#xd6;" horiz-adv-x="1024" d="M945 698q0 -55 -2 -126.5t-9 -153.5t-20.5 -168t-36 -168t-55 -154.5t-78 -127t-105 -86.5t-136.5 -32t-139 35.5t-105 94.5q-35 47 -62 115t-47 148.5t-34.5 167.5t-23 172t-12 161t-3.5 133q0 96 8.5 201.5t31.5 208.5t63.5 199.5t104.5 172.5q6 8 16 18.5t21.5 20.5 t23.5 17t24 7t23 -6.5t19 -17.5q27 16 57.5 22.5t62.5 6.5q95 0 163 -45t113.5 -117.5t73 -165t41.5 -188.5t18 -186t4 -159zM742 641q0 34 -2 103.5t-9.5 153.5t-21 172.5t-37 160.5t-58 118t-82.5 46q-20 0 -35.5 -18t-30 -46.5t-26 -62.5t-23 -65t-22 -56t-22.5 -35 q-4 -4 -12.5 -4.5t-16.5 -0.5q-22 0 -41 7q-22 -88 -30.5 -176t-8.5 -177q0 -27 2.5 -82t8 -125t14.5 -150.5t22 -160.5t30.5 -153.5t41 -130t52 -90.5t63.5 -34q20 0 35.5 11t29.5 23q39 35 67.5 92t48 126t32.5 145t19.5 150.5t9 141t2.5 117.5zM243 1806q0 13 9 20.5 t22.5 10.5t27.5 3h24q13 0 30.5 -0.5t33.5 -5t27 -14.5t11 -27q0 -6 -1 -27.5t-1.5 -46t-1 -45t-2.5 -21.5q-10 -14 -26 -16t-31 -2q-40 0 -59.5 4t-28.5 15.5t-11 32.5t-7 54q-4 16 -10 31.5t-6 33.5zM581 1806q0 13 9 20.5t22.5 10.5t27.5 3h24q13 0 30.5 -0.5t33.5 -5 t27 -14.5t11 -27q0 -6 -1 -27.5t-1.5 -46t-1 -45t-2.5 -21.5q-10 -14 -26 -16t-31 -2q-40 0 -59.5 4t-28.5 15.5t-11 32.5t-7 54q-4 16 -10 31.5t-6 33.5z" />
<glyph unicode="&#xd7;" horiz-adv-x="666" d="M545 912q0 -9 -8.5 -32t-21.5 -54t-28.5 -65.5t-30 -66t-26 -56t-15.5 -33.5q8 -13 26.5 -43.5t42 -69.5t49.5 -82.5t47 -81.5t34.5 -66.5t13.5 -36.5q0 -14 -10 -22t-23.5 -11.5t-28.5 -4.5t-24 -1h-18q-30 1 -48 10.5t-30.5 24.5t-21.5 35t-22 42q-18 35 -36 68t-37 67 q-20 -43 -40.5 -84.5t-42.5 -84.5l-20 -44t-32 -34q-4 -4 -10 -4q-4 -1 -8 -1q-14 0 -33 8.5t-35.5 22t-27.5 30.5t-11 33q0 26 15 50q14 24 26 46q31 57 62 115t61 116q-5 9 -20 34.5t-34.5 58.5t-40.5 69t-38.5 68t-29.5 54t-12 28q0 10 7.5 17t18 10.5t21.5 5t19 1.5 q30 0 53 -8t43 -31q27 -31 49.5 -71t46.5 -77l68 132q5 10 12 27.5t16.5 33t21.5 27t28 11.5q13 0 27.5 -7.5t27 -19.5t20.5 -26t8 -27z" />
<glyph unicode="&#xd8;" horiz-adv-x="1029" d="M313 233l239 1071q3 14 7.5 35.5t8.5 47.5q-16 8 -36 8t-35.5 -18t-30 -46.5t-26 -62.5t-23 -65t-22 -56t-22.5 -35q-4 -4 -12.5 -4.5t-16.5 -0.5q-22 0 -41 7q-22 -88 -30.5 -176t-8.5 -177q0 -29 2.5 -84t8.5 -127.5t15 -154t23 -162.5zM701 1122q-31 -146 -60 -288.5 t-60 -288.5q-35 -170 -72 -339t-71 -340q27 -31 60 -31q20 0 35.5 11t29.5 23q39 35 67.5 92t48 126t32.5 145t19.5 150.5t9 141t2.5 117.5q0 29 -1 81.5t-5.5 118t-13 139t-21.5 142.5zM774 1494q0 -12 -1.5 -21.5t-1.5 -20.5q39 -47 67.5 -106.5t48 -126.5t31.5 -138 t17.5 -139t7.5 -130.5t2 -113.5q0 -55 -2 -126.5t-9 -153.5t-20.5 -168t-36 -168t-55 -154.5t-78 -127t-105 -86.5t-136.5 -32q-51 0 -93 15q-8 -20 -21 -33t-37 -13q-18 0 -43.5 7t-48 19.5t-38 30t-15.5 39.5q0 8 1 15.5t1 15.5q4 22 9.5 41.5t9.5 41.5q-29 52 -51 121 t-39 145t-28.5 156.5t-19 157.5t-10.5 146t-3 122q0 96 8.5 201.5t31.5 208.5t63.5 199.5t104.5 172.5q6 8 16 18.5t21.5 20.5t23.5 17t24 7t23 -6.5t19 -17.5q27 16 57.5 22.5t62.5 6.5q40 0 75 -8q4 16 8 24q8 14 15.5 20t23.5 6q21 0 42.5 -8.5t39 -23t28 -34t10.5 -41.5 z" />
<glyph unicode="&#xd9;" d="M1000 498q0 -70 -4.5 -157t-19 -178t-42 -177.5t-74 -154t-115 -108.5t-164.5 -41q-53 0 -104 15.5t-93 46.5q-68 49 -114 142.5t-76 209.5t-45.5 247t-23 257t-8.5 237.5t-1 191.5v59.5t0.5 86t2 98.5t4 97t6.5 81t10 51t14.5 22t27.5 6q58 0 92.5 -35.5t34.5 -94.5 q0 -86 -4 -171.5t-4 -171.5q0 -38 1 -110.5t4.5 -165.5t11.5 -199.5t21.5 -211t34.5 -201.5t50 -171t68 -118.5t90 -44.5q48 0 84 38t60 97t39 131.5t22.5 143.5t10.5 131.5t3 95.5q0 72 -3.5 159.5t-9.5 182.5t-16.5 194t-24.5 191.5t-33 177.5t-43 151q-4 12 -12.5 30 t-8.5 30q0 21 9.5 31t24 14.5t31.5 5.5t31 1q31 0 51 -3t48 -18q18 -10 34 -57t30.5 -118.5t27 -162t22.5 -186t18 -190.5t13 -175.5t8 -141.5t3 -90zM505 1707q0 -13 -7 -25t-18.5 -21t-24.5 -14t-25 -5q-16 0 -30.5 6.5t-26.5 16.5q-42 30 -61.5 45t-34.5 27.5t-33 28 t-58 47.5q-12 10 -23.5 22t-18.5 28v10q0 13 8.5 30t22 30.5t30 23.5t30.5 10q20 0 36.5 -15t31.5 -27l109 -112q9 -9 25 -21t31 -26.5t26 -30t11 -28.5z" />
<glyph unicode="&#xda;" d="M1000 498q0 -70 -4.5 -157t-19 -178t-42 -177.5t-74 -154t-115 -108.5t-164.5 -41q-53 0 -104 15.5t-93 46.5q-68 49 -114 142.5t-76 209.5t-45.5 247t-23 257t-8.5 237.5t-1 191.5v59.5t0.5 86t2 98.5t4 97t6.5 81t10 51t14.5 22t27.5 6q58 0 92.5 -35.5t34.5 -94.5 q0 -86 -4 -171.5t-4 -171.5q0 -38 1 -110.5t4.5 -165.5t11.5 -199.5t21.5 -211t34.5 -201.5t50 -171t68 -118.5t90 -44.5q48 0 84 38t60 97t39 131.5t22.5 143.5t10.5 131.5t3 95.5q0 72 -3.5 159.5t-9.5 182.5t-16.5 194t-24.5 191.5t-33 177.5t-43 151q-4 12 -12.5 30 t-8.5 30q0 21 9.5 31t24 14.5t31.5 5.5t31 1q31 0 51 -3t48 -18q18 -10 34 -57t30.5 -118.5t27 -162t22.5 -186t18 -190.5t13 -175.5t8 -141.5t3 -90zM417 1718q0 13 11 28.5t26 29.5t30.5 26.5t26.5 21.5l127 117q16 12 33.5 27t36.5 15q13 0 29.5 -10t30 -23.5t22.5 -30.5 t9 -30v-5.5t-2 -4.5q-4 -16 -16 -27.5t-26 -22.5q-40 -32 -61.5 -48.5t-40 -30t-41 -29t-62.5 -45.5q-14 -10 -28 -16.5t-30 -6.5q-12 0 -24.5 5t-24.5 14t-19 21t-7 25z" />
<glyph unicode="&#xdb;" d="M1000 498q0 -70 -4.5 -157t-19 -178t-42 -177.5t-74 -154t-115 -108.5t-164.5 -41q-53 0 -104 15.5t-93 46.5q-68 49 -114 142.5t-76 209.5t-45.5 247t-23 257t-8.5 237.5t-1 191.5v59.5t0.5 86t2 98.5t4 97t6.5 81t10 51t14.5 22t27.5 6q58 0 92.5 -35.5t34.5 -94.5 q0 -86 -4 -171.5t-4 -171.5q0 -38 1 -110.5t4.5 -165.5t11.5 -199.5t21.5 -211t34.5 -201.5t50 -171t68 -118.5t90 -44.5q48 0 84 38t60 97t39 131.5t22.5 143.5t10.5 131.5t3 95.5q0 72 -3.5 159.5t-9.5 182.5t-16.5 194t-24.5 191.5t-33 177.5t-43 151q-4 12 -12.5 30 t-8.5 30q0 21 9.5 31t24 14.5t31.5 5.5t31 1q31 0 51 -3t48 -18q18 -10 34 -57t30.5 -118.5t27 -162t22.5 -186t18 -190.5t13 -175.5t8 -141.5t3 -90zM661 1717q0 -10 -7.5 -16.5t-18 -10t-22 -4t-19.5 -0.5q-12 0 -25.5 0.5t-24.5 7.5q-18 8 -25 21.5t-14 27.5 q-16 42 -31 81t-34 78q-18 -46 -36 -90t-36 -89q-4 -12 -8.5 -20.5t-15.5 -16.5q-3 -3 -13 -2q-10 0 -22.5 5.5t-23 14.5t-17.5 21t-7 24q0 9 12.5 46t28.5 81.5t31 85t22 54.5q12 26 28 40.5t47 14.5q36 0 65 -29q23 -23 39 -53.5t31 -60.5q5 -10 21.5 -42t32.5 -67 t29 -65.5t13 -36.5z" />
<glyph unicode="&#xdc;" d="M1000 498q0 -70 -4.5 -157t-19 -178t-42 -177.5t-74 -154t-115 -108.5t-164.5 -41q-53 0 -104 15.5t-93 46.5q-68 49 -114 142.5t-76 209.5t-45.5 247t-23 257t-8.5 237.5t-1 191.5v59.5t0.5 86t2 98.5t4 97t6.5 81t10 51t14.5 22t27.5 6q58 0 92.5 -35.5t34.5 -94.5 q0 -86 -4 -171.5t-4 -171.5q0 -38 1 -110.5t4.5 -165.5t11.5 -199.5t21.5 -211t34.5 -201.5t50 -171t68 -118.5t90 -44.5q48 0 84 38t60 97t39 131.5t22.5 143.5t10.5 131.5t3 95.5q0 72 -3.5 159.5t-9.5 182.5t-16.5 194t-24.5 191.5t-33 177.5t-43 151q-4 12 -12.5 30 t-8.5 30q0 21 9.5 31t24 14.5t31.5 5.5t31 1q31 0 51 -3t48 -18q18 -10 34 -57t30.5 -118.5t27 -162t22.5 -186t18 -190.5t13 -175.5t8 -141.5t3 -90zM201 1897q0 13 9 20.5t22.5 10.5t27.5 3h24q13 0 30.5 -0.5t33.5 -5t27 -14.5t11 -27q0 -6 -1 -27.5t-1.5 -46t-1 -45 t-2.5 -21.5q-10 -14 -26 -16t-31 -2q-40 0 -59.5 4t-28.5 15.5t-11 32.5t-7 54q-4 16 -10 31.5t-6 33.5zM539 1897q0 13 9 20.5t22.5 10.5t27.5 3h24q13 0 30.5 -0.5t33.5 -5t27 -14.5t11 -27q0 -6 -1 -27.5t-1.5 -46t-1 -45t-2.5 -21.5q-10 -14 -26 -16t-31 -2 q-40 0 -59.5 4t-28.5 15.5t-11 32.5t-7 54q-4 16 -10 31.5t-6 33.5z" />
<glyph unicode="&#xdd;" horiz-adv-x="760" d="M758 1564q0 -27 -17 -99t-43 -167.5t-58.5 -203t-63.5 -205.5t-57 -175t-39 -112q14 -116 19 -230t12 -230q6 -98 12 -196.5t6 -196.5q0 -30 -15 -46t-45 -16q-12 0 -31 3.5t-39.5 9t-38 13.5t-23.5 16q-16 18 -20 34t-4 38q0 202 -3.5 401t-3.5 400l-11 11 q-8 12 -17.5 33t-19.5 44.5t-18 45.5q-6 22 -12 35q-43 120 -81 239.5t-81 239.5q-6 21 -20.5 56.5t-28.5 74.5t-25.5 73.5t-11.5 52.5q0 14 8 23.5t20 14t25 5.5t23 1q34 0 63 -3t59 -23q8 -5 25 -48t37.5 -106.5t43.5 -137.5t42.5 -143t35.5 -122q16 -54 22 -75 q43 166 86.5 330t74.5 333q3 16 6 35t9 34.5t17.5 26.5t32.5 11q17 0 42 -8t48.5 -21.5t40.5 -31t17 -38.5zM295 1705q0 13 11 28.5t26 29.5t30.5 26.5t26.5 21.5l127 117q16 12 33.5 27t36.5 15q13 0 29.5 -10t30 -23.5t22.5 -30.5t9 -30v-5.5t-2 -4.5q-4 -16 -16 -27.5 t-26 -22.5q-40 -32 -61.5 -48.5t-40 -30t-41 -29t-62.5 -45.5q-14 -10 -28 -16.5t-30 -6.5q-12 0 -24.5 5t-24.5 14t-19 21t-7 25z" />
<glyph unicode="&#xde;" horiz-adv-x="926" d="M918 865q0 -129 -41 -259t-114.5 -243t-176 -201.5t-225.5 -133.5l47 -195q4 -20 8.5 -40.5t4.5 -43.5q0 -34 -17 -45.5t-48 -11.5q-22 0 -53 5.5t-53 15.5q-26 14 -34.5 29t-12.5 41q-10 55 -17.5 94l-12.5 65q-5 30 -9 49q-26 3 -43 14t-17 38q0 26 15 54.5t34 44.5 q-12 242 -9.5 480t-0.5 479q-6 -3 -11.5 -4t-11.5 -1q-14 0 -23.5 7t-15.5 17.5t-8.5 23t-2.5 22.5q0 39 19.5 56.5t53.5 32.5v223q0 14 1.5 30.5t6.5 30t15.5 22t28.5 8.5q30 0 56.5 -9t44.5 -32q9 -14 11 -50t2 -73.5t-1.5 -68t-0.5 -32.5q46 8 88.5 14.5t88.5 6.5 q103 0 183.5 -34.5t136 -96t85 -146t29.5 -183.5zM723 888q0 60 -15.5 112.5t-47 91t-79.5 60.5t-113 22q-35 0 -71 -5t-69 -16q0 -238 3 -471.5t17 -469.5q83 43 152 119.5t118.5 169.5t77 194t27.5 193z" />
<glyph unicode="&#xdf;" horiz-adv-x="891" d="M173 -236q-12 134 -14 269t-2 270v59q-34 -4 -70 -6.5t-71 -2.5q-22 0 -30 11q-8 12 -8 32q0 13 1 30.5t7 33.5t16 29.5t28 17.5h-1q5 3 19 3h34h43.5t31.5 -1q0 116 4.5 229.5t19.5 226.5q9 70 26.5 148.5t52.5 145t93 109.5q57 44 147 44q72 0 129 -26.5t97.5 -72 t62.5 -106.5t22 -130q0 -81 -23.5 -162t-64.5 -150q-21 -35 -53 -77q-38 -49 -69.5 -103t-31.5 -113q0 -39 14.5 -74t37.5 -67.5t53 -62.5q28 -30 60 -58q32 -31 63 -62.5t55 -64.5t39 -69.5t15 -78.5q0 -58 -28 -105.5t-72 -80.5t-98 -51.5t-106 -18.5q-72 0 -138 24 t-125 63q1 -14 1.5 -27t0.5 -27q0 -26 -8.5 -45t-42.5 -19q-56 0 -83.5 30.5t-33.5 85.5zM328 446q0 -146 0.5 -291.5t5.5 -290.5q18 10 43 18t44 8q21 0 43 -8q21 -10 40 -20q21 -10 46.5 -20.5t56.5 -10.5q20 0 40.5 9.5t37.5 23.5t28 33.5t11 40.5q0 20 -10.5 40 t-27 41.5t-39.5 43.5t-46 45q-36 35 -74 74t-68.5 83.5t-50 94.5t-19.5 107q0 43 9.5 80.5t26 71t36.5 64.5t41 62q23 34 46.5 69.5t41.5 76.5t29 89q11 46 11 104q0 27 -7 60t-22.5 60t-40 45.5t-60.5 18.5q-32 0 -57.5 -30t-43.5 -80.5t-30.5 -116.5t-20 -136.5t-12 -142 t-6.5 -134t-2 -111v-71.5z" />
<glyph unicode="&#xe0;" horiz-adv-x="635" d="M616 -283q0 -26 -13 -36t-36 -10q-61 0 -88 32.5t-40 86.5q-4 18 -7.5 37t-6.5 37q-3 17 -5.5 23.5t-4.5 24.5q-16 -38 -38.5 -79t-52.5 -75.5t-67 -56.5t-81 -22q-47 0 -78.5 23t-49 57.5t-24.5 76.5q-7 40 -7 78q0 88 17.5 192t48.5 207t73 198.5t91 167.5v-1l8 11 q14 20 33 42.5t45 22.5q25 0 43 -21.5t26 -44.5q34 -6 54.5 -16t32 -24.5t15.5 -33t4 -40.5v-19.5t-1 -21.5q-1 -10 -1 -24.5v-25.5q0 -13 4.5 -34t9.5 -43l9 -48q6 -38 11 -86t11 -96q5 -49 10.5 -95.5t10.5 -85.5l31 -192l4 -22q3 -17 6 -31.5t3 -32.5zM318 464q0 3 -1 9 l-2 12q-30 -64 -53 -138.5t-38 -152t-22 -154.5t-7 -146v-11.5t1 -10.5v-2q31 48 54 127t38.5 165.5t22.5 167.5t7 134zM388 910q0 -13 -7 -25t-18.5 -21t-24.5 -14t-25 -5q-16 0 -30.5 6.5t-26.5 16.5q-42 30 -61.5 45t-34.5 27.5t-33 28t-58 47.5q-12 10 -23.5 22 t-18.5 28v10q0 13 8.5 30t22 30.5t30 23.5t30.5 10q20 0 36.5 -15t31.5 -27l109 -112q9 -9 25 -21t31 -26.5t26 -30t11 -28.5z" />
<glyph unicode="&#xe1;" horiz-adv-x="635" d="M616 -283q0 -26 -13 -36t-36 -10q-61 0 -88 32.5t-40 86.5q-4 18 -7.5 37t-6.5 37q-3 17 -5.5 23.5t-4.5 24.5q-16 -38 -38.5 -79t-52.5 -75.5t-67 -56.5t-81 -22q-47 0 -78.5 23t-49 57.5t-24.5 76.5q-7 40 -7 78q0 88 17.5 192t48.5 207t73 198.5t91 167.5v-1l8 11 q14 20 33 42.5t45 22.5q25 0 43 -21.5t26 -44.5q34 -6 54.5 -16t32 -24.5t15.5 -33t4 -40.5v-19.5t-1 -21.5q-1 -10 -1 -24.5v-25.5q0 -13 4.5 -34t9.5 -43l9 -48q6 -38 11 -86t11 -96q5 -49 10.5 -95.5t10.5 -85.5l31 -192l4 -22q3 -17 6 -31.5t3 -32.5zM318 464q0 3 -1 9 l-2 12q-30 -64 -53 -138.5t-38 -152t-22 -154.5t-7 -146v-11.5t1 -10.5v-2q31 48 54 127t38.5 165.5t22.5 167.5t7 134zM300 924q0 13 11 28.5t26 29.5t30.5 26.5t26.5 21.5l127 117q16 12 33.5 27t36.5 15q13 0 29.5 -10t30 -23.5t22.5 -30.5t9 -30v-5.5t-2 -4.5 q-4 -16 -16 -27.5t-26 -22.5q-40 -32 -61.5 -48.5t-40 -30t-41 -29t-62.5 -45.5q-14 -10 -28 -16.5t-30 -6.5q-12 0 -24.5 5t-24.5 14t-19 21t-7 25z" />
<glyph unicode="&#xe2;" horiz-adv-x="635" d="M616 -283q0 -26 -13 -36t-36 -10q-61 0 -88 32.5t-40 86.5q-4 18 -7.5 37t-6.5 37q-3 17 -5.5 23.5t-4.5 24.5q-16 -38 -38.5 -79t-52.5 -75.5t-67 -56.5t-81 -22q-47 0 -78.5 23t-49 57.5t-24.5 76.5q-7 40 -7 78q0 88 17.5 192t48.5 207t73 198.5t91 167.5v-1l8 11 q14 20 33 42.5t45 22.5q25 0 43 -21.5t26 -44.5q34 -6 54.5 -16t32 -24.5t15.5 -33t4 -40.5v-19.5t-1 -21.5q-1 -10 -1 -24.5v-25.5q0 -13 4.5 -34t9.5 -43l9 -48q6 -38 11 -86t11 -96q5 -49 10.5 -95.5t10.5 -85.5l31 -192l4 -22q3 -17 6 -31.5t3 -32.5zM318 464q0 3 -1 9 l-2 12q-30 -64 -53 -138.5t-38 -152t-22 -154.5t-7 -146v-11.5t1 -10.5v-2q31 48 54 127t38.5 165.5t22.5 167.5t7 134zM513 827q0 -10 -7.5 -16.5t-18 -10t-22 -4t-19.5 -0.5q-12 0 -25.5 0.5t-24.5 7.5q-18 8 -25 21.5t-14 27.5q-16 42 -31 81t-34 78q-18 -46 -36 -90 t-36 -89q-4 -12 -8.5 -20.5t-15.5 -16.5q-3 -3 -13 -2q-10 0 -22.5 5.5t-23 14.5t-17.5 21t-7 24q0 9 12.5 46t28.5 81.5t31 85t22 54.5q12 26 28 40.5t47 14.5q36 0 65 -29q23 -23 39 -53.5t31 -60.5q5 -10 21.5 -42t32.5 -67t29 -65.5t13 -36.5z" />
<glyph unicode="&#xe3;" horiz-adv-x="635" d="M616 -283q0 -26 -13 -36t-36 -10q-61 0 -88 32.5t-40 86.5q-4 18 -7.5 37t-6.5 37q-3 17 -5.5 23.5t-4.5 24.5q-16 -38 -38.5 -79t-52.5 -75.5t-67 -56.5t-81 -22q-47 0 -78.5 23t-49 57.5t-24.5 76.5q-7 40 -7 78q0 88 17.5 192t48.5 207t73 198.5t91 167.5v-1l8 11 q14 20 33 42.5t45 22.5q25 0 43 -21.5t26 -44.5q34 -6 54.5 -16t32 -24.5t15.5 -33t4 -40.5v-19.5t-1 -21.5q-1 -10 -1 -24.5v-25.5q0 -13 4.5 -34t9.5 -43l9 -48q6 -38 11 -86t11 -96q5 -49 10.5 -95.5t10.5 -85.5l31 -192l4 -22q3 -17 6 -31.5t3 -32.5zM318 464q0 3 -1 9 l-2 12q-30 -64 -53 -138.5t-38 -152t-22 -154.5t-7 -146v-11.5t1 -10.5v-2q31 48 54 127t38.5 165.5t22.5 167.5t7 134zM573 955q0 -65 -39 -104t-112 -39q-56 0 -87 16t-47 41.5t-21.5 54t-10 54t-11.5 41.5t-25 16q-39 0 -39 -33q0 -26 10 -53.5t22 -52t22.5 -43.5 t10.5 -26q0 -16 -19 -21t-31 -5q-34 0 -53.5 13t-34.5 39q-18 34 -32.5 70t-14.5 73q0 65 46 97.5t115 32.5q51 0 92 -24t56 -69q3 -9 5.5 -30t8 -42.5t14 -38.5t22.5 -17q6 0 10 6t6 13t2 13.5v9.5q0 27 -5 55t-16 54q-4 12 -9.5 21.5t-5.5 20.5q0 17 18.5 22.5t33.5 5.5 q36 0 59.5 -15.5t37 -40t18 -55t4.5 -60.5z" />
<glyph unicode="&#xe4;" horiz-adv-x="635" d="M616 -283q0 -26 -13 -36t-36 -10q-61 0 -88 32.5t-40 86.5q-4 18 -7.5 37t-6.5 37q-3 17 -5.5 23.5t-4.5 24.5q-16 -38 -38.5 -79t-52.5 -75.5t-67 -56.5t-81 -22q-47 0 -78.5 23t-49 57.5t-24.5 76.5q-7 40 -7 78q0 88 17.5 192t48.5 207t73 198.5t91 167.5v-1l8 11 q14 20 33 42.5t45 22.5q25 0 43 -21.5t26 -44.5q34 -6 54.5 -16t32 -24.5t15.5 -33t4 -40.5v-19.5t-1 -21.5q-1 -10 -1 -24.5v-25.5q0 -13 4.5 -34t9.5 -43l9 -48q6 -38 11 -86t11 -96q5 -49 10.5 -95.5t10.5 -85.5l31 -192l4 -22q3 -17 6 -31.5t3 -32.5zM318 464q0 3 -1 9 l-2 12q-30 -64 -53 -138.5t-38 -152t-22 -154.5t-7 -146v-11.5t1 -10.5v-2q31 48 54 127t38.5 165.5t22.5 167.5t7 134zM56 985q0 13 9 20.5t22.5 10.5t27.5 3h24q13 0 30.5 -0.5t33.5 -5t27 -14.5t11 -27q0 -6 -1 -27.5t-1.5 -46t-1 -45t-2.5 -21.5q-10 -14 -26 -16t-31 -2 q-40 0 -59.5 4t-28.5 15.5t-11 32.5t-7 54q-4 16 -10 31.5t-6 33.5zM394 985q0 13 9 20.5t22.5 10.5t27.5 3h24q13 0 30.5 -0.5t33.5 -5t27 -14.5t11 -27q0 -6 -1 -27.5t-1.5 -46t-1 -45t-2.5 -21.5q-10 -14 -26 -16t-31 -2q-40 0 -59.5 4t-28.5 15.5t-11 32.5t-7 54 q-4 16 -10 31.5t-6 33.5z" />
<glyph unicode="&#xe5;" horiz-adv-x="635" d="M616 -283q0 -26 -13 -36t-36 -10q-61 0 -88 32.5t-40 86.5q-4 18 -7.5 37t-6.5 37q-3 17 -5.5 23.5t-4.5 24.5q-16 -38 -38.5 -79t-52.5 -75.5t-67 -56.5t-81 -22q-47 0 -78.5 23t-49 57.5t-24.5 76.5q-7 40 -7 78q0 88 17.5 192t48.5 207t73 198.5t91 167.5v-1l8 11 q14 20 33 42.5t45 22.5q25 0 43 -21.5t26 -44.5q34 -6 54.5 -16t32 -24.5t15.5 -33t4 -40.5v-19.5t-1 -21.5q-1 -10 -1 -24.5v-25.5q0 -13 4.5 -34t9.5 -43l9 -48q6 -38 11 -86t11 -96q5 -49 10.5 -95.5t10.5 -85.5l31 -192l4 -22q3 -17 6 -31.5t3 -32.5zM318 464q0 3 -1 9 l-2 12q-30 -64 -53 -138.5t-38 -152t-22 -154.5t-7 -146v-11.5t1 -10.5v-2q31 48 54 127t38.5 165.5t22.5 167.5t7 134zM396 976q-14 16 -24.5 22t-32.5 6q-20 0 -42.5 -11.5t-22.5 -35.5q0 -22 19 -33t38 -11q25 0 34.5 7t13.5 17t6 21.5t11 17.5zM518 944 q0 -34 -17.5 -58.5t-45 -42t-59 -26t-60.5 -8.5q-31 0 -64 9t-60.5 27.5t-45 45.5t-17.5 64q0 35 17 61.5t44 45t59.5 27.5t64.5 9q35 0 68 -10t59 -29.5t41.5 -48t15.5 -66.5z" />
<glyph unicode="&#xe6;" horiz-adv-x="956" d="M979 -62q0 -4 -0.5 -8t-3.5 -10h1q-14 -44 -47 -88t-76.5 -78t-94 -55.5t-98.5 -21.5q-52 0 -92 18.5t-70.5 50.5t-52 73t-34.5 86q-16 -36 -38.5 -76.5t-52 -73.5t-66.5 -54.5t-81 -21.5q-47 0 -78 23t-48.5 57.5t-24.5 76.5q-8 40 -8 78q0 88 18.5 183.5t49.5 189 t72.5 181t89.5 160.5q6 12 15.5 25t20.5 24t23.5 18t25.5 7q27 0 45.5 -20t24.5 -43q21 -4 42.5 -12.5t38.5 -22.5q29 40 67.5 64t90.5 24q42 0 75 -17t56 -45t35 -64.5t12 -75.5q0 -51 -23 -110.5t-61 -114.5t-84 -101t-92 -68q3 -26 11.5 -70.5t22 -88t33 -76t43.5 -32.5 q16 0 35 15t36.5 36.5t31.5 43.5t20 36q3 5 5 8l2 1q9 17 17.5 31.5t23.5 24.5h-1q5 5 10.5 6t12.5 1q14 0 34.5 -9.5t39.5 -23t32.5 -29.5t13.5 -32zM316 414q0 3 -1.5 8.5t-2.5 11.5q-60 -126 -90 -262.5t-30 -277.5v-11.5t2 -10.5v-3q31 46 53.5 116.5t38.5 147.5 t23 151.5t7 129.5zM645 485q0 13 -1 27q-2 14 -7 26q-18 -22 -31 -51.5t-21.5 -63.5t-14.5 -68q-7 -33 -11 -63q34 40 60 91t26 102z" />
<glyph unicode="&#xe7;" horiz-adv-x="572" d="M521 -514q0 -38 -18.5 -68t-47.5 -51.5t-64 -33t-66 -11.5q-39 0 -77.5 12t-74.5 31v-2q-8 3 -21.5 10t-26 16t-21.5 19t-9 20q0 12 11.5 22t27.5 16t32 10q14 3 22 3q18 0 34 -5t32 -12q16 -6 31 -11.5t30 -5.5q16 0 34 10t18 28q0 8 -8.5 11t-17.5 3q-6 0 -13 -0.5 t-13 -1.5t-13.5 -2t-15.5 -1q-42 0 -71.5 25.5t-29.5 68.5q0 13 6.5 48.5t15.5 70.5q-49 23 -82 67t-52.5 98t-27 113t-7.5 112q0 48 4 114t15 136t32 139t55 123t83 87.5t116 33.5q14 0 41.5 -5t54 -15t47 -26t20.5 -37q0 -20 -17.5 -30t-42 -14.5t-49.5 -5.5t-41 -1h-23 q-36 -32 -59.5 -95t-36.5 -134.5t-18.5 -141t-5.5 -113.5q0 -62 10 -123t40 -114q6 -12 18.5 -27t27.5 -15q12 0 24.5 19.5t23 45.5t17 51t8.5 36q1 5 1.5 12t0.5 13q0 12 0.5 23t2.5 17q9 22 24 30t37 8q20 0 42 -5t41.5 -17t32.5 -30t13 -43q0 -27 -9 -55.5t-21 -54.5 q-13 -30 -29 -59.5t-36 -54.5t-46 -45q-25 -18 -56 -28q-3 -18 -7.5 -36t-8.5 -28q29 -5 56.5 -17t50 -30t36.5 -42t14 -55z" />
<glyph unicode="&#xe8;" horiz-adv-x="562" d="M567 -62q0 -39 -21.5 -80.5t-55.5 -76t-77.5 -56.5t-86.5 -22q-61 0 -105 24t-76.5 65t-52.5 93t-32 107t-16.5 110.5t-4.5 100.5q0 39 4.5 92.5t15.5 110.5t30.5 113t49 100t70.5 71.5t94 27.5q42 0 75 -17t55.5 -45t35 -64.5t12.5 -75.5q0 -51 -23.5 -110.5 t-60.5 -115.5t-83 -100.5t-92 -68.5q3 -23 10.5 -68t21.5 -89t33 -76.5t45 -32.5q13 0 22.5 7.5t17.5 20.5t14 29q4 16 10 30l8 18q3 4 3.5 5t2.5 4q9 17 17.5 31.5t23.5 24.5h-1q5 5 11 6t11 1q14 0 31 -9.5t31.5 -23t23.5 -29.5t9 -32zM309 511q0 13 -1 27.5t-6 24.5 q-18 -22 -32 -52.5t-23 -63.5t-15 -67t-8 -62q34 40 59.5 91t25.5 102zM356 846q0 -13 -7 -25t-18.5 -21t-24.5 -14t-25 -5q-16 0 -30.5 6.5t-26.5 16.5q-42 30 -61.5 45t-34.5 27.5t-33 28t-58 47.5q-12 10 -23.5 22t-18.5 28v10q0 13 8.5 30t22 30.5t30 23.5t30.5 10 q20 0 36.5 -15t31.5 -27l109 -112q9 -9 25 -21t31 -26.5t26 -30t11 -28.5z" />
<glyph unicode="&#xe9;" horiz-adv-x="562" d="M567 -62q0 -39 -21.5 -80.5t-55.5 -76t-77.5 -56.5t-86.5 -22q-61 0 -105 24t-76.5 65t-52.5 93t-32 107t-16.5 110.5t-4.5 100.5q0 39 4.5 92.5t15.5 110.5t30.5 113t49 100t70.5 71.5t94 27.5q42 0 75 -17t55.5 -45t35 -64.5t12.5 -75.5q0 -51 -23.5 -110.5 t-60.5 -115.5t-83 -100.5t-92 -68.5q3 -23 10.5 -68t21.5 -89t33 -76.5t45 -32.5q13 0 22.5 7.5t17.5 20.5t14 29q4 16 10 30l8 18q3 4 3.5 5t2.5 4q9 17 17.5 31.5t23.5 24.5h-1q5 5 11 6t11 1q14 0 31 -9.5t31.5 -23t23.5 -29.5t9 -32zM309 511q0 13 -1 27.5t-6 24.5 q-18 -22 -32 -52.5t-23 -63.5t-15 -67t-8 -62q34 40 59.5 91t25.5 102zM250 843q0 13 11 28.5t26 29.5t30.5 26.5t26.5 21.5l127 117q16 12 33.5 27t36.5 15q13 0 29.5 -10t30 -23.5t22.5 -30.5t9 -30v-5.5t-2 -4.5q-4 -16 -16 -27.5t-26 -22.5q-40 -32 -61.5 -48.5t-40 -30 t-41 -29t-62.5 -45.5q-14 -10 -28 -16.5t-30 -6.5q-12 0 -24.5 5t-24.5 14t-19 21t-7 25z" />
<glyph unicode="&#xea;" horiz-adv-x="562" d="M567 -62q0 -39 -21.5 -80.5t-55.5 -76t-77.5 -56.5t-86.5 -22q-61 0 -105 24t-76.5 65t-52.5 93t-32 107t-16.5 110.5t-4.5 100.5q0 39 4.5 92.5t15.5 110.5t30.5 113t49 100t70.5 71.5t94 27.5q42 0 75 -17t55.5 -45t35 -64.5t12.5 -75.5q0 -51 -23.5 -110.5 t-60.5 -115.5t-83 -100.5t-92 -68.5q3 -23 10.5 -68t21.5 -89t33 -76.5t45 -32.5q13 0 22.5 7.5t17.5 20.5t14 29q4 16 10 30l8 18q3 4 3.5 5t2.5 4q9 17 17.5 31.5t23.5 24.5h-1q5 5 11 6t11 1q14 0 31 -9.5t31.5 -23t23.5 -29.5t9 -32zM309 511q0 13 -1 27.5t-6 24.5 q-18 -22 -32 -52.5t-23 -63.5t-15 -67t-8 -62q34 40 59.5 91t25.5 102zM499 793q0 -10 -7.5 -16.5t-18 -10t-22 -4t-19.5 -0.5q-12 0 -25.5 0.5t-24.5 7.5q-18 8 -25 21.5t-14 27.5q-16 42 -31 81t-34 78q-18 -46 -36 -90t-36 -89q-4 -12 -8.5 -20.5t-15.5 -16.5 q-3 -3 -13 -2q-10 0 -22.5 5.5t-23 14.5t-17.5 21t-7 24q0 9 12.5 46t28.5 81.5t31 85t22 54.5q12 26 28 40.5t47 14.5q36 0 65 -29q23 -23 39 -53.5t31 -60.5q5 -10 21.5 -42t32.5 -67t29 -65.5t13 -36.5z" />
<glyph unicode="&#xeb;" horiz-adv-x="562" d="M567 -62q0 -39 -21.5 -80.5t-55.5 -76t-77.5 -56.5t-86.5 -22q-61 0 -105 24t-76.5 65t-52.5 93t-32 107t-16.5 110.5t-4.5 100.5q0 39 4.5 92.5t15.5 110.5t30.5 113t49 100t70.5 71.5t94 27.5q42 0 75 -17t55.5 -45t35 -64.5t12.5 -75.5q0 -51 -23.5 -110.5 t-60.5 -115.5t-83 -100.5t-92 -68.5q3 -23 10.5 -68t21.5 -89t33 -76.5t45 -32.5q13 0 22.5 7.5t17.5 20.5t14 29q4 16 10 30l8 18q3 4 3.5 5t2.5 4q9 17 17.5 31.5t23.5 24.5h-1q5 5 11 6t11 1q14 0 31 -9.5t31.5 -23t23.5 -29.5t9 -32zM309 511q0 13 -1 27.5t-6 24.5 q-18 -22 -32 -52.5t-23 -63.5t-15 -67t-8 -62q34 40 59.5 91t25.5 102zM10 933q0 13 9 20.5t22.5 10.5t27.5 3h24q13 0 30.5 -0.5t33.5 -5t27 -14.5t11 -27q0 -6 -1 -27.5t-1.5 -46t-1 -45t-2.5 -21.5q-10 -14 -26 -16t-31 -2q-40 0 -59.5 4t-28.5 15.5t-11 32.5t-7 54 q-4 16 -10 31.5t-6 33.5zM348 933q0 13 9 20.5t22.5 10.5t27.5 3h24q13 0 30.5 -0.5t33.5 -5t27 -14.5t11 -27q0 -6 -1 -27.5t-1.5 -46t-1 -45t-2.5 -21.5q-10 -14 -26 -16t-31 -2q-40 0 -59.5 4t-28.5 15.5t-11 32.5t-7 54q-4 16 -10 31.5t-6 33.5z" />
<glyph unicode="&#xec;" horiz-adv-x="330" d="M277 -243q0 -30 -13.5 -42t-43.5 -12q-16 0 -35 3.5t-37 11t-33.5 18t-23.5 22.5q-5 8 -9 48.5t-6 100t-4 134t-2.5 150t-0.5 146.5v125v100q0 13 0.5 26t5 22.5t14.5 16t28 6.5q57 0 84 -31.5t33 -85.5q6 -79 9.5 -157.5t6.5 -159.5q3 -73 4 -143q2 -72 9 -142 q1 -14 2 -27t4 -26q3 -26 5.5 -51.5t2.5 -52.5zM208 768q0 -13 -7 -25t-18.5 -21t-24.5 -14t-25 -5q-16 0 -30.5 6.5t-26.5 16.5q-42 30 -61.5 45t-34.5 27.5t-33 28t-58 47.5q-12 10 -23.5 22t-18.5 28v10q0 13 8.5 30t22 30.5t30 23.5t30.5 10q20 0 36.5 -15t31.5 -27 l109 -112q9 -9 25 -21t31 -26.5t26 -30t11 -28.5z" />
<glyph unicode="&#xed;" horiz-adv-x="332" d="M277 -243q0 -30 -13.5 -42t-43.5 -12q-16 0 -35 3.5t-37 11t-33.5 18t-23.5 22.5q-5 8 -9 48.5t-6 100t-4 134t-2.5 150t-0.5 146.5v125v100q0 13 0.5 26t5 22.5t14.5 16t28 6.5q57 0 84 -31.5t33 -85.5q6 -79 9.5 -157.5t6.5 -159.5q3 -73 4 -143q2 -72 9 -142 q1 -14 2 -27t4 -26q3 -26 5.5 -51.5t2.5 -52.5zM101 768q0 13 11 28.5t26 29.5t30.5 26.5t26.5 21.5l127 117q16 12 33.5 27t36.5 15q13 0 29.5 -10t30 -23.5t22.5 -30.5t9 -30v-5.5t-2 -4.5q-4 -16 -16 -27.5t-26 -22.5q-40 -32 -61.5 -48.5t-40 -30t-41 -29t-62.5 -45.5 q-14 -10 -28 -16.5t-30 -6.5q-12 0 -24.5 5t-24.5 14t-19 21t-7 25z" />
<glyph unicode="&#xee;" horiz-adv-x="331" d="M277 -243q0 -30 -13.5 -42t-43.5 -12q-16 0 -35 3.5t-37 11t-33.5 18t-23.5 22.5q-5 8 -9 48.5t-6 100t-4 134t-2.5 150t-0.5 146.5v125v100q0 13 0.5 26t5 22.5t14.5 16t28 6.5q57 0 84 -31.5t33 -85.5q6 -79 9.5 -157.5t6.5 -159.5q3 -73 4 -143q2 -72 9 -142 q1 -14 2 -27t4 -26q3 -26 5.5 -51.5t2.5 -52.5zM349 719q0 -10 -7.5 -16.5t-18 -10t-22 -4t-19.5 -0.5q-12 0 -25.5 0.5t-24.5 7.5q-18 8 -25 21.5t-14 27.5q-16 42 -31 81t-34 78q-18 -46 -36 -90t-36 -89q-4 -12 -8.5 -20.5t-15.5 -16.5q-3 -3 -13 -2q-10 0 -22.5 5.5 t-23 14.5t-17.5 21t-7 24q0 9 12.5 46t28.5 81.5t31 85t22 54.5q12 26 28 40.5t47 14.5q36 0 65 -29q23 -23 39 -53.5t31 -60.5q5 -10 21.5 -42t32.5 -67t29 -65.5t13 -36.5z" />
<glyph unicode="&#xef;" horiz-adv-x="332" d="M277 -243q0 -30 -13.5 -42t-43.5 -12q-16 0 -35 3.5t-37 11t-33.5 18t-23.5 22.5q-5 8 -9 48.5t-6 100t-4 134t-2.5 150t-0.5 146.5v125v100q0 13 0.5 26t5 22.5t14.5 16t28 6.5q57 0 84 -31.5t33 -85.5q6 -79 9.5 -157.5t6.5 -159.5q3 -73 4 -143q2 -72 9 -142 q1 -14 2 -27t4 -26q3 -26 5.5 -51.5t2.5 -52.5zM-113 892q0 13 9 20.5t22.5 10.5t27.5 3h24q13 0 30.5 -0.5t33.5 -5t27 -14.5t11 -27q0 -6 -1 -27.5t-1.5 -46t-1 -45t-2.5 -21.5q-10 -14 -26 -16t-31 -2q-40 0 -59.5 4t-28.5 15.5t-11 32.5t-7 54q-4 16 -10 31.5t-6 33.5z M225 892q0 13 9 20.5t22.5 10.5t27.5 3h24q13 0 30.5 -0.5t33.5 -5t27 -14.5t11 -27q0 -6 -1 -27.5t-1.5 -46t-1 -45t-2.5 -21.5q-10 -14 -26 -16t-31 -2q-40 0 -59.5 4t-28.5 15.5t-11 32.5t-7 54q-4 16 -10 31.5t-6 33.5z" />
<glyph unicode="&#xf0;" horiz-adv-x="661" d="M290 589q-27 -39 -45.5 -89t-29 -104.5t-15 -108.5t-4.5 -101q0 -39 4.5 -99.5t16.5 -122.5t33.5 -115.5t55.5 -78.5q43 23 70.5 76t44.5 116t23.5 127.5t6.5 109.5q0 34 -4 88.5t-13.5 110.5t-26.5 105t-44 71q-8 -3 -16 -4q-7 -2 -15 -2q-24 0 -42 21zM64 1094 q0 18 8 33q8 22 15 36.5t17 22.5t25 11t39 3h67q-12 47 -23.5 89.5t-17.5 79.5q-3 13 -5.5 25.5t-2 22t7 16t20.5 9.5q23 6 57.5 -2t49.5 -32q10 -16 30.5 -71t47.5 -137h122q9 0 23 -0.5t27.5 -4t23 -11t9.5 -20.5q0 -34 -22 -57t-53 -29q-22 -4 -44 -4.5t-44 -0.5 q32 -107 64.5 -226.5t58.5 -234.5t42.5 -214.5t16.5 -164.5q0 -114 -19 -227q-20 -112 -78 -212q-18 -30 -40.5 -58t-50.5 -51t-60.5 -36.5t-68.5 -13.5q-57 0 -99 26.5t-72 70t-49.5 99.5t-30.5 113.5t-15.5 112t-4.5 95.5q0 47 4 103.5t13.5 114.5t26 116t42.5 108 t61.5 89.5t83.5 61.5q42 21 81 21h8q-4 14 -6.5 27t-6.5 28q-10 51 -28 113t-37 128q-38 -3 -75 -4t-76 -1q-10 0 -20.5 0.5t-20.5 4t-15.5 11t-5.5 21.5z" />
<glyph unicode="&#xf1;" horiz-adv-x="708" d="M278 -294q0 -30 -17.5 -39t-42.5 -9q-22 0 -43.5 3.5t-40 12.5t-32.5 24.5t-19 40.5q-18 78 -20.5 152.5t-2.5 154.5v160q0 109 9 226.5t19 226.5q0 4 1.5 9.5t1.5 7.5q1 14 4 31t8.5 31t16.5 23q12 9 30 9q21 0 39.5 -8.5t33 -22t23 -33t8.5 -40.5q0 -22 -1.5 -49 t-4.5 -50v-14q-1 -9 -2 -15q18 36 41.5 76t54 73t67.5 54t82 21q38 0 62.5 -11.5t39.5 -33t21 -50t6 -61.5q0 -44 -2.5 -89t-5.5 -89q-4 -46 -6.5 -90t-2.5 -89q0 -55 2.5 -113t8 -110.5t12 -95t12.5 -65.5q5 -20 11 -45t12 -51.5t10 -51.5t4 -44q0 -29 -23 -37t-45 -8 t-50 3.5t-50 15.5q-27 20 -35.5 54.5t-11.5 68.5l-4 35q-4 31 -10.5 82t-12 112t-9.5 126.5t-4 128.5q0 56 4.5 108t9.5 105q3 27 4 44t4 44q-26 -42 -52 -97.5t-49.5 -116t-42 -117.5t-29.5 -100l-8 -29q-6 -21 -10.5 -41.5t-4.5 -38.5q0 -23 2.5 -54t6.5 -58q4 -33 9 -67 q0 -3 2.5 -17t5 -33.5t4.5 -41t2 -38.5zM619 991q0 -65 -39 -104t-112 -39q-56 0 -87 16t-47 41.5t-21.5 54t-10 54t-11.5 41.5t-25 16q-39 0 -39 -33q0 -26 10 -53.5t22 -52t22.5 -43.5t10.5 -26q0 -16 -19 -21t-31 -5q-34 0 -53.5 13t-34.5 39q-18 34 -32.5 70t-14.5 73 q0 65 46 97.5t115 32.5q51 0 92 -24t56 -69q3 -9 5.5 -30t8 -42.5t14 -38.5t22.5 -17q6 0 10 6t6 13t2 13.5v9.5q0 27 -5 55t-16 54q-4 12 -9.5 21.5t-5.5 20.5q0 17 18.5 22.5t33.5 5.5q36 0 59.5 -15.5t37 -40t18 -55t4.5 -60.5z" />
<glyph unicode="&#xf2;" horiz-adv-x="659" d="M629 233q0 -113 -18.5 -225.5t-77.5 -212.5q-18 -30 -41.5 -58t-51.5 -50.5t-61 -36.5t-70 -14q-57 0 -99 27t-72.5 70.5t-51 98.5t-31.5 113t-15.5 112.5t-4.5 96.5q0 47 4 102.5t13.5 114t26 116t42.5 107.5t63 90q36 38 84 62v-1q42 22 83 22q26 0 40.5 -11t12.5 -37 q72 -13 116 -69t68 -130t32.5 -152t8.5 -135zM335 558q-22 0 -41 17q-25 -38 -42 -86.5t-26.5 -100t-13.5 -103.5q-4 -51 -4 -97q0 -38 4 -97t15 -119t31 -112t53 -77q40 23 66.5 74.5t42.5 113t21.5 123.5t5.5 106q0 32 -4 84.5t-13 106.5t-25 100.5t-41 70.5 q-12 -4 -29 -4zM420 918q0 -13 -7 -25t-18.5 -21t-24.5 -14t-25 -5q-16 0 -30.5 6.5t-26.5 16.5q-42 30 -61.5 45t-34.5 27.5t-33 28t-58 47.5q-12 10 -23.5 22t-18.5 28v10q0 13 8.5 30t22 30.5t30 23.5t30.5 10q20 0 36.5 -15t31.5 -27l109 -112q9 -9 25 -21t31 -26.5 t26 -30t11 -28.5z" />
<glyph unicode="&#xf3;" horiz-adv-x="659" d="M629 233q0 -113 -18.5 -225.5t-77.5 -212.5q-18 -30 -41.5 -58t-51.5 -50.5t-61 -36.5t-70 -14q-57 0 -99 27t-72.5 70.5t-51 98.5t-31.5 113t-15.5 112.5t-4.5 96.5q0 47 4 102.5t13.5 114t26 116t42.5 107.5t63 90q36 38 84 62v-1q42 22 83 22q26 0 40.5 -11t12.5 -37 q72 -13 116 -69t68 -130t32.5 -152t8.5 -135zM335 558q-22 0 -41 17q-25 -38 -42 -86.5t-26.5 -100t-13.5 -103.5q-4 -51 -4 -97q0 -38 4 -97t15 -119t31 -112t53 -77q40 23 66.5 74.5t42.5 113t21.5 123.5t5.5 106q0 32 -4 84.5t-13 106.5t-25 100.5t-41 70.5 q-12 -4 -29 -4zM279 905q0 13 11 28.5t26 29.5t30.5 26.5t26.5 21.5l127 117q16 12 33.5 27t36.5 15q13 0 29.5 -10t30 -23.5t22.5 -30.5t9 -30v-5.5t-2 -4.5q-4 -16 -16 -27.5t-26 -22.5q-40 -32 -61.5 -48.5t-40 -30t-41 -29t-62.5 -45.5q-14 -10 -28 -16.5t-30 -6.5 q-12 0 -24.5 5t-24.5 14t-19 21t-7 25z" />
<glyph unicode="&#xf4;" horiz-adv-x="659" d="M629 233q0 -113 -18.5 -225.5t-77.5 -212.5q-18 -30 -41.5 -58t-51.5 -50.5t-61 -36.5t-70 -14q-57 0 -99 27t-72.5 70.5t-51 98.5t-31.5 113t-15.5 112.5t-4.5 96.5q0 47 4 102.5t13.5 114t26 116t42.5 107.5t63 90q36 38 84 62v-1q42 22 83 22q26 0 40.5 -11t12.5 -37 q72 -13 116 -69t68 -130t32.5 -152t8.5 -135zM335 558q-22 0 -41 17q-25 -38 -42 -86.5t-26.5 -100t-13.5 -103.5q-4 -51 -4 -97q0 -38 4 -97t15 -119t31 -112t53 -77q40 23 66.5 74.5t42.5 113t21.5 123.5t5.5 106q0 32 -4 84.5t-13 106.5t-25 100.5t-41 70.5 q-12 -4 -29 -4zM534 837q0 -10 -7.5 -16.5t-18 -10t-22 -4t-19.5 -0.5q-12 0 -25.5 0.5t-24.5 7.5q-18 8 -25 21.5t-14 27.5q-16 42 -31 81t-34 78q-18 -46 -36 -90t-36 -89q-4 -12 -8.5 -20.5t-15.5 -16.5q-3 -3 -13 -2q-10 0 -22.5 5.5t-23 14.5t-17.5 21t-7 24 q0 9 12.5 46t28.5 81.5t31 85t22 54.5q12 26 28 40.5t47 14.5q36 0 65 -29q23 -23 39 -53.5t31 -60.5q5 -10 21.5 -42t32.5 -67t29 -65.5t13 -36.5z" />
<glyph unicode="&#xf5;" horiz-adv-x="659" d="M629 233q0 -113 -18.5 -225.5t-77.5 -212.5q-18 -30 -41.5 -58t-51.5 -50.5t-61 -36.5t-70 -14q-57 0 -99 27t-72.5 70.5t-51 98.5t-31.5 113t-15.5 112.5t-4.5 96.5q0 47 4 102.5t13.5 114t26 116t42.5 107.5t63 90q36 38 84 62v-1q42 22 83 22q26 0 40.5 -11t12.5 -37 q72 -13 116 -69t68 -130t32.5 -152t8.5 -135zM335 558q-22 0 -41 17q-25 -38 -42 -86.5t-26.5 -100t-13.5 -103.5q-4 -51 -4 -97q0 -38 4 -97t15 -119t31 -112t53 -77q40 23 66.5 74.5t42.5 113t21.5 123.5t5.5 106q0 32 -4 84.5t-13 106.5t-25 100.5t-41 70.5 q-12 -4 -29 -4zM589 978q0 -65 -39 -104t-112 -39q-56 0 -87 16t-47 41.5t-21.5 54t-10 54t-11.5 41.5t-25 16q-39 0 -39 -33q0 -26 10 -53.5t22 -52t22.5 -43.5t10.5 -26q0 -16 -19 -21t-31 -5q-34 0 -53.5 13t-34.5 39q-18 34 -32.5 70t-14.5 73q0 65 46 97.5t115 32.5 q51 0 92 -24t56 -69q3 -9 5.5 -30t8 -42.5t14 -38.5t22.5 -17q6 0 10 6t6 13t2 13.5v9.5q0 27 -5 55t-16 54q-4 12 -9.5 21.5t-5.5 20.5q0 17 18.5 22.5t33.5 5.5q36 0 59.5 -15.5t37 -40t18 -55t4.5 -60.5z" />
<glyph unicode="&#xf6;" horiz-adv-x="659" d="M629 233q0 -113 -18.5 -225.5t-77.5 -212.5q-18 -30 -41.5 -58t-51.5 -50.5t-61 -36.5t-70 -14q-57 0 -99 27t-72.5 70.5t-51 98.5t-31.5 113t-15.5 112.5t-4.5 96.5q0 47 4 102.5t13.5 114t26 116t42.5 107.5t63 90q36 38 84 62v-1q42 22 83 22q26 0 40.5 -11t12.5 -37 q72 -13 116 -69t68 -130t32.5 -152t8.5 -135zM335 558q-22 0 -41 17q-25 -38 -42 -86.5t-26.5 -100t-13.5 -103.5q-4 -51 -4 -97q0 -38 4 -97t15 -119t31 -112t53 -77q40 23 66.5 74.5t42.5 113t21.5 123.5t5.5 106q0 32 -4 84.5t-13 106.5t-25 100.5t-41 70.5 q-12 -4 -29 -4zM77 990q0 13 9 20.5t22.5 10.5t27.5 3h24q13 0 30.5 -0.5t33.5 -5t27 -14.5t11 -27q0 -6 -1 -27.5t-1.5 -46t-1 -45t-2.5 -21.5q-10 -14 -26 -16t-31 -2q-40 0 -59.5 4t-28.5 15.5t-11 32.5t-7 54q-4 16 -10 31.5t-6 33.5zM415 990q0 13 9 20.5t22.5 10.5 t27.5 3h24q13 0 30.5 -0.5t33.5 -5t27 -14.5t11 -27q0 -6 -1 -27.5t-1.5 -46t-1 -45t-2.5 -21.5q-10 -14 -26 -16t-31 -2q-40 0 -59.5 4t-28.5 15.5t-11 32.5t-7 54q-4 16 -10 31.5t-6 33.5z" />
<glyph unicode="&#xf7;" horiz-adv-x="717" d="M420 883q0 -5 -0.5 -23.5t-1.5 -38.5t-1.5 -37t-1.5 -18q-8 -12 -21.5 -14t-28.5 -2q-34 0 -49.5 3.5t-22.5 13t-9 27.5t-7 45q-4 16 -8.5 28.5t-4.5 28.5q0 20 19 24.5t33 4.5h23q9 0 23.5 -1t27 -4.5t21.5 -12t9 -24.5zM682 654q0 -18 -9 -39.5t-19 -35.5 q-20 -26 -47 -28.5t-55 -2.5q-118 -3 -234 -4q-116 -2 -234 -2q-16 0 -31 7.5t-15 26.5q0 38 24.5 57.5t59 27t71.5 8.5t63 3l369 21h8q20 3 34.5 -7t14.5 -32zM420 415q0 -5 -0.5 -23.5t-1.5 -38.5t-1.5 -37t-1.5 -18q-8 -12 -21.5 -14t-28.5 -2q-34 0 -49.5 3.5t-22.5 13 t-9 27.5t-7 45q-4 16 -8.5 28.5t-4.5 28.5q0 20 19 24.5t33 4.5h23q9 0 23.5 -1t27 -4.5t21.5 -12t9 -24.5z" />
<glyph unicode="&#xf8;" horiz-adv-x="653" d="M352 559q-3 -1 -9 -1h-10q-10 0 -21.5 5t-19.5 12q-26 -38 -42.5 -86.5t-26.5 -100t-14 -103.5q-4 -51 -4 -97q0 -34 1.5 -68t5.5 -69zM390 106q-22 -82 -43 -162t-40 -162l2 1q39 26 65 78t42 112.5t22.5 121.5t6.5 105q0 25 -1 48t-3 50zM545 724q0 -17 -5.5 -37 t-10.5 -39l-1 -11q29 -39 47.5 -89t30.5 -104.5t16.5 -109t4.5 -101.5q0 -113 -19 -225.5t-78 -212.5q-18 -30 -41.5 -58t-51 -50.5t-61 -36.5t-69.5 -14h-16.5t-14.5 2q-4 -22 -16 -38t-38 -16q-12 0 -32 4.5t-38.5 14t-32.5 21.5t-14 28t4 33.5t11 32.5v-1q3 6 4.5 12 t2.5 13q-27 40 -45 92t-29 106.5t-16 110t-5 103.5q0 72 8.5 160t34 172.5t71.5 154.5q45 69 119 105v-1q42 22 83 22q18 0 32.5 -7t17.5 -23q5 22 15.5 41t34.5 19q14 0 31.5 -4.5t31.5 -13.5t24 -23t10 -32z" />
<glyph unicode="&#xf9;" horiz-adv-x="696" d="M611 558q0 -13 -2.5 -27.5t-5.5 -25.5q-3 -14 -5.5 -26.5t-2.5 -24.5q0 -121 4.5 -242.5t25.5 -243.5q6 -47 15.5 -91t21.5 -90l2 -8v3q4 -9 7.5 -19t3.5 -20q0 -14 -7.5 -23.5t-17.5 -14.5t-22 -7q-14 -1 -24 -1q-43 0 -68 10t-40.5 27.5t-23 42t-12.5 54.5l-4 24 q-5 18 -6 39q-1 10 -2 9.5t-2 9.5q-18 -32 -42 -69t-55 -69t-66 -53.5t-75 -21.5q-56 0 -86.5 34t-45 82.5t-17 101t-2.5 91.5q0 148 10 294t21 293q0 4 1 10t1 10q1 18 2.5 34t6.5 30v-1q5 21 15 30t30 9t39.5 -7t35 -19.5t25.5 -29.5t10 -38v-24.5t-2 -24.5q0 -9 -0.5 -23 t-0.5 -23q-10 -125 -15.5 -247.5t-5.5 -248.5q0 -35 0.5 -70t7.5 -71q43 55 74 140t52.5 180.5t35 190t20.5 167.5q0 4 0.5 9t0.5 9q1 14 2.5 27t9.5 25q0 12 1.5 25t6.5 24t14.5 17.5t28.5 6.5q52 0 81.5 -32t32.5 -81q6 -10 9.5 -20t3.5 -22zM410 830q0 -13 -7 -25 t-18.5 -21t-24.5 -14t-25 -5q-16 0 -30.5 6.5t-26.5 16.5q-42 30 -61.5 45t-34.5 27.5t-33 28t-58 47.5q-12 10 -23.5 22t-18.5 28v10q0 13 8.5 30t22 30.5t30 23.5t30.5 10q20 0 36.5 -15t31.5 -27l109 -112q9 -9 25 -21t31 -26.5t26 -30t11 -28.5z" />
<glyph unicode="&#xfa;" horiz-adv-x="698" d="M611 558q0 -13 -2.5 -27.5t-5.5 -25.5q-3 -14 -5.5 -26.5t-2.5 -24.5q0 -121 4.5 -242.5t25.5 -243.5q6 -47 15.5 -91t21.5 -90l2 -8v3q4 -9 7.5 -19t3.5 -20q0 -14 -7.5 -23.5t-17.5 -14.5t-22 -7q-14 -1 -24 -1q-43 0 -68 10t-40.5 27.5t-23 42t-12.5 54.5l-4 24 q-5 18 -6 39q-1 10 -2 9.5t-2 9.5q-18 -32 -42 -69t-55 -69t-66 -53.5t-75 -21.5q-56 0 -86.5 34t-45 82.5t-17 101t-2.5 91.5q0 148 10 294t21 293q0 4 1 10t1 10q1 18 2.5 34t6.5 30v-1q5 21 15 30t30 9t39.5 -7t35 -19.5t25.5 -29.5t10 -38v-24.5t-2 -24.5q0 -9 -0.5 -23 t-0.5 -23q-10 -125 -15.5 -247.5t-5.5 -248.5q0 -35 0.5 -70t7.5 -71q43 55 74 140t52.5 180.5t35 190t20.5 167.5q0 4 0.5 9t0.5 9q1 14 2.5 27t9.5 25q0 12 1.5 25t6.5 24t14.5 17.5t28.5 6.5q52 0 81.5 -32t32.5 -81q6 -10 9.5 -20t3.5 -22zM299 830q0 13 11 28.5 t26 29.5t30.5 26.5t26.5 21.5l127 117q16 12 33.5 27t36.5 15q13 0 29.5 -10t30 -23.5t22.5 -30.5t9 -30v-5.5t-2 -4.5q-4 -16 -16 -27.5t-26 -22.5q-40 -32 -61.5 -48.5t-40 -30t-41 -29t-62.5 -45.5q-14 -10 -28 -16.5t-30 -6.5q-12 0 -24.5 5t-24.5 14t-19 21t-7 25z" />
<glyph unicode="&#xfb;" horiz-adv-x="696" d="M611 558q0 -13 -2.5 -27.5t-5.5 -25.5q-3 -14 -5.5 -26.5t-2.5 -24.5q0 -121 4.5 -242.5t25.5 -243.5q6 -47 15.5 -91t21.5 -90l2 -8v3q4 -9 7.5 -19t3.5 -20q0 -14 -7.5 -23.5t-17.5 -14.5t-22 -7q-14 -1 -24 -1q-43 0 -68 10t-40.5 27.5t-23 42t-12.5 54.5l-4 24 q-5 18 -6 39q-1 10 -2 9.5t-2 9.5q-18 -32 -42 -69t-55 -69t-66 -53.5t-75 -21.5q-56 0 -86.5 34t-45 82.5t-17 101t-2.5 91.5q0 148 10 294t21 293q0 4 1 10t1 10q1 18 2.5 34t6.5 30v-1q5 21 15 30t30 9t39.5 -7t35 -19.5t25.5 -29.5t10 -38v-24.5t-2 -24.5q0 -9 -0.5 -23 t-0.5 -23q-10 -125 -15.5 -247.5t-5.5 -248.5q0 -35 0.5 -70t7.5 -71q43 55 74 140t52.5 180.5t35 190t20.5 167.5q0 4 0.5 9t0.5 9q1 14 2.5 27t9.5 25q0 12 1.5 25t6.5 24t14.5 17.5t28.5 6.5q52 0 81.5 -32t32.5 -81q6 -10 9.5 -20t3.5 -22zM538 827q0 -10 -7.5 -16.5 t-18 -10t-22 -4t-19.5 -0.5q-12 0 -25.5 0.5t-24.5 7.5q-18 8 -25 21.5t-14 27.5q-16 42 -31 81t-34 78q-18 -46 -36 -90t-36 -89q-4 -12 -8.5 -20.5t-15.5 -16.5q-3 -3 -13 -2q-10 0 -22.5 5.5t-23 14.5t-17.5 21t-7 24q0 9 12.5 46t28.5 81.5t31 85t22 54.5q12 26 28 40.5 t47 14.5q36 0 65 -29q23 -23 39 -53.5t31 -60.5q5 -10 21.5 -42t32.5 -67t29 -65.5t13 -36.5z" />
<glyph unicode="&#xfc;" horiz-adv-x="696" d="M611 558q0 -13 -2.5 -27.5t-5.5 -25.5q-3 -14 -5.5 -26.5t-2.5 -24.5q0 -121 4.5 -242.5t25.5 -243.5q6 -47 15.5 -91t21.5 -90l2 -8v3q4 -9 7.5 -19t3.5 -20q0 -14 -7.5 -23.5t-17.5 -14.5t-22 -7q-14 -1 -24 -1q-43 0 -68 10t-40.5 27.5t-23 42t-12.5 54.5l-4 24 q-5 18 -6 39q-1 10 -2 9.5t-2 9.5q-18 -32 -42 -69t-55 -69t-66 -53.5t-75 -21.5q-56 0 -86.5 34t-45 82.5t-17 101t-2.5 91.5q0 148 10 294t21 293q0 4 1 10t1 10q1 18 2.5 34t6.5 30v-1q5 21 15 30t30 9t39.5 -7t35 -19.5t25.5 -29.5t10 -38v-24.5t-2 -24.5q0 -9 -0.5 -23 t-0.5 -23q-10 -125 -15.5 -247.5t-5.5 -248.5q0 -35 0.5 -70t7.5 -71q43 55 74 140t52.5 180.5t35 190t20.5 167.5q0 4 0.5 9t0.5 9q1 14 2.5 27t9.5 25q0 12 1.5 25t6.5 24t14.5 17.5t28.5 6.5q52 0 81.5 -32t32.5 -81q6 -10 9.5 -20t3.5 -22zM83 972q0 13 9 20.5 t22.5 10.5t27.5 3h24q13 0 30.5 -0.5t33.5 -5t27 -14.5t11 -27q0 -6 -1 -27.5t-1.5 -46t-1 -45t-2.5 -21.5q-10 -14 -26 -16t-31 -2q-40 0 -59.5 4t-28.5 15.5t-11 32.5t-7 54q-4 16 -10 31.5t-6 33.5zM421 972q0 13 9 20.5t22.5 10.5t27.5 3h24q13 0 30.5 -0.5t33.5 -5 t27 -14.5t11 -27q0 -6 -1 -27.5t-1.5 -46t-1 -45t-2.5 -21.5q-10 -14 -26 -16t-31 -2q-40 0 -59.5 4t-28.5 15.5t-11 32.5t-7 54q-4 16 -10 31.5t-6 33.5z" />
<glyph unicode="&#xfd;" horiz-adv-x="640" d="M569 -388q0 -53 -3.5 -112t-13 -118t-25 -116t-38.5 -107q-39 -73 -98 -128t-129.5 -93t-150 -57t-159.5 -19q-12 0 -28 1t-32 5.5t-26 15t-10 28.5q0 8 4 16q0 3 0.5 4.5t0.5 3.5q9 26 20.5 41.5t26.5 24t35.5 11.5t46.5 6q83 4 157 39v-2q84 42 133 104t74.5 136.5 t32 158t6.5 167.5v29v16v16t-2 29q-46 -35 -95 -35q-57 0 -96.5 31.5t-66 83t-41.5 117t-22.5 134t-9.5 133.5q-2 66 -2 116v54q0 69 1 135.5t5 132.5v19v31.5t2 29.5q5 21 15 30.5t32 9.5q10 0 20 -1.5t20 -4.5q25 -10 39.5 -21t21.5 -26t9 -34.5t2 -45.5v-174 q0 -31 0.5 -77.5t3 -101t6.5 -113t12 -113t18.5 -100t25.5 -75.5q23 51 40 119t28 146.5t17 162t9.5 162.5t4 150t0.5 124q0 13 0.5 28t6 27.5t15 20.5t29.5 8q9 0 20 -3t19 -5q3 0 6 -0.5t5 -0.5q18 -6 35 -13t29.5 -17t19.5 -25.5t7 -39.5q0 -30 -0.5 -68.5t-2.5 -80 t-4.5 -81t-5.5 -71.5l-5 -45q-3 -18 -4 -36.5t-1 -33.5q0 -83 1.5 -166t3.5 -166q3 -83 4 -165.5t1 -165.5zM229 890q0 13 11 28.5t26 29.5t30.5 26.5t26.5 21.5l127 117q16 12 33.5 27t36.5 15q13 0 29.5 -10t30 -23.5t22.5 -30.5t9 -30v-5.5t-2 -4.5q-4 -16 -16 -27.5 t-26 -22.5q-40 -32 -61.5 -48.5t-40 -30t-41 -29t-62.5 -45.5q-14 -10 -28 -16.5t-30 -6.5q-12 0 -24.5 5t-24.5 14t-19 21t-7 25z" />
<glyph unicode="&#xfe;" horiz-adv-x="724" d="M231 35v-123t3 -124q10 12 21 19t26 18q69 51 117.5 125t80 159t45.5 174.5t14 173.5q0 16 -0.5 45t-6.5 57.5t-18.5 50t-34.5 21.5q-23 0 -46.5 -19t-45 -49t-41.5 -66.5t-36.5 -72t-28 -66.5t-17.5 -50q-8 -18 -17 -40.5t-12 -42.5q-3 -18 -3.5 -42.5t-0.5 -50t0.5 -51 t0.5 -46.5zM304 -1166q0 -26 -14 -35t-38 -9q-31 0 -68 8.5t-57 35.5q-5 5 -9.5 37.5t-9 78t-8.5 99.5t-7 103.5t-6 88t-4 53.5q-16 281 -15 562q0 49 2 125.5t5 171t7 204t9 224.5t11 231t12.5 226t13 208t12.5 178q3 20 2.5 39t3.5 39q6 18 14.5 26t26.5 8 q53 0 76.5 -29.5t27.5 -74.5q0 -1 -1 -36.5t-4.5 -92.5t-8 -128.5t-9 -147t-8.5 -147.5t-8 -129.5t-6 -93t-2 -37.5q43 65 102.5 103t139.5 38q64 0 106 -28t67.5 -73t36.5 -99.5t11 -106.5q0 -105 -16 -208.5t-53 -199t-96.5 -179.5t-143.5 -151q-10 -9 -24.5 -19.5 t-30 -19.5t-31.5 -15t-29 -6q-18 0 -29.5 12t-19.5 24q6 -196 17.5 -393.5t42.5 -391.5q4 -18 7 -35.5t3 -37.5z" />
<glyph unicode="&#xff;" horiz-adv-x="640" d="M569 -388q0 -53 -3.5 -112t-13 -118t-25 -116t-38.5 -107q-39 -73 -98 -128t-129.5 -93t-150 -57t-159.5 -19q-12 0 -28 1t-32 5.5t-26 15t-10 28.5q0 8 4 16q0 3 0.5 4.5t0.5 3.5q9 26 20.5 41.5t26.5 24t35.5 11.5t46.5 6q83 4 157 39v-2q84 42 133 104t74.5 136.5 t32 158t6.5 167.5v29v16v16t-2 29q-46 -35 -95 -35q-57 0 -96.5 31.5t-66 83t-41.5 117t-22.5 134t-9.5 133.5q-2 66 -2 116v54q0 69 1 135.5t5 132.5v19v31.5t2 29.5q5 21 15 30.5t32 9.5q10 0 20 -1.5t20 -4.5q25 -10 39.5 -21t21.5 -26t9 -34.5t2 -45.5v-174 q0 -31 0.5 -77.5t3 -101t6.5 -113t12 -113t18.5 -100t25.5 -75.5q23 51 40 119t28 146.5t17 162t9.5 162.5t4 150t0.5 124q0 13 0.5 28t6 27.5t15 20.5t29.5 8q9 0 20 -3t19 -5q3 0 6 -0.5t5 -0.5q18 -6 35 -13t29.5 -17t19.5 -25.5t7 -39.5q0 -30 -0.5 -68.5t-2.5 -80 t-4.5 -81t-5.5 -71.5l-5 -45q-3 -18 -4 -36.5t-1 -33.5q0 -83 1.5 -166t3.5 -166q3 -83 4 -165.5t1 -165.5zM47 1076q0 13 9 20.5t22.5 10.5t27.5 3h24q13 0 30.5 -0.5t33.5 -5t27 -14.5t11 -27q0 -6 -1 -27.5t-1.5 -46t-1 -45t-2.5 -21.5q-10 -14 -26 -16t-31 -2 q-40 0 -59.5 4t-28.5 15.5t-11 32.5t-7 54q-4 16 -10 31.5t-6 33.5zM385 1076q0 13 9 20.5t22.5 10.5t27.5 3h24q13 0 30.5 -0.5t33.5 -5t27 -14.5t11 -27q0 -6 -1 -27.5t-1.5 -46t-1 -45t-2.5 -21.5q-10 -14 -26 -16t-31 -2q-40 0 -59.5 4t-28.5 15.5t-11 32.5t-7 54 q-4 16 -10 31.5t-6 33.5z" />
<glyph unicode="&#x100;" horiz-adv-x="964" d="M1017 415q0 -27 -19.5 -57t-43.5 -44q-6 -4 -22 -8t-33.5 -7.5t-33.5 -6.5t-25 -4l31 -193q14 -90 21.5 -180t33.5 -179q3 -8 5 -14t2 -17q0 -17 -9.5 -26t-23 -13.5t-29.5 -6t-29 -1.5h-18q-40 0 -61.5 6.5t-33 22.5t-15.5 40t-9 59q-31 238 -71 476q-81 -10 -162 -19.5 t-163 -17.5l-41 -255q-3 -23 -7.5 -63.5t-10.5 -82.5t-13 -78.5t-16 -53.5q-8 -16 -14.5 -22t-24.5 -6q-23 0 -46 8t-40.5 23t-28 36t-10.5 47t6 52t10 52q14 86 25.5 171t26.5 170q-9 1 -21 4t-23 8.5t-18.5 13t-7.5 18.5q0 13 9.5 24t23 20.5t28 17t24.5 11.5 q27 182 52 362.5t45 365.5q5 49 9 99.5t8.5 101.5t11.5 100.5t20 98.5q12 47 39 75.5t81 28.5q16 0 30.5 -2.5t26.5 -10.5q34 -17 70 -92.5t72.5 -182.5t69.5 -232t60.5 -242t47 -211t28.5 -140q27 4 54.5 7.5t54.5 3.5q13 0 30 -1.5t32 -7.5t25 -17t10 -29zM608 425 q-34 185 -73.5 366.5t-92.5 361.5q-23 -196 -50.5 -389.5t-58.5 -387.5q70 10 138 22.5t137 26.5zM651 1761q0 -49 -22.5 -78t-73.5 -29q-84 0 -166.5 1.5t-166.5 1.5h-26t-30 2.5t-24.5 9.5t-10.5 22q0 23 13.5 49t35.5 34q6 3 36.5 6.5t72 7t89.5 6t91.5 4.5t77.5 3t47 1 q23 0 40 -7t17 -34z" />
<glyph unicode="&#x101;" horiz-adv-x="635" d="M616 -283q0 -26 -13 -36t-36 -10q-61 0 -88 32.5t-40 86.5q-4 18 -7.5 37t-6.5 37q-3 17 -5.5 23.5t-4.5 24.5q-16 -38 -38.5 -79t-52.5 -75.5t-67 -56.5t-81 -22q-47 0 -78.5 23t-49 57.5t-24.5 76.5q-7 40 -7 78q0 88 17.5 192t48.5 207t73 198.5t91 167.5v-1l8 11 q14 20 33 42.5t45 22.5q25 0 43 -21.5t26 -44.5q34 -6 54.5 -16t32 -24.5t15.5 -33t4 -40.5v-19.5t-1 -21.5q-1 -10 -1 -24.5v-25.5q0 -13 4.5 -34t9.5 -43l9 -48q6 -38 11 -86t11 -96q5 -49 10.5 -95.5t10.5 -85.5l31 -192l4 -22q3 -17 6 -31.5t3 -32.5zM318 464q0 3 -1 9 l-2 12q-30 -64 -53 -138.5t-38 -152t-22 -154.5t-7 -146v-11.5t1 -10.5v-2q31 48 54 127t38.5 165.5t22.5 167.5t7 134zM577 961q0 -49 -22.5 -78t-73.5 -29q-84 0 -166.5 1.5t-166.5 1.5h-26t-30 2.5t-24.5 9.5t-10.5 22q0 23 13.5 49t35.5 34q6 3 36.5 6.5t72 7t89.5 6 t91.5 4.5t77.5 3t47 1q23 0 40 -7t17 -34z" />
<glyph unicode="&#x102;" horiz-adv-x="964" d="M1017 415q0 -27 -19.5 -57t-43.5 -44q-6 -4 -22 -8t-33.5 -7.5t-33.5 -6.5t-25 -4l31 -193q14 -90 21.5 -180t33.5 -179q3 -8 5 -14t2 -17q0 -17 -9.5 -26t-23 -13.5t-29.5 -6t-29 -1.5h-18q-40 0 -61.5 6.5t-33 22.5t-15.5 40t-9 59q-31 238 -71 476q-81 -10 -162 -19.5 t-163 -17.5l-41 -255q-3 -23 -7.5 -63.5t-10.5 -82.5t-13 -78.5t-16 -53.5q-8 -16 -14.5 -22t-24.5 -6q-23 0 -46 8t-40.5 23t-28 36t-10.5 47t6 52t10 52q14 86 25.5 171t26.5 170q-9 1 -21 4t-23 8.5t-18.5 13t-7.5 18.5q0 13 9.5 24t23 20.5t28 17t24.5 11.5 q27 182 52 362.5t45 365.5q5 49 9 99.5t8.5 101.5t11.5 100.5t20 98.5q12 47 39 75.5t81 28.5q16 0 30.5 -2.5t26.5 -10.5q34 -17 70 -92.5t72.5 -182.5t69.5 -232t60.5 -242t47 -211t28.5 -140q27 4 54.5 7.5t54.5 3.5q13 0 30 -1.5t32 -7.5t25 -17t10 -29zM608 425 q-34 185 -73.5 366.5t-92.5 361.5q-23 -196 -50.5 -389.5t-58.5 -387.5q70 10 138 22.5t137 26.5zM541 1841q0 -44 -11 -81.5t-34 -65t-57.5 -43t-79.5 -15.5q-55 0 -89.5 22t-54 57t-26.5 79.5t-7 88.5q0 9 0.5 20.5t4.5 22.5t11 19t20 8t29 -8q29 -12 38.5 -34t13.5 -48 t6 -53t15 -49q13 -26 36 -26q17 0 28 9.5t17 23t8 29.5t2 29q0 31 -5.5 60t-12.5 57q-3 4 -3 7v6q0 21 19 26t33 5q42 0 62.5 -11t28.5 -54q8 -39 8 -81z" />
<glyph unicode="&#x103;" horiz-adv-x="635" d="M616 -283q0 -26 -13 -36t-36 -10q-61 0 -88 32.5t-40 86.5q-4 18 -7.5 37t-6.5 37q-3 17 -5.5 23.5t-4.5 24.5q-16 -38 -38.5 -79t-52.5 -75.5t-67 -56.5t-81 -22q-47 0 -78.5 23t-49 57.5t-24.5 76.5q-7 40 -7 78q0 88 17.5 192t48.5 207t73 198.5t91 167.5v-1l8 11 q14 20 33 42.5t45 22.5q25 0 43 -21.5t26 -44.5q34 -6 54.5 -16t32 -24.5t15.5 -33t4 -40.5v-19.5t-1 -21.5q-1 -10 -1 -24.5v-25.5q0 -13 4.5 -34t9.5 -43l9 -48q6 -38 11 -86t11 -96q5 -49 10.5 -95.5t10.5 -85.5l31 -192l4 -22q3 -17 6 -31.5t3 -32.5zM318 464q0 3 -1 9 l-2 12q-30 -64 -53 -138.5t-38 -152t-22 -154.5t-7 -146v-11.5t1 -10.5v-2q31 48 54 127t38.5 165.5t22.5 167.5t7 134zM497 1035q0 -44 -11 -81.5t-34 -65t-57.5 -43t-79.5 -15.5q-55 0 -89.5 22t-54 57t-26.5 79.5t-7 88.5q0 9 0.5 20.5t4.5 22.5t11 19t20 8t29 -8 q29 -12 38.5 -34t13.5 -48t6 -53t15 -49q13 -26 36 -26q17 0 28 9.5t17 23t8 29.5t2 29q0 31 -5.5 60t-12.5 57q-3 4 -3 7v6q0 21 19 26t33 5q42 0 62.5 -11t28.5 -54q8 -39 8 -81z" />
<glyph unicode="&#x104;" horiz-adv-x="964" d="M985 -615q0 -21 -18.5 -34.5t-44 -22t-51.5 -12t-42 -3.5q-35 0 -70.5 12t-64 34.5t-47 53.5t-18.5 69q0 25 8 52t21 55t30 55t36 51q-8 14 -12 37t-7 54q-31 238 -71 476q-81 -10 -162 -19.5t-163 -17.5l-41 -255q-3 -23 -7.5 -63.5t-10.5 -82.5t-13 -78.5t-16 -53.5 q-8 -16 -14.5 -22t-24.5 -6q-23 0 -46 8t-40.5 23t-28 36t-10.5 47t6 52t10 52q14 86 25.5 171t26.5 170q-9 1 -21 4t-23 8.5t-18.5 13t-7.5 18.5q0 13 9.5 24t23 20.5t28 17t24.5 11.5q27 182 52 362.5t45 365.5q5 49 9 99.5t8.5 101.5t11.5 100.5t20 98.5q12 47 39 75.5 t81 28.5q16 0 30.5 -2.5t26.5 -10.5q34 -17 70 -92.5t72.5 -182.5t69.5 -232t60.5 -242t47 -211t28.5 -140q27 4 54.5 7.5t54.5 3.5q13 0 30 -1.5t32 -7.5t25 -17t10 -29q0 -27 -19.5 -57t-43.5 -44q-6 -4 -22 -8t-33.5 -7.5t-33.5 -6.5t-25 -4l31 -193q14 -90 21.5 -180 t33.5 -179q3 -8 5 -14t2 -17q0 -21 -14 -30.5t-32 -12.5q-16 -21 -36 -44t-39 -47t-32 -49t-13 -48q0 -26 23.5 -43t46.5 -17q17 0 32 4.5t28 10.5t24 11t20 5q23 0 33.5 -20t10.5 -40zM608 425q-34 185 -73.5 366.5t-92.5 361.5q-23 -196 -50.5 -389.5t-58.5 -387.5 q70 10 138 22.5t137 26.5z" />
<glyph unicode="&#x105;" horiz-adv-x="635" d="M676 -613q0 -21 -19 -34.5t-44 -22t-51 -12.5t-42 -4q-35 0 -71 12.5t-64.5 34.5t-46.5 53t-18 69q0 31 12 66t32 70t44 66.5t48 54.5q-5 10 -9.5 22.5t-7.5 27.5q-4 18 -7.5 37t-6.5 37q-3 17 -5.5 23.5t-4.5 24.5q-16 -38 -38.5 -79t-52.5 -75.5t-67 -56.5t-81 -22 q-47 0 -78.5 23t-49 57.5t-24.5 76.5q-7 40 -7 78q0 88 17.5 192t48.5 207t73 198.5t91 167.5v-1l8 11q14 20 33 42.5t45 22.5q25 0 43 -21.5t26 -44.5q34 -6 54.5 -16t32 -24.5t15.5 -33t4 -40.5v-19.5t-1 -21.5q-1 -10 -1 -24.5v-25.5q0 -13 4.5 -34t9.5 -43l9 -48 q6 -38 11 -86t11 -96q5 -49 10.5 -95.5t10.5 -85.5l31 -192l4 -22q3 -17 6 -31.5t3 -32.5q0 -38 -32 -44q-14 -22 -36 -46.5t-42 -49.5t-34 -51t-14 -51q0 -26 23 -43t47 -17q17 0 32 4.5t28 10.5t24 11t20 5q23 0 33.5 -19.5t10.5 -39.5zM318 464q0 3 -1 9l-2 12 q-30 -64 -53 -138.5t-38 -152t-22 -154.5t-7 -146v-11.5t1 -10.5v-2q31 48 54 127t38.5 165.5t22.5 167.5t7 134z" />
<glyph unicode="&#x106;" horiz-adv-x="1056" d="M1067 85q0 -20 -5.5 -38.5t-12.5 -37.5q-29 -74 -70.5 -137t-96 -108.5t-123.5 -71.5t-152 -26q-110 0 -189.5 47t-135.5 121.5t-91.5 167t-56.5 184.5q-31 134 -48 268.5t-17 269.5q0 79 7 164t25.5 167.5t49.5 159.5t78 143t111 116.5t150 79.5q31 12 65 16.5t68 4.5 q68 0 128.5 -22.5t107 -62.5t73 -97.5t26.5 -127.5q0 -23 -10.5 -35t-36.5 -12q-48 0 -74.5 16t-43.5 39t-28 50.5t-26.5 51t-41.5 39t-72 15.5t-85.5 -17.5t-72.5 -46t-59.5 -64.5t-47.5 -72q-55 -101 -77 -216.5t-22 -230.5q0 -39 3.5 -101t10.5 -136t20 -156.5t32 -162 t45.5 -152t61 -127.5t78 -87.5t98.5 -32.5q56 0 98.5 29.5t73 74.5t50.5 97q20 53 32 98q4 13 7.5 23.5t9.5 18.5t15 12t26 4q18 0 43.5 -7.5t48 -20.5t38 -31t15.5 -40zM542 1704q0 13 11 28.5t26 29.5t30.5 26.5t26.5 21.5l127 117q16 12 33.5 27t36.5 15q13 0 29.5 -10 t30 -23.5t22.5 -30.5t9 -30v-5.5t-2 -4.5q-4 -16 -16 -27.5t-26 -22.5q-40 -32 -61.5 -48.5t-40 -30t-41 -29t-62.5 -45.5q-14 -10 -28 -16.5t-30 -6.5q-12 0 -24.5 5t-24.5 14t-19 21t-7 25z" />
<glyph unicode="&#x107;" horiz-adv-x="572" d="M577 -9q0 -27 -9 -55.5t-21 -54.5q-16 -38 -37.5 -73.5t-50.5 -63.5t-65 -45t-82 -17q-81 0 -134 40t-84.5 101.5t-43.5 134t-12 137.5q0 48 4 114t15 136t32 139t55 123t83 87.5t116 33.5q14 0 41.5 -5t54 -15t47 -26t20.5 -37q0 -20 -17.5 -30t-42 -14.5t-49.5 -5.5 t-41 -1h-23q-36 -32 -59.5 -95t-36.5 -134.5t-18.5 -141t-5.5 -113.5q0 -62 10 -123t40 -114q6 -12 18.5 -27t27.5 -15q12 0 24.5 19.5t23 45.5t17 51t8.5 36q1 5 1.5 12t0.5 13q0 12 0.5 23t2.5 17q9 22 24 30t37 8q20 0 42 -5t41.5 -17t32.5 -30t13 -43zM282 879 q0 13 11 28.5t26 29.5t30.5 26.5t26.5 21.5l127 117q16 12 33.5 27t36.5 15q13 0 29.5 -10t30 -23.5t22.5 -30.5t9 -30v-5.5t-2 -4.5q-4 -16 -16 -27.5t-26 -22.5q-40 -32 -61.5 -48.5t-40 -30t-41 -29t-62.5 -45.5q-14 -10 -28 -16.5t-30 -6.5q-12 0 -24.5 5t-24.5 14 t-19 21t-7 25z" />
<glyph unicode="&#x108;" horiz-adv-x="1056" d="M1067 85q0 -20 -5.5 -38.5t-12.5 -37.5q-29 -74 -70.5 -137t-96 -108.5t-123.5 -71.5t-152 -26q-110 0 -189.5 47t-135.5 121.5t-91.5 167t-56.5 184.5q-31 134 -48 268.5t-17 269.5q0 79 7 164t25.5 167.5t49.5 159.5t78 143t111 116.5t150 79.5q31 12 65 16.5t68 4.5 q68 0 128.5 -22.5t107 -62.5t73 -97.5t26.5 -127.5q0 -23 -10.5 -35t-36.5 -12q-48 0 -74.5 16t-43.5 39t-28 50.5t-26.5 51t-41.5 39t-72 15.5t-85.5 -17.5t-72.5 -46t-59.5 -64.5t-47.5 -72q-55 -101 -77 -216.5t-22 -230.5q0 -39 3.5 -101t10.5 -136t20 -156.5t32 -162 t45.5 -152t61 -127.5t78 -87.5t98.5 -32.5q56 0 98.5 29.5t73 74.5t50.5 97q20 53 32 98q4 13 7.5 23.5t9.5 18.5t15 12t26 4q18 0 43.5 -7.5t48 -20.5t38 -31t15.5 -40zM764 1659q0 -10 -7.5 -16.5t-18 -10t-22 -4t-19.5 -0.5q-12 0 -25.5 0.5t-24.5 7.5q-18 8 -25 21.5 t-14 27.5q-16 42 -31 81t-34 78q-18 -46 -36 -90t-36 -89q-4 -12 -8.5 -20.5t-15.5 -16.5q-3 -3 -13 -2q-10 0 -22.5 5.5t-23 14.5t-17.5 21t-7 24q0 9 12.5 46t28.5 81.5t31 85t22 54.5q12 26 28 40.5t47 14.5q36 0 65 -29q23 -23 39 -53.5t31 -60.5q5 -10 21.5 -42 t32.5 -67t29 -65.5t13 -36.5z" />
<glyph unicode="&#x109;" horiz-adv-x="572" d="M577 -9q0 -27 -9 -55.5t-21 -54.5q-16 -38 -37.5 -73.5t-50.5 -63.5t-65 -45t-82 -17q-81 0 -134 40t-84.5 101.5t-43.5 134t-12 137.5q0 48 4 114t15 136t32 139t55 123t83 87.5t116 33.5q14 0 41.5 -5t54 -15t47 -26t20.5 -37q0 -20 -17.5 -30t-42 -14.5t-49.5 -5.5 t-41 -1h-23q-36 -32 -59.5 -95t-36.5 -134.5t-18.5 -141t-5.5 -113.5q0 -62 10 -123t40 -114q6 -12 18.5 -27t27.5 -15q12 0 24.5 19.5t23 45.5t17 51t8.5 36q1 5 1.5 12t0.5 13q0 12 0.5 23t2.5 17q9 22 24 30t37 8q20 0 42 -5t41.5 -17t32.5 -30t13 -43zM486 828 q0 -10 -7.5 -16.5t-18 -10t-22 -4t-19.5 -0.5q-12 0 -25.5 0.5t-24.5 7.5q-18 8 -25 21.5t-14 27.5q-16 42 -31 81t-34 78q-18 -46 -36 -90t-36 -89q-4 -12 -8.5 -20.5t-15.5 -16.5q-3 -3 -13 -2q-10 0 -22.5 5.5t-23 14.5t-17.5 21t-7 24q0 9 12.5 46t28.5 81.5t31 85 t22 54.5q12 26 28 40.5t47 14.5q36 0 65 -29q23 -23 39 -53.5t31 -60.5q5 -10 21.5 -42t32.5 -67t29 -65.5t13 -36.5z" />
<glyph unicode="&#x10a;" horiz-adv-x="1056" d="M1067 85q0 -20 -5.5 -38.5t-12.5 -37.5q-29 -74 -70.5 -137t-96 -108.5t-123.5 -71.5t-152 -26q-110 0 -189.5 47t-135.5 121.5t-91.5 167t-56.5 184.5q-31 134 -48 268.5t-17 269.5q0 79 7 164t25.5 167.5t49.5 159.5t78 143t111 116.5t150 79.5q31 12 65 16.5t68 4.5 q68 0 128.5 -22.5t107 -62.5t73 -97.5t26.5 -127.5q0 -23 -10.5 -35t-36.5 -12q-48 0 -74.5 16t-43.5 39t-28 50.5t-26.5 51t-41.5 39t-72 15.5t-85.5 -17.5t-72.5 -46t-59.5 -64.5t-47.5 -72q-55 -101 -77 -216.5t-22 -230.5q0 -39 3.5 -101t10.5 -136t20 -156.5t32 -162 t45.5 -152t61 -127.5t78 -87.5t98.5 -32.5q56 0 98.5 29.5t73 74.5t50.5 97q20 53 32 98q4 13 7.5 23.5t9.5 18.5t15 12t26 4q18 0 43.5 -7.5t48 -20.5t38 -31t15.5 -40zM435 1808q0 13 9 20.5t22.5 10.5t27.5 3h24q13 0 30.5 -0.5t33.5 -5t27 -14.5t11 -27q0 -6 -1 -27.5 t-1.5 -46t-1 -45t-2.5 -21.5q-10 -14 -26 -16t-31 -2q-40 0 -59.5 4t-28.5 15.5t-11 32.5t-7 54q-4 16 -10 31.5t-6 33.5z" />
<glyph unicode="&#x10b;" horiz-adv-x="572" d="M577 -9q0 -27 -9 -55.5t-21 -54.5q-16 -38 -37.5 -73.5t-50.5 -63.5t-65 -45t-82 -17q-81 0 -134 40t-84.5 101.5t-43.5 134t-12 137.5q0 48 4 114t15 136t32 139t55 123t83 87.5t116 33.5q14 0 41.5 -5t54 -15t47 -26t20.5 -37q0 -20 -17.5 -30t-42 -14.5t-49.5 -5.5 t-41 -1h-23q-36 -32 -59.5 -95t-36.5 -134.5t-18.5 -141t-5.5 -113.5q0 -62 10 -123t40 -114q6 -12 18.5 -27t27.5 -15q12 0 24.5 19.5t23 45.5t17 51t8.5 36q1 5 1.5 12t0.5 13q0 12 0.5 23t2.5 17q9 22 24 30t37 8q20 0 42 -5t41.5 -17t32.5 -30t13 -43zM194 972 q0 13 9 20.5t22.5 10.5t27.5 3h24q13 0 30.5 -0.5t33.5 -5t27 -14.5t11 -27q0 -6 -1 -27.5t-1.5 -46t-1 -45t-2.5 -21.5q-10 -14 -26 -16t-31 -2q-40 0 -59.5 4t-28.5 15.5t-11 32.5t-7 54q-4 16 -10 31.5t-6 33.5z" />
<glyph unicode="&#x10c;" horiz-adv-x="1056" d="M1067 85q0 -20 -5.5 -38.5t-12.5 -37.5q-29 -74 -70.5 -137t-96 -108.5t-123.5 -71.5t-152 -26q-110 0 -189.5 47t-135.5 121.5t-91.5 167t-56.5 184.5q-31 134 -48 268.5t-17 269.5q0 79 7 164t25.5 167.5t49.5 159.5t78 143t111 116.5t150 79.5q31 12 65 16.5t68 4.5 q68 0 128.5 -22.5t107 -62.5t73 -97.5t26.5 -127.5q0 -23 -10.5 -35t-36.5 -12q-48 0 -74.5 16t-43.5 39t-28 50.5t-26.5 51t-41.5 39t-72 15.5t-85.5 -17.5t-72.5 -46t-59.5 -64.5t-47.5 -72q-55 -101 -77 -216.5t-22 -230.5q0 -39 3.5 -101t10.5 -136t20 -156.5t32 -162 t45.5 -152t61 -127.5t78 -87.5t98.5 -32.5q56 0 98.5 29.5t73 74.5t50.5 97q20 53 32 98q4 13 7.5 23.5t9.5 18.5t15 12t26 4q18 0 43.5 -7.5t48 -20.5t38 -31t15.5 -40zM322 1995q0 10 8 16.5t19.5 9.5t23 4t19.5 1q12 0 26.5 -1t25.5 -7q16 -8 22.5 -22t14.5 -30 q16 -42 33 -82t37 -79l36 92t37 92q4 12 8.5 20.5t14.5 16.5q3 5 13 5q12 0 25 -6.5t23.5 -16.5t17.5 -21.5t7 -23.5q0 -10 -13 -48.5t-30 -84t-33 -87t-23 -55.5q-10 -27 -26.5 -42t-46.5 -15q-20 0 -36.5 8.5t-30.5 19.5q-23 26 -40.5 56.5t-32.5 60.5q-6 12 -22 44.5 t-33.5 69t-30.5 67t-13 38.5z" />
<glyph unicode="&#x10d;" horiz-adv-x="572" d="M577 -9q0 -27 -9 -55.5t-21 -54.5q-16 -38 -37.5 -73.5t-50.5 -63.5t-65 -45t-82 -17q-81 0 -134 40t-84.5 101.5t-43.5 134t-12 137.5q0 48 4 114t15 136t32 139t55 123t83 87.5t116 33.5q14 0 41.5 -5t54 -15t47 -26t20.5 -37q0 -20 -17.5 -30t-42 -14.5t-49.5 -5.5 t-41 -1h-23q-36 -32 -59.5 -95t-36.5 -134.5t-18.5 -141t-5.5 -113.5q0 -62 10 -123t40 -114q6 -12 18.5 -27t27.5 -15q12 0 24.5 19.5t23 45.5t17 51t8.5 36q1 5 1.5 12t0.5 13q0 12 0.5 23t2.5 17q9 22 24 30t37 8q20 0 42 -5t41.5 -17t32.5 -30t13 -43zM81 1146 q0 10 8 16.5t19.5 9.5t23 4t19.5 1q12 0 26.5 -1t25.5 -7q16 -8 22.5 -22t14.5 -30q16 -42 33 -82t37 -79l36 92t37 92q4 12 8.5 20.5t14.5 16.5q3 5 13 5q12 0 25 -6.5t23.5 -16.5t17.5 -21.5t7 -23.5q0 -10 -13 -48.5t-30 -84t-33 -87t-23 -55.5q-10 -27 -26.5 -42 t-46.5 -15q-20 0 -36.5 8.5t-30.5 19.5q-23 26 -40.5 56.5t-32.5 60.5q-6 12 -22 44.5t-33.5 69t-30.5 67t-13 38.5z" />
<glyph unicode="&#x10e;" horiz-adv-x="1040" d="M1005 631q0 -139 -24.5 -273.5t-81.5 -251.5t-149 -212.5t-226 -157.5q-34 -16 -73.5 -28.5t-82 -21.5t-84 -14.5t-77.5 -5.5q-14 0 -32 1t-33.5 5.5t-26 14.5t-10.5 29q0 16 6.5 32.5t17.5 32t24 28t28 18.5q-6 10 -12.5 58.5t-11 122.5t-8 166t-7 189t-5.5 194t-3 179 t-2 142.5t-1 87.5q0 122 4 240.5t4 240.5q-14 0 -26.5 8t-12.5 23q0 21 10.5 38.5t26.5 30.5t36.5 20.5t38.5 7.5t35 -3.5t35 -7.5q173 -42 308 -126t227 -205t140 -273t48 -329zM812 654q0 130 -31 245t-92.5 210.5t-154.5 168.5q-94 74 -216 122v-5q0 -335 11.5 -664.5 t33.5 -663.5q4 -51 7 -101t11 -100q122 40 205.5 125t133.5 193.5t71 231t21 238.5zM315 1933q0 10 8 16.5t19.5 9.5t23 4t19.5 1q12 0 26.5 -1t25.5 -7q16 -8 22.5 -22t14.5 -30q16 -42 33 -82t37 -79l36 92t37 92q4 12 8.5 20.5t14.5 16.5q3 5 13 5q12 0 25 -6.5 t23.5 -16.5t17.5 -21.5t7 -23.5q0 -10 -13 -48.5t-30 -84t-33 -87t-23 -55.5q-10 -27 -26.5 -42t-46.5 -15q-20 0 -36.5 8.5t-30.5 19.5q-23 26 -40.5 56.5t-32.5 60.5q-6 12 -22 44.5t-33.5 69t-30.5 67t-13 38.5z" />
<glyph unicode="&#x10f;" horiz-adv-x="895" d="M645 -260q0 -14 -6.5 -24t-16.5 -15.5t-21 -8t-21 -2.5q-16 0 -34 3.5t-36.5 11t-33 18.5t-22.5 25t-11.5 35.5t-5.5 43.5q-13 -31 -30.5 -61t-42.5 -52.5t-55.5 -36t-68.5 -13.5q-66 0 -107 31t-63.5 78.5t-30 104t-7.5 108.5q0 43 4 97.5t10.5 111.5t16 111t19.5 96 q13 48 32 106t48 108t72 85t103 39q-4 105 -11.5 194t-14.5 183l-13 144l-6 52q-3 21 -4 42.5t-1 42.5q0 30 16.5 41.5t42.5 11.5q57 0 87 -17t42.5 -45.5t13.5 -67t1 -82.5q0 -29 7 -65l6 -48l11 -132q3 -31 5 -62.5t5 -62.5l27 -280l52 -522l4 -49q5 -53 9.5 -110 t17.5 -113q4 -14 7.5 -27.5t3.5 -27.5zM342 501q0 14 -0.5 31.5t-0.5 33.5v35q-9 -13 -23.5 -36t-22.5 -41q-21 -46 -38 -116.5t-29 -148t-18.5 -151t-6.5 -122.5q0 -18 0.5 -41.5t4.5 -47.5t12 -46t20 -37q20 25 35.5 76.5t26.5 117t19 138.5t12.5 141t6.5 125t2 89z M900 1385q0 -81 -26 -155.5t-73 -141.5q-6 -8 -13.5 -19t-16.5 -20.5t-19 -16t-21 -6.5q-14 0 -33 11t-35 26.5t-27.5 34t-11.5 32.5q0 10 8 24t18 27.5t20 26.5t17 23q17 30 26 56t13 51.5t6 52t7 59.5q3 23 15 29.5t34 6.5q53 0 82.5 -20t29.5 -81z" />
<glyph unicode="&#x110;" horiz-adv-x="1093" d="M385 667q12 0 39.5 1.5t57 -0.5t52 -10.5t22.5 -26.5q0 -35 -16.5 -54t-42 -27t-54 -9t-53.5 -1q6 -120 12 -237.5t14 -235.5q4 -103 16 -201q122 40 205 125t133 193.5t71.5 231t21.5 238.5q0 130 -31 246t-93 211.5t-155 169t-215 119.5v-5q0 -365 16 -728zM16 561 q0 18 7 33q13 35 28 51t34.5 21t44.5 3t57 -2q-3 77 -2.5 151t0.5 148q0 122 2.5 240.5t2.5 240.5q-14 0 -26.5 8t-12.5 23q0 21 11 38.5t28 30.5t37 20.5t38 7.5t34 -3.5t34 -7.5q173 -42 308 -126t228 -204.5t141 -273t48 -329.5q0 -140 -25 -273.5t-82 -250.5 t-148.5 -212t-225.5 -159q-34 -16 -74 -28.5t-83 -21.5t-84.5 -14.5t-78.5 -5.5q-14 0 -31.5 1t-33 5.5t-26 14.5t-10.5 29q0 16 6.5 32.5t17.5 32t25.5 28t28.5 18.5q-8 12 -14 62.5t-11 121.5t-8 152.5t-5 155.5t-4 130.5t-2 77.5q-27 -3 -54.5 -3h-54.5q-10 0 -22 1 t-22 4t-15.5 10.5t-5.5 21.5z" />
<glyph unicode="&#x111;" horiz-adv-x="673" d="M650 1094q0 -18 -8 -34q-8 -22 -15 -36.5t-17.5 -22t-25.5 -11t-38 -3.5h-32q3 -30 5 -59t5 -59l27 -280l52 -522l4 -49q5 -53 9.5 -110t17.5 -113q4 -14 7.5 -27t3.5 -28q0 -14 -6.5 -24t-16.5 -15.5t-21 -8t-21 -2.5q-16 0 -34 3.5t-36.5 11t-33 18.5t-22.5 25 t-11.5 35.5t-5.5 43.5q-13 -31 -30.5 -61t-42.5 -52.5t-55.5 -36t-68.5 -13.5q-66 0 -107 31t-63.5 78.5t-30 104t-7.5 108.5q0 43 4 97.5t10.5 111.5t16 111t19.5 96q13 48 32 106t48 108t72 85t103 39q-3 68 -7 128t-9 119h-129q-9 0 -22.5 0.5t-27 4t-23.5 10.5t-10 21 q0 31 22 55.5t54 30.5q26 4 52 4.5t52 3.5h10t12 1l-13 143l-6 52q-3 21 -4 42.5t-1 42.5q0 30 16.5 41.5t42.5 11.5q57 0 87 -17t42.5 -45.5t13.5 -67t1 -82.5q0 -29 7 -65l5 -45q22 1 43 1h43q9 0 20 -0.5t20.5 -4t15.5 -11t6 -20.5zM342 501q0 14 -0.5 31.5t-0.5 33.5v35 q-9 -13 -23.5 -36t-22.5 -41q-21 -46 -38 -116.5t-29 -148t-18.5 -151t-6.5 -122.5q0 -18 0.5 -41.5t4.5 -47.5t12 -46t20 -37q20 25 35.5 76.5t26.5 117t19 138.5t12.5 141t6.5 125t2 89z" />
<glyph unicode="&#x112;" horiz-adv-x="968" d="M998 -17q0 -22 -17.5 -42.5t-42 -40t-50.5 -36t-43 -26.5q-44 -29 -87.5 -53.5t-90 -43t-95 -28.5t-101.5 -10l-21 -3q-43 0 -85.5 10t-78.5 30t-65 51t-44 75q-12 35 -18.5 83.5t-9.5 100.5t-5 102t-4 89q-20 398 -31 795q-3 46 -4 91.5t-1 90.5q0 78 9 133t36.5 90 t79 50.5t135.5 15.5t169.5 -1.5t171.5 -1.5q26 0 52 2t52 -4q16 -3 27.5 -8.5t11.5 -25.5q0 -47 -31.5 -69.5t-74.5 -30.5t-89 -7.5t-76 0.5h-169h-52t-52 -2q-8 -20 -10.5 -40.5t-2.5 -42.5q0 -142 7.5 -280t13.5 -279q81 6 160 15t160 21q12 0 21.5 1.5t19.5 1.5 q27 0 38.5 -14.5t11.5 -40.5q0 -18 -2 -33.5t-9 -31.5q-9 -26 -29.5 -37.5t-46.5 -16t-54 -4.5t-49 -2q-55 -3 -107.5 -4t-105.5 -4q1 -27 3.5 -81.5t6 -123t8 -141t9.5 -137t11.5 -112.5t13.5 -65q14 -27 32 -35.5t48 -8.5q48 0 101.5 19t104 48t97 64t80.5 69 q14 12 28.5 24t33.5 12q20 0 38 -11.5t32.5 -29t22.5 -38.5t8 -38zM744 1694q0 -49 -22.5 -78t-73.5 -29q-84 0 -166.5 1.5t-166.5 1.5h-26t-30 2.5t-24.5 9.5t-10.5 22q0 23 13.5 49t35.5 34q6 3 36.5 6.5t72 7t89.5 6t91.5 4.5t77.5 3t47 1q23 0 40 -7t17 -34z" />
<glyph unicode="&#x113;" horiz-adv-x="562" d="M567 -62q0 -39 -21.5 -80.5t-55.5 -76t-77.5 -56.5t-86.5 -22q-61 0 -105 24t-76.5 65t-52.5 93t-32 107t-16.5 110.5t-4.5 100.5q0 39 4.5 92.5t15.5 110.5t30.5 113t49 100t70.5 71.5t94 27.5q42 0 75 -17t55.5 -45t35 -64.5t12.5 -75.5q0 -51 -23.5 -110.5 t-60.5 -115.5t-83 -100.5t-92 -68.5q3 -23 10.5 -68t21.5 -89t33 -76.5t45 -32.5q13 0 22.5 7.5t17.5 20.5t14 29q4 16 10 30l8 18q3 4 3.5 5t2.5 4q9 17 17.5 31.5t23.5 24.5h-1q5 5 11 6t11 1q14 0 31 -9.5t31.5 -23t23.5 -29.5t9 -32zM309 511q0 13 -1 27.5t-6 24.5 q-18 -22 -32 -52.5t-23 -63.5t-15 -67t-8 -62q34 40 59.5 91t25.5 102zM541 910q0 -49 -22.5 -78t-73.5 -29q-84 0 -166.5 1.5t-166.5 1.5h-26t-30 2.5t-24.5 9.5t-10.5 22q0 23 13.5 49t35.5 34q6 3 36.5 6.5t72 7t89.5 6t91.5 4.5t77.5 3t47 1q23 0 40 -7t17 -34z" />
<glyph unicode="&#x114;" horiz-adv-x="968" d="M998 -17q0 -22 -17.5 -42.5t-42 -40t-50.5 -36t-43 -26.5q-44 -29 -87.5 -53.5t-90 -43t-95 -28.5t-101.5 -10l-21 -3q-43 0 -85.5 10t-78.5 30t-65 51t-44 75q-12 35 -18.5 83.5t-9.5 100.5t-5 102t-4 89q-20 398 -31 795q-3 46 -4 91.5t-1 90.5q0 78 9 133t36.5 90 t79 50.5t135.5 15.5t169.5 -1.5t171.5 -1.5q26 0 52 2t52 -4q16 -3 27.5 -8.5t11.5 -25.5q0 -47 -31.5 -69.5t-74.5 -30.5t-89 -7.5t-76 0.5h-169h-52t-52 -2q-8 -20 -10.5 -40.5t-2.5 -42.5q0 -142 7.5 -280t13.5 -279q81 6 160 15t160 21q12 0 21.5 1.5t19.5 1.5 q27 0 38.5 -14.5t11.5 -40.5q0 -18 -2 -33.5t-9 -31.5q-9 -26 -29.5 -37.5t-46.5 -16t-54 -4.5t-49 -2q-55 -3 -107.5 -4t-105.5 -4q1 -27 3.5 -81.5t6 -123t8 -141t9.5 -137t11.5 -112.5t13.5 -65q14 -27 32 -35.5t48 -8.5q48 0 101.5 19t104 48t97 64t80.5 69 q14 12 28.5 24t33.5 12q20 0 38 -11.5t32.5 -29t22.5 -38.5t8 -38zM663 1795q0 -44 -11 -81.5t-34 -65t-57.5 -43t-79.5 -15.5q-55 0 -89.5 22t-54 57t-26.5 79.5t-7 88.5q0 9 0.5 20.5t4.5 22.5t11 19t20 8t29 -8q29 -12 38.5 -34t13.5 -48t6 -53t15 -49q13 -26 36 -26 q17 0 28 9.5t17 23t8 29.5t2 29q0 31 -5.5 60t-12.5 57q-3 4 -3 7v6q0 21 19 26t33 5q42 0 62.5 -11t28.5 -54q8 -39 8 -81z" />
<glyph unicode="&#x115;" horiz-adv-x="562" d="M567 -62q0 -39 -21.5 -80.5t-55.5 -76t-77.5 -56.5t-86.5 -22q-61 0 -105 24t-76.5 65t-52.5 93t-32 107t-16.5 110.5t-4.5 100.5q0 39 4.5 92.5t15.5 110.5t30.5 113t49 100t70.5 71.5t94 27.5q42 0 75 -17t55.5 -45t35 -64.5t12.5 -75.5q0 -51 -23.5 -110.5 t-60.5 -115.5t-83 -100.5t-92 -68.5q3 -23 10.5 -68t21.5 -89t33 -76.5t45 -32.5q13 0 22.5 7.5t17.5 20.5t14 29q4 16 10 30l8 18q3 4 3.5 5t2.5 4q9 17 17.5 31.5t23.5 24.5h-1q5 5 11 6t11 1q14 0 31 -9.5t31.5 -23t23.5 -29.5t9 -32zM309 511q0 13 -1 27.5t-6 24.5 q-18 -22 -32 -52.5t-23 -63.5t-15 -67t-8 -62q34 40 59.5 91t25.5 102zM460 1002q0 -44 -11 -81.5t-34 -65t-57.5 -43t-79.5 -15.5q-55 0 -89.5 22t-54 57t-26.5 79.5t-7 88.5q0 9 0.5 20.5t4.5 22.5t11 19t20 8t29 -8q29 -12 38.5 -34t13.5 -48t6 -53t15 -49q13 -26 36 -26 q17 0 28 9.5t17 23t8 29.5t2 29q0 31 -5.5 60t-12.5 57q-3 4 -3 7v6q0 21 19 26t33 5q42 0 62.5 -11t28.5 -54q8 -39 8 -81z" />
<glyph unicode="&#x116;" horiz-adv-x="968" d="M998 -17q0 -22 -17.5 -42.5t-42 -40t-50.5 -36t-43 -26.5q-44 -29 -87.5 -53.5t-90 -43t-95 -28.5t-101.5 -10l-21 -3q-43 0 -85.5 10t-78.5 30t-65 51t-44 75q-12 35 -18.5 83.5t-9.5 100.5t-5 102t-4 89q-20 398 -31 795q-3 46 -4 91.5t-1 90.5q0 78 9 133t36.5 90 t79 50.5t135.5 15.5t169.5 -1.5t171.5 -1.5q26 0 52 2t52 -4q16 -3 27.5 -8.5t11.5 -25.5q0 -47 -31.5 -69.5t-74.5 -30.5t-89 -7.5t-76 0.5h-169h-52t-52 -2q-8 -20 -10.5 -40.5t-2.5 -42.5q0 -142 7.5 -280t13.5 -279q81 6 160 15t160 21q12 0 21.5 1.5t19.5 1.5 q27 0 38.5 -14.5t11.5 -40.5q0 -18 -2 -33.5t-9 -31.5q-9 -26 -29.5 -37.5t-46.5 -16t-54 -4.5t-49 -2q-55 -3 -107.5 -4t-105.5 -4q1 -27 3.5 -81.5t6 -123t8 -141t9.5 -137t11.5 -112.5t13.5 -65q14 -27 32 -35.5t48 -8.5q48 0 101.5 19t104 48t97 64t80.5 69 q14 12 28.5 24t33.5 12q20 0 38 -11.5t32.5 -29t22.5 -38.5t8 -38zM391 1758q0 13 9 20.5t22.5 10.5t27.5 3h24q13 0 30.5 -0.5t33.5 -5t27 -14.5t11 -27q0 -6 -1 -27.5t-1.5 -46t-1 -45t-2.5 -21.5q-10 -14 -26 -16t-31 -2q-40 0 -59.5 4t-28.5 15.5t-11 32.5t-7 54 q-4 16 -10 31.5t-6 33.5z" />
<glyph unicode="&#x117;" horiz-adv-x="562" d="M567 -62q0 -39 -21.5 -80.5t-55.5 -76t-77.5 -56.5t-86.5 -22q-61 0 -105 24t-76.5 65t-52.5 93t-32 107t-16.5 110.5t-4.5 100.5q0 39 4.5 92.5t15.5 110.5t30.5 113t49 100t70.5 71.5t94 27.5q42 0 75 -17t55.5 -45t35 -64.5t12.5 -75.5q0 -51 -23.5 -110.5 t-60.5 -115.5t-83 -100.5t-92 -68.5q3 -23 10.5 -68t21.5 -89t33 -76.5t45 -32.5q13 0 22.5 7.5t17.5 20.5t14 29q4 16 10 30l8 18q3 4 3.5 5t2.5 4q9 17 17.5 31.5t23.5 24.5h-1q5 5 11 6t11 1q14 0 31 -9.5t31.5 -23t23.5 -29.5t9 -32zM309 511q0 13 -1 27.5t-6 24.5 q-18 -22 -32 -52.5t-23 -63.5t-15 -67t-8 -62q34 40 59.5 91t25.5 102zM189 971q0 13 9 20.5t22.5 10.5t27.5 3h24q13 0 30.5 -0.5t33.5 -5t27 -14.5t11 -27q0 -6 -1 -27.5t-1.5 -46t-1 -45t-2.5 -21.5q-10 -14 -26 -16t-31 -2q-40 0 -59.5 4t-28.5 15.5t-11 32.5t-7 54 q-4 16 -10 31.5t-6 33.5z" />
<glyph unicode="&#x118;" horiz-adv-x="968" d="M1005 -408q0 -21 -19 -34.5t-44.5 -22t-51.5 -12.5t-41 -4q-35 0 -71 12.5t-64.5 34.5t-46.5 53.5t-18 68.5q0 21 6 50q-43 -17 -89 -26t-95 -9l-21 -3q-43 0 -85.5 10t-78.5 30t-65 51t-44 75q-12 35 -18.5 83.5t-9.5 100.5t-5 102t-4 89q-20 398 -31 795q-3 46 -4 91.5 t-1 90.5q0 78 9 133t36.5 90t79 50.5t135.5 15.5t169.5 -1.5t171.5 -1.5q26 0 52 2t52 -4q16 -3 27.5 -8.5t11.5 -25.5q0 -47 -31.5 -69.5t-74.5 -30.5t-89 -7.5t-76 0.5h-169h-52t-52 -2q-8 -20 -10.5 -40.5t-2.5 -42.5q0 -142 7.5 -280t13.5 -279q81 6 160 15t160 21 q12 0 21.5 1.5t19.5 1.5q27 0 38.5 -14.5t11.5 -40.5q0 -18 -2 -33.5t-9 -31.5q-9 -26 -29.5 -37.5t-46.5 -16t-54 -4.5t-49 -2l-213 -8q1 -27 3.5 -81.5t6 -123t8 -141t9.5 -137t11.5 -112.5t13.5 -65q14 -27 32 -35.5t48 -8.5q48 0 101.5 19t104 48t97 64t80.5 69 q14 12 28.5 24t33.5 12q20 0 38 -11.5t32.5 -29t22.5 -38.5t8 -38q0 -26 -25 -52t-57 -48q-13 -22 -35 -46.5t-42.5 -50.5t-36.5 -54t-16 -52q0 -26 23.5 -42.5t47.5 -16.5q17 0 32 4.5t28 10.5t24 11t20 5q23 0 33.5 -20t10.5 -40z" />
<glyph unicode="&#x119;" horiz-adv-x="562" d="M560 -526q0 -21 -18.5 -34.5t-44 -22t-51.5 -12.5t-42 -4q-35 0 -70.5 12.5t-64.5 34.5t-47 53t-18 69q0 34 13 71t35 73q-66 21 -107.5 77.5t-65 127.5t-32 147t-8.5 137q0 39 4.5 92.5t15.5 110.5t30.5 113t49 100t70.5 71.5t94 27.5q42 0 75 -17t55.5 -45t35 -64.5 t12.5 -75.5q0 -51 -23.5 -110.5t-60.5 -115.5t-83 -100.5t-92 -68.5q3 -23 10.5 -68t21.5 -89t33 -76.5t45 -32.5q13 0 22.5 7.5t17.5 20.5t14 29q4 16 10 30l8 18q3 4 3.5 5t2.5 4q9 17 17.5 31.5t23.5 24.5h-1q5 5 11 6t11 1q14 0 31 -9.5t31.5 -23t23.5 -29.5t9 -32 q0 -44 -27.5 -91t-68.5 -83q-14 -22 -36 -46t-42.5 -51t-35.5 -53.5t-15 -51.5q0 -26 23.5 -43t46.5 -17q17 0 32 5t28 10.5t24 11t20 5.5q23 0 33.5 -20t10.5 -40zM309 511q0 13 -1 27.5t-6 24.5q-18 -22 -32 -52.5t-23 -63.5t-15 -67t-8 -62q34 40 59.5 91t25.5 102z" />
<glyph unicode="&#x11a;" horiz-adv-x="968" d="M998 -17q0 -22 -17.5 -42.5t-42 -40t-50.5 -36t-43 -26.5q-44 -29 -87.5 -53.5t-90 -43t-95 -28.5t-101.5 -10l-21 -3q-43 0 -85.5 10t-78.5 30t-65 51t-44 75q-12 35 -18.5 83.5t-9.5 100.5t-5 102t-4 89q-20 398 -31 795q-3 46 -4 91.5t-1 90.5q0 78 9 133t36.5 90 t79 50.5t135.5 15.5t169.5 -1.5t171.5 -1.5q26 0 52 2t52 -4q16 -3 27.5 -8.5t11.5 -25.5q0 -47 -31.5 -69.5t-74.5 -30.5t-89 -7.5t-76 0.5h-169h-52t-52 -2q-8 -20 -10.5 -40.5t-2.5 -42.5q0 -142 7.5 -280t13.5 -279q81 6 160 15t160 21q12 0 21.5 1.5t19.5 1.5 q27 0 38.5 -14.5t11.5 -40.5q0 -18 -2 -33.5t-9 -31.5q-9 -26 -29.5 -37.5t-46.5 -16t-54 -4.5t-49 -2q-55 -3 -107.5 -4t-105.5 -4q1 -27 3.5 -81.5t6 -123t8 -141t9.5 -137t11.5 -112.5t13.5 -65q14 -27 32 -35.5t48 -8.5q48 0 101.5 19t104 48t97 64t80.5 69 q14 12 28.5 24t33.5 12q20 0 38 -11.5t32.5 -29t22.5 -38.5t8 -38zM242 1947q0 10 8 16.5t19.5 9.5t23 4t19.5 1q12 0 26.5 -1t25.5 -7q16 -8 22.5 -22t14.5 -30q16 -42 33 -82t37 -79l36 92t37 92q4 12 8.5 20.5t14.5 16.5q3 5 13 5q12 0 25 -6.5t23.5 -16.5t17.5 -21.5 t7 -23.5q0 -10 -13 -48.5t-30 -84t-33 -87t-23 -55.5q-10 -27 -26.5 -42t-46.5 -15q-20 0 -36.5 8.5t-30.5 19.5q-23 26 -40.5 56.5t-32.5 60.5q-6 12 -22 44.5t-33.5 69t-30.5 67t-13 38.5z" />
<glyph unicode="&#x11b;" horiz-adv-x="562" d="M567 -62q0 -39 -21.5 -80.5t-55.5 -76t-77.5 -56.5t-86.5 -22q-61 0 -105 24t-76.5 65t-52.5 93t-32 107t-16.5 110.5t-4.5 100.5q0 39 4.5 92.5t15.5 110.5t30.5 113t49 100t70.5 71.5t94 27.5q42 0 75 -17t55.5 -45t35 -64.5t12.5 -75.5q0 -51 -23.5 -110.5 t-60.5 -115.5t-83 -100.5t-92 -68.5q3 -23 10.5 -68t21.5 -89t33 -76.5t45 -32.5q13 0 22.5 7.5t17.5 20.5t14 29q4 16 10 30l8 18q3 4 3.5 5t2.5 4q9 17 17.5 31.5t23.5 24.5h-1q5 5 11 6t11 1q14 0 31 -9.5t31.5 -23t23.5 -29.5t9 -32zM309 511q0 13 -1 27.5t-6 24.5 q-18 -22 -32 -52.5t-23 -63.5t-15 -67t-8 -62q34 40 59.5 91t25.5 102zM21 1153q0 10 8 16.5t19.5 9.5t23 4t19.5 1q12 0 26.5 -1t25.5 -7q16 -8 22.5 -22t14.5 -30q16 -42 33 -82t37 -79l36 92t37 92q4 12 8.5 20.5t14.5 16.5q3 5 13 5q12 0 25 -6.5t23.5 -16.5t17.5 -21.5 t7 -23.5q0 -10 -13 -48.5t-30 -84t-33 -87t-23 -55.5q-10 -27 -26.5 -42t-46.5 -15q-20 0 -36.5 8.5t-30.5 19.5q-23 26 -40.5 56.5t-32.5 60.5q-6 12 -22 44.5t-33.5 69t-30.5 67t-13 38.5z" />
<glyph unicode="&#x11c;" horiz-adv-x="1128" d="M1093 633q0 -42 -15 -64.5t-39.5 -34t-55 -14t-61.5 -4.5q70 -73 111.5 -167.5t41.5 -196.5q0 -100 -33.5 -195.5t-96 -169.5t-150 -119.5t-193.5 -45.5q-84 0 -152 32.5t-121 89t-93.5 131.5t-69 160t-47.5 176t-30 178t-15.5 165.5t-4.5 141.5q0 73 7 156t24 167.5 t45.5 165t73 149t105 119.5t140.5 77q30 10 60 15.5t60 5.5q130 0 216 -70q88 -70 130 -190q8 -18 13 -37t5 -38q0 -23 -17 -30t-35 -7q-47 0 -75.5 17t-48 42t-34.5 54.5t-33.5 54.5t-45.5 42t-73 17q-65 0 -114.5 -36.5t-85.5 -96t-61 -134t-39 -149t-20.5 -143.5 t-6.5 -117q0 -51 6.5 -140.5t21.5 -195t40 -214t63.5 -197t91 -144.5t122.5 -56q61 0 110.5 36t84 90t53 115.5t18.5 114.5q0 51 -14.5 101t-40.5 95t-62.5 83.5t-80.5 64.5q-16 10 -34.5 18.5t-38.5 14.5q-10 1 -40 3.5t-61 6t-56 12t-25 25.5q0 23 8 48t23 44.5t35 32.5 t46 13q38 0 81.5 -11t77.5 -25q65 4 128.5 8.5t125.5 11.5q22 3 44 7t45 4q31 0 46.5 -14.5t15.5 -48.5zM764 1634q0 -10 -7.5 -16.5t-18 -10t-22 -4t-19.5 -0.5q-12 0 -25.5 0.5t-24.5 7.5q-18 8 -25 21.5t-14 27.5q-16 42 -31 81t-34 78q-18 -46 -36 -90t-36 -89 q-4 -12 -8.5 -20.5t-15.5 -16.5q-3 -3 -13 -2q-10 0 -22.5 5.5t-23 14.5t-17.5 21t-7 24q0 9 12.5 46t28.5 81.5t31 85t22 54.5q12 26 28 40.5t47 14.5q36 0 65 -29q23 -23 39 -53.5t31 -60.5q5 -10 21.5 -42t32.5 -67t29 -65.5t13 -36.5z" />
<glyph unicode="&#x11d;" horiz-adv-x="695" d="M725 22q0 -13 -7 -30.5t-18 -36t-24 -38t-25 -35.5l-19 -27l-20 -34l-17 -31q1 -26 4 -56t5 -57q14 -134 25.5 -273.5t11.5 -272.5q0 -72 -11.5 -145.5t-43.5 -132.5t-88 -97t-143 -38q-60 0 -101.5 22.5t-67 59.5t-37 86.5t-11.5 102.5q0 105 24.5 213t64 213.5 t90.5 206t103 192.5v6.5t-1 10.5q-17 -31 -38.5 -64t-48 -59t-58.5 -43t-71 -17q-55 0 -91.5 26t-58 66.5t-30.5 88.5t-9 91q0 49 6 97t14 94q13 73 33 158t50 169t69.5 158t93.5 126l10 9q17 17 39 33t45 16q14 0 25.5 -7.5t19 -20t12.5 -27t5 -27.5q0 -16 -12 -33h2 q79 0 107 -73q14 -13 21.5 -31.5t7.5 -38.5q0 -10 -1.5 -23t-4.5 -23q-3 -12 -4 -22t-1 -20q0 -30 1.5 -74t4 -92t6 -94t5.5 -80q9 12 21.5 21t29.5 9q14 0 33 -10.5t35 -26t27 -33.5t11 -32zM368 558q0 8 0.5 17t3.5 19l-9 -11q-10 -12 -19.5 -22.5t-17.5 -22.5 q-34 -49 -59 -127.5t-42 -165t-25.5 -170t-8.5 -142.5q0 -30 1.5 -60t12.5 -59q18 20 30 42.5t22 47.5q29 64 50 148.5t34 174t19.5 176t7.5 155.5zM467 -830q0 88 -4 165.5t-12 165.5q-23 -56 -47 -120.5t-42.5 -130t-30 -130.5t-11.5 -123v-9q0 -30 4 -64.5t24 -56.5h15 q26 0 43.5 17.5t29 44.5t18 61t9 68t3.5 64t1 48zM547 860q0 -10 -7.5 -16.5t-18 -10t-22 -4t-19.5 -0.5q-12 0 -25.5 0.5t-24.5 7.5q-18 8 -25 21.5t-14 27.5q-16 42 -31 81t-34 78q-18 -46 -36 -90t-36 -89q-4 -12 -8.5 -20.5t-15.5 -16.5q-3 -3 -13 -2q-10 0 -22.5 5.5 t-23 14.5t-17.5 21t-7 24q0 9 12.5 46t28.5 81.5t31 85t22 54.5q12 26 28 40.5t47 14.5q36 0 65 -29q23 -23 39 -53.5t31 -60.5q5 -10 21.5 -42t32.5 -67t29 -65.5t13 -36.5z" />
<glyph unicode="&#x11e;" horiz-adv-x="1128" d="M1093 633q0 -42 -15 -64.5t-39.5 -34t-55 -14t-61.5 -4.5q70 -73 111.5 -167.5t41.5 -196.5q0 -100 -33.5 -195.5t-96 -169.5t-150 -119.5t-193.5 -45.5q-84 0 -152 32.5t-121 89t-93.5 131.5t-69 160t-47.5 176t-30 178t-15.5 165.5t-4.5 141.5q0 73 7 156t24 167.5 t45.5 165t73 149t105 119.5t140.5 77q30 10 60 15.5t60 5.5q130 0 216 -70q88 -70 130 -190q8 -18 13 -37t5 -38q0 -23 -17 -30t-35 -7q-47 0 -75.5 17t-48 42t-34.5 54.5t-33.5 54.5t-45.5 42t-73 17q-65 0 -114.5 -36.5t-85.5 -96t-61 -134t-39 -149t-20.5 -143.5 t-6.5 -117q0 -51 6.5 -140.5t21.5 -195t40 -214t63.5 -197t91 -144.5t122.5 -56q61 0 110.5 36t84 90t53 115.5t18.5 114.5q0 51 -14.5 101t-40.5 95t-62.5 83.5t-80.5 64.5q-16 10 -34.5 18.5t-38.5 14.5q-10 1 -40 3.5t-61 6t-56 12t-25 25.5q0 23 8 48t23 44.5t35 32.5 t46 13q38 0 81.5 -11t77.5 -25q65 4 128.5 8.5t125.5 11.5q22 3 44 7t45 4q31 0 46.5 -14.5t15.5 -48.5zM726 1816q0 -44 -11 -81.5t-34 -65t-57.5 -43t-79.5 -15.5q-55 0 -89.5 22t-54 57t-26.5 79.5t-7 88.5q0 9 0.5 20.5t4.5 22.5t11 19t20 8t29 -8q29 -12 38.5 -34 t13.5 -48t6 -53t15 -49q13 -26 36 -26q17 0 28 9.5t17 23t8 29.5t2 29q0 31 -5.5 60t-12.5 57q-3 4 -3 7v6q0 21 19 26t33 5q42 0 62.5 -11t28.5 -54q8 -39 8 -81z" />
<glyph unicode="&#x11f;" horiz-adv-x="695" d="M725 22q0 -13 -7 -30.5t-18 -36t-24 -38t-25 -35.5l-19 -27l-20 -34l-17 -31q1 -26 4 -56t5 -57q14 -134 25.5 -273.5t11.5 -272.5q0 -72 -11.5 -145.5t-43.5 -132.5t-88 -97t-143 -38q-60 0 -101.5 22.5t-67 59.5t-37 86.5t-11.5 102.5q0 105 24.5 213t64 213.5 t90.5 206t103 192.5v6.5t-1 10.5q-17 -31 -38.5 -64t-48 -59t-58.5 -43t-71 -17q-55 0 -91.5 26t-58 66.5t-30.5 88.5t-9 91q0 49 6 97t14 94q13 73 33 158t50 169t69.5 158t93.5 126l10 9q17 17 39 33t45 16q14 0 25.5 -7.5t19 -20t12.5 -27t5 -27.5q0 -16 -12 -33h2 q79 0 107 -73q14 -13 21.5 -31.5t7.5 -38.5q0 -10 -1.5 -23t-4.5 -23q-3 -12 -4 -22t-1 -20q0 -30 1.5 -74t4 -92t6 -94t5.5 -80q9 12 21.5 21t29.5 9q14 0 33 -10.5t35 -26t27 -33.5t11 -32zM368 558q0 8 0.5 17t3.5 19l-9 -11q-10 -12 -19.5 -22.5t-17.5 -22.5 q-34 -49 -59 -127.5t-42 -165t-25.5 -170t-8.5 -142.5q0 -30 1.5 -60t12.5 -59q18 20 30 42.5t22 47.5q29 64 50 148.5t34 174t19.5 176t7.5 155.5zM467 -830q0 88 -4 165.5t-12 165.5q-23 -56 -47 -120.5t-42.5 -130t-30 -130.5t-11.5 -123v-9q0 -30 4 -64.5t24 -56.5h15 q26 0 43.5 17.5t29 44.5t18 61t9 68t3.5 64t1 48zM502 1048q0 -44 -11 -81.5t-34 -65t-57.5 -43t-79.5 -15.5q-55 0 -89.5 22t-54 57t-26.5 79.5t-7 88.5q0 9 0.5 20.5t4.5 22.5t11 19t20 8t29 -8q29 -12 38.5 -34t13.5 -48t6 -53t15 -49q13 -26 36 -26q17 0 28 9.5t17 23 t8 29.5t2 29q0 31 -5.5 60t-12.5 57q-3 4 -3 7v6q0 21 19 26t33 5q42 0 62.5 -11t28.5 -54q8 -39 8 -81z" />
<glyph unicode="&#x120;" horiz-adv-x="1128" d="M1093 633q0 -42 -15 -64.5t-39.5 -34t-55 -14t-61.5 -4.5q70 -73 111.5 -167.5t41.5 -196.5q0 -100 -33.5 -195.5t-96 -169.5t-150 -119.5t-193.5 -45.5q-84 0 -152 32.5t-121 89t-93.5 131.5t-69 160t-47.5 176t-30 178t-15.5 165.5t-4.5 141.5q0 73 7 156t24 167.5 t45.5 165t73 149t105 119.5t140.5 77q30 10 60 15.5t60 5.5q130 0 216 -70q88 -70 130 -190q8 -18 13 -37t5 -38q0 -23 -17 -30t-35 -7q-47 0 -75.5 17t-48 42t-34.5 54.5t-33.5 54.5t-45.5 42t-73 17q-65 0 -114.5 -36.5t-85.5 -96t-61 -134t-39 -149t-20.5 -143.5 t-6.5 -117q0 -51 6.5 -140.5t21.5 -195t40 -214t63.5 -197t91 -144.5t122.5 -56q61 0 110.5 36t84 90t53 115.5t18.5 114.5q0 51 -14.5 101t-40.5 95t-62.5 83.5t-80.5 64.5q-16 10 -34.5 18.5t-38.5 14.5q-10 1 -40 3.5t-61 6t-56 12t-25 25.5q0 23 8 48t23 44.5t35 32.5 t46 13q38 0 81.5 -11t77.5 -25q65 4 128.5 8.5t125.5 11.5q22 3 44 7t45 4q31 0 46.5 -14.5t15.5 -48.5zM441 1796q0 13 9 20.5t22.5 10.5t27.5 3h24q13 0 30.5 -0.5t33.5 -5t27 -14.5t11 -27q0 -6 -1 -27.5t-1.5 -46t-1 -45t-2.5 -21.5q-10 -14 -26 -16t-31 -2 q-40 0 -59.5 4t-28.5 15.5t-11 32.5t-7 54q-4 16 -10 31.5t-6 33.5z" />
<glyph unicode="&#x121;" horiz-adv-x="695" d="M725 22q0 -13 -7 -30.5t-18 -36t-24 -38t-25 -35.5l-19 -27l-20 -34l-17 -31q1 -26 4 -56t5 -57q14 -134 25.5 -273.5t11.5 -272.5q0 -72 -11.5 -145.5t-43.5 -132.5t-88 -97t-143 -38q-60 0 -101.5 22.5t-67 59.5t-37 86.5t-11.5 102.5q0 105 24.5 213t64 213.5 t90.5 206t103 192.5v6.5t-1 10.5q-17 -31 -38.5 -64t-48 -59t-58.5 -43t-71 -17q-55 0 -91.5 26t-58 66.5t-30.5 88.5t-9 91q0 49 6 97t14 94q13 73 33 158t50 169t69.5 158t93.5 126l10 9q17 17 39 33t45 16q14 0 25.5 -7.5t19 -20t12.5 -27t5 -27.5q0 -16 -12 -33h2 q79 0 107 -73q14 -13 21.5 -31.5t7.5 -38.5q0 -10 -1.5 -23t-4.5 -23q-3 -12 -4 -22t-1 -20q0 -30 1.5 -74t4 -92t6 -94t5.5 -80q9 12 21.5 21t29.5 9q14 0 33 -10.5t35 -26t27 -33.5t11 -32zM368 558q0 8 0.5 17t3.5 19l-9 -11q-10 -12 -19.5 -22.5t-17.5 -22.5 q-34 -49 -59 -127.5t-42 -165t-25.5 -170t-8.5 -142.5q0 -30 1.5 -60t12.5 -59q18 20 30 42.5t22 47.5q29 64 50 148.5t34 174t19.5 176t7.5 155.5zM467 -830q0 88 -4 165.5t-12 165.5q-23 -56 -47 -120.5t-42.5 -130t-30 -130.5t-11.5 -123v-9q0 -30 4 -64.5t24 -56.5h15 q26 0 43.5 17.5t29 44.5t18 61t9 68t3.5 64t1 48zM242 1033q0 13 9 20.5t22.5 10.5t27.5 3h24q13 0 30.5 -0.5t33.5 -5t27 -14.5t11 -27q0 -6 -1 -27.5t-1.5 -46t-1 -45t-2.5 -21.5q-10 -14 -26 -16t-31 -2q-40 0 -59.5 4t-28.5 15.5t-11 32.5t-7 54q-4 16 -10 31.5t-6 33.5 z" />
<glyph unicode="&#x122;" horiz-adv-x="1128" d="M1093 633q0 -42 -15 -64.5t-39.5 -34t-55 -14t-61.5 -4.5q70 -73 111.5 -167.5t41.5 -196.5q0 -100 -33.5 -195.5t-96 -169.5t-150 -119.5t-193.5 -45.5q-84 0 -152 32.5t-121 89t-93.5 131.5t-69 160t-47.5 176t-30 178t-15.5 165.5t-4.5 141.5q0 73 7 156t24 167.5 t45.5 165t73 149t105 119.5t140.5 77q30 10 60 15.5t60 5.5q130 0 216 -70q88 -70 130 -190q8 -18 13 -37t5 -38q0 -23 -17 -30t-35 -7q-47 0 -75.5 17t-48 42t-34.5 54.5t-33.5 54.5t-45.5 42t-73 17q-65 0 -114.5 -36.5t-85.5 -96t-61 -134t-39 -149t-20.5 -143.5 t-6.5 -117q0 -51 6.5 -140.5t21.5 -195t40 -214t63.5 -197t91 -144.5t122.5 -56q61 0 110.5 36t84 90t53 115.5t18.5 114.5q0 51 -14.5 101t-40.5 95t-62.5 83.5t-80.5 64.5q-16 10 -34.5 18.5t-38.5 14.5q-10 1 -40 3.5t-61 6t-56 12t-25 25.5q0 23 8 48t23 44.5t35 32.5 t46 13q38 0 81.5 -11t77.5 -25q65 4 128.5 8.5t125.5 11.5q22 3 44 7t45 4q31 0 46.5 -14.5t15.5 -48.5zM694 -551q0 -65 -21 -124.5t-58 -113.5q-10 -12 -24.5 -31t-31.5 -19q-12 0 -27 8.5t-28 21.5t-22 27.5t-9 26.5q0 9 6 19.5t14.5 21.5t17 21t13.5 18q13 25 20 45.5 t10.5 41t5.5 42t5 47.5q1 18 11 23t28 5q42 0 66 -16t24 -64z" />
<glyph unicode="&#x123;" horiz-adv-x="695" d="M302 970q0 65 20.5 124t58.5 114q10 12 24.5 30.5t31.5 18.5q12 0 26.5 -8.5t27.5 -21.5t22.5 -27t9.5 -26q0 -9 -6 -19.5t-14.5 -21.5t-17 -21.5t-13.5 -17.5q-14 -25 -20.5 -46t-10 -41t-5.5 -41.5t-6 -47.5q-1 -18 -10.5 -23t-28.5 -5q-42 0 -65.5 16t-23.5 64z M725 22q0 -13 -7 -30.5t-18 -36t-24 -38t-25 -35.5l-19 -27l-20 -34l-17 -31q1 -26 4 -56t5 -57q14 -134 25.5 -273.5t11.5 -272.5q0 -72 -11.5 -145.5t-43.5 -132.5t-88 -97t-143 -38q-60 0 -101.5 22.5t-67 59.5t-37 86.5t-11.5 102.5q0 105 24.5 213t64 213.5t90.5 206 t103 192.5v6.5t-1 10.5q-17 -31 -38.5 -64t-48 -59t-58.5 -43t-71 -17q-55 0 -91.5 26t-58 66.5t-30.5 88.5t-9 91q0 49 6 97t14 94q13 73 33 158t50 169t69.5 158t93.5 126l10 9q17 17 39 33t45 16q14 0 25.5 -7.5t19 -20t12.5 -27t5 -27.5q0 -16 -12 -33h2q79 0 107 -73 q14 -13 21.5 -31.5t7.5 -38.5q0 -10 -1.5 -23t-4.5 -23q-3 -12 -4 -22t-1 -20q0 -30 1.5 -74t4 -92t6 -94t5.5 -80q9 12 21.5 21t29.5 9q14 0 33 -10.5t35 -26t27 -33.5t11 -32zM368 558q0 8 0.5 17t3.5 19l-9 -11q-10 -12 -19.5 -22.5t-17.5 -22.5q-34 -49 -59 -127.5 t-42 -165t-25.5 -170t-8.5 -142.5q0 -30 1.5 -60t12.5 -59q18 20 30 42.5t22 47.5q29 64 50 148.5t34 174t19.5 176t7.5 155.5zM467 -830q0 88 -4 165.5t-12 165.5q-23 -56 -47 -120.5t-42.5 -130t-30 -130.5t-11.5 -123v-9q0 -30 4 -64.5t24 -56.5h15q26 0 43.5 17.5 t29 44.5t18 61t9 68t3.5 64t1 48z" />
<glyph unicode="&#x124;" horiz-adv-x="1129" d="M1089 711q0 -58 -29.5 -82t-84.5 -35q12 -200 15 -397.5t3 -397.5q0 -31 -13 -48t-47 -17q-29 0 -56.5 6.5t-49.5 20t-36 36.5t-14 56v406v153.5t-2 153.5q-112 -16 -224 -27t-223 -15q4 -277 15 -554q4 -57 8.5 -111.5t4.5 -109.5q0 -26 -14 -39t-40 -13q-20 0 -42 3.5 t-43.5 11.5t-39.5 19.5t-29 28.5q-4 6 -6.5 38.5t-4.5 82t-3 112t-1 129v130.5v118.5v95v56.5q-18 0 -32.5 8t-14.5 28q0 23 13.5 44.5t33.5 36.5v785q0 26 9.5 41.5t36.5 15.5q44 0 71 -13t40.5 -35.5t18 -54.5t6.5 -69q4 -159 5 -317t5 -317q112 10 222.5 21.5t222.5 33.5 q-6 138 -16 273t-29 273q-10 65 -24.5 129t-14.5 131q0 23 18 29.5t37 6.5q31 0 63 -10.5t51 -36.5q12 -17 25 -71t24 -128t21.5 -159.5t18.5 -164.5t13.5 -142t7.5 -91q16 4 32.5 7t32.5 3q31 0 45 -19t14 -49zM674 1639q0 -10 -7.5 -16.5t-18 -10t-22 -4t-19.5 -0.5 q-12 0 -25.5 0.5t-24.5 7.5q-18 8 -25 21.5t-14 27.5q-16 42 -31 81t-34 78q-18 -46 -36 -90t-36 -89q-4 -12 -8.5 -20.5t-15.5 -16.5q-3 -3 -13 -2q-10 0 -22.5 5.5t-23 14.5t-17.5 21t-7 24q0 9 12.5 46t28.5 81.5t31 85t22 54.5q12 26 28 40.5t47 14.5q36 0 65 -29 q23 -23 39 -53.5t31 -60.5q5 -10 21.5 -42t32.5 -67t29 -65.5t13 -36.5z" />
<glyph unicode="&#x125;" horiz-adv-x="730" d="M682 -230q0 -26 -16.5 -37.5t-41.5 -11.5q-16 0 -32.5 3t-32.5 7q-27 8 -42 19.5t-23 26.5t-10 33.5t-3 40.5q0 6 -0.5 11.5t-0.5 10.5q-4 74 -7.5 152t-3.5 152q0 38 1 75.5t2 75.5t1.5 75t0.5 74q0 8 -0.5 15.5t-1.5 14.5q-34 -49 -59.5 -109.5t-45 -125t-33 -128.5 t-22.5 -123l-4 -27q-6 -46 -12.5 -93.5t-6.5 -93.5q0 -20 6 -43q3 -10 5 -20t2 -24q0 -31 -16 -42.5t-42 -11.5q-16 0 -34.5 2.5t-36 8.5t-33 15t-24.5 24q-8 17 -15 89.5t-13 180.5t-11 242.5t-10 276t-8 281t-5 256.5t-3.5 203.5t-1.5 121.5q0 26 7.5 47.5t41.5 21.5 q35 0 66 -16.5t45 -50.5q3 -5 5.5 -42t5 -95t5.5 -132.5t5.5 -154.5t5 -160.5t4.5 -151.5l7 -192q16 40 39 84.5t53.5 80.5t69 59.5t85.5 23.5q57 0 89.5 -29.5t49 -74t20 -95t3.5 -92.5q0 -26 -0.5 -50.5t-1.5 -49.5q-1 -26 -2 -51.5t-1 -51.5q0 -90 4 -184t20 -185l2 -18 q3 -8 4 -18.5t1 -19.5zM661 792q0 -10 -7.5 -16.5t-18 -10t-22 -4t-19.5 -0.5q-12 0 -25.5 0.5t-24.5 7.5q-18 8 -25 21.5t-14 27.5q-16 42 -31 81t-34 78q-18 -46 -36 -90t-36 -89q-4 -12 -8.5 -20.5t-15.5 -16.5q-3 -3 -13 -2q-10 0 -22.5 5.5t-23 14.5t-17.5 21t-7 24 q0 9 12.5 46t28.5 81.5t31 85t22 54.5q12 26 28 40.5t47 14.5q36 0 65 -29q23 -23 39 -53.5t31 -60.5q5 -10 21.5 -42t32.5 -67t29 -65.5t13 -36.5z" />
<glyph unicode="&#x126;" horiz-adv-x="1129" d="M1089 711q0 -58 -29.5 -82t-84.5 -35q12 -200 15 -397.5t3 -397.5q0 -31 -13 -48t-47 -17q-29 0 -56.5 6.5t-49.5 20t-36 36.5t-14 56v406v153.5t-2 153.5q-112 -16 -224 -27t-223 -15q4 -277 15 -554q4 -57 8.5 -111.5t4.5 -109.5q0 -26 -14 -39t-40 -13q-20 0 -42 3.5 t-43.5 11.5t-39.5 19.5t-29 28.5q-4 6 -6.5 38.5t-4.5 82t-3 112t-1 129v130.5v118.5v95v56.5q-18 0 -32.5 8t-14.5 28q0 23 13.5 44.5t33.5 36.5v165q-22 3 -37 9t-17 21q-3 21 12.5 44.5t41.5 40.5v505q0 26 9.5 41.5t36.5 15.5q44 0 71 -13t40.5 -35.5t18 -54.5t6.5 -69 q3 -88 3 -175t2 -176q47 6 101.5 13t111.5 13.5t113 12.5t107 11q-10 134 -28 268q-10 65 -24.5 129t-14.5 131q0 23 18 29.5t37 6.5q31 0 63 -10.5t51 -36.5q12 -16 23.5 -67t23.5 -121.5t21.5 -152t17.5 -159.5q42 4 73 -2t34 -36q3 -42 -19.5 -73t-71.5 -48l8 -97 q16 4 32.5 7t32.5 3q31 0 45 -19t14 -49zM321 814l4 -139q112 10 222.5 21.5t222.5 33.5l-6 113q-112 -8 -221 -14.5t-222 -14.5z" />
<glyph unicode="&#x127;" horiz-adv-x="730" d="M504 905q0 -49 -22.5 -78t-73.5 -29h-87t-86 2q1 -44 2 -86.5t3 -80.5l7 -192q16 40 39 84.5t53.5 80.5t69 59.5t85.5 23.5q57 0 89.5 -29.5t49 -74t20 -95t3.5 -92.5q0 -26 -0.5 -50.5t-1.5 -49.5q-1 -26 -2 -51.5t-1 -51.5q0 -90 4 -184t20 -185l2 -18q3 -8 4 -18.5 t1 -19.5q0 -26 -16.5 -37.5t-41.5 -11.5q-16 0 -32.5 3t-32.5 7q-27 8 -42 19.5t-23 26.5t-10 33.5t-3 40.5q0 6 -0.5 11.5t-0.5 10.5q-4 74 -7.5 152t-3.5 152q0 38 1 75.5t2 75.5t1.5 75t0.5 74q0 8 -0.5 15.5t-1.5 14.5q-34 -49 -59.5 -109.5t-45 -125t-33 -128.5 t-22.5 -123l-4 -27q-6 -46 -12.5 -93.5t-6.5 -93.5q0 -20 6 -43q3 -10 5 -20t2 -24q0 -31 -16 -42.5t-42 -11.5q-16 0 -34.5 2.5t-36 8.5t-33 15t-24.5 24q-6 14 -12 68.5t-12 136.5t-10.5 187.5t-9 221t-8.5 236.5t-6 235h-24.5t-23.5 3.5t-18.5 10.5t-7.5 20q0 23 14 49 t36 34q6 4 22 5q-3 79 -3.5 150t-2 129t-1.5 100v65q0 26 7.5 47.5t41.5 21.5q35 0 66 -16.5t45 -50.5q1 -5 4 -42.5t6 -97.5t6 -135.5t5 -155.5q35 1 69.5 3t64.5 3t51.5 2t31.5 1q23 0 40 -7.5t17 -34.5z" />
<glyph unicode="&#x128;" horiz-adv-x="863" d="M857 -113q0 -38 -19.5 -71t-53.5 -48q-10 -5 -50.5 -10t-87.5 -8.5t-89 -7.5t-59 -6q-4 -22 -21 -30.5t-36 -8.5q-22 0 -51 6.5t-51 14.5q-58 -8 -118 -17t-121 -9q-47 0 -47 44t25 67.5t60 35.5t75.5 16t71.5 9q-6 369 -13.5 733t-7.5 733q-53 -4 -104 -7 q-52 -3 -102 -3q-10 0 -21.5 0.5t-21.5 4t-17 10.5t-7 21q0 25 10.5 44t28 31t38 20t42.5 12q56 10 114 17.5t116 14.5t116 14.5t115 20.5q55 12 109 31t112 19q31 0 41.5 -23t10.5 -50q0 -22 -4.5 -42t-19.5 -39q-8 -10 -34.5 -20t-63.5 -17.5t-79 -14.5t-82 -13t-72.5 -10 t-47.5 -5q14 -181 20 -361.5t9.5 -361.5t7.5 -361.5t15 -361.5q74 12 149.5 23t151.5 11q22 0 42.5 -10t20.5 -37zM621 1744q0 -65 -39 -104t-112 -39q-56 0 -87 16t-47 41.5t-21.5 54t-10 54t-11.5 41.5t-25 16q-39 0 -39 -33q0 -26 10 -53.5t22 -52t22.5 -43.5t10.5 -26 q0 -16 -19 -21t-31 -5q-34 0 -53.5 13t-34.5 39q-18 34 -32.5 70t-14.5 73q0 65 46 97.5t115 32.5q51 0 92 -24t56 -69q3 -9 5.5 -30t8 -42.5t14 -38.5t22.5 -17q6 0 10 6t6 13t2 13.5v9.5q0 27 -5 55t-16 54q-4 12 -9.5 21.5t-5.5 20.5q0 17 18.5 22.5t33.5 5.5 q36 0 59.5 -15.5t37 -40t18 -55t4.5 -60.5z" />
<glyph unicode="&#x129;" horiz-adv-x="334" d="M277 -243q0 -30 -13.5 -42t-43.5 -12q-16 0 -35 3.5t-37 11t-33.5 18t-23.5 22.5q-5 8 -9 48.5t-6 100t-4 134t-2.5 150t-0.5 146.5v125v100q0 13 0.5 26t5 22.5t14.5 16t28 6.5q57 0 84 -31.5t33 -85.5q6 -79 9.5 -157.5t6.5 -159.5q3 -73 4 -143q2 -72 9 -142 q1 -14 2 -27t4 -26q3 -26 5.5 -51.5t2.5 -52.5zM394 866q0 -65 -39 -104t-112 -39q-56 0 -87 16t-47 41.5t-21.5 54t-10 54t-11.5 41.5t-25 16q-39 0 -39 -33q0 -26 10 -53.5t22 -52t22.5 -43.5t10.5 -26q0 -16 -19 -21t-31 -5q-34 0 -53.5 13t-34.5 39q-18 34 -32.5 70 t-14.5 73q0 65 46 97.5t115 32.5q51 0 92 -24t56 -69q3 -9 5.5 -30t8 -42.5t14 -38.5t22.5 -17q6 0 10 6t6 13t2 13.5v9.5q0 27 -5 55t-16 54q-4 12 -9.5 21.5t-5.5 20.5q0 17 18.5 22.5t33.5 5.5q36 0 59.5 -15.5t37 -40t18 -55t4.5 -60.5z" />
<glyph unicode="&#x12a;" horiz-adv-x="863" d="M857 -113q0 -38 -19.5 -71t-53.5 -48q-10 -5 -50.5 -10t-87.5 -8.5t-89 -7.5t-59 -6q-4 -22 -21 -30.5t-36 -8.5q-22 0 -51 6.5t-51 14.5q-58 -8 -118 -17t-121 -9q-47 0 -47 44t25 67.5t60 35.5t75.5 16t71.5 9q-6 369 -13.5 733t-7.5 733q-53 -4 -104 -7 q-52 -3 -102 -3q-10 0 -21.5 0.5t-21.5 4t-17 10.5t-7 21q0 25 10.5 44t28 31t38 20t42.5 12q56 10 114 17.5t116 14.5t116 14.5t115 20.5q55 12 109 31t112 19q31 0 41.5 -23t10.5 -50q0 -22 -4.5 -42t-19.5 -39q-8 -10 -34.5 -20t-63.5 -17.5t-79 -14.5t-82 -13t-72.5 -10 t-47.5 -5q14 -181 20 -361.5t9.5 -361.5t7.5 -361.5t15 -361.5q74 12 149.5 23t151.5 11q22 0 42.5 -10t20.5 -37zM612 1701q0 -49 -22.5 -78t-73.5 -29q-84 0 -166.5 1.5t-166.5 1.5h-26t-30 2.5t-24.5 9.5t-10.5 22q0 23 13.5 49t35.5 34q6 3 36.5 6.5t72 7t89.5 6 t91.5 4.5t77.5 3t47 1q23 0 40 -7t17 -34z" />
<glyph unicode="&#x12b;" horiz-adv-x="334" d="M277 -243q0 -30 -13.5 -42t-43.5 -12q-16 0 -35 3.5t-37 11t-33.5 18t-23.5 22.5q-5 8 -9 48.5t-6 100t-4 134t-2.5 150t-0.5 146.5v125v100q0 13 0.5 26t5 22.5t14.5 16t28 6.5q57 0 84 -31.5t33 -85.5q6 -79 9.5 -157.5t6.5 -159.5q3 -73 4 -143q2 -72 9 -142 q1 -14 2 -27t4 -26q3 -26 5.5 -51.5t2.5 -52.5zM429 813q0 -49 -22.5 -78t-73.5 -29q-84 0 -166.5 1.5t-166.5 1.5h-26t-30 2.5t-24.5 9.5t-10.5 22q0 23 13.5 49t35.5 34q6 3 36.5 6.5t72 7t89.5 6t91.5 4.5t77.5 3t47 1q23 0 40 -7t17 -34z" />
<glyph unicode="&#x12c;" horiz-adv-x="863" d="M857 -113q0 -38 -19.5 -71t-53.5 -48q-10 -5 -50.5 -10t-87.5 -8.5t-89 -7.5t-59 -6q-4 -22 -21 -30.5t-36 -8.5q-22 0 -51 6.5t-51 14.5q-58 -8 -118 -17t-121 -9q-47 0 -47 44t25 67.5t60 35.5t75.5 16t71.5 9q-6 369 -13.5 733t-7.5 733q-53 -4 -104 -7 q-52 -3 -102 -3q-10 0 -21.5 0.5t-21.5 4t-17 10.5t-7 21q0 25 10.5 44t28 31t38 20t42.5 12q56 10 114 17.5t116 14.5t116 14.5t115 20.5q55 12 109 31t112 19q31 0 41.5 -23t10.5 -50q0 -22 -4.5 -42t-19.5 -39q-8 -10 -34.5 -20t-63.5 -17.5t-79 -14.5t-82 -13t-72.5 -10 t-47.5 -5q14 -181 20 -361.5t9.5 -361.5t7.5 -361.5t15 -361.5q74 12 149.5 23t151.5 11q22 0 42.5 -10t20.5 -37zM527 1786q0 -44 -11 -81.5t-34 -65t-57.5 -43t-79.5 -15.5q-55 0 -89.5 22t-54 57t-26.5 79.5t-7 88.5q0 9 0.5 20.5t4.5 22.5t11 19t20 8t29 -8 q29 -12 38.5 -34t13.5 -48t6 -53t15 -49q13 -26 36 -26q17 0 28 9.5t17 23t8 29.5t2 29q0 31 -5.5 60t-12.5 57q-3 4 -3 7v6q0 21 19 26t33 5q42 0 62.5 -11t28.5 -54q8 -39 8 -81z" />
<glyph unicode="&#x12d;" horiz-adv-x="334" d="M277 -243q0 -30 -13.5 -42t-43.5 -12q-16 0 -35 3.5t-37 11t-33.5 18t-23.5 22.5q-5 8 -9 48.5t-6 100t-4 134t-2.5 150t-0.5 146.5v125v100q0 13 0.5 26t5 22.5t14.5 16t28 6.5q57 0 84 -31.5t33 -85.5q6 -79 9.5 -157.5t6.5 -159.5q3 -73 4 -143q2 -72 9 -142 q1 -14 2 -27t4 -26q3 -26 5.5 -51.5t2.5 -52.5zM346 910q0 -44 -11 -81.5t-34 -65t-57.5 -43t-79.5 -15.5q-55 0 -89.5 22t-54 57t-26.5 79.5t-7 88.5q0 9 0.5 20.5t4.5 22.5t11 19t20 8t29 -8q29 -12 38.5 -34t13.5 -48t6 -53t15 -49q13 -26 36 -26q17 0 28 9.5t17 23 t8 29.5t2 29q0 31 -5.5 60t-12.5 57q-3 4 -3 7v6q0 21 19 26t33 5q42 0 62.5 -11t28.5 -54q8 -39 8 -81z" />
</font>
</defs>
</svg>
