<?xml version="1.0" encoding="utf-8"?>
<!-- Generator: Adobe Illustrator 16.0.3, SVG Export Plug-In . SVG Version: 6.00 Build 0)  -->
<!DOCTYPE svg PUBLIC "-//W3C//DTD SVG 1.1//EN" "http://www.w3.org/Graphics/SVG/1.1/DTD/svg11.dtd">
<svg version="1.1" id="Layer_1" xmlns="http://www.w3.org/2000/svg" xmlns:xlink="http://www.w3.org/1999/xlink" x="0px" y="0px"
	 width="127.25px" height="78.75px" viewBox="0 0 127.25 78.75" enable-background="new 0 0 127.25 78.75" xml:space="preserve">
<path d="M124.875,38.244C123.767,36.682,97.349,0,63.524,0C29.699,0,3.281,36.682,2.173,38.244L0,41.306l2.335,2.94
	c1.108,1.396,27.53,34.179,61.188,34.179s60.08-32.783,61.188-34.179l2.336-2.94L124.875,38.244z M80.15,22.666
	c0,4.535-3.676,8.211-8.211,8.211c-4.534,0-8.21-3.676-8.21-8.211c0-4.535,3.676-8.21,8.21-8.21
	C76.474,14.455,80.15,18.131,80.15,22.666z M63.524,68.425c-23.384,0-43.823-19.854-50.804-27.473
	c4.137-5.084,13.33-15.384,25.15-22.705c-3.095,4.716-4.901,10.355-4.901,16.418c0,16.552,13.418,29.971,29.97,29.971
	s29.97-13.419,29.97-29.971c0-6.581-2.127-12.662-5.723-17.606c12.777,7.352,22.775,18.529,27.141,23.893
	C107.344,48.575,86.906,68.425,63.524,68.425z"/>
</svg>
