<?xml version="1.0" encoding="utf-8"?>
<!-- Generator: Adobe Illustrator 16.0.3, SVG Export Plug-In . SVG Version: 6.00 Build 0)  -->
<!DOCTYPE svg PUBLIC "-//W3C//DTD SVG 1.1//EN" "http://www.w3.org/Graphics/SVG/1.1/DTD/svg11.dtd">
<svg version="1.1" xmlns="http://www.w3.org/2000/svg" xmlns:xlink="http://www.w3.org/1999/xlink" x="0px" y="0px"
	 width="119.613px" height="120.452px" viewBox="0 0 119.613 120.452" enable-background="new 0 0 119.613 120.452"
	 xml:space="preserve">
<path d="M89.916,74.793c4.604-7.407,6.911-15.518,6.911-24.329c0-12.814-4.812-23.979-14.422-33.492
	C72.794,7.46,61.581,2.704,48.763,2.704c-12.818,0-23.729,4.558-32.739,13.666C7.013,25.484,2.505,36.447,2.505,49.262
	c0,12.818,4.756,23.98,14.269,33.492c9.512,9.513,20.674,14.272,33.492,14.272c8.208,0,16.019-2.106,23.429-6.312l25.822,25.576
	c3.201,3.208,6.604,3.208,10.21,0l6.911-6.904c2.405-2.803,2.105-5.906-0.9-9.31L89.916,74.793z M26.087,26.583
	c6.305-6.308,13.865-9.46,22.676-9.46s16.619,3.354,23.432,10.063c6.807,6.709,10.21,14.516,10.21,23.429s-3.155,16.518-9.46,22.83
	c-6.308,6.305-13.871,9.46-22.679,9.46c-8.812,0-16.622-3.403-23.429-10.21c-6.81-6.811-10.213-14.621-10.213-23.432
	C16.624,40.453,19.779,32.89,26.087,26.583z"/>
</svg>